%TF.GenerationSoftware,KiCad,Pcbnew,4.0.6*%
%TF.CreationDate,2018-07-23T17:28:08+01:00*%
%TF.ProjectId,SolderChallenge,536F6C6465724368616C6C656E67652E,rev?*%
%TF.FileFunction,Legend,Bot*%
%FSLAX46Y46*%
G04 Gerber Fmt 4.6, Leading zero omitted, Abs format (unit mm)*
G04 Created by KiCad (PCBNEW 4.0.6) date 07/23/18 17:28:08*
%MOMM*%
%LPD*%
G01*
G04 APERTURE LIST*
%ADD10C,0.100000*%
%ADD11R,2.000000X2.000000*%
%ADD12O,2.000000X2.000000*%
%ADD13C,1.800000*%
%ADD14O,1.800000X1.800000*%
%ADD15C,2.000000*%
%ADD16R,2.200000X2.200000*%
%ADD17C,2.200000*%
%ADD18R,2.600000X2.600000*%
%ADD19O,2.600000X2.600000*%
%ADD20C,1.920000*%
%ADD21R,1.920000X1.920000*%
%ADD22C,1.000000*%
G04 APERTURE END LIST*
D10*
%LPC*%
D11*
X16700000Y46200000D03*
D12*
X9080000Y53820000D03*
X16700000Y48740000D03*
X9080000Y51280000D03*
X16700000Y51280000D03*
X9080000Y48740000D03*
X16700000Y53820000D03*
X9080000Y46200000D03*
D13*
X6000000Y47420000D03*
D14*
X6000000Y52500000D03*
D13*
X3500000Y47420000D03*
D14*
X3500000Y52500000D03*
D13*
X28250000Y66550000D03*
D14*
X28250000Y61470000D03*
D15*
X48000000Y72500000D03*
D12*
X40380000Y72500000D03*
D15*
X48000000Y76500000D03*
D12*
X40380000Y76500000D03*
D15*
X26380000Y72500000D03*
D12*
X34000000Y72500000D03*
D15*
X26380000Y76500000D03*
D12*
X34000000Y76500000D03*
D15*
X26380000Y80500000D03*
D12*
X34000000Y80500000D03*
D16*
X44250000Y62750000D03*
D17*
X44250000Y65290000D03*
D16*
X44250000Y82000000D03*
D17*
X44250000Y84540000D03*
D18*
X26380000Y84500000D03*
D19*
X34000000Y84500000D03*
D11*
X21500000Y48500000D03*
D15*
X21500000Y46500000D03*
D20*
X35750000Y64000000D03*
X35750000Y61460000D03*
D21*
X35750000Y66540000D03*
D22*
X27750000Y19250000D03*
X33500000Y16250000D03*
X13750000Y20750000D03*
X7250000Y27750000D03*
X7250000Y34000000D03*
X37250000Y31250000D03*
X22500000Y16500000D03*
X15250000Y13750000D03*
X13750000Y28750000D03*
X22000000Y31250000D03*
X38000000Y46750000D03*
X44250000Y53750000D03*
X26000000Y51250000D03*
X24000000Y51250000D03*
M02*
