%TF.GenerationSoftware,KiCad,Pcbnew,(6.0.0-rc1-dev-318-g6fdc5972f)*%
%TF.CreationDate,2018-11-08T11:48:15+00:00*%
%TF.ProjectId,SolderChallenge,536F6C6465724368616C6C656E67652E,rev?*%
%TF.SameCoordinates,PX2faf080PY8f0d180*%
%TF.FileFunction,Legend,Bot*%
%TF.FilePolarity,Positive*%
%FSLAX46Y46*%
G04 Gerber Fmt 4.6, Leading zero omitted, Abs format (unit mm)*
G04 Created by KiCad (PCBNEW (6.0.0-rc1-dev-318-g6fdc5972f)) date 11/08/18 11:48:15*
%MOMM*%
%LPD*%
G01*
G04 APERTURE LIST*
%ADD10C,0.150000*%
%ADD11C,0.200000*%
%ADD12C,0.010000*%
%ADD13O,2.000000X2.000000*%
%ADD14C,2.000000*%
%ADD15R,2.600000X2.600000*%
%ADD16O,2.600000X2.600000*%
%ADD17C,2.200000*%
%ADD18R,2.200000X2.200000*%
%ADD19R,2.000000X2.000000*%
%ADD20C,1.800000*%
%ADD21O,1.800000X1.800000*%
%ADD22C,1.920000*%
%ADD23R,1.920000X1.920000*%
%ADD24C,1.000000*%
G04 APERTURE END LIST*
D10*
X39761904Y60304762D02*
X40333333Y60304762D01*
X40447619Y60266667D01*
X40523809Y60190477D01*
X40561904Y60076191D01*
X40561904Y60000000D01*
X40561904Y61066667D02*
X40561904Y60685715D01*
X39761904Y60685715D01*
X40485714Y61790477D02*
X40523809Y61752381D01*
X40561904Y61638096D01*
X40561904Y61561905D01*
X40523809Y61447620D01*
X40447619Y61371429D01*
X40371428Y61333334D01*
X40219047Y61295239D01*
X40104761Y61295239D01*
X39952380Y61333334D01*
X39876190Y61371429D01*
X39800000Y61447620D01*
X39761904Y61561905D01*
X39761904Y61638096D01*
X39800000Y61752381D01*
X39838095Y61790477D01*
X39761904Y62361905D02*
X40333333Y62361905D01*
X40447619Y62323810D01*
X40523809Y62247620D01*
X40561904Y62133334D01*
X40561904Y62057143D01*
X40561904Y63123810D02*
X40561904Y62742858D01*
X39761904Y62742858D01*
X40485714Y63847620D02*
X40523809Y63809524D01*
X40561904Y63695239D01*
X40561904Y63619048D01*
X40523809Y63504762D01*
X40447619Y63428572D01*
X40371428Y63390477D01*
X40219047Y63352381D01*
X40104761Y63352381D01*
X39952380Y63390477D01*
X39876190Y63428572D01*
X39800000Y63504762D01*
X39761904Y63619048D01*
X39761904Y63695239D01*
X39800000Y63809524D01*
X39838095Y63847620D01*
X39761904Y64419048D02*
X40333333Y64419048D01*
X40447619Y64380953D01*
X40523809Y64304762D01*
X40561904Y64190477D01*
X40561904Y64114286D01*
X40561904Y65180953D02*
X40561904Y64800000D01*
X39761904Y64800000D01*
X40485714Y65904762D02*
X40523809Y65866667D01*
X40561904Y65752381D01*
X40561904Y65676191D01*
X40523809Y65561905D01*
X40447619Y65485715D01*
X40371428Y65447620D01*
X40219047Y65409524D01*
X40104761Y65409524D01*
X39952380Y65447620D01*
X39876190Y65485715D01*
X39800000Y65561905D01*
X39761904Y65676191D01*
X39761904Y65752381D01*
X39800000Y65866667D01*
X39838095Y65904762D01*
X39761904Y66476191D02*
X40333333Y66476191D01*
X40447619Y66438096D01*
X40523809Y66361905D01*
X40561904Y66247620D01*
X40561904Y66171429D01*
X40561904Y67238096D02*
X40561904Y66857143D01*
X39761904Y66857143D01*
X40485714Y67961905D02*
X40523809Y67923810D01*
X40561904Y67809524D01*
X40561904Y67733334D01*
X40523809Y67619048D01*
X40447619Y67542858D01*
X40371428Y67504762D01*
X40219047Y67466667D01*
X40104761Y67466667D01*
X39952380Y67504762D01*
X39876190Y67542858D01*
X39800000Y67619048D01*
X39761904Y67733334D01*
X39761904Y67809524D01*
X39800000Y67923810D01*
X39838095Y67961905D01*
D11*
X30700000Y95257143D02*
X30700000Y96457143D01*
X29614285Y95257143D02*
X29614285Y95885715D01*
X29671428Y96000000D01*
X29785714Y96057143D01*
X30014285Y96057143D01*
X30128571Y96000000D01*
X29614285Y95314286D02*
X29728571Y95257143D01*
X30014285Y95257143D01*
X30128571Y95314286D01*
X30185714Y95428572D01*
X30185714Y95542858D01*
X30128571Y95657143D01*
X30014285Y95714286D01*
X29728571Y95714286D01*
X29614285Y95771429D01*
X29042857Y95257143D02*
X29042857Y96057143D01*
X29042857Y96457143D02*
X29100000Y96400000D01*
X29042857Y96342858D01*
X28985714Y96400000D01*
X29042857Y96457143D01*
X29042857Y96342858D01*
X28471428Y96057143D02*
X28471428Y95257143D01*
X28471428Y95942858D02*
X28414285Y96000000D01*
X28300000Y96057143D01*
X28128571Y96057143D01*
X28014285Y96000000D01*
X27957142Y95885715D01*
X27957142Y95257143D01*
X25785714Y95371429D02*
X25842857Y95314286D01*
X26014285Y95257143D01*
X26128571Y95257143D01*
X26300000Y95314286D01*
X26414285Y95428572D01*
X26471428Y95542858D01*
X26528571Y95771429D01*
X26528571Y95942858D01*
X26471428Y96171429D01*
X26414285Y96285715D01*
X26300000Y96400000D01*
X26128571Y96457143D01*
X26014285Y96457143D01*
X25842857Y96400000D01*
X25785714Y96342858D01*
X25271428Y95257143D02*
X25271428Y96457143D01*
X24757142Y95257143D02*
X24757142Y95885715D01*
X24814285Y96000000D01*
X24928571Y96057143D01*
X25100000Y96057143D01*
X25214285Y96000000D01*
X25271428Y95942858D01*
X23671428Y95257143D02*
X23671428Y95885715D01*
X23728571Y96000000D01*
X23842857Y96057143D01*
X24071428Y96057143D01*
X24185714Y96000000D01*
X23671428Y95314286D02*
X23785714Y95257143D01*
X24071428Y95257143D01*
X24185714Y95314286D01*
X24242857Y95428572D01*
X24242857Y95542858D01*
X24185714Y95657143D01*
X24071428Y95714286D01*
X23785714Y95714286D01*
X23671428Y95771429D01*
X22928571Y95257143D02*
X23042857Y95314286D01*
X23100000Y95428572D01*
X23100000Y96457143D01*
X22471428Y95257143D02*
X22471428Y96057143D01*
X22471428Y95942858D02*
X22414285Y96000000D01*
X22300000Y96057143D01*
X22128571Y96057143D01*
X22014285Y96000000D01*
X21957142Y95885715D01*
X21957142Y95257143D01*
X21957142Y95885715D02*
X21900000Y96000000D01*
X21785714Y96057143D01*
X21614285Y96057143D01*
X21500000Y96000000D01*
X21442857Y95885715D01*
X21442857Y95257143D01*
X20414285Y95314286D02*
X20528571Y95257143D01*
X20757142Y95257143D01*
X20871428Y95314286D01*
X20928571Y95428572D01*
X20928571Y95885715D01*
X20871428Y96000000D01*
X20757142Y96057143D01*
X20528571Y96057143D01*
X20414285Y96000000D01*
X20357142Y95885715D01*
X20357142Y95771429D01*
X20928571Y95657143D01*
X19842857Y95257143D02*
X19842857Y96057143D01*
X19842857Y95828572D02*
X19785714Y95942858D01*
X19728571Y96000000D01*
X19614285Y96057143D01*
X19500000Y96057143D01*
X19157142Y95314286D02*
X19042857Y95257143D01*
X18814285Y95257143D01*
X18700000Y95314286D01*
X18642857Y95428572D01*
X18642857Y95485715D01*
X18700000Y95600000D01*
X18814285Y95657143D01*
X18985714Y95657143D01*
X19100000Y95714286D01*
X19157142Y95828572D01*
X19157142Y95885715D01*
X19100000Y96000000D01*
X18985714Y96057143D01*
X18814285Y96057143D01*
X18700000Y96000000D01*
X26528571Y94457143D02*
X26128571Y93257143D01*
X25728571Y94457143D01*
X25100000Y94457143D02*
X24985714Y94457143D01*
X24871428Y94400000D01*
X24814285Y94342858D01*
X24757142Y94228572D01*
X24700000Y94000000D01*
X24700000Y93714286D01*
X24757142Y93485715D01*
X24814285Y93371429D01*
X24871428Y93314286D01*
X24985714Y93257143D01*
X25100000Y93257143D01*
X25214285Y93314286D01*
X25271428Y93371429D01*
X25328571Y93485715D01*
X25385714Y93714286D01*
X25385714Y94000000D01*
X25328571Y94228572D01*
X25271428Y94342858D01*
X25214285Y94400000D01*
X25100000Y94457143D01*
X24185714Y93371429D02*
X24128571Y93314286D01*
X24185714Y93257143D01*
X24242857Y93314286D01*
X24185714Y93371429D01*
X24185714Y93257143D01*
X23671428Y94342858D02*
X23614285Y94400000D01*
X23500000Y94457143D01*
X23214285Y94457143D01*
X23100000Y94400000D01*
X23042857Y94342858D01*
X22985714Y94228572D01*
X22985714Y94114286D01*
X23042857Y93942858D01*
X23728571Y93257143D01*
X22985714Y93257143D01*
X46585714Y91257143D02*
X46585714Y92457143D01*
X46071428Y91257143D02*
X46071428Y91885715D01*
X46128571Y92000000D01*
X46242857Y92057143D01*
X46414285Y92057143D01*
X46528571Y92000000D01*
X46585714Y91942858D01*
X45671428Y92057143D02*
X45214285Y92057143D01*
X45500000Y92457143D02*
X45500000Y91428572D01*
X45442857Y91314286D01*
X45328571Y91257143D01*
X45214285Y91257143D01*
X44985714Y92057143D02*
X44528571Y92057143D01*
X44814285Y92457143D02*
X44814285Y91428572D01*
X44757142Y91314286D01*
X44642857Y91257143D01*
X44528571Y91257143D01*
X44128571Y92057143D02*
X44128571Y90857143D01*
X44128571Y92000000D02*
X44014285Y92057143D01*
X43785714Y92057143D01*
X43671428Y92000000D01*
X43614285Y91942858D01*
X43557142Y91828572D01*
X43557142Y91485715D01*
X43614285Y91371429D01*
X43671428Y91314286D01*
X43785714Y91257143D01*
X44014285Y91257143D01*
X44128571Y91314286D01*
X43100000Y91314286D02*
X42985714Y91257143D01*
X42757142Y91257143D01*
X42642857Y91314286D01*
X42585714Y91428572D01*
X42585714Y91485715D01*
X42642857Y91600000D01*
X42757142Y91657143D01*
X42928571Y91657143D01*
X43042857Y91714286D01*
X43100000Y91828572D01*
X43100000Y91885715D01*
X43042857Y92000000D01*
X42928571Y92057143D01*
X42757142Y92057143D01*
X42642857Y92000000D01*
X42071428Y91371429D02*
X42014285Y91314286D01*
X42071428Y91257143D01*
X42128571Y91314286D01*
X42071428Y91371429D01*
X42071428Y91257143D01*
X42071428Y92000000D02*
X42014285Y91942858D01*
X42071428Y91885715D01*
X42128571Y91942858D01*
X42071428Y92000000D01*
X42071428Y91885715D01*
X40642857Y92514286D02*
X41671428Y90971429D01*
X39385714Y92514286D02*
X40414285Y90971429D01*
X38471428Y92057143D02*
X38471428Y91085715D01*
X38528571Y90971429D01*
X38585714Y90914286D01*
X38700000Y90857143D01*
X38871428Y90857143D01*
X38985714Y90914286D01*
X38471428Y91314286D02*
X38585714Y91257143D01*
X38814285Y91257143D01*
X38928571Y91314286D01*
X38985714Y91371429D01*
X39042857Y91485715D01*
X39042857Y91828572D01*
X38985714Y91942858D01*
X38928571Y92000000D01*
X38814285Y92057143D01*
X38585714Y92057143D01*
X38471428Y92000000D01*
X37900000Y91257143D02*
X37900000Y92057143D01*
X37900000Y92457143D02*
X37957142Y92400000D01*
X37900000Y92342858D01*
X37842857Y92400000D01*
X37900000Y92457143D01*
X37900000Y92342858D01*
X37500000Y92057143D02*
X37042857Y92057143D01*
X37328571Y92457143D02*
X37328571Y91428572D01*
X37271428Y91314286D01*
X37157142Y91257143D01*
X37042857Y91257143D01*
X36642857Y91257143D02*
X36642857Y92457143D01*
X36128571Y91257143D02*
X36128571Y91885715D01*
X36185714Y92000000D01*
X36300000Y92057143D01*
X36471428Y92057143D01*
X36585714Y92000000D01*
X36642857Y91942858D01*
X35042857Y92057143D02*
X35042857Y91257143D01*
X35557142Y92057143D02*
X35557142Y91428572D01*
X35500000Y91314286D01*
X35385714Y91257143D01*
X35214285Y91257143D01*
X35100000Y91314286D01*
X35042857Y91371429D01*
X34471428Y91257143D02*
X34471428Y92457143D01*
X34471428Y92000000D02*
X34357142Y92057143D01*
X34128571Y92057143D01*
X34014285Y92000000D01*
X33957142Y91942858D01*
X33900000Y91828572D01*
X33900000Y91485715D01*
X33957142Y91371429D01*
X34014285Y91314286D01*
X34128571Y91257143D01*
X34357142Y91257143D01*
X34471428Y91314286D01*
X33385714Y91371429D02*
X33328571Y91314286D01*
X33385714Y91257143D01*
X33442857Y91314286D01*
X33385714Y91371429D01*
X33385714Y91257143D01*
X32300000Y91314286D02*
X32414285Y91257143D01*
X32642857Y91257143D01*
X32757142Y91314286D01*
X32814285Y91371429D01*
X32871428Y91485715D01*
X32871428Y91828572D01*
X32814285Y91942858D01*
X32757142Y92000000D01*
X32642857Y92057143D01*
X32414285Y92057143D01*
X32300000Y92000000D01*
X31614285Y91257143D02*
X31728571Y91314286D01*
X31785714Y91371429D01*
X31842857Y91485715D01*
X31842857Y91828572D01*
X31785714Y91942858D01*
X31728571Y92000000D01*
X31614285Y92057143D01*
X31442857Y92057143D01*
X31328571Y92000000D01*
X31271428Y91942858D01*
X31214285Y91828572D01*
X31214285Y91485715D01*
X31271428Y91371429D01*
X31328571Y91314286D01*
X31442857Y91257143D01*
X31614285Y91257143D01*
X30700000Y91257143D02*
X30700000Y92057143D01*
X30700000Y91942858D02*
X30642857Y92000000D01*
X30528571Y92057143D01*
X30357142Y92057143D01*
X30242857Y92000000D01*
X30185714Y91885715D01*
X30185714Y91257143D01*
X30185714Y91885715D02*
X30128571Y92000000D01*
X30014285Y92057143D01*
X29842857Y92057143D01*
X29728571Y92000000D01*
X29671428Y91885715D01*
X29671428Y91257143D01*
X28242857Y92514286D02*
X29271428Y90971429D01*
X27842857Y91257143D02*
X27842857Y92057143D01*
X27842857Y92457143D02*
X27900000Y92400000D01*
X27842857Y92342858D01*
X27785714Y92400000D01*
X27842857Y92457143D01*
X27842857Y92342858D01*
X26757142Y91314286D02*
X26871428Y91257143D01*
X27100000Y91257143D01*
X27214285Y91314286D01*
X27271428Y91371429D01*
X27328571Y91485715D01*
X27328571Y91828572D01*
X27271428Y91942858D01*
X27214285Y92000000D01*
X27100000Y92057143D01*
X26871428Y92057143D01*
X26757142Y92000000D01*
X25728571Y91314286D02*
X25842857Y91257143D01*
X26071428Y91257143D01*
X26185714Y91314286D01*
X26242857Y91371429D01*
X26300000Y91485715D01*
X26300000Y91828572D01*
X26242857Y91942858D01*
X26185714Y92000000D01*
X26071428Y92057143D01*
X25842857Y92057143D01*
X25728571Y92000000D01*
X25214285Y91257143D02*
X25214285Y92457143D01*
X24700000Y91257143D02*
X24700000Y91885715D01*
X24757142Y92000000D01*
X24871428Y92057143D01*
X25042857Y92057143D01*
X25157142Y92000000D01*
X25214285Y91942858D01*
X23614285Y91257143D02*
X23614285Y91885715D01*
X23671428Y92000000D01*
X23785714Y92057143D01*
X24014285Y92057143D01*
X24128571Y92000000D01*
X23614285Y91314286D02*
X23728571Y91257143D01*
X24014285Y91257143D01*
X24128571Y91314286D01*
X24185714Y91428572D01*
X24185714Y91542858D01*
X24128571Y91657143D01*
X24014285Y91714286D01*
X23728571Y91714286D01*
X23614285Y91771429D01*
X22871428Y91257143D02*
X22985714Y91314286D01*
X23042857Y91428572D01*
X23042857Y92457143D01*
X22414285Y91257143D02*
X22414285Y92057143D01*
X22414285Y91942858D02*
X22357142Y92000000D01*
X22242857Y92057143D01*
X22071428Y92057143D01*
X21957142Y92000000D01*
X21900000Y91885715D01*
X21900000Y91257143D01*
X21900000Y91885715D02*
X21842857Y92000000D01*
X21728571Y92057143D01*
X21557142Y92057143D01*
X21442857Y92000000D01*
X21385714Y91885715D01*
X21385714Y91257143D01*
X20357142Y91314286D02*
X20471428Y91257143D01*
X20700000Y91257143D01*
X20814285Y91314286D01*
X20871428Y91428572D01*
X20871428Y91885715D01*
X20814285Y92000000D01*
X20700000Y92057143D01*
X20471428Y92057143D01*
X20357142Y92000000D01*
X20300000Y91885715D01*
X20300000Y91771429D01*
X20871428Y91657143D01*
X19785714Y91257143D02*
X19785714Y92057143D01*
X19785714Y91828572D02*
X19728571Y91942858D01*
X19671428Y92000000D01*
X19557142Y92057143D01*
X19442857Y92057143D01*
X19100000Y91314286D02*
X18985714Y91257143D01*
X18757142Y91257143D01*
X18642857Y91314286D01*
X18585714Y91428572D01*
X18585714Y91485715D01*
X18642857Y91600000D01*
X18757142Y91657143D01*
X18928571Y91657143D01*
X19042857Y91714286D01*
X19100000Y91828572D01*
X19100000Y91885715D01*
X19042857Y92000000D01*
X18928571Y92057143D01*
X18757142Y92057143D01*
X18642857Y92000000D01*
X17214285Y92514286D02*
X18242857Y90971429D01*
X16871428Y91314286D02*
X16699999Y91257143D01*
X16414285Y91257143D01*
X16299999Y91314286D01*
X16242857Y91371429D01*
X16185714Y91485715D01*
X16185714Y91600000D01*
X16242857Y91714286D01*
X16299999Y91771429D01*
X16414285Y91828572D01*
X16642857Y91885715D01*
X16757142Y91942858D01*
X16814285Y92000000D01*
X16871428Y92114286D01*
X16871428Y92228572D01*
X16814285Y92342858D01*
X16757142Y92400000D01*
X16642857Y92457143D01*
X16357142Y92457143D01*
X16185714Y92400000D01*
X15499999Y91257143D02*
X15614285Y91314286D01*
X15671428Y91371429D01*
X15728571Y91485715D01*
X15728571Y91828572D01*
X15671428Y91942858D01*
X15614285Y92000000D01*
X15499999Y92057143D01*
X15328571Y92057143D01*
X15214285Y92000000D01*
X15157142Y91942858D01*
X15099999Y91828572D01*
X15099999Y91485715D01*
X15157142Y91371429D01*
X15214285Y91314286D01*
X15328571Y91257143D01*
X15499999Y91257143D01*
X14414285Y91257143D02*
X14528571Y91314286D01*
X14585714Y91428572D01*
X14585714Y92457143D01*
X13442857Y91257143D02*
X13442857Y92457143D01*
X13442857Y91314286D02*
X13557142Y91257143D01*
X13785714Y91257143D01*
X13899999Y91314286D01*
X13957142Y91371429D01*
X14014285Y91485715D01*
X14014285Y91828572D01*
X13957142Y91942858D01*
X13899999Y92000000D01*
X13785714Y92057143D01*
X13557142Y92057143D01*
X13442857Y92000000D01*
X12414285Y91314286D02*
X12528571Y91257143D01*
X12757142Y91257143D01*
X12871428Y91314286D01*
X12928571Y91428572D01*
X12928571Y91885715D01*
X12871428Y92000000D01*
X12757142Y92057143D01*
X12528571Y92057143D01*
X12414285Y92000000D01*
X12357142Y91885715D01*
X12357142Y91771429D01*
X12928571Y91657143D01*
X11842857Y91257143D02*
X11842857Y92057143D01*
X11842857Y91828572D02*
X11785714Y91942858D01*
X11728571Y92000000D01*
X11614285Y92057143D01*
X11499999Y92057143D01*
X10414285Y91371429D02*
X10471428Y91314286D01*
X10642857Y91257143D01*
X10757142Y91257143D01*
X10928571Y91314286D01*
X11042857Y91428572D01*
X11099999Y91542858D01*
X11157142Y91771429D01*
X11157142Y91942858D01*
X11099999Y92171429D01*
X11042857Y92285715D01*
X10928571Y92400000D01*
X10757142Y92457143D01*
X10642857Y92457143D01*
X10471428Y92400000D01*
X10414285Y92342858D01*
X9899999Y91257143D02*
X9899999Y92457143D01*
X9385714Y91257143D02*
X9385714Y91885715D01*
X9442857Y92000000D01*
X9557142Y92057143D01*
X9728571Y92057143D01*
X9842857Y92000000D01*
X9899999Y91942858D01*
X8299999Y91257143D02*
X8299999Y91885715D01*
X8357142Y92000000D01*
X8471428Y92057143D01*
X8699999Y92057143D01*
X8814285Y92000000D01*
X8299999Y91314286D02*
X8414285Y91257143D01*
X8699999Y91257143D01*
X8814285Y91314286D01*
X8871428Y91428572D01*
X8871428Y91542858D01*
X8814285Y91657143D01*
X8699999Y91714286D01*
X8414285Y91714286D01*
X8299999Y91771429D01*
X7557142Y91257143D02*
X7671428Y91314286D01*
X7728571Y91428572D01*
X7728571Y92457143D01*
X6928571Y91257143D02*
X7042857Y91314286D01*
X7099999Y91428572D01*
X7099999Y92457143D01*
X6014285Y91314286D02*
X6128571Y91257143D01*
X6357142Y91257143D01*
X6471428Y91314286D01*
X6528571Y91428572D01*
X6528571Y91885715D01*
X6471428Y92000000D01*
X6357142Y92057143D01*
X6128571Y92057143D01*
X6014285Y92000000D01*
X5957142Y91885715D01*
X5957142Y91771429D01*
X6528571Y91657143D01*
X5442857Y92057143D02*
X5442857Y91257143D01*
X5442857Y91942858D02*
X5385714Y92000000D01*
X5271428Y92057143D01*
X5099999Y92057143D01*
X4985714Y92000000D01*
X4928571Y91885715D01*
X4928571Y91257143D01*
X3842857Y92057143D02*
X3842857Y91085715D01*
X3899999Y90971429D01*
X3957142Y90914286D01*
X4071428Y90857143D01*
X4242857Y90857143D01*
X4357142Y90914286D01*
X3842857Y91314286D02*
X3957142Y91257143D01*
X4185714Y91257143D01*
X4299999Y91314286D01*
X4357142Y91371429D01*
X4414285Y91485715D01*
X4414285Y91828572D01*
X4357142Y91942858D01*
X4299999Y92000000D01*
X4185714Y92057143D01*
X3957142Y92057143D01*
X3842857Y92000000D01*
X2814285Y91314286D02*
X2928571Y91257143D01*
X3157142Y91257143D01*
X3271428Y91314286D01*
X3328571Y91428572D01*
X3328571Y91885715D01*
X3271428Y92000000D01*
X3157142Y92057143D01*
X2928571Y92057143D01*
X2814285Y92000000D01*
X2757142Y91885715D01*
X2757142Y91771429D01*
X3328571Y91657143D01*
D12*
G36*
X44639034Y2351619D02*
X44839442Y2515508D01*
X44974381Y2686966D01*
X45102500Y2894194D01*
X45102500Y6541500D01*
X44988760Y6734971D01*
X44828652Y6937264D01*
X44619655Y7100393D01*
X44400595Y7198643D01*
X44345648Y7202217D01*
X44206764Y7205630D01*
X43984674Y7208883D01*
X43680106Y7211974D01*
X43293790Y7214900D01*
X42826456Y7217661D01*
X42278834Y7220255D01*
X41651654Y7222681D01*
X40945644Y7224937D01*
X40161536Y7227021D01*
X39300058Y7228933D01*
X38361940Y7230670D01*
X37347913Y7232232D01*
X36258705Y7233616D01*
X35095046Y7234821D01*
X33857667Y7235846D01*
X32547296Y7236689D01*
X31164664Y7237349D01*
X29710501Y7237823D01*
X28185535Y7238112D01*
X26590497Y7238213D01*
X25100279Y7238142D01*
X23536704Y7237953D01*
X22055741Y7237692D01*
X20655337Y7237355D01*
X19333437Y7236934D01*
X18087988Y7236424D01*
X16916935Y7235819D01*
X15818224Y7235113D01*
X14789801Y7234300D01*
X13829613Y7233373D01*
X12935604Y7232328D01*
X12105722Y7231157D01*
X11337911Y7229854D01*
X10630118Y7228415D01*
X9980289Y7226832D01*
X9386370Y7225100D01*
X8846306Y7223212D01*
X8358045Y7221164D01*
X7919530Y7218948D01*
X7528709Y7216558D01*
X7183527Y7213989D01*
X6881931Y7211235D01*
X6621866Y7208289D01*
X6401278Y7205146D01*
X6218114Y7201800D01*
X6070318Y7198244D01*
X5955838Y7194472D01*
X5872618Y7190479D01*
X5818605Y7186259D01*
X5791745Y7181805D01*
X5791135Y7181596D01*
X5535943Y7051030D01*
X5336475Y6858648D01*
X5256413Y6739817D01*
X5139833Y6541500D01*
X5139833Y2894194D01*
X5267952Y2686966D01*
X5431841Y2486558D01*
X5603299Y2351619D01*
X5810527Y2223500D01*
X44431806Y2223500D01*
X44639034Y2351619D01*
X44639034Y2351619D01*
G37*
X44639034Y2351619D02*
X44839442Y2515508D01*
X44974381Y2686966D01*
X45102500Y2894194D01*
X45102500Y6541500D01*
X44988760Y6734971D01*
X44828652Y6937264D01*
X44619655Y7100393D01*
X44400595Y7198643D01*
X44345648Y7202217D01*
X44206764Y7205630D01*
X43984674Y7208883D01*
X43680106Y7211974D01*
X43293790Y7214900D01*
X42826456Y7217661D01*
X42278834Y7220255D01*
X41651654Y7222681D01*
X40945644Y7224937D01*
X40161536Y7227021D01*
X39300058Y7228933D01*
X38361940Y7230670D01*
X37347913Y7232232D01*
X36258705Y7233616D01*
X35095046Y7234821D01*
X33857667Y7235846D01*
X32547296Y7236689D01*
X31164664Y7237349D01*
X29710501Y7237823D01*
X28185535Y7238112D01*
X26590497Y7238213D01*
X25100279Y7238142D01*
X23536704Y7237953D01*
X22055741Y7237692D01*
X20655337Y7237355D01*
X19333437Y7236934D01*
X18087988Y7236424D01*
X16916935Y7235819D01*
X15818224Y7235113D01*
X14789801Y7234300D01*
X13829613Y7233373D01*
X12935604Y7232328D01*
X12105722Y7231157D01*
X11337911Y7229854D01*
X10630118Y7228415D01*
X9980289Y7226832D01*
X9386370Y7225100D01*
X8846306Y7223212D01*
X8358045Y7221164D01*
X7919530Y7218948D01*
X7528709Y7216558D01*
X7183527Y7213989D01*
X6881931Y7211235D01*
X6621866Y7208289D01*
X6401278Y7205146D01*
X6218114Y7201800D01*
X6070318Y7198244D01*
X5955838Y7194472D01*
X5872618Y7190479D01*
X5818605Y7186259D01*
X5791745Y7181805D01*
X5791135Y7181596D01*
X5535943Y7051030D01*
X5336475Y6858648D01*
X5256413Y6739817D01*
X5139833Y6541500D01*
X5139833Y2894194D01*
X5267952Y2686966D01*
X5431841Y2486558D01*
X5603299Y2351619D01*
X5810527Y2223500D01*
X44431806Y2223500D01*
X44639034Y2351619D01*
%LPC*%
D13*
X39000000Y72500000D03*
D14*
X48000000Y72500000D03*
D13*
X39000000Y76500000D03*
D14*
X48000000Y76500000D03*
D13*
X35380000Y72500000D03*
D14*
X26380000Y72500000D03*
D13*
X35380000Y76500000D03*
D14*
X26380000Y76500000D03*
D13*
X35380000Y80500000D03*
D14*
X26380000Y80500000D03*
D15*
X34700000Y84500000D03*
D16*
X27080000Y84500000D03*
D17*
X44250000Y65290000D03*
D18*
X44250000Y62750000D03*
D14*
X21500000Y48500000D03*
X21500000Y43500000D03*
D19*
X16700000Y46200000D03*
D13*
X9080000Y53820000D03*
X16700000Y48740000D03*
X9080000Y51280000D03*
X16700000Y51280000D03*
X9080000Y48740000D03*
X16700000Y53820000D03*
X9080000Y46200000D03*
D20*
X6000000Y47420000D03*
D21*
X6000000Y52500000D03*
D20*
X3500000Y47420000D03*
D21*
X3500000Y52500000D03*
D20*
X28250000Y66550000D03*
D21*
X28250000Y61470000D03*
D18*
X44250000Y82000000D03*
D17*
X44250000Y84540000D03*
D22*
X35750000Y64000000D03*
X35750000Y61460000D03*
D23*
X35750000Y66540000D03*
D24*
X33500000Y16250000D03*
X13750000Y20750000D03*
X7250000Y27750000D03*
X7250000Y34000000D03*
X22500000Y16500000D03*
X15250000Y13750000D03*
X13750000Y28750000D03*
X22000000Y31250000D03*
X38000000Y46750000D03*
X37500000Y31700000D03*
X28200000Y19000000D03*
X44250000Y53750000D03*
X26000000Y51250000D03*
X24000000Y51250000D03*
M02*
