%TF.GenerationSoftware,KiCad,Pcbnew,(6.0.0-rc1-dev-318-g6fdc5972f)*%
%TF.CreationDate,2018-08-27T12:50:57+01:00*%
%TF.ProjectId,SolderChallenge,536F6C6465724368616C6C656E67652E,rev?*%
%TF.SameCoordinates,PX2faf080PY8f0d180*%
%TF.FileFunction,Soldermask,Bot*%
%TF.FilePolarity,Negative*%
%FSLAX46Y46*%
G04 Gerber Fmt 4.6, Leading zero omitted, Abs format (unit mm)*
G04 Created by KiCad (PCBNEW (6.0.0-rc1-dev-318-g6fdc5972f)) date 08/27/18 12:50:57*
%MOMM*%
%LPD*%
G01*
G04 APERTURE LIST*
%ADD10O,2.000000X2.000000*%
%ADD11C,2.000000*%
%ADD12R,2.600000X2.600000*%
%ADD13O,2.600000X2.600000*%
%ADD14C,2.200000*%
%ADD15R,2.200000X2.200000*%
%ADD16R,2.000000X2.000000*%
%ADD17C,1.800000*%
%ADD18O,1.800000X1.800000*%
%ADD19C,1.920000*%
%ADD20R,1.920000X1.920000*%
%ADD21C,1.000000*%
G04 APERTURE END LIST*
D10*
X39000000Y72500000D03*
D11*
X48000000Y72500000D03*
D10*
X39000000Y76500000D03*
D11*
X48000000Y76500000D03*
D10*
X35380000Y72500000D03*
D11*
X26380000Y72500000D03*
D10*
X35380000Y76500000D03*
D11*
X26380000Y76500000D03*
D10*
X35380000Y80500000D03*
D11*
X26380000Y80500000D03*
D12*
X34700000Y84500000D03*
D13*
X27080000Y84500000D03*
D14*
X44250000Y65290000D03*
D15*
X44250000Y62750000D03*
D11*
X21500000Y48500000D03*
X21500000Y43500000D03*
D16*
X16700000Y46200000D03*
D10*
X9080000Y53820000D03*
X16700000Y48740000D03*
X9080000Y51280000D03*
X16700000Y51280000D03*
X9080000Y48740000D03*
X16700000Y53820000D03*
X9080000Y46200000D03*
D17*
X6000000Y47420000D03*
D18*
X6000000Y52500000D03*
D17*
X3500000Y47420000D03*
D18*
X3500000Y52500000D03*
D17*
X28250000Y66550000D03*
D18*
X28250000Y61470000D03*
D15*
X44250000Y82000000D03*
D14*
X44250000Y84540000D03*
D19*
X35750000Y64000000D03*
X35750000Y61460000D03*
D20*
X35750000Y66540000D03*
D21*
X33500000Y16250000D03*
X13750000Y20750000D03*
X7250000Y27750000D03*
X7250000Y34000000D03*
X22500000Y16500000D03*
X15250000Y13750000D03*
X13750000Y28750000D03*
X22000000Y31250000D03*
X38000000Y46750000D03*
X37500000Y31700000D03*
X28200000Y19000000D03*
X44250000Y53750000D03*
X26000000Y51250000D03*
X24000000Y51250000D03*
M02*
