M48
;DRILL file {KiCad (5.0.0)} date 07/25/18 11:51:32
;FORMAT={3:3/ absolute / metric / suppress leading zeros}
FMAT,2
METRIC,TZ
T1C0.400
T2C0.700
T3C0.800
T4C0.900
T5C1.100
%
G90
G05
M71
T1
X7250Y34000
X7250Y27750
X13750Y28750
X13750Y20750
X15250Y13750
X22000Y31250
X22500Y16500
X24000Y51250
X26000Y51250
X27750Y19250
X33500Y16250
X37500Y31700
X38000Y46750
X44250Y53750
T2
X28250Y66550
X28250Y61470
X3500Y52500
X3500Y47420
X6000Y52500
X6000Y47420
T3
X26380Y80500
X34000Y80500
X9080Y53820
X9080Y51280
X9080Y48740
X9080Y46200
X16700Y53820
X16700Y51280
X16700Y48740
X16700Y46200
X26380Y76500
X34000Y76500
X40380Y76500
X48000Y76500
X21500Y48500
X21500Y43500
X26380Y72500
X34000Y72500
X40380Y72500
X48000Y72500
X35750Y66540
X35750Y64000
X35750Y61460
T4
X44250Y65290
X44250Y62750
X44250Y84540
X44250Y82000
T5
X26380Y84500
X34000Y84500
T0
M30
