%TF.GenerationSoftware,KiCad,Pcbnew,(6.0.0-rc1-dev-318-g6fdc5972f)*%
%TF.CreationDate,2018-11-08T11:48:15+00:00*%
%TF.ProjectId,SolderChallenge,536F6C6465724368616C6C656E67652E,rev?*%
%TF.SameCoordinates,PX2faf080PY8f0d180*%
%TF.FileFunction,Copper,L2,Bot,Signal*%
%TF.FilePolarity,Positive*%
%FSLAX46Y46*%
G04 Gerber Fmt 4.6, Leading zero omitted, Abs format (unit mm)*
G04 Created by KiCad (PCBNEW (6.0.0-rc1-dev-318-g6fdc5972f)) date 11/08/18 11:48:15*
%MOMM*%
%LPD*%
G01*
G04 APERTURE LIST*
%ADD10O,1.600000X1.600000*%
%ADD11C,1.600000*%
%ADD12R,2.200000X2.200000*%
%ADD13O,2.200000X2.200000*%
%ADD14C,1.800000*%
%ADD15R,1.800000X1.800000*%
%ADD16R,1.600000X1.600000*%
%ADD17C,1.400000*%
%ADD18O,1.400000X1.400000*%
%ADD19C,1.520000*%
%ADD20R,1.520000X1.520000*%
%ADD21C,0.600000*%
%ADD22C,0.250000*%
%ADD23C,0.200000*%
G04 APERTURE END LIST*
D10*
X39000000Y72500000D03*
D11*
X48000000Y72500000D03*
D10*
X39000000Y76500000D03*
D11*
X48000000Y76500000D03*
D10*
X35380000Y72500000D03*
D11*
X26380000Y72500000D03*
D10*
X35380000Y76500000D03*
D11*
X26380000Y76500000D03*
D10*
X35380000Y80500000D03*
D11*
X26380000Y80500000D03*
D12*
X34700000Y84500000D03*
D13*
X27080000Y84500000D03*
D14*
X44250000Y65290000D03*
D15*
X44250000Y62750000D03*
D11*
X21500000Y48500000D03*
X21500000Y43500000D03*
D16*
X16700000Y46200000D03*
D10*
X9080000Y53820000D03*
X16700000Y48740000D03*
X9080000Y51280000D03*
X16700000Y51280000D03*
X9080000Y48740000D03*
X16700000Y53820000D03*
X9080000Y46200000D03*
D17*
X6000000Y47420000D03*
D18*
X6000000Y52500000D03*
D17*
X3500000Y47420000D03*
D18*
X3500000Y52500000D03*
D17*
X28250000Y66550000D03*
D18*
X28250000Y61470000D03*
D15*
X44250000Y82000000D03*
D14*
X44250000Y84540000D03*
D19*
X35750000Y64000000D03*
X35750000Y61460000D03*
D20*
X35750000Y66540000D03*
D21*
X33500000Y16250000D03*
X13750000Y20750000D03*
X7250000Y27750000D03*
X7250000Y34000000D03*
X22500000Y16500000D03*
X15250000Y13750000D03*
X13750000Y28750000D03*
X22000000Y31250000D03*
X38000000Y46750000D03*
X37500000Y31700000D03*
X28200000Y19000000D03*
X44250000Y53750000D03*
X26000000Y51250000D03*
X24000000Y51250000D03*
D22*
X15250000Y13750000D02*
X15250000Y19250000D01*
X15250000Y19250000D02*
X13750000Y20750000D01*
X7250000Y34000000D02*
X7250000Y27750000D01*
X13750000Y28750000D02*
X12500000Y28750000D01*
X12500000Y28750000D02*
X7250000Y34000000D01*
X9080000Y51280000D02*
X11620000Y48740000D01*
X11620000Y48740000D02*
X16700000Y48740000D01*
X26380000Y76500000D02*
X34380000Y68500000D01*
X34380000Y68500000D02*
X41040000Y68500000D01*
X41040000Y68500000D02*
X44250000Y65290000D01*
X44230000Y65270000D02*
X44250000Y65270000D01*
X38750000Y53750000D02*
X44250000Y53750000D01*
X26380000Y66120000D02*
X38750000Y53750000D01*
X26380000Y72500000D02*
X26380000Y66120000D01*
X24000000Y51250000D02*
X26000000Y51250000D01*
D23*
G36*
X41943786Y99402159D02*
X43747212Y98844673D01*
X45377419Y97962009D01*
X46796672Y96791974D01*
X47966708Y95372718D01*
X48849369Y93742516D01*
X49406855Y91939091D01*
X49603321Y89978637D01*
X49603322Y10018635D01*
X49406855Y8058171D01*
X48849369Y6254744D01*
X47966706Y4624538D01*
X46796672Y3205282D01*
X45377418Y2035246D01*
X43747212Y1152581D01*
X41943786Y595093D01*
X39983324Y398626D01*
X10023317Y398626D01*
X8062863Y595092D01*
X6259431Y1152580D01*
X4629229Y2035243D01*
X3209975Y3205278D01*
X2039939Y4624532D01*
X1157275Y6254739D01*
X599788Y8058165D01*
X403321Y10018626D01*
X403321Y42771449D01*
X20771456Y42771449D01*
X20850312Y42605773D01*
X21037250Y42496207D01*
X21241972Y42425217D01*
X21456610Y42395530D01*
X21672915Y42408287D01*
X21882576Y42462998D01*
X22077534Y42557561D01*
X22149688Y42605773D01*
X22228544Y42771449D01*
X21500000Y43499993D01*
X20771456Y42771449D01*
X403321Y42771449D01*
X403321Y43543390D01*
X20395530Y43543390D01*
X20408287Y43327085D01*
X20462998Y43117424D01*
X20557561Y42922466D01*
X20605773Y42850312D01*
X20771449Y42771456D01*
X21499993Y43500000D01*
X21500007Y43500000D01*
X22228551Y42771456D01*
X22394227Y42850312D01*
X22503793Y43037250D01*
X22574783Y43241972D01*
X22604470Y43456610D01*
X22591713Y43672915D01*
X22537002Y43882576D01*
X22442439Y44077534D01*
X22394227Y44149688D01*
X22228551Y44228544D01*
X21500007Y43500000D01*
X21499993Y43500000D01*
X20771449Y44228544D01*
X20605773Y44149688D01*
X20496207Y43962750D01*
X20425217Y43758028D01*
X20395530Y43543390D01*
X403321Y43543390D01*
X403321Y44228551D01*
X20771456Y44228551D01*
X21500000Y43500007D01*
X22228544Y44228551D01*
X22149688Y44394227D01*
X21962750Y44503793D01*
X21758028Y44574783D01*
X21543390Y44604470D01*
X21327085Y44591713D01*
X21117424Y44537002D01*
X20922466Y44442439D01*
X20850312Y44394227D01*
X20771456Y44228551D01*
X403321Y44228551D01*
X403321Y46200000D01*
X7924436Y46200000D01*
X7946640Y45974561D01*
X8012398Y45757785D01*
X8119184Y45558003D01*
X8262893Y45382893D01*
X8438003Y45239184D01*
X8637785Y45132398D01*
X8854561Y45066640D01*
X9023508Y45050000D01*
X9136492Y45050000D01*
X9305439Y45066640D01*
X9522215Y45132398D01*
X9721997Y45239184D01*
X9897107Y45382893D01*
X10040816Y45558003D01*
X10147602Y45757785D01*
X10213360Y45974561D01*
X10228176Y46124995D01*
X15600000Y46124995D01*
X15600000Y45370452D01*
X15611529Y45312493D01*
X15634144Y45257896D01*
X15666975Y45208761D01*
X15708761Y45166975D01*
X15757897Y45134143D01*
X15812494Y45111529D01*
X15870453Y45100000D01*
X16624995Y45100000D01*
X16699995Y45175000D01*
X16699995Y46199995D01*
X16700005Y46199995D01*
X16700005Y45175000D01*
X16775005Y45100000D01*
X17529547Y45100000D01*
X17587506Y45111529D01*
X17642103Y45134143D01*
X17691239Y45166975D01*
X17733025Y45208761D01*
X17765856Y45257896D01*
X17788471Y45312493D01*
X17800000Y45370452D01*
X17800000Y46124995D01*
X17725000Y46199995D01*
X16700005Y46199995D01*
X16699995Y46199995D01*
X15675000Y46199995D01*
X15600000Y46124995D01*
X10228176Y46124995D01*
X10235564Y46200000D01*
X10213360Y46425439D01*
X10147602Y46642215D01*
X10040816Y46841997D01*
X9897107Y47017107D01*
X9881948Y47029548D01*
X15600000Y47029548D01*
X15600000Y46275005D01*
X15675000Y46200005D01*
X16699995Y46200005D01*
X16699995Y47225000D01*
X16700005Y47225000D01*
X16700005Y46200005D01*
X17725000Y46200005D01*
X17800000Y46275005D01*
X17800000Y47029548D01*
X17788471Y47087507D01*
X17765856Y47142104D01*
X17733025Y47191239D01*
X17691239Y47233025D01*
X17642103Y47265857D01*
X17587506Y47288471D01*
X17529547Y47300000D01*
X16775005Y47300000D01*
X16700005Y47225000D01*
X16699995Y47225000D01*
X16624995Y47300000D01*
X15870453Y47300000D01*
X15812494Y47288471D01*
X15757897Y47265857D01*
X15708761Y47233025D01*
X15666975Y47191239D01*
X15634144Y47142104D01*
X15611529Y47087507D01*
X15600000Y47029548D01*
X9881948Y47029548D01*
X9721997Y47160816D01*
X9522215Y47267602D01*
X9305439Y47333360D01*
X9136492Y47350000D01*
X9023508Y47350000D01*
X8854561Y47333360D01*
X8637785Y47267602D01*
X8438003Y47160816D01*
X8262893Y47017107D01*
X8119184Y46841997D01*
X8012398Y46642215D01*
X7946640Y46425439D01*
X7924436Y46200000D01*
X403321Y46200000D01*
X403321Y47523416D01*
X2450000Y47523416D01*
X2450000Y47316584D01*
X2490350Y47113726D01*
X2569502Y46922638D01*
X2684411Y46750664D01*
X2830664Y46604411D01*
X3002638Y46489502D01*
X3193726Y46410350D01*
X3396584Y46370000D01*
X3603416Y46370000D01*
X3806274Y46410350D01*
X3997362Y46489502D01*
X4169336Y46604411D01*
X4315589Y46750664D01*
X4430498Y46922638D01*
X4509650Y47113726D01*
X4550000Y47316584D01*
X4550000Y47523416D01*
X4950000Y47523416D01*
X4950000Y47316584D01*
X4990350Y47113726D01*
X5069502Y46922638D01*
X5184411Y46750664D01*
X5330664Y46604411D01*
X5502638Y46489502D01*
X5693726Y46410350D01*
X5896584Y46370000D01*
X6103416Y46370000D01*
X6306274Y46410350D01*
X6497362Y46489502D01*
X6669336Y46604411D01*
X6815589Y46750664D01*
X6930498Y46922638D01*
X7009650Y47113726D01*
X7050000Y47316584D01*
X7050000Y47523416D01*
X7009650Y47726274D01*
X6930498Y47917362D01*
X6815589Y48089336D01*
X6669336Y48235589D01*
X6497362Y48350498D01*
X6306274Y48429650D01*
X6103416Y48470000D01*
X5896584Y48470000D01*
X5693726Y48429650D01*
X5502638Y48350498D01*
X5330664Y48235589D01*
X5184411Y48089336D01*
X5069502Y47917362D01*
X4990350Y47726274D01*
X4950000Y47523416D01*
X4550000Y47523416D01*
X4509650Y47726274D01*
X4430498Y47917362D01*
X4315589Y48089336D01*
X4169336Y48235589D01*
X3997362Y48350498D01*
X3806274Y48429650D01*
X3603416Y48470000D01*
X3396584Y48470000D01*
X3193726Y48429650D01*
X3002638Y48350498D01*
X2830664Y48235589D01*
X2684411Y48089336D01*
X2569502Y47917362D01*
X2490350Y47726274D01*
X2450000Y47523416D01*
X403321Y47523416D01*
X403321Y48740000D01*
X7924436Y48740000D01*
X7946640Y48514561D01*
X8012398Y48297785D01*
X8119184Y48098003D01*
X8262893Y47922893D01*
X8438003Y47779184D01*
X8637785Y47672398D01*
X8854561Y47606640D01*
X9023508Y47590000D01*
X9136492Y47590000D01*
X9305439Y47606640D01*
X9522215Y47672398D01*
X9721997Y47779184D01*
X9897107Y47922893D01*
X10040816Y48098003D01*
X10147602Y48297785D01*
X10213360Y48514561D01*
X10235564Y48740000D01*
X10213360Y48965439D01*
X10147602Y49182215D01*
X10040816Y49381997D01*
X9897107Y49557107D01*
X9721997Y49700816D01*
X9522215Y49807602D01*
X9305439Y49873360D01*
X9136492Y49890000D01*
X9023508Y49890000D01*
X8854561Y49873360D01*
X8637785Y49807602D01*
X8438003Y49700816D01*
X8262893Y49557107D01*
X8119184Y49381997D01*
X8012398Y49182215D01*
X7946640Y48965439D01*
X7924436Y48740000D01*
X403321Y48740000D01*
X403321Y51280000D01*
X7924436Y51280000D01*
X7946640Y51054561D01*
X8012398Y50837785D01*
X8119184Y50638003D01*
X8262893Y50462893D01*
X8438003Y50319184D01*
X8637785Y50212398D01*
X8854561Y50146640D01*
X9023508Y50130000D01*
X9136492Y50130000D01*
X9305439Y50146640D01*
X9486642Y50201607D01*
X11267621Y48420628D01*
X11282499Y48402499D01*
X11354827Y48343141D01*
X11437346Y48299034D01*
X11526884Y48271873D01*
X11596668Y48265000D01*
X11596669Y48265000D01*
X11619999Y48262702D01*
X11643329Y48265000D01*
X15649922Y48265000D01*
X15739184Y48098003D01*
X15882893Y47922893D01*
X16058003Y47779184D01*
X16257785Y47672398D01*
X16474561Y47606640D01*
X16643508Y47590000D01*
X16756492Y47590000D01*
X16925439Y47606640D01*
X17142215Y47672398D01*
X17341997Y47779184D01*
X17517107Y47922893D01*
X17660816Y48098003D01*
X17767602Y48297785D01*
X17833360Y48514561D01*
X17843081Y48613265D01*
X20350000Y48613265D01*
X20350000Y48386735D01*
X20394194Y48164557D01*
X20480884Y47955271D01*
X20606737Y47766918D01*
X20766918Y47606737D01*
X20955271Y47480884D01*
X21164557Y47394194D01*
X21386735Y47350000D01*
X21613265Y47350000D01*
X21835443Y47394194D01*
X22044729Y47480884D01*
X22233082Y47606737D01*
X22393263Y47766918D01*
X22519116Y47955271D01*
X22605806Y48164557D01*
X22650000Y48386735D01*
X22650000Y48613265D01*
X22605806Y48835443D01*
X22519116Y49044729D01*
X22393263Y49233082D01*
X22233082Y49393263D01*
X22044729Y49519116D01*
X21835443Y49605806D01*
X21613265Y49650000D01*
X21386735Y49650000D01*
X21164557Y49605806D01*
X20955271Y49519116D01*
X20766918Y49393263D01*
X20606737Y49233082D01*
X20480884Y49044729D01*
X20394194Y48835443D01*
X20350000Y48613265D01*
X17843081Y48613265D01*
X17855564Y48740000D01*
X17833360Y48965439D01*
X17767602Y49182215D01*
X17660816Y49381997D01*
X17517107Y49557107D01*
X17341997Y49700816D01*
X17142215Y49807602D01*
X16925439Y49873360D01*
X16756492Y49890000D01*
X16643508Y49890000D01*
X16474561Y49873360D01*
X16257785Y49807602D01*
X16058003Y49700816D01*
X15882893Y49557107D01*
X15739184Y49381997D01*
X15649922Y49215000D01*
X11816751Y49215000D01*
X10158393Y50873358D01*
X10213360Y51054561D01*
X10235564Y51280000D01*
X15544436Y51280000D01*
X15566640Y51054561D01*
X15632398Y50837785D01*
X15739184Y50638003D01*
X15882893Y50462893D01*
X16058003Y50319184D01*
X16257785Y50212398D01*
X16474561Y50146640D01*
X16643508Y50130000D01*
X16756492Y50130000D01*
X16925439Y50146640D01*
X17142215Y50212398D01*
X17341997Y50319184D01*
X17517107Y50462893D01*
X17660816Y50638003D01*
X17767602Y50837785D01*
X17833360Y51054561D01*
X17855564Y51280000D01*
X17852214Y51314019D01*
X23350000Y51314019D01*
X23350000Y51185981D01*
X23374979Y51060402D01*
X23423978Y50942110D01*
X23495112Y50835649D01*
X23585649Y50745112D01*
X23692110Y50673978D01*
X23810402Y50624979D01*
X23935981Y50600000D01*
X24064019Y50600000D01*
X24189598Y50624979D01*
X24307890Y50673978D01*
X24414351Y50745112D01*
X24444239Y50775000D01*
X25555761Y50775000D01*
X25585649Y50745112D01*
X25692110Y50673978D01*
X25810402Y50624979D01*
X25935981Y50600000D01*
X26064019Y50600000D01*
X26189598Y50624979D01*
X26307890Y50673978D01*
X26414351Y50745112D01*
X26504888Y50835649D01*
X26576022Y50942110D01*
X26625021Y51060402D01*
X26650000Y51185981D01*
X26650000Y51314019D01*
X26625021Y51439598D01*
X26576022Y51557890D01*
X26504888Y51664351D01*
X26414351Y51754888D01*
X26307890Y51826022D01*
X26189598Y51875021D01*
X26064019Y51900000D01*
X25935981Y51900000D01*
X25810402Y51875021D01*
X25692110Y51826022D01*
X25585649Y51754888D01*
X25555761Y51725000D01*
X24444239Y51725000D01*
X24414351Y51754888D01*
X24307890Y51826022D01*
X24189598Y51875021D01*
X24064019Y51900000D01*
X23935981Y51900000D01*
X23810402Y51875021D01*
X23692110Y51826022D01*
X23585649Y51754888D01*
X23495112Y51664351D01*
X23423978Y51557890D01*
X23374979Y51439598D01*
X23350000Y51314019D01*
X17852214Y51314019D01*
X17833360Y51505439D01*
X17767602Y51722215D01*
X17660816Y51921997D01*
X17517107Y52097107D01*
X17341997Y52240816D01*
X17142215Y52347602D01*
X16925439Y52413360D01*
X16756492Y52430000D01*
X16643508Y52430000D01*
X16474561Y52413360D01*
X16257785Y52347602D01*
X16058003Y52240816D01*
X15882893Y52097107D01*
X15739184Y51921997D01*
X15632398Y51722215D01*
X15566640Y51505439D01*
X15544436Y51280000D01*
X10235564Y51280000D01*
X10213360Y51505439D01*
X10147602Y51722215D01*
X10040816Y51921997D01*
X9897107Y52097107D01*
X9721997Y52240816D01*
X9522215Y52347602D01*
X9305439Y52413360D01*
X9136492Y52430000D01*
X9023508Y52430000D01*
X8854561Y52413360D01*
X8637785Y52347602D01*
X8438003Y52240816D01*
X8262893Y52097107D01*
X8119184Y51921997D01*
X8012398Y51722215D01*
X7946640Y51505439D01*
X7924436Y51280000D01*
X403321Y51280000D01*
X403321Y52500000D01*
X2444920Y52500000D01*
X2465193Y52294164D01*
X2525233Y52096238D01*
X2622733Y51913829D01*
X2753946Y51753946D01*
X2913829Y51622733D01*
X3096238Y51525233D01*
X3294164Y51465193D01*
X3448422Y51450000D01*
X3551578Y51450000D01*
X3705836Y51465193D01*
X3903762Y51525233D01*
X4086171Y51622733D01*
X4246054Y51753946D01*
X4377267Y51913829D01*
X4474767Y52096238D01*
X4534807Y52294164D01*
X4555080Y52500000D01*
X4944920Y52500000D01*
X4965193Y52294164D01*
X5025233Y52096238D01*
X5122733Y51913829D01*
X5253946Y51753946D01*
X5413829Y51622733D01*
X5596238Y51525233D01*
X5794164Y51465193D01*
X5948422Y51450000D01*
X6051578Y51450000D01*
X6205836Y51465193D01*
X6403762Y51525233D01*
X6586171Y51622733D01*
X6746054Y51753946D01*
X6877267Y51913829D01*
X6974767Y52096238D01*
X7034807Y52294164D01*
X7055080Y52500000D01*
X7034807Y52705836D01*
X6974767Y52903762D01*
X6877267Y53086171D01*
X6746054Y53246054D01*
X6586171Y53377267D01*
X6403762Y53474767D01*
X6205836Y53534807D01*
X6051578Y53550000D01*
X5948422Y53550000D01*
X5794164Y53534807D01*
X5596238Y53474767D01*
X5413829Y53377267D01*
X5253946Y53246054D01*
X5122733Y53086171D01*
X5025233Y52903762D01*
X4965193Y52705836D01*
X4944920Y52500000D01*
X4555080Y52500000D01*
X4534807Y52705836D01*
X4474767Y52903762D01*
X4377267Y53086171D01*
X4246054Y53246054D01*
X4086171Y53377267D01*
X3903762Y53474767D01*
X3705836Y53534807D01*
X3551578Y53550000D01*
X3448422Y53550000D01*
X3294164Y53534807D01*
X3096238Y53474767D01*
X2913829Y53377267D01*
X2753946Y53246054D01*
X2622733Y53086171D01*
X2525233Y52903762D01*
X2465193Y52705836D01*
X2444920Y52500000D01*
X403321Y52500000D01*
X403321Y53820000D01*
X7924436Y53820000D01*
X7946640Y53594561D01*
X8012398Y53377785D01*
X8119184Y53178003D01*
X8262893Y53002893D01*
X8438003Y52859184D01*
X8637785Y52752398D01*
X8854561Y52686640D01*
X9023508Y52670000D01*
X9136492Y52670000D01*
X9305439Y52686640D01*
X9522215Y52752398D01*
X9721997Y52859184D01*
X9897107Y53002893D01*
X10040816Y53178003D01*
X10147602Y53377785D01*
X10213360Y53594561D01*
X10235564Y53820000D01*
X15544436Y53820000D01*
X15566640Y53594561D01*
X15632398Y53377785D01*
X15739184Y53178003D01*
X15882893Y53002893D01*
X16058003Y52859184D01*
X16257785Y52752398D01*
X16474561Y52686640D01*
X16643508Y52670000D01*
X16756492Y52670000D01*
X16925439Y52686640D01*
X17142215Y52752398D01*
X17341997Y52859184D01*
X17517107Y53002893D01*
X17660816Y53178003D01*
X17767602Y53377785D01*
X17833360Y53594561D01*
X17855564Y53820000D01*
X17833360Y54045439D01*
X17767602Y54262215D01*
X17660816Y54461997D01*
X17517107Y54637107D01*
X17341997Y54780816D01*
X17142215Y54887602D01*
X16925439Y54953360D01*
X16756492Y54970000D01*
X16643508Y54970000D01*
X16474561Y54953360D01*
X16257785Y54887602D01*
X16058003Y54780816D01*
X15882893Y54637107D01*
X15739184Y54461997D01*
X15632398Y54262215D01*
X15566640Y54045439D01*
X15544436Y53820000D01*
X10235564Y53820000D01*
X10213360Y54045439D01*
X10147602Y54262215D01*
X10040816Y54461997D01*
X9897107Y54637107D01*
X9721997Y54780816D01*
X9522215Y54887602D01*
X9305439Y54953360D01*
X9136492Y54970000D01*
X9023508Y54970000D01*
X8854561Y54953360D01*
X8637785Y54887602D01*
X8438003Y54780816D01*
X8262893Y54637107D01*
X8119184Y54461997D01*
X8012398Y54262215D01*
X7946640Y54045439D01*
X7924436Y53820000D01*
X403321Y53820000D01*
X403321Y61470000D01*
X27194920Y61470000D01*
X27215193Y61264164D01*
X27275233Y61066238D01*
X27372733Y60883829D01*
X27503946Y60723946D01*
X27663829Y60592733D01*
X27846238Y60495233D01*
X28044164Y60435193D01*
X28198422Y60420000D01*
X28301578Y60420000D01*
X28455836Y60435193D01*
X28653762Y60495233D01*
X28836171Y60592733D01*
X28996054Y60723946D01*
X29127267Y60883829D01*
X29224767Y61066238D01*
X29284807Y61264164D01*
X29305080Y61470000D01*
X29284807Y61675836D01*
X29224767Y61873762D01*
X29127267Y62056171D01*
X28996054Y62216054D01*
X28836171Y62347267D01*
X28653762Y62444767D01*
X28455836Y62504807D01*
X28301578Y62520000D01*
X28198422Y62520000D01*
X28044164Y62504807D01*
X27846238Y62444767D01*
X27663829Y62347267D01*
X27503946Y62216054D01*
X27372733Y62056171D01*
X27275233Y61873762D01*
X27215193Y61675836D01*
X27194920Y61470000D01*
X403321Y61470000D01*
X403321Y72613265D01*
X25230000Y72613265D01*
X25230000Y72386735D01*
X25274194Y72164557D01*
X25360884Y71955271D01*
X25486737Y71766918D01*
X25646918Y71606737D01*
X25835271Y71480884D01*
X25905000Y71452001D01*
X25905001Y66143342D01*
X25902702Y66120000D01*
X25911873Y66026884D01*
X25939035Y65937346D01*
X25983142Y65854827D01*
X26042500Y65782499D01*
X26060629Y65767621D01*
X38397625Y53430623D01*
X38412499Y53412499D01*
X38484827Y53353141D01*
X38538602Y53324398D01*
X38567345Y53309034D01*
X38656884Y53281873D01*
X38750000Y53272702D01*
X38773332Y53275000D01*
X43805761Y53275000D01*
X43835649Y53245112D01*
X43942110Y53173978D01*
X44060402Y53124979D01*
X44185981Y53100000D01*
X44314019Y53100000D01*
X44439598Y53124979D01*
X44557890Y53173978D01*
X44664351Y53245112D01*
X44754888Y53335649D01*
X44826022Y53442110D01*
X44875021Y53560402D01*
X44900000Y53685981D01*
X44900000Y53814019D01*
X44875021Y53939598D01*
X44826022Y54057890D01*
X44754888Y54164351D01*
X44664351Y54254888D01*
X44557890Y54326022D01*
X44439598Y54375021D01*
X44314019Y54400000D01*
X44185981Y54400000D01*
X44060402Y54375021D01*
X43942110Y54326022D01*
X43835649Y54254888D01*
X43805761Y54225000D01*
X38946752Y54225000D01*
X31602426Y61569325D01*
X34640000Y61569325D01*
X34640000Y61350675D01*
X34682657Y61136225D01*
X34766331Y60934218D01*
X34887807Y60752416D01*
X35042416Y60597807D01*
X35224218Y60476331D01*
X35426225Y60392657D01*
X35640675Y60350000D01*
X35859325Y60350000D01*
X36073775Y60392657D01*
X36275782Y60476331D01*
X36457584Y60597807D01*
X36612193Y60752416D01*
X36733669Y60934218D01*
X36817343Y61136225D01*
X36860000Y61350675D01*
X36860000Y61569325D01*
X36817343Y61783775D01*
X36733669Y61985782D01*
X36612193Y62167584D01*
X36457584Y62322193D01*
X36275782Y62443669D01*
X36073775Y62527343D01*
X35859325Y62570000D01*
X35640675Y62570000D01*
X35426225Y62527343D01*
X35224218Y62443669D01*
X35042416Y62322193D01*
X34887807Y62167584D01*
X34766331Y61985782D01*
X34682657Y61783775D01*
X34640000Y61569325D01*
X31602426Y61569325D01*
X29062426Y64109325D01*
X34640000Y64109325D01*
X34640000Y63890675D01*
X34682657Y63676225D01*
X34766331Y63474218D01*
X34887807Y63292416D01*
X35042416Y63137807D01*
X35224218Y63016331D01*
X35426225Y62932657D01*
X35640675Y62890000D01*
X35859325Y62890000D01*
X36073775Y62932657D01*
X36275782Y63016331D01*
X36457584Y63137807D01*
X36612193Y63292416D01*
X36733669Y63474218D01*
X36806480Y63650000D01*
X42998307Y63650000D01*
X42998307Y61850000D01*
X43005065Y61781388D01*
X43025078Y61715413D01*
X43057578Y61654610D01*
X43101315Y61601315D01*
X43154610Y61557578D01*
X43215413Y61525078D01*
X43281388Y61505065D01*
X43350000Y61498307D01*
X45150000Y61498307D01*
X45218612Y61505065D01*
X45284587Y61525078D01*
X45345390Y61557578D01*
X45398685Y61601315D01*
X45442422Y61654610D01*
X45474922Y61715413D01*
X45494935Y61781388D01*
X45501693Y61850000D01*
X45501693Y63650000D01*
X45494935Y63718612D01*
X45474922Y63784587D01*
X45442422Y63845390D01*
X45398685Y63898685D01*
X45345390Y63942422D01*
X45284587Y63974922D01*
X45218612Y63994935D01*
X45150000Y64001693D01*
X43350000Y64001693D01*
X43281388Y63994935D01*
X43215413Y63974922D01*
X43154610Y63942422D01*
X43101315Y63898685D01*
X43057578Y63845390D01*
X43025078Y63784587D01*
X43005065Y63718612D01*
X42998307Y63650000D01*
X36806480Y63650000D01*
X36817343Y63676225D01*
X36860000Y63890675D01*
X36860000Y64109325D01*
X36817343Y64323775D01*
X36733669Y64525782D01*
X36612193Y64707584D01*
X36457584Y64862193D01*
X36275782Y64983669D01*
X36073775Y65067343D01*
X35859325Y65110000D01*
X35640675Y65110000D01*
X35426225Y65067343D01*
X35224218Y64983669D01*
X35042416Y64862193D01*
X34887807Y64707584D01*
X34766331Y64525782D01*
X34682657Y64323775D01*
X34640000Y64109325D01*
X29062426Y64109325D01*
X26855000Y66316750D01*
X26855000Y66653416D01*
X27200000Y66653416D01*
X27200000Y66446584D01*
X27240350Y66243726D01*
X27319502Y66052638D01*
X27434411Y65880664D01*
X27580664Y65734411D01*
X27752638Y65619502D01*
X27943726Y65540350D01*
X28146584Y65500000D01*
X28353416Y65500000D01*
X28556274Y65540350D01*
X28747362Y65619502D01*
X28919336Y65734411D01*
X29065589Y65880664D01*
X29180498Y66052638D01*
X29259650Y66243726D01*
X29300000Y66446584D01*
X29300000Y66464995D01*
X34690000Y66464995D01*
X34690000Y65750452D01*
X34701529Y65692493D01*
X34724144Y65637896D01*
X34756975Y65588761D01*
X34798761Y65546975D01*
X34847897Y65514143D01*
X34902494Y65491529D01*
X34960453Y65480000D01*
X35674995Y65480000D01*
X35749995Y65555000D01*
X35749995Y66539995D01*
X35750005Y66539995D01*
X35750005Y65555000D01*
X35825005Y65480000D01*
X36539547Y65480000D01*
X36597506Y65491529D01*
X36652103Y65514143D01*
X36701239Y65546975D01*
X36743025Y65588761D01*
X36775856Y65637896D01*
X36798471Y65692493D01*
X36810000Y65750452D01*
X36810000Y66464995D01*
X36735000Y66539995D01*
X35750005Y66539995D01*
X35749995Y66539995D01*
X34765000Y66539995D01*
X34690000Y66464995D01*
X29300000Y66464995D01*
X29300000Y66653416D01*
X29259650Y66856274D01*
X29180498Y67047362D01*
X29065589Y67219336D01*
X28955377Y67329548D01*
X34690000Y67329548D01*
X34690000Y66615005D01*
X34765000Y66540005D01*
X35749995Y66540005D01*
X35749995Y67525000D01*
X35750005Y67525000D01*
X35750005Y66540005D01*
X36735000Y66540005D01*
X36810000Y66615005D01*
X36810000Y67329548D01*
X36798471Y67387507D01*
X36775856Y67442104D01*
X36743025Y67491239D01*
X36701239Y67533025D01*
X36652103Y67565857D01*
X36597506Y67588471D01*
X36539547Y67600000D01*
X35825005Y67600000D01*
X35750005Y67525000D01*
X35749995Y67525000D01*
X35674995Y67600000D01*
X34960453Y67600000D01*
X34902494Y67588471D01*
X34847897Y67565857D01*
X34798761Y67533025D01*
X34756975Y67491239D01*
X34724144Y67442104D01*
X34701529Y67387507D01*
X34690000Y67329548D01*
X28955377Y67329548D01*
X28919336Y67365589D01*
X28747362Y67480498D01*
X28556274Y67559650D01*
X28353416Y67600000D01*
X28146584Y67600000D01*
X27943726Y67559650D01*
X27752638Y67480498D01*
X27580664Y67365589D01*
X27434411Y67219336D01*
X27319502Y67047362D01*
X27240350Y66856274D01*
X27200000Y66653416D01*
X26855000Y66653416D01*
X26855000Y71452001D01*
X26924729Y71480884D01*
X27113082Y71606737D01*
X27273263Y71766918D01*
X27399116Y71955271D01*
X27485806Y72164557D01*
X27530000Y72386735D01*
X27530000Y72613265D01*
X27485806Y72835443D01*
X27399116Y73044729D01*
X27273263Y73233082D01*
X27113082Y73393263D01*
X26924729Y73519116D01*
X26715443Y73605806D01*
X26493265Y73650000D01*
X26266735Y73650000D01*
X26044557Y73605806D01*
X25835271Y73519116D01*
X25646918Y73393263D01*
X25486737Y73233082D01*
X25360884Y73044729D01*
X25274194Y72835443D01*
X25230000Y72613265D01*
X403321Y72613265D01*
X403321Y76613265D01*
X25230000Y76613265D01*
X25230000Y76386735D01*
X25274194Y76164557D01*
X25360884Y75955271D01*
X25486737Y75766918D01*
X25646918Y75606737D01*
X25835271Y75480884D01*
X26044557Y75394194D01*
X26266735Y75350000D01*
X26493265Y75350000D01*
X26715443Y75394194D01*
X26785173Y75423077D01*
X34027621Y68180628D01*
X34042499Y68162499D01*
X34114827Y68103141D01*
X34197346Y68059034D01*
X34286884Y68031873D01*
X34356668Y68025000D01*
X34356669Y68025000D01*
X34379999Y68022702D01*
X34403329Y68025000D01*
X40843250Y68025000D01*
X43096540Y65771708D01*
X43048037Y65654611D01*
X43000000Y65413114D01*
X43000000Y65166886D01*
X43048037Y64925389D01*
X43142265Y64697903D01*
X43279062Y64493172D01*
X43453172Y64319062D01*
X43657903Y64182265D01*
X43885389Y64088037D01*
X44126886Y64040000D01*
X44373114Y64040000D01*
X44614611Y64088037D01*
X44842097Y64182265D01*
X45046828Y64319062D01*
X45220938Y64493172D01*
X45357735Y64697903D01*
X45451963Y64925389D01*
X45500000Y65166886D01*
X45500000Y65413114D01*
X45451963Y65654611D01*
X45357735Y65882097D01*
X45220938Y66086828D01*
X45046828Y66260938D01*
X44842097Y66397735D01*
X44614611Y66491963D01*
X44373114Y66540000D01*
X44126886Y66540000D01*
X43885389Y66491963D01*
X43768292Y66443460D01*
X41392384Y68819366D01*
X41377501Y68837501D01*
X41305173Y68896859D01*
X41222654Y68940966D01*
X41133116Y68968127D01*
X41063332Y68975000D01*
X41040000Y68977298D01*
X41016668Y68975000D01*
X34576751Y68975000D01*
X31051751Y72500000D01*
X34224436Y72500000D01*
X34246640Y72274561D01*
X34312398Y72057785D01*
X34419184Y71858003D01*
X34562893Y71682893D01*
X34738003Y71539184D01*
X34937785Y71432398D01*
X35154561Y71366640D01*
X35323508Y71350000D01*
X35436492Y71350000D01*
X35605439Y71366640D01*
X35822215Y71432398D01*
X36021997Y71539184D01*
X36197107Y71682893D01*
X36340816Y71858003D01*
X36447602Y72057785D01*
X36513360Y72274561D01*
X36535564Y72500000D01*
X37844436Y72500000D01*
X37866640Y72274561D01*
X37932398Y72057785D01*
X38039184Y71858003D01*
X38182893Y71682893D01*
X38358003Y71539184D01*
X38557785Y71432398D01*
X38774561Y71366640D01*
X38943508Y71350000D01*
X39056492Y71350000D01*
X39225439Y71366640D01*
X39442215Y71432398D01*
X39641997Y71539184D01*
X39817107Y71682893D01*
X39960816Y71858003D01*
X40067602Y72057785D01*
X40133360Y72274561D01*
X40155564Y72500000D01*
X40144409Y72613265D01*
X46850000Y72613265D01*
X46850000Y72386735D01*
X46894194Y72164557D01*
X46980884Y71955271D01*
X47106737Y71766918D01*
X47266918Y71606737D01*
X47455271Y71480884D01*
X47664557Y71394194D01*
X47886735Y71350000D01*
X48113265Y71350000D01*
X48335443Y71394194D01*
X48544729Y71480884D01*
X48733082Y71606737D01*
X48893263Y71766918D01*
X49019116Y71955271D01*
X49105806Y72164557D01*
X49150000Y72386735D01*
X49150000Y72613265D01*
X49105806Y72835443D01*
X49019116Y73044729D01*
X48893263Y73233082D01*
X48733082Y73393263D01*
X48544729Y73519116D01*
X48335443Y73605806D01*
X48113265Y73650000D01*
X47886735Y73650000D01*
X47664557Y73605806D01*
X47455271Y73519116D01*
X47266918Y73393263D01*
X47106737Y73233082D01*
X46980884Y73044729D01*
X46894194Y72835443D01*
X46850000Y72613265D01*
X40144409Y72613265D01*
X40133360Y72725439D01*
X40067602Y72942215D01*
X39960816Y73141997D01*
X39817107Y73317107D01*
X39641997Y73460816D01*
X39442215Y73567602D01*
X39225439Y73633360D01*
X39056492Y73650000D01*
X38943508Y73650000D01*
X38774561Y73633360D01*
X38557785Y73567602D01*
X38358003Y73460816D01*
X38182893Y73317107D01*
X38039184Y73141997D01*
X37932398Y72942215D01*
X37866640Y72725439D01*
X37844436Y72500000D01*
X36535564Y72500000D01*
X36513360Y72725439D01*
X36447602Y72942215D01*
X36340816Y73141997D01*
X36197107Y73317107D01*
X36021997Y73460816D01*
X35822215Y73567602D01*
X35605439Y73633360D01*
X35436492Y73650000D01*
X35323508Y73650000D01*
X35154561Y73633360D01*
X34937785Y73567602D01*
X34738003Y73460816D01*
X34562893Y73317107D01*
X34419184Y73141997D01*
X34312398Y72942215D01*
X34246640Y72725439D01*
X34224436Y72500000D01*
X31051751Y72500000D01*
X27456923Y76094827D01*
X27485806Y76164557D01*
X27530000Y76386735D01*
X27530000Y76500000D01*
X34224436Y76500000D01*
X34246640Y76274561D01*
X34312398Y76057785D01*
X34419184Y75858003D01*
X34562893Y75682893D01*
X34738003Y75539184D01*
X34937785Y75432398D01*
X35154561Y75366640D01*
X35323508Y75350000D01*
X35436492Y75350000D01*
X35605439Y75366640D01*
X35822215Y75432398D01*
X36021997Y75539184D01*
X36197107Y75682893D01*
X36340816Y75858003D01*
X36447602Y76057785D01*
X36513360Y76274561D01*
X36535564Y76500000D01*
X37844436Y76500000D01*
X37866640Y76274561D01*
X37932398Y76057785D01*
X38039184Y75858003D01*
X38182893Y75682893D01*
X38358003Y75539184D01*
X38557785Y75432398D01*
X38774561Y75366640D01*
X38943508Y75350000D01*
X39056492Y75350000D01*
X39225439Y75366640D01*
X39442215Y75432398D01*
X39641997Y75539184D01*
X39817107Y75682893D01*
X39960816Y75858003D01*
X40067602Y76057785D01*
X40133360Y76274561D01*
X40155564Y76500000D01*
X40144409Y76613265D01*
X46850000Y76613265D01*
X46850000Y76386735D01*
X46894194Y76164557D01*
X46980884Y75955271D01*
X47106737Y75766918D01*
X47266918Y75606737D01*
X47455271Y75480884D01*
X47664557Y75394194D01*
X47886735Y75350000D01*
X48113265Y75350000D01*
X48335443Y75394194D01*
X48544729Y75480884D01*
X48733082Y75606737D01*
X48893263Y75766918D01*
X49019116Y75955271D01*
X49105806Y76164557D01*
X49150000Y76386735D01*
X49150000Y76613265D01*
X49105806Y76835443D01*
X49019116Y77044729D01*
X48893263Y77233082D01*
X48733082Y77393263D01*
X48544729Y77519116D01*
X48335443Y77605806D01*
X48113265Y77650000D01*
X47886735Y77650000D01*
X47664557Y77605806D01*
X47455271Y77519116D01*
X47266918Y77393263D01*
X47106737Y77233082D01*
X46980884Y77044729D01*
X46894194Y76835443D01*
X46850000Y76613265D01*
X40144409Y76613265D01*
X40133360Y76725439D01*
X40067602Y76942215D01*
X39960816Y77141997D01*
X39817107Y77317107D01*
X39641997Y77460816D01*
X39442215Y77567602D01*
X39225439Y77633360D01*
X39056492Y77650000D01*
X38943508Y77650000D01*
X38774561Y77633360D01*
X38557785Y77567602D01*
X38358003Y77460816D01*
X38182893Y77317107D01*
X38039184Y77141997D01*
X37932398Y76942215D01*
X37866640Y76725439D01*
X37844436Y76500000D01*
X36535564Y76500000D01*
X36513360Y76725439D01*
X36447602Y76942215D01*
X36340816Y77141997D01*
X36197107Y77317107D01*
X36021997Y77460816D01*
X35822215Y77567602D01*
X35605439Y77633360D01*
X35436492Y77650000D01*
X35323508Y77650000D01*
X35154561Y77633360D01*
X34937785Y77567602D01*
X34738003Y77460816D01*
X34562893Y77317107D01*
X34419184Y77141997D01*
X34312398Y76942215D01*
X34246640Y76725439D01*
X34224436Y76500000D01*
X27530000Y76500000D01*
X27530000Y76613265D01*
X27485806Y76835443D01*
X27399116Y77044729D01*
X27273263Y77233082D01*
X27113082Y77393263D01*
X26924729Y77519116D01*
X26715443Y77605806D01*
X26493265Y77650000D01*
X26266735Y77650000D01*
X26044557Y77605806D01*
X25835271Y77519116D01*
X25646918Y77393263D01*
X25486737Y77233082D01*
X25360884Y77044729D01*
X25274194Y76835443D01*
X25230000Y76613265D01*
X403321Y76613265D01*
X403321Y80613265D01*
X25230000Y80613265D01*
X25230000Y80386735D01*
X25274194Y80164557D01*
X25360884Y79955271D01*
X25486737Y79766918D01*
X25646918Y79606737D01*
X25835271Y79480884D01*
X26044557Y79394194D01*
X26266735Y79350000D01*
X26493265Y79350000D01*
X26715443Y79394194D01*
X26924729Y79480884D01*
X27113082Y79606737D01*
X27273263Y79766918D01*
X27399116Y79955271D01*
X27485806Y80164557D01*
X27530000Y80386735D01*
X27530000Y80500000D01*
X34224436Y80500000D01*
X34246640Y80274561D01*
X34312398Y80057785D01*
X34419184Y79858003D01*
X34562893Y79682893D01*
X34738003Y79539184D01*
X34937785Y79432398D01*
X35154561Y79366640D01*
X35323508Y79350000D01*
X35436492Y79350000D01*
X35605439Y79366640D01*
X35822215Y79432398D01*
X36021997Y79539184D01*
X36197107Y79682893D01*
X36340816Y79858003D01*
X36447602Y80057785D01*
X36513360Y80274561D01*
X36535564Y80500000D01*
X36513360Y80725439D01*
X36447602Y80942215D01*
X36340816Y81141997D01*
X36197107Y81317107D01*
X36021997Y81460816D01*
X35822215Y81567602D01*
X35605439Y81633360D01*
X35436492Y81650000D01*
X35323508Y81650000D01*
X35154561Y81633360D01*
X34937785Y81567602D01*
X34738003Y81460816D01*
X34562893Y81317107D01*
X34419184Y81141997D01*
X34312398Y80942215D01*
X34246640Y80725439D01*
X34224436Y80500000D01*
X27530000Y80500000D01*
X27530000Y80613265D01*
X27485806Y80835443D01*
X27399116Y81044729D01*
X27273263Y81233082D01*
X27113082Y81393263D01*
X26924729Y81519116D01*
X26715443Y81605806D01*
X26493265Y81650000D01*
X26266735Y81650000D01*
X26044557Y81605806D01*
X25835271Y81519116D01*
X25646918Y81393263D01*
X25486737Y81233082D01*
X25360884Y81044729D01*
X25274194Y80835443D01*
X25230000Y80613265D01*
X403321Y80613265D01*
X403321Y81924995D01*
X43050000Y81924995D01*
X43050000Y81070453D01*
X43061529Y81012494D01*
X43084143Y80957897D01*
X43116975Y80908761D01*
X43158761Y80866975D01*
X43207896Y80834144D01*
X43262493Y80811529D01*
X43320452Y80800000D01*
X44174995Y80800000D01*
X44249995Y80875000D01*
X44249995Y81999995D01*
X44250005Y81999995D01*
X44250005Y80875000D01*
X44325005Y80800000D01*
X45179548Y80800000D01*
X45237507Y80811529D01*
X45292104Y80834144D01*
X45341239Y80866975D01*
X45383025Y80908761D01*
X45415857Y80957897D01*
X45438471Y81012494D01*
X45450000Y81070453D01*
X45450000Y81924995D01*
X45375000Y81999995D01*
X44250005Y81999995D01*
X44249995Y81999995D01*
X43125000Y81999995D01*
X43050000Y81924995D01*
X403321Y81924995D01*
X403321Y82929547D01*
X43050000Y82929547D01*
X43050000Y82075005D01*
X43125000Y82000005D01*
X44249995Y82000005D01*
X44249995Y83125000D01*
X44250005Y83125000D01*
X44250005Y82000005D01*
X45375000Y82000005D01*
X45450000Y82075005D01*
X45450000Y82929547D01*
X45438471Y82987506D01*
X45415857Y83042103D01*
X45383025Y83091239D01*
X45341239Y83133025D01*
X45292104Y83165856D01*
X45237507Y83188471D01*
X45179548Y83200000D01*
X44325005Y83200000D01*
X44250005Y83125000D01*
X44249995Y83125000D01*
X44174995Y83200000D01*
X43320452Y83200000D01*
X43262493Y83188471D01*
X43207896Y83165856D01*
X43158761Y83133025D01*
X43116975Y83091239D01*
X43084143Y83042103D01*
X43061529Y82987506D01*
X43050000Y82929547D01*
X403321Y82929547D01*
X403321Y84500000D01*
X25622985Y84500000D01*
X25650981Y84215750D01*
X25733894Y83942424D01*
X25868536Y83690526D01*
X26049735Y83469735D01*
X26270526Y83288536D01*
X26522424Y83153894D01*
X26795750Y83070981D01*
X27008775Y83050000D01*
X27151225Y83050000D01*
X27364250Y83070981D01*
X27637576Y83153894D01*
X27889474Y83288536D01*
X28110265Y83469735D01*
X28291464Y83690526D01*
X28426106Y83942424D01*
X28509019Y84215750D01*
X28537015Y84500000D01*
X28509019Y84784250D01*
X28426106Y85057576D01*
X28291464Y85309474D01*
X28110265Y85530265D01*
X28025293Y85600000D01*
X33248307Y85600000D01*
X33248307Y83400000D01*
X33255065Y83331388D01*
X33275078Y83265413D01*
X33307578Y83204610D01*
X33351315Y83151315D01*
X33404610Y83107578D01*
X33465413Y83075078D01*
X33531388Y83055065D01*
X33600000Y83048307D01*
X35800000Y83048307D01*
X35868612Y83055065D01*
X35934587Y83075078D01*
X35995390Y83107578D01*
X36048685Y83151315D01*
X36092422Y83204610D01*
X36124922Y83265413D01*
X36144935Y83331388D01*
X36151693Y83400000D01*
X36151693Y84663114D01*
X43000000Y84663114D01*
X43000000Y84416886D01*
X43048037Y84175389D01*
X43142265Y83947903D01*
X43279062Y83743172D01*
X43453172Y83569062D01*
X43657903Y83432265D01*
X43885389Y83338037D01*
X44126886Y83290000D01*
X44373114Y83290000D01*
X44614611Y83338037D01*
X44842097Y83432265D01*
X45046828Y83569062D01*
X45220938Y83743172D01*
X45357735Y83947903D01*
X45451963Y84175389D01*
X45500000Y84416886D01*
X45500000Y84663114D01*
X45451963Y84904611D01*
X45357735Y85132097D01*
X45220938Y85336828D01*
X45046828Y85510938D01*
X44842097Y85647735D01*
X44614611Y85741963D01*
X44373114Y85790000D01*
X44126886Y85790000D01*
X43885389Y85741963D01*
X43657903Y85647735D01*
X43453172Y85510938D01*
X43279062Y85336828D01*
X43142265Y85132097D01*
X43048037Y84904611D01*
X43000000Y84663114D01*
X36151693Y84663114D01*
X36151693Y85600000D01*
X36144935Y85668612D01*
X36124922Y85734587D01*
X36092422Y85795390D01*
X36048685Y85848685D01*
X35995390Y85892422D01*
X35934587Y85924922D01*
X35868612Y85944935D01*
X35800000Y85951693D01*
X33600000Y85951693D01*
X33531388Y85944935D01*
X33465413Y85924922D01*
X33404610Y85892422D01*
X33351315Y85848685D01*
X33307578Y85795390D01*
X33275078Y85734587D01*
X33255065Y85668612D01*
X33248307Y85600000D01*
X28025293Y85600000D01*
X27889474Y85711464D01*
X27637576Y85846106D01*
X27364250Y85929019D01*
X27151225Y85950000D01*
X27008775Y85950000D01*
X26795750Y85929019D01*
X26522424Y85846106D01*
X26270526Y85711464D01*
X26049735Y85530265D01*
X25868536Y85309474D01*
X25733894Y85057576D01*
X25650981Y84784250D01*
X25622985Y84500000D01*
X403321Y84500000D01*
X403321Y89978636D01*
X599788Y91939096D01*
X1157275Y93742522D01*
X2039936Y95372723D01*
X3209974Y96791979D01*
X4629229Y97962012D01*
X6259435Y98844675D01*
X8062861Y99402160D01*
X10023317Y99598626D01*
X39983324Y99598626D01*
X41943786Y99402159D01*
X41943786Y99402159D01*
G37*
X41943786Y99402159D02*
X43747212Y98844673D01*
X45377419Y97962009D01*
X46796672Y96791974D01*
X47966708Y95372718D01*
X48849369Y93742516D01*
X49406855Y91939091D01*
X49603321Y89978637D01*
X49603322Y10018635D01*
X49406855Y8058171D01*
X48849369Y6254744D01*
X47966706Y4624538D01*
X46796672Y3205282D01*
X45377418Y2035246D01*
X43747212Y1152581D01*
X41943786Y595093D01*
X39983324Y398626D01*
X10023317Y398626D01*
X8062863Y595092D01*
X6259431Y1152580D01*
X4629229Y2035243D01*
X3209975Y3205278D01*
X2039939Y4624532D01*
X1157275Y6254739D01*
X599788Y8058165D01*
X403321Y10018626D01*
X403321Y42771449D01*
X20771456Y42771449D01*
X20850312Y42605773D01*
X21037250Y42496207D01*
X21241972Y42425217D01*
X21456610Y42395530D01*
X21672915Y42408287D01*
X21882576Y42462998D01*
X22077534Y42557561D01*
X22149688Y42605773D01*
X22228544Y42771449D01*
X21500000Y43499993D01*
X20771456Y42771449D01*
X403321Y42771449D01*
X403321Y43543390D01*
X20395530Y43543390D01*
X20408287Y43327085D01*
X20462998Y43117424D01*
X20557561Y42922466D01*
X20605773Y42850312D01*
X20771449Y42771456D01*
X21499993Y43500000D01*
X21500007Y43500000D01*
X22228551Y42771456D01*
X22394227Y42850312D01*
X22503793Y43037250D01*
X22574783Y43241972D01*
X22604470Y43456610D01*
X22591713Y43672915D01*
X22537002Y43882576D01*
X22442439Y44077534D01*
X22394227Y44149688D01*
X22228551Y44228544D01*
X21500007Y43500000D01*
X21499993Y43500000D01*
X20771449Y44228544D01*
X20605773Y44149688D01*
X20496207Y43962750D01*
X20425217Y43758028D01*
X20395530Y43543390D01*
X403321Y43543390D01*
X403321Y44228551D01*
X20771456Y44228551D01*
X21500000Y43500007D01*
X22228544Y44228551D01*
X22149688Y44394227D01*
X21962750Y44503793D01*
X21758028Y44574783D01*
X21543390Y44604470D01*
X21327085Y44591713D01*
X21117424Y44537002D01*
X20922466Y44442439D01*
X20850312Y44394227D01*
X20771456Y44228551D01*
X403321Y44228551D01*
X403321Y46200000D01*
X7924436Y46200000D01*
X7946640Y45974561D01*
X8012398Y45757785D01*
X8119184Y45558003D01*
X8262893Y45382893D01*
X8438003Y45239184D01*
X8637785Y45132398D01*
X8854561Y45066640D01*
X9023508Y45050000D01*
X9136492Y45050000D01*
X9305439Y45066640D01*
X9522215Y45132398D01*
X9721997Y45239184D01*
X9897107Y45382893D01*
X10040816Y45558003D01*
X10147602Y45757785D01*
X10213360Y45974561D01*
X10228176Y46124995D01*
X15600000Y46124995D01*
X15600000Y45370452D01*
X15611529Y45312493D01*
X15634144Y45257896D01*
X15666975Y45208761D01*
X15708761Y45166975D01*
X15757897Y45134143D01*
X15812494Y45111529D01*
X15870453Y45100000D01*
X16624995Y45100000D01*
X16699995Y45175000D01*
X16699995Y46199995D01*
X16700005Y46199995D01*
X16700005Y45175000D01*
X16775005Y45100000D01*
X17529547Y45100000D01*
X17587506Y45111529D01*
X17642103Y45134143D01*
X17691239Y45166975D01*
X17733025Y45208761D01*
X17765856Y45257896D01*
X17788471Y45312493D01*
X17800000Y45370452D01*
X17800000Y46124995D01*
X17725000Y46199995D01*
X16700005Y46199995D01*
X16699995Y46199995D01*
X15675000Y46199995D01*
X15600000Y46124995D01*
X10228176Y46124995D01*
X10235564Y46200000D01*
X10213360Y46425439D01*
X10147602Y46642215D01*
X10040816Y46841997D01*
X9897107Y47017107D01*
X9881948Y47029548D01*
X15600000Y47029548D01*
X15600000Y46275005D01*
X15675000Y46200005D01*
X16699995Y46200005D01*
X16699995Y47225000D01*
X16700005Y47225000D01*
X16700005Y46200005D01*
X17725000Y46200005D01*
X17800000Y46275005D01*
X17800000Y47029548D01*
X17788471Y47087507D01*
X17765856Y47142104D01*
X17733025Y47191239D01*
X17691239Y47233025D01*
X17642103Y47265857D01*
X17587506Y47288471D01*
X17529547Y47300000D01*
X16775005Y47300000D01*
X16700005Y47225000D01*
X16699995Y47225000D01*
X16624995Y47300000D01*
X15870453Y47300000D01*
X15812494Y47288471D01*
X15757897Y47265857D01*
X15708761Y47233025D01*
X15666975Y47191239D01*
X15634144Y47142104D01*
X15611529Y47087507D01*
X15600000Y47029548D01*
X9881948Y47029548D01*
X9721997Y47160816D01*
X9522215Y47267602D01*
X9305439Y47333360D01*
X9136492Y47350000D01*
X9023508Y47350000D01*
X8854561Y47333360D01*
X8637785Y47267602D01*
X8438003Y47160816D01*
X8262893Y47017107D01*
X8119184Y46841997D01*
X8012398Y46642215D01*
X7946640Y46425439D01*
X7924436Y46200000D01*
X403321Y46200000D01*
X403321Y47523416D01*
X2450000Y47523416D01*
X2450000Y47316584D01*
X2490350Y47113726D01*
X2569502Y46922638D01*
X2684411Y46750664D01*
X2830664Y46604411D01*
X3002638Y46489502D01*
X3193726Y46410350D01*
X3396584Y46370000D01*
X3603416Y46370000D01*
X3806274Y46410350D01*
X3997362Y46489502D01*
X4169336Y46604411D01*
X4315589Y46750664D01*
X4430498Y46922638D01*
X4509650Y47113726D01*
X4550000Y47316584D01*
X4550000Y47523416D01*
X4950000Y47523416D01*
X4950000Y47316584D01*
X4990350Y47113726D01*
X5069502Y46922638D01*
X5184411Y46750664D01*
X5330664Y46604411D01*
X5502638Y46489502D01*
X5693726Y46410350D01*
X5896584Y46370000D01*
X6103416Y46370000D01*
X6306274Y46410350D01*
X6497362Y46489502D01*
X6669336Y46604411D01*
X6815589Y46750664D01*
X6930498Y46922638D01*
X7009650Y47113726D01*
X7050000Y47316584D01*
X7050000Y47523416D01*
X7009650Y47726274D01*
X6930498Y47917362D01*
X6815589Y48089336D01*
X6669336Y48235589D01*
X6497362Y48350498D01*
X6306274Y48429650D01*
X6103416Y48470000D01*
X5896584Y48470000D01*
X5693726Y48429650D01*
X5502638Y48350498D01*
X5330664Y48235589D01*
X5184411Y48089336D01*
X5069502Y47917362D01*
X4990350Y47726274D01*
X4950000Y47523416D01*
X4550000Y47523416D01*
X4509650Y47726274D01*
X4430498Y47917362D01*
X4315589Y48089336D01*
X4169336Y48235589D01*
X3997362Y48350498D01*
X3806274Y48429650D01*
X3603416Y48470000D01*
X3396584Y48470000D01*
X3193726Y48429650D01*
X3002638Y48350498D01*
X2830664Y48235589D01*
X2684411Y48089336D01*
X2569502Y47917362D01*
X2490350Y47726274D01*
X2450000Y47523416D01*
X403321Y47523416D01*
X403321Y48740000D01*
X7924436Y48740000D01*
X7946640Y48514561D01*
X8012398Y48297785D01*
X8119184Y48098003D01*
X8262893Y47922893D01*
X8438003Y47779184D01*
X8637785Y47672398D01*
X8854561Y47606640D01*
X9023508Y47590000D01*
X9136492Y47590000D01*
X9305439Y47606640D01*
X9522215Y47672398D01*
X9721997Y47779184D01*
X9897107Y47922893D01*
X10040816Y48098003D01*
X10147602Y48297785D01*
X10213360Y48514561D01*
X10235564Y48740000D01*
X10213360Y48965439D01*
X10147602Y49182215D01*
X10040816Y49381997D01*
X9897107Y49557107D01*
X9721997Y49700816D01*
X9522215Y49807602D01*
X9305439Y49873360D01*
X9136492Y49890000D01*
X9023508Y49890000D01*
X8854561Y49873360D01*
X8637785Y49807602D01*
X8438003Y49700816D01*
X8262893Y49557107D01*
X8119184Y49381997D01*
X8012398Y49182215D01*
X7946640Y48965439D01*
X7924436Y48740000D01*
X403321Y48740000D01*
X403321Y51280000D01*
X7924436Y51280000D01*
X7946640Y51054561D01*
X8012398Y50837785D01*
X8119184Y50638003D01*
X8262893Y50462893D01*
X8438003Y50319184D01*
X8637785Y50212398D01*
X8854561Y50146640D01*
X9023508Y50130000D01*
X9136492Y50130000D01*
X9305439Y50146640D01*
X9486642Y50201607D01*
X11267621Y48420628D01*
X11282499Y48402499D01*
X11354827Y48343141D01*
X11437346Y48299034D01*
X11526884Y48271873D01*
X11596668Y48265000D01*
X11596669Y48265000D01*
X11619999Y48262702D01*
X11643329Y48265000D01*
X15649922Y48265000D01*
X15739184Y48098003D01*
X15882893Y47922893D01*
X16058003Y47779184D01*
X16257785Y47672398D01*
X16474561Y47606640D01*
X16643508Y47590000D01*
X16756492Y47590000D01*
X16925439Y47606640D01*
X17142215Y47672398D01*
X17341997Y47779184D01*
X17517107Y47922893D01*
X17660816Y48098003D01*
X17767602Y48297785D01*
X17833360Y48514561D01*
X17843081Y48613265D01*
X20350000Y48613265D01*
X20350000Y48386735D01*
X20394194Y48164557D01*
X20480884Y47955271D01*
X20606737Y47766918D01*
X20766918Y47606737D01*
X20955271Y47480884D01*
X21164557Y47394194D01*
X21386735Y47350000D01*
X21613265Y47350000D01*
X21835443Y47394194D01*
X22044729Y47480884D01*
X22233082Y47606737D01*
X22393263Y47766918D01*
X22519116Y47955271D01*
X22605806Y48164557D01*
X22650000Y48386735D01*
X22650000Y48613265D01*
X22605806Y48835443D01*
X22519116Y49044729D01*
X22393263Y49233082D01*
X22233082Y49393263D01*
X22044729Y49519116D01*
X21835443Y49605806D01*
X21613265Y49650000D01*
X21386735Y49650000D01*
X21164557Y49605806D01*
X20955271Y49519116D01*
X20766918Y49393263D01*
X20606737Y49233082D01*
X20480884Y49044729D01*
X20394194Y48835443D01*
X20350000Y48613265D01*
X17843081Y48613265D01*
X17855564Y48740000D01*
X17833360Y48965439D01*
X17767602Y49182215D01*
X17660816Y49381997D01*
X17517107Y49557107D01*
X17341997Y49700816D01*
X17142215Y49807602D01*
X16925439Y49873360D01*
X16756492Y49890000D01*
X16643508Y49890000D01*
X16474561Y49873360D01*
X16257785Y49807602D01*
X16058003Y49700816D01*
X15882893Y49557107D01*
X15739184Y49381997D01*
X15649922Y49215000D01*
X11816751Y49215000D01*
X10158393Y50873358D01*
X10213360Y51054561D01*
X10235564Y51280000D01*
X15544436Y51280000D01*
X15566640Y51054561D01*
X15632398Y50837785D01*
X15739184Y50638003D01*
X15882893Y50462893D01*
X16058003Y50319184D01*
X16257785Y50212398D01*
X16474561Y50146640D01*
X16643508Y50130000D01*
X16756492Y50130000D01*
X16925439Y50146640D01*
X17142215Y50212398D01*
X17341997Y50319184D01*
X17517107Y50462893D01*
X17660816Y50638003D01*
X17767602Y50837785D01*
X17833360Y51054561D01*
X17855564Y51280000D01*
X17852214Y51314019D01*
X23350000Y51314019D01*
X23350000Y51185981D01*
X23374979Y51060402D01*
X23423978Y50942110D01*
X23495112Y50835649D01*
X23585649Y50745112D01*
X23692110Y50673978D01*
X23810402Y50624979D01*
X23935981Y50600000D01*
X24064019Y50600000D01*
X24189598Y50624979D01*
X24307890Y50673978D01*
X24414351Y50745112D01*
X24444239Y50775000D01*
X25555761Y50775000D01*
X25585649Y50745112D01*
X25692110Y50673978D01*
X25810402Y50624979D01*
X25935981Y50600000D01*
X26064019Y50600000D01*
X26189598Y50624979D01*
X26307890Y50673978D01*
X26414351Y50745112D01*
X26504888Y50835649D01*
X26576022Y50942110D01*
X26625021Y51060402D01*
X26650000Y51185981D01*
X26650000Y51314019D01*
X26625021Y51439598D01*
X26576022Y51557890D01*
X26504888Y51664351D01*
X26414351Y51754888D01*
X26307890Y51826022D01*
X26189598Y51875021D01*
X26064019Y51900000D01*
X25935981Y51900000D01*
X25810402Y51875021D01*
X25692110Y51826022D01*
X25585649Y51754888D01*
X25555761Y51725000D01*
X24444239Y51725000D01*
X24414351Y51754888D01*
X24307890Y51826022D01*
X24189598Y51875021D01*
X24064019Y51900000D01*
X23935981Y51900000D01*
X23810402Y51875021D01*
X23692110Y51826022D01*
X23585649Y51754888D01*
X23495112Y51664351D01*
X23423978Y51557890D01*
X23374979Y51439598D01*
X23350000Y51314019D01*
X17852214Y51314019D01*
X17833360Y51505439D01*
X17767602Y51722215D01*
X17660816Y51921997D01*
X17517107Y52097107D01*
X17341997Y52240816D01*
X17142215Y52347602D01*
X16925439Y52413360D01*
X16756492Y52430000D01*
X16643508Y52430000D01*
X16474561Y52413360D01*
X16257785Y52347602D01*
X16058003Y52240816D01*
X15882893Y52097107D01*
X15739184Y51921997D01*
X15632398Y51722215D01*
X15566640Y51505439D01*
X15544436Y51280000D01*
X10235564Y51280000D01*
X10213360Y51505439D01*
X10147602Y51722215D01*
X10040816Y51921997D01*
X9897107Y52097107D01*
X9721997Y52240816D01*
X9522215Y52347602D01*
X9305439Y52413360D01*
X9136492Y52430000D01*
X9023508Y52430000D01*
X8854561Y52413360D01*
X8637785Y52347602D01*
X8438003Y52240816D01*
X8262893Y52097107D01*
X8119184Y51921997D01*
X8012398Y51722215D01*
X7946640Y51505439D01*
X7924436Y51280000D01*
X403321Y51280000D01*
X403321Y52500000D01*
X2444920Y52500000D01*
X2465193Y52294164D01*
X2525233Y52096238D01*
X2622733Y51913829D01*
X2753946Y51753946D01*
X2913829Y51622733D01*
X3096238Y51525233D01*
X3294164Y51465193D01*
X3448422Y51450000D01*
X3551578Y51450000D01*
X3705836Y51465193D01*
X3903762Y51525233D01*
X4086171Y51622733D01*
X4246054Y51753946D01*
X4377267Y51913829D01*
X4474767Y52096238D01*
X4534807Y52294164D01*
X4555080Y52500000D01*
X4944920Y52500000D01*
X4965193Y52294164D01*
X5025233Y52096238D01*
X5122733Y51913829D01*
X5253946Y51753946D01*
X5413829Y51622733D01*
X5596238Y51525233D01*
X5794164Y51465193D01*
X5948422Y51450000D01*
X6051578Y51450000D01*
X6205836Y51465193D01*
X6403762Y51525233D01*
X6586171Y51622733D01*
X6746054Y51753946D01*
X6877267Y51913829D01*
X6974767Y52096238D01*
X7034807Y52294164D01*
X7055080Y52500000D01*
X7034807Y52705836D01*
X6974767Y52903762D01*
X6877267Y53086171D01*
X6746054Y53246054D01*
X6586171Y53377267D01*
X6403762Y53474767D01*
X6205836Y53534807D01*
X6051578Y53550000D01*
X5948422Y53550000D01*
X5794164Y53534807D01*
X5596238Y53474767D01*
X5413829Y53377267D01*
X5253946Y53246054D01*
X5122733Y53086171D01*
X5025233Y52903762D01*
X4965193Y52705836D01*
X4944920Y52500000D01*
X4555080Y52500000D01*
X4534807Y52705836D01*
X4474767Y52903762D01*
X4377267Y53086171D01*
X4246054Y53246054D01*
X4086171Y53377267D01*
X3903762Y53474767D01*
X3705836Y53534807D01*
X3551578Y53550000D01*
X3448422Y53550000D01*
X3294164Y53534807D01*
X3096238Y53474767D01*
X2913829Y53377267D01*
X2753946Y53246054D01*
X2622733Y53086171D01*
X2525233Y52903762D01*
X2465193Y52705836D01*
X2444920Y52500000D01*
X403321Y52500000D01*
X403321Y53820000D01*
X7924436Y53820000D01*
X7946640Y53594561D01*
X8012398Y53377785D01*
X8119184Y53178003D01*
X8262893Y53002893D01*
X8438003Y52859184D01*
X8637785Y52752398D01*
X8854561Y52686640D01*
X9023508Y52670000D01*
X9136492Y52670000D01*
X9305439Y52686640D01*
X9522215Y52752398D01*
X9721997Y52859184D01*
X9897107Y53002893D01*
X10040816Y53178003D01*
X10147602Y53377785D01*
X10213360Y53594561D01*
X10235564Y53820000D01*
X15544436Y53820000D01*
X15566640Y53594561D01*
X15632398Y53377785D01*
X15739184Y53178003D01*
X15882893Y53002893D01*
X16058003Y52859184D01*
X16257785Y52752398D01*
X16474561Y52686640D01*
X16643508Y52670000D01*
X16756492Y52670000D01*
X16925439Y52686640D01*
X17142215Y52752398D01*
X17341997Y52859184D01*
X17517107Y53002893D01*
X17660816Y53178003D01*
X17767602Y53377785D01*
X17833360Y53594561D01*
X17855564Y53820000D01*
X17833360Y54045439D01*
X17767602Y54262215D01*
X17660816Y54461997D01*
X17517107Y54637107D01*
X17341997Y54780816D01*
X17142215Y54887602D01*
X16925439Y54953360D01*
X16756492Y54970000D01*
X16643508Y54970000D01*
X16474561Y54953360D01*
X16257785Y54887602D01*
X16058003Y54780816D01*
X15882893Y54637107D01*
X15739184Y54461997D01*
X15632398Y54262215D01*
X15566640Y54045439D01*
X15544436Y53820000D01*
X10235564Y53820000D01*
X10213360Y54045439D01*
X10147602Y54262215D01*
X10040816Y54461997D01*
X9897107Y54637107D01*
X9721997Y54780816D01*
X9522215Y54887602D01*
X9305439Y54953360D01*
X9136492Y54970000D01*
X9023508Y54970000D01*
X8854561Y54953360D01*
X8637785Y54887602D01*
X8438003Y54780816D01*
X8262893Y54637107D01*
X8119184Y54461997D01*
X8012398Y54262215D01*
X7946640Y54045439D01*
X7924436Y53820000D01*
X403321Y53820000D01*
X403321Y61470000D01*
X27194920Y61470000D01*
X27215193Y61264164D01*
X27275233Y61066238D01*
X27372733Y60883829D01*
X27503946Y60723946D01*
X27663829Y60592733D01*
X27846238Y60495233D01*
X28044164Y60435193D01*
X28198422Y60420000D01*
X28301578Y60420000D01*
X28455836Y60435193D01*
X28653762Y60495233D01*
X28836171Y60592733D01*
X28996054Y60723946D01*
X29127267Y60883829D01*
X29224767Y61066238D01*
X29284807Y61264164D01*
X29305080Y61470000D01*
X29284807Y61675836D01*
X29224767Y61873762D01*
X29127267Y62056171D01*
X28996054Y62216054D01*
X28836171Y62347267D01*
X28653762Y62444767D01*
X28455836Y62504807D01*
X28301578Y62520000D01*
X28198422Y62520000D01*
X28044164Y62504807D01*
X27846238Y62444767D01*
X27663829Y62347267D01*
X27503946Y62216054D01*
X27372733Y62056171D01*
X27275233Y61873762D01*
X27215193Y61675836D01*
X27194920Y61470000D01*
X403321Y61470000D01*
X403321Y72613265D01*
X25230000Y72613265D01*
X25230000Y72386735D01*
X25274194Y72164557D01*
X25360884Y71955271D01*
X25486737Y71766918D01*
X25646918Y71606737D01*
X25835271Y71480884D01*
X25905000Y71452001D01*
X25905001Y66143342D01*
X25902702Y66120000D01*
X25911873Y66026884D01*
X25939035Y65937346D01*
X25983142Y65854827D01*
X26042500Y65782499D01*
X26060629Y65767621D01*
X38397625Y53430623D01*
X38412499Y53412499D01*
X38484827Y53353141D01*
X38538602Y53324398D01*
X38567345Y53309034D01*
X38656884Y53281873D01*
X38750000Y53272702D01*
X38773332Y53275000D01*
X43805761Y53275000D01*
X43835649Y53245112D01*
X43942110Y53173978D01*
X44060402Y53124979D01*
X44185981Y53100000D01*
X44314019Y53100000D01*
X44439598Y53124979D01*
X44557890Y53173978D01*
X44664351Y53245112D01*
X44754888Y53335649D01*
X44826022Y53442110D01*
X44875021Y53560402D01*
X44900000Y53685981D01*
X44900000Y53814019D01*
X44875021Y53939598D01*
X44826022Y54057890D01*
X44754888Y54164351D01*
X44664351Y54254888D01*
X44557890Y54326022D01*
X44439598Y54375021D01*
X44314019Y54400000D01*
X44185981Y54400000D01*
X44060402Y54375021D01*
X43942110Y54326022D01*
X43835649Y54254888D01*
X43805761Y54225000D01*
X38946752Y54225000D01*
X31602426Y61569325D01*
X34640000Y61569325D01*
X34640000Y61350675D01*
X34682657Y61136225D01*
X34766331Y60934218D01*
X34887807Y60752416D01*
X35042416Y60597807D01*
X35224218Y60476331D01*
X35426225Y60392657D01*
X35640675Y60350000D01*
X35859325Y60350000D01*
X36073775Y60392657D01*
X36275782Y60476331D01*
X36457584Y60597807D01*
X36612193Y60752416D01*
X36733669Y60934218D01*
X36817343Y61136225D01*
X36860000Y61350675D01*
X36860000Y61569325D01*
X36817343Y61783775D01*
X36733669Y61985782D01*
X36612193Y62167584D01*
X36457584Y62322193D01*
X36275782Y62443669D01*
X36073775Y62527343D01*
X35859325Y62570000D01*
X35640675Y62570000D01*
X35426225Y62527343D01*
X35224218Y62443669D01*
X35042416Y62322193D01*
X34887807Y62167584D01*
X34766331Y61985782D01*
X34682657Y61783775D01*
X34640000Y61569325D01*
X31602426Y61569325D01*
X29062426Y64109325D01*
X34640000Y64109325D01*
X34640000Y63890675D01*
X34682657Y63676225D01*
X34766331Y63474218D01*
X34887807Y63292416D01*
X35042416Y63137807D01*
X35224218Y63016331D01*
X35426225Y62932657D01*
X35640675Y62890000D01*
X35859325Y62890000D01*
X36073775Y62932657D01*
X36275782Y63016331D01*
X36457584Y63137807D01*
X36612193Y63292416D01*
X36733669Y63474218D01*
X36806480Y63650000D01*
X42998307Y63650000D01*
X42998307Y61850000D01*
X43005065Y61781388D01*
X43025078Y61715413D01*
X43057578Y61654610D01*
X43101315Y61601315D01*
X43154610Y61557578D01*
X43215413Y61525078D01*
X43281388Y61505065D01*
X43350000Y61498307D01*
X45150000Y61498307D01*
X45218612Y61505065D01*
X45284587Y61525078D01*
X45345390Y61557578D01*
X45398685Y61601315D01*
X45442422Y61654610D01*
X45474922Y61715413D01*
X45494935Y61781388D01*
X45501693Y61850000D01*
X45501693Y63650000D01*
X45494935Y63718612D01*
X45474922Y63784587D01*
X45442422Y63845390D01*
X45398685Y63898685D01*
X45345390Y63942422D01*
X45284587Y63974922D01*
X45218612Y63994935D01*
X45150000Y64001693D01*
X43350000Y64001693D01*
X43281388Y63994935D01*
X43215413Y63974922D01*
X43154610Y63942422D01*
X43101315Y63898685D01*
X43057578Y63845390D01*
X43025078Y63784587D01*
X43005065Y63718612D01*
X42998307Y63650000D01*
X36806480Y63650000D01*
X36817343Y63676225D01*
X36860000Y63890675D01*
X36860000Y64109325D01*
X36817343Y64323775D01*
X36733669Y64525782D01*
X36612193Y64707584D01*
X36457584Y64862193D01*
X36275782Y64983669D01*
X36073775Y65067343D01*
X35859325Y65110000D01*
X35640675Y65110000D01*
X35426225Y65067343D01*
X35224218Y64983669D01*
X35042416Y64862193D01*
X34887807Y64707584D01*
X34766331Y64525782D01*
X34682657Y64323775D01*
X34640000Y64109325D01*
X29062426Y64109325D01*
X26855000Y66316750D01*
X26855000Y66653416D01*
X27200000Y66653416D01*
X27200000Y66446584D01*
X27240350Y66243726D01*
X27319502Y66052638D01*
X27434411Y65880664D01*
X27580664Y65734411D01*
X27752638Y65619502D01*
X27943726Y65540350D01*
X28146584Y65500000D01*
X28353416Y65500000D01*
X28556274Y65540350D01*
X28747362Y65619502D01*
X28919336Y65734411D01*
X29065589Y65880664D01*
X29180498Y66052638D01*
X29259650Y66243726D01*
X29300000Y66446584D01*
X29300000Y66464995D01*
X34690000Y66464995D01*
X34690000Y65750452D01*
X34701529Y65692493D01*
X34724144Y65637896D01*
X34756975Y65588761D01*
X34798761Y65546975D01*
X34847897Y65514143D01*
X34902494Y65491529D01*
X34960453Y65480000D01*
X35674995Y65480000D01*
X35749995Y65555000D01*
X35749995Y66539995D01*
X35750005Y66539995D01*
X35750005Y65555000D01*
X35825005Y65480000D01*
X36539547Y65480000D01*
X36597506Y65491529D01*
X36652103Y65514143D01*
X36701239Y65546975D01*
X36743025Y65588761D01*
X36775856Y65637896D01*
X36798471Y65692493D01*
X36810000Y65750452D01*
X36810000Y66464995D01*
X36735000Y66539995D01*
X35750005Y66539995D01*
X35749995Y66539995D01*
X34765000Y66539995D01*
X34690000Y66464995D01*
X29300000Y66464995D01*
X29300000Y66653416D01*
X29259650Y66856274D01*
X29180498Y67047362D01*
X29065589Y67219336D01*
X28955377Y67329548D01*
X34690000Y67329548D01*
X34690000Y66615005D01*
X34765000Y66540005D01*
X35749995Y66540005D01*
X35749995Y67525000D01*
X35750005Y67525000D01*
X35750005Y66540005D01*
X36735000Y66540005D01*
X36810000Y66615005D01*
X36810000Y67329548D01*
X36798471Y67387507D01*
X36775856Y67442104D01*
X36743025Y67491239D01*
X36701239Y67533025D01*
X36652103Y67565857D01*
X36597506Y67588471D01*
X36539547Y67600000D01*
X35825005Y67600000D01*
X35750005Y67525000D01*
X35749995Y67525000D01*
X35674995Y67600000D01*
X34960453Y67600000D01*
X34902494Y67588471D01*
X34847897Y67565857D01*
X34798761Y67533025D01*
X34756975Y67491239D01*
X34724144Y67442104D01*
X34701529Y67387507D01*
X34690000Y67329548D01*
X28955377Y67329548D01*
X28919336Y67365589D01*
X28747362Y67480498D01*
X28556274Y67559650D01*
X28353416Y67600000D01*
X28146584Y67600000D01*
X27943726Y67559650D01*
X27752638Y67480498D01*
X27580664Y67365589D01*
X27434411Y67219336D01*
X27319502Y67047362D01*
X27240350Y66856274D01*
X27200000Y66653416D01*
X26855000Y66653416D01*
X26855000Y71452001D01*
X26924729Y71480884D01*
X27113082Y71606737D01*
X27273263Y71766918D01*
X27399116Y71955271D01*
X27485806Y72164557D01*
X27530000Y72386735D01*
X27530000Y72613265D01*
X27485806Y72835443D01*
X27399116Y73044729D01*
X27273263Y73233082D01*
X27113082Y73393263D01*
X26924729Y73519116D01*
X26715443Y73605806D01*
X26493265Y73650000D01*
X26266735Y73650000D01*
X26044557Y73605806D01*
X25835271Y73519116D01*
X25646918Y73393263D01*
X25486737Y73233082D01*
X25360884Y73044729D01*
X25274194Y72835443D01*
X25230000Y72613265D01*
X403321Y72613265D01*
X403321Y76613265D01*
X25230000Y76613265D01*
X25230000Y76386735D01*
X25274194Y76164557D01*
X25360884Y75955271D01*
X25486737Y75766918D01*
X25646918Y75606737D01*
X25835271Y75480884D01*
X26044557Y75394194D01*
X26266735Y75350000D01*
X26493265Y75350000D01*
X26715443Y75394194D01*
X26785173Y75423077D01*
X34027621Y68180628D01*
X34042499Y68162499D01*
X34114827Y68103141D01*
X34197346Y68059034D01*
X34286884Y68031873D01*
X34356668Y68025000D01*
X34356669Y68025000D01*
X34379999Y68022702D01*
X34403329Y68025000D01*
X40843250Y68025000D01*
X43096540Y65771708D01*
X43048037Y65654611D01*
X43000000Y65413114D01*
X43000000Y65166886D01*
X43048037Y64925389D01*
X43142265Y64697903D01*
X43279062Y64493172D01*
X43453172Y64319062D01*
X43657903Y64182265D01*
X43885389Y64088037D01*
X44126886Y64040000D01*
X44373114Y64040000D01*
X44614611Y64088037D01*
X44842097Y64182265D01*
X45046828Y64319062D01*
X45220938Y64493172D01*
X45357735Y64697903D01*
X45451963Y64925389D01*
X45500000Y65166886D01*
X45500000Y65413114D01*
X45451963Y65654611D01*
X45357735Y65882097D01*
X45220938Y66086828D01*
X45046828Y66260938D01*
X44842097Y66397735D01*
X44614611Y66491963D01*
X44373114Y66540000D01*
X44126886Y66540000D01*
X43885389Y66491963D01*
X43768292Y66443460D01*
X41392384Y68819366D01*
X41377501Y68837501D01*
X41305173Y68896859D01*
X41222654Y68940966D01*
X41133116Y68968127D01*
X41063332Y68975000D01*
X41040000Y68977298D01*
X41016668Y68975000D01*
X34576751Y68975000D01*
X31051751Y72500000D01*
X34224436Y72500000D01*
X34246640Y72274561D01*
X34312398Y72057785D01*
X34419184Y71858003D01*
X34562893Y71682893D01*
X34738003Y71539184D01*
X34937785Y71432398D01*
X35154561Y71366640D01*
X35323508Y71350000D01*
X35436492Y71350000D01*
X35605439Y71366640D01*
X35822215Y71432398D01*
X36021997Y71539184D01*
X36197107Y71682893D01*
X36340816Y71858003D01*
X36447602Y72057785D01*
X36513360Y72274561D01*
X36535564Y72500000D01*
X37844436Y72500000D01*
X37866640Y72274561D01*
X37932398Y72057785D01*
X38039184Y71858003D01*
X38182893Y71682893D01*
X38358003Y71539184D01*
X38557785Y71432398D01*
X38774561Y71366640D01*
X38943508Y71350000D01*
X39056492Y71350000D01*
X39225439Y71366640D01*
X39442215Y71432398D01*
X39641997Y71539184D01*
X39817107Y71682893D01*
X39960816Y71858003D01*
X40067602Y72057785D01*
X40133360Y72274561D01*
X40155564Y72500000D01*
X40144409Y72613265D01*
X46850000Y72613265D01*
X46850000Y72386735D01*
X46894194Y72164557D01*
X46980884Y71955271D01*
X47106737Y71766918D01*
X47266918Y71606737D01*
X47455271Y71480884D01*
X47664557Y71394194D01*
X47886735Y71350000D01*
X48113265Y71350000D01*
X48335443Y71394194D01*
X48544729Y71480884D01*
X48733082Y71606737D01*
X48893263Y71766918D01*
X49019116Y71955271D01*
X49105806Y72164557D01*
X49150000Y72386735D01*
X49150000Y72613265D01*
X49105806Y72835443D01*
X49019116Y73044729D01*
X48893263Y73233082D01*
X48733082Y73393263D01*
X48544729Y73519116D01*
X48335443Y73605806D01*
X48113265Y73650000D01*
X47886735Y73650000D01*
X47664557Y73605806D01*
X47455271Y73519116D01*
X47266918Y73393263D01*
X47106737Y73233082D01*
X46980884Y73044729D01*
X46894194Y72835443D01*
X46850000Y72613265D01*
X40144409Y72613265D01*
X40133360Y72725439D01*
X40067602Y72942215D01*
X39960816Y73141997D01*
X39817107Y73317107D01*
X39641997Y73460816D01*
X39442215Y73567602D01*
X39225439Y73633360D01*
X39056492Y73650000D01*
X38943508Y73650000D01*
X38774561Y73633360D01*
X38557785Y73567602D01*
X38358003Y73460816D01*
X38182893Y73317107D01*
X38039184Y73141997D01*
X37932398Y72942215D01*
X37866640Y72725439D01*
X37844436Y72500000D01*
X36535564Y72500000D01*
X36513360Y72725439D01*
X36447602Y72942215D01*
X36340816Y73141997D01*
X36197107Y73317107D01*
X36021997Y73460816D01*
X35822215Y73567602D01*
X35605439Y73633360D01*
X35436492Y73650000D01*
X35323508Y73650000D01*
X35154561Y73633360D01*
X34937785Y73567602D01*
X34738003Y73460816D01*
X34562893Y73317107D01*
X34419184Y73141997D01*
X34312398Y72942215D01*
X34246640Y72725439D01*
X34224436Y72500000D01*
X31051751Y72500000D01*
X27456923Y76094827D01*
X27485806Y76164557D01*
X27530000Y76386735D01*
X27530000Y76500000D01*
X34224436Y76500000D01*
X34246640Y76274561D01*
X34312398Y76057785D01*
X34419184Y75858003D01*
X34562893Y75682893D01*
X34738003Y75539184D01*
X34937785Y75432398D01*
X35154561Y75366640D01*
X35323508Y75350000D01*
X35436492Y75350000D01*
X35605439Y75366640D01*
X35822215Y75432398D01*
X36021997Y75539184D01*
X36197107Y75682893D01*
X36340816Y75858003D01*
X36447602Y76057785D01*
X36513360Y76274561D01*
X36535564Y76500000D01*
X37844436Y76500000D01*
X37866640Y76274561D01*
X37932398Y76057785D01*
X38039184Y75858003D01*
X38182893Y75682893D01*
X38358003Y75539184D01*
X38557785Y75432398D01*
X38774561Y75366640D01*
X38943508Y75350000D01*
X39056492Y75350000D01*
X39225439Y75366640D01*
X39442215Y75432398D01*
X39641997Y75539184D01*
X39817107Y75682893D01*
X39960816Y75858003D01*
X40067602Y76057785D01*
X40133360Y76274561D01*
X40155564Y76500000D01*
X40144409Y76613265D01*
X46850000Y76613265D01*
X46850000Y76386735D01*
X46894194Y76164557D01*
X46980884Y75955271D01*
X47106737Y75766918D01*
X47266918Y75606737D01*
X47455271Y75480884D01*
X47664557Y75394194D01*
X47886735Y75350000D01*
X48113265Y75350000D01*
X48335443Y75394194D01*
X48544729Y75480884D01*
X48733082Y75606737D01*
X48893263Y75766918D01*
X49019116Y75955271D01*
X49105806Y76164557D01*
X49150000Y76386735D01*
X49150000Y76613265D01*
X49105806Y76835443D01*
X49019116Y77044729D01*
X48893263Y77233082D01*
X48733082Y77393263D01*
X48544729Y77519116D01*
X48335443Y77605806D01*
X48113265Y77650000D01*
X47886735Y77650000D01*
X47664557Y77605806D01*
X47455271Y77519116D01*
X47266918Y77393263D01*
X47106737Y77233082D01*
X46980884Y77044729D01*
X46894194Y76835443D01*
X46850000Y76613265D01*
X40144409Y76613265D01*
X40133360Y76725439D01*
X40067602Y76942215D01*
X39960816Y77141997D01*
X39817107Y77317107D01*
X39641997Y77460816D01*
X39442215Y77567602D01*
X39225439Y77633360D01*
X39056492Y77650000D01*
X38943508Y77650000D01*
X38774561Y77633360D01*
X38557785Y77567602D01*
X38358003Y77460816D01*
X38182893Y77317107D01*
X38039184Y77141997D01*
X37932398Y76942215D01*
X37866640Y76725439D01*
X37844436Y76500000D01*
X36535564Y76500000D01*
X36513360Y76725439D01*
X36447602Y76942215D01*
X36340816Y77141997D01*
X36197107Y77317107D01*
X36021997Y77460816D01*
X35822215Y77567602D01*
X35605439Y77633360D01*
X35436492Y77650000D01*
X35323508Y77650000D01*
X35154561Y77633360D01*
X34937785Y77567602D01*
X34738003Y77460816D01*
X34562893Y77317107D01*
X34419184Y77141997D01*
X34312398Y76942215D01*
X34246640Y76725439D01*
X34224436Y76500000D01*
X27530000Y76500000D01*
X27530000Y76613265D01*
X27485806Y76835443D01*
X27399116Y77044729D01*
X27273263Y77233082D01*
X27113082Y77393263D01*
X26924729Y77519116D01*
X26715443Y77605806D01*
X26493265Y77650000D01*
X26266735Y77650000D01*
X26044557Y77605806D01*
X25835271Y77519116D01*
X25646918Y77393263D01*
X25486737Y77233082D01*
X25360884Y77044729D01*
X25274194Y76835443D01*
X25230000Y76613265D01*
X403321Y76613265D01*
X403321Y80613265D01*
X25230000Y80613265D01*
X25230000Y80386735D01*
X25274194Y80164557D01*
X25360884Y79955271D01*
X25486737Y79766918D01*
X25646918Y79606737D01*
X25835271Y79480884D01*
X26044557Y79394194D01*
X26266735Y79350000D01*
X26493265Y79350000D01*
X26715443Y79394194D01*
X26924729Y79480884D01*
X27113082Y79606737D01*
X27273263Y79766918D01*
X27399116Y79955271D01*
X27485806Y80164557D01*
X27530000Y80386735D01*
X27530000Y80500000D01*
X34224436Y80500000D01*
X34246640Y80274561D01*
X34312398Y80057785D01*
X34419184Y79858003D01*
X34562893Y79682893D01*
X34738003Y79539184D01*
X34937785Y79432398D01*
X35154561Y79366640D01*
X35323508Y79350000D01*
X35436492Y79350000D01*
X35605439Y79366640D01*
X35822215Y79432398D01*
X36021997Y79539184D01*
X36197107Y79682893D01*
X36340816Y79858003D01*
X36447602Y80057785D01*
X36513360Y80274561D01*
X36535564Y80500000D01*
X36513360Y80725439D01*
X36447602Y80942215D01*
X36340816Y81141997D01*
X36197107Y81317107D01*
X36021997Y81460816D01*
X35822215Y81567602D01*
X35605439Y81633360D01*
X35436492Y81650000D01*
X35323508Y81650000D01*
X35154561Y81633360D01*
X34937785Y81567602D01*
X34738003Y81460816D01*
X34562893Y81317107D01*
X34419184Y81141997D01*
X34312398Y80942215D01*
X34246640Y80725439D01*
X34224436Y80500000D01*
X27530000Y80500000D01*
X27530000Y80613265D01*
X27485806Y80835443D01*
X27399116Y81044729D01*
X27273263Y81233082D01*
X27113082Y81393263D01*
X26924729Y81519116D01*
X26715443Y81605806D01*
X26493265Y81650000D01*
X26266735Y81650000D01*
X26044557Y81605806D01*
X25835271Y81519116D01*
X25646918Y81393263D01*
X25486737Y81233082D01*
X25360884Y81044729D01*
X25274194Y80835443D01*
X25230000Y80613265D01*
X403321Y80613265D01*
X403321Y81924995D01*
X43050000Y81924995D01*
X43050000Y81070453D01*
X43061529Y81012494D01*
X43084143Y80957897D01*
X43116975Y80908761D01*
X43158761Y80866975D01*
X43207896Y80834144D01*
X43262493Y80811529D01*
X43320452Y80800000D01*
X44174995Y80800000D01*
X44249995Y80875000D01*
X44249995Y81999995D01*
X44250005Y81999995D01*
X44250005Y80875000D01*
X44325005Y80800000D01*
X45179548Y80800000D01*
X45237507Y80811529D01*
X45292104Y80834144D01*
X45341239Y80866975D01*
X45383025Y80908761D01*
X45415857Y80957897D01*
X45438471Y81012494D01*
X45450000Y81070453D01*
X45450000Y81924995D01*
X45375000Y81999995D01*
X44250005Y81999995D01*
X44249995Y81999995D01*
X43125000Y81999995D01*
X43050000Y81924995D01*
X403321Y81924995D01*
X403321Y82929547D01*
X43050000Y82929547D01*
X43050000Y82075005D01*
X43125000Y82000005D01*
X44249995Y82000005D01*
X44249995Y83125000D01*
X44250005Y83125000D01*
X44250005Y82000005D01*
X45375000Y82000005D01*
X45450000Y82075005D01*
X45450000Y82929547D01*
X45438471Y82987506D01*
X45415857Y83042103D01*
X45383025Y83091239D01*
X45341239Y83133025D01*
X45292104Y83165856D01*
X45237507Y83188471D01*
X45179548Y83200000D01*
X44325005Y83200000D01*
X44250005Y83125000D01*
X44249995Y83125000D01*
X44174995Y83200000D01*
X43320452Y83200000D01*
X43262493Y83188471D01*
X43207896Y83165856D01*
X43158761Y83133025D01*
X43116975Y83091239D01*
X43084143Y83042103D01*
X43061529Y82987506D01*
X43050000Y82929547D01*
X403321Y82929547D01*
X403321Y84500000D01*
X25622985Y84500000D01*
X25650981Y84215750D01*
X25733894Y83942424D01*
X25868536Y83690526D01*
X26049735Y83469735D01*
X26270526Y83288536D01*
X26522424Y83153894D01*
X26795750Y83070981D01*
X27008775Y83050000D01*
X27151225Y83050000D01*
X27364250Y83070981D01*
X27637576Y83153894D01*
X27889474Y83288536D01*
X28110265Y83469735D01*
X28291464Y83690526D01*
X28426106Y83942424D01*
X28509019Y84215750D01*
X28537015Y84500000D01*
X28509019Y84784250D01*
X28426106Y85057576D01*
X28291464Y85309474D01*
X28110265Y85530265D01*
X28025293Y85600000D01*
X33248307Y85600000D01*
X33248307Y83400000D01*
X33255065Y83331388D01*
X33275078Y83265413D01*
X33307578Y83204610D01*
X33351315Y83151315D01*
X33404610Y83107578D01*
X33465413Y83075078D01*
X33531388Y83055065D01*
X33600000Y83048307D01*
X35800000Y83048307D01*
X35868612Y83055065D01*
X35934587Y83075078D01*
X35995390Y83107578D01*
X36048685Y83151315D01*
X36092422Y83204610D01*
X36124922Y83265413D01*
X36144935Y83331388D01*
X36151693Y83400000D01*
X36151693Y84663114D01*
X43000000Y84663114D01*
X43000000Y84416886D01*
X43048037Y84175389D01*
X43142265Y83947903D01*
X43279062Y83743172D01*
X43453172Y83569062D01*
X43657903Y83432265D01*
X43885389Y83338037D01*
X44126886Y83290000D01*
X44373114Y83290000D01*
X44614611Y83338037D01*
X44842097Y83432265D01*
X45046828Y83569062D01*
X45220938Y83743172D01*
X45357735Y83947903D01*
X45451963Y84175389D01*
X45500000Y84416886D01*
X45500000Y84663114D01*
X45451963Y84904611D01*
X45357735Y85132097D01*
X45220938Y85336828D01*
X45046828Y85510938D01*
X44842097Y85647735D01*
X44614611Y85741963D01*
X44373114Y85790000D01*
X44126886Y85790000D01*
X43885389Y85741963D01*
X43657903Y85647735D01*
X43453172Y85510938D01*
X43279062Y85336828D01*
X43142265Y85132097D01*
X43048037Y84904611D01*
X43000000Y84663114D01*
X36151693Y84663114D01*
X36151693Y85600000D01*
X36144935Y85668612D01*
X36124922Y85734587D01*
X36092422Y85795390D01*
X36048685Y85848685D01*
X35995390Y85892422D01*
X35934587Y85924922D01*
X35868612Y85944935D01*
X35800000Y85951693D01*
X33600000Y85951693D01*
X33531388Y85944935D01*
X33465413Y85924922D01*
X33404610Y85892422D01*
X33351315Y85848685D01*
X33307578Y85795390D01*
X33275078Y85734587D01*
X33255065Y85668612D01*
X33248307Y85600000D01*
X28025293Y85600000D01*
X27889474Y85711464D01*
X27637576Y85846106D01*
X27364250Y85929019D01*
X27151225Y85950000D01*
X27008775Y85950000D01*
X26795750Y85929019D01*
X26522424Y85846106D01*
X26270526Y85711464D01*
X26049735Y85530265D01*
X25868536Y85309474D01*
X25733894Y85057576D01*
X25650981Y84784250D01*
X25622985Y84500000D01*
X403321Y84500000D01*
X403321Y89978636D01*
X599788Y91939096D01*
X1157275Y93742522D01*
X2039936Y95372723D01*
X3209974Y96791979D01*
X4629229Y97962012D01*
X6259435Y98844675D01*
X8062861Y99402160D01*
X10023317Y99598626D01*
X39983324Y99598626D01*
X41943786Y99402159D01*
M02*
