%TF.GenerationSoftware,KiCad,Pcbnew,4.0.6*%
%TF.CreationDate,2018-07-23T17:28:08+01:00*%
%TF.ProjectId,SolderChallenge,536F6C6465724368616C6C656E67652E,rev?*%
%TF.FileFunction,Legend,Top*%
%FSLAX46Y46*%
G04 Gerber Fmt 4.6, Leading zero omitted, Abs format (unit mm)*
G04 Created by KiCad (PCBNEW 4.0.6) date 07/23/18 17:28:08*
%MOMM*%
%LPD*%
G01*
G04 APERTURE LIST*
%ADD10C,0.100000*%
%ADD11C,0.200000*%
%ADD12C,0.010000*%
%ADD13C,0.120000*%
%ADD14C,0.150000*%
%ADD15C,0.290000*%
%ADD16C,2.032000*%
%ADD17R,1.900000X0.800000*%
%ADD18R,1.850000X0.850000*%
%ADD19R,1.950000X1.000000*%
%ADD20R,0.850000X1.900000*%
%ADD21R,1.200000X2.300000*%
%ADD22R,2.000000X2.000000*%
%ADD23O,2.000000X2.000000*%
%ADD24R,1.300000X1.600000*%
%ADD25R,1.700000X1.900000*%
%ADD26R,2.100000X2.400000*%
%ADD27C,1.800000*%
%ADD28O,1.800000X1.800000*%
%ADD29C,2.000000*%
%ADD30R,3.000000X1.900000*%
%ADD31R,2.200000X2.200000*%
%ADD32C,2.200000*%
%ADD33R,2.600000X2.600000*%
%ADD34O,2.600000X2.600000*%
%ADD35R,1.900000X1.650000*%
%ADD36R,2.400000X2.000000*%
%ADD37C,1.920000*%
%ADD38R,1.920000X1.920000*%
%ADD39C,1.000000*%
G04 APERTURE END LIST*
D10*
D11*
X3792857Y66714286D02*
X2592857Y66714286D01*
X2592857Y67171429D01*
X2650000Y67285715D01*
X2707143Y67342858D01*
X2821429Y67400001D01*
X2992857Y67400001D01*
X3107143Y67342858D01*
X3164286Y67285715D01*
X3221429Y67171429D01*
X3221429Y66714286D01*
X3792857Y67914286D02*
X2992857Y67914286D01*
X3221429Y67914286D02*
X3107143Y67971429D01*
X3050000Y68028572D01*
X2992857Y68142858D01*
X2992857Y68257143D01*
X3735714Y69114286D02*
X3792857Y69000000D01*
X3792857Y68771429D01*
X3735714Y68657143D01*
X3621429Y68600000D01*
X3164286Y68600000D01*
X3050000Y68657143D01*
X2992857Y68771429D01*
X2992857Y69000000D01*
X3050000Y69114286D01*
X3164286Y69171429D01*
X3278571Y69171429D01*
X3392857Y68600000D01*
X3735714Y69628571D02*
X3792857Y69742857D01*
X3792857Y69971429D01*
X3735714Y70085714D01*
X3621429Y70142857D01*
X3564286Y70142857D01*
X3450000Y70085714D01*
X3392857Y69971429D01*
X3392857Y69800000D01*
X3335714Y69685714D01*
X3221429Y69628571D01*
X3164286Y69628571D01*
X3050000Y69685714D01*
X2992857Y69800000D01*
X2992857Y69971429D01*
X3050000Y70085714D01*
X3735714Y70600000D02*
X3792857Y70714286D01*
X3792857Y70942858D01*
X3735714Y71057143D01*
X3621429Y71114286D01*
X3564286Y71114286D01*
X3450000Y71057143D01*
X3392857Y70942858D01*
X3392857Y70771429D01*
X3335714Y70657143D01*
X3221429Y70600000D01*
X3164286Y70600000D01*
X3050000Y70657143D01*
X2992857Y70771429D01*
X2992857Y70942858D01*
X3050000Y71057143D01*
X3792857Y72600001D02*
X3792857Y72828573D01*
X3735714Y72942858D01*
X3678571Y73000001D01*
X3507143Y73114287D01*
X3278571Y73171430D01*
X2821429Y73171430D01*
X2707143Y73114287D01*
X2650000Y73057144D01*
X2592857Y72942858D01*
X2592857Y72714287D01*
X2650000Y72600001D01*
X2707143Y72542858D01*
X2821429Y72485715D01*
X3107143Y72485715D01*
X3221429Y72542858D01*
X3278571Y72600001D01*
X3335714Y72714287D01*
X3335714Y72942858D01*
X3278571Y73057144D01*
X3221429Y73114287D01*
X3107143Y73171430D01*
X2592857Y73514287D02*
X3792857Y73914287D01*
X2592857Y74314287D01*
X3792857Y75628572D02*
X2592857Y75628572D01*
X3050000Y75628572D02*
X2992857Y75742858D01*
X2992857Y75971429D01*
X3050000Y76085715D01*
X3107143Y76142858D01*
X3221429Y76200001D01*
X3564286Y76200001D01*
X3678571Y76142858D01*
X3735714Y76085715D01*
X3792857Y75971429D01*
X3792857Y75742858D01*
X3735714Y75628572D01*
X3792857Y77228572D02*
X3164286Y77228572D01*
X3050000Y77171429D01*
X2992857Y77057143D01*
X2992857Y76828572D01*
X3050000Y76714286D01*
X3735714Y77228572D02*
X3792857Y77114286D01*
X3792857Y76828572D01*
X3735714Y76714286D01*
X3621429Y76657143D01*
X3507143Y76657143D01*
X3392857Y76714286D01*
X3335714Y76828572D01*
X3335714Y77114286D01*
X3278571Y77228572D01*
X2992857Y77628572D02*
X2992857Y78085715D01*
X2592857Y77800000D02*
X3621429Y77800000D01*
X3735714Y77857143D01*
X3792857Y77971429D01*
X3792857Y78085715D01*
X2992857Y78314286D02*
X2992857Y78771429D01*
X2592857Y78485714D02*
X3621429Y78485714D01*
X3735714Y78542857D01*
X3792857Y78657143D01*
X3792857Y78771429D01*
X3735714Y79628571D02*
X3792857Y79514285D01*
X3792857Y79285714D01*
X3735714Y79171428D01*
X3621429Y79114285D01*
X3164286Y79114285D01*
X3050000Y79171428D01*
X2992857Y79285714D01*
X2992857Y79514285D01*
X3050000Y79628571D01*
X3164286Y79685714D01*
X3278571Y79685714D01*
X3392857Y79114285D01*
X3792857Y80199999D02*
X2992857Y80199999D01*
X3221429Y80199999D02*
X3107143Y80257142D01*
X3050000Y80314285D01*
X2992857Y80428571D01*
X2992857Y80542856D01*
X2992857Y80828571D02*
X3792857Y81114285D01*
X2992857Y81399999D02*
X3792857Y81114285D01*
X4078571Y80999999D01*
X4135714Y80942856D01*
X4192857Y80828571D01*
X5792857Y62942858D02*
X5735714Y62828572D01*
X5678571Y62771429D01*
X5564286Y62714286D01*
X5221429Y62714286D01*
X5107143Y62771429D01*
X5050000Y62828572D01*
X4992857Y62942858D01*
X4992857Y63114286D01*
X5050000Y63228572D01*
X5107143Y63285715D01*
X5221429Y63342858D01*
X5564286Y63342858D01*
X5678571Y63285715D01*
X5735714Y63228572D01*
X5792857Y63114286D01*
X5792857Y62942858D01*
X4992857Y63857143D02*
X5792857Y63857143D01*
X5107143Y63857143D02*
X5050000Y63914286D01*
X4992857Y64028572D01*
X4992857Y64200000D01*
X5050000Y64314286D01*
X5164286Y64371429D01*
X5792857Y64371429D01*
X4992857Y65857143D02*
X6192857Y65857143D01*
X5050000Y65857143D02*
X4992857Y65971429D01*
X4992857Y66200000D01*
X5050000Y66314286D01*
X5107143Y66371429D01*
X5221429Y66428572D01*
X5564286Y66428572D01*
X5678571Y66371429D01*
X5735714Y66314286D01*
X5792857Y66200000D01*
X5792857Y65971429D01*
X5735714Y65857143D01*
X5792857Y67457143D02*
X5164286Y67457143D01*
X5050000Y67400000D01*
X4992857Y67285714D01*
X4992857Y67057143D01*
X5050000Y66942857D01*
X5735714Y67457143D02*
X5792857Y67342857D01*
X5792857Y67057143D01*
X5735714Y66942857D01*
X5621429Y66885714D01*
X5507143Y66885714D01*
X5392857Y66942857D01*
X5335714Y67057143D01*
X5335714Y67342857D01*
X5278571Y67457143D01*
X5792857Y68542857D02*
X4592857Y68542857D01*
X5735714Y68542857D02*
X5792857Y68428571D01*
X5792857Y68200000D01*
X5735714Y68085714D01*
X5678571Y68028571D01*
X5564286Y67971428D01*
X5221429Y67971428D01*
X5107143Y68028571D01*
X5050000Y68085714D01*
X4992857Y68200000D01*
X4992857Y68428571D01*
X5050000Y68542857D01*
X5735714Y69057142D02*
X5792857Y69171428D01*
X5792857Y69400000D01*
X5735714Y69514285D01*
X5621429Y69571428D01*
X5564286Y69571428D01*
X5450000Y69514285D01*
X5392857Y69400000D01*
X5392857Y69228571D01*
X5335714Y69114285D01*
X5221429Y69057142D01*
X5164286Y69057142D01*
X5050000Y69114285D01*
X4992857Y69228571D01*
X4992857Y69400000D01*
X5050000Y69514285D01*
X4992857Y70828572D02*
X4992857Y71285715D01*
X4592857Y71000000D02*
X5621429Y71000000D01*
X5735714Y71057143D01*
X5792857Y71171429D01*
X5792857Y71285715D01*
X5792857Y71857143D02*
X5735714Y71742857D01*
X5678571Y71685714D01*
X5564286Y71628571D01*
X5221429Y71628571D01*
X5107143Y71685714D01*
X5050000Y71742857D01*
X4992857Y71857143D01*
X4992857Y72028571D01*
X5050000Y72142857D01*
X5107143Y72200000D01*
X5221429Y72257143D01*
X5564286Y72257143D01*
X5678571Y72200000D01*
X5735714Y72142857D01*
X5792857Y72028571D01*
X5792857Y71857143D01*
X5792857Y74200000D02*
X4592857Y74200000D01*
X5735714Y74200000D02*
X5792857Y74085714D01*
X5792857Y73857143D01*
X5735714Y73742857D01*
X5678571Y73685714D01*
X5564286Y73628571D01*
X5221429Y73628571D01*
X5107143Y73685714D01*
X5050000Y73742857D01*
X4992857Y73857143D01*
X4992857Y74085714D01*
X5050000Y74200000D01*
X5792857Y74771428D02*
X4992857Y74771428D01*
X4592857Y74771428D02*
X4650000Y74714285D01*
X4707143Y74771428D01*
X4650000Y74828571D01*
X4592857Y74771428D01*
X4707143Y74771428D01*
X5735714Y75285714D02*
X5792857Y75400000D01*
X5792857Y75628572D01*
X5735714Y75742857D01*
X5621429Y75800000D01*
X5564286Y75800000D01*
X5450000Y75742857D01*
X5392857Y75628572D01*
X5392857Y75457143D01*
X5335714Y75342857D01*
X5221429Y75285714D01*
X5164286Y75285714D01*
X5050000Y75342857D01*
X4992857Y75457143D01*
X4992857Y75628572D01*
X5050000Y75742857D01*
X4992857Y76314286D02*
X6192857Y76314286D01*
X5050000Y76314286D02*
X4992857Y76428572D01*
X4992857Y76657143D01*
X5050000Y76771429D01*
X5107143Y76828572D01*
X5221429Y76885715D01*
X5564286Y76885715D01*
X5678571Y76828572D01*
X5735714Y76771429D01*
X5792857Y76657143D01*
X5792857Y76428572D01*
X5735714Y76314286D01*
X5792857Y77571429D02*
X5735714Y77457143D01*
X5621429Y77400000D01*
X4592857Y77400000D01*
X5792857Y78542857D02*
X5164286Y78542857D01*
X5050000Y78485714D01*
X4992857Y78371428D01*
X4992857Y78142857D01*
X5050000Y78028571D01*
X5735714Y78542857D02*
X5792857Y78428571D01*
X5792857Y78142857D01*
X5735714Y78028571D01*
X5621429Y77971428D01*
X5507143Y77971428D01*
X5392857Y78028571D01*
X5335714Y78142857D01*
X5335714Y78428571D01*
X5278571Y78542857D01*
X4992857Y79000000D02*
X5792857Y79285714D01*
X4992857Y79571428D02*
X5792857Y79285714D01*
X6078571Y79171428D01*
X6135714Y79114285D01*
X6192857Y79000000D01*
X5735714Y80885714D02*
X5792857Y81000000D01*
X5792857Y81228572D01*
X5735714Y81342857D01*
X5621429Y81400000D01*
X5564286Y81400000D01*
X5450000Y81342857D01*
X5392857Y81228572D01*
X5392857Y81057143D01*
X5335714Y80942857D01*
X5221429Y80885714D01*
X5164286Y80885714D01*
X5050000Y80942857D01*
X4992857Y81057143D01*
X4992857Y81228572D01*
X5050000Y81342857D01*
X5735714Y82428572D02*
X5792857Y82314286D01*
X5792857Y82085715D01*
X5735714Y81971429D01*
X5678571Y81914286D01*
X5564286Y81857143D01*
X5221429Y81857143D01*
X5107143Y81914286D01*
X5050000Y81971429D01*
X4992857Y82085715D01*
X4992857Y82314286D01*
X5050000Y82428572D01*
X5792857Y83114286D02*
X5735714Y83000000D01*
X5678571Y82942857D01*
X5564286Y82885714D01*
X5221429Y82885714D01*
X5107143Y82942857D01*
X5050000Y83000000D01*
X4992857Y83114286D01*
X4992857Y83285714D01*
X5050000Y83400000D01*
X5107143Y83457143D01*
X5221429Y83514286D01*
X5564286Y83514286D01*
X5678571Y83457143D01*
X5735714Y83400000D01*
X5792857Y83285714D01*
X5792857Y83114286D01*
X5792857Y84028571D02*
X4992857Y84028571D01*
X5221429Y84028571D02*
X5107143Y84085714D01*
X5050000Y84142857D01*
X4992857Y84257143D01*
X4992857Y84371428D01*
X5735714Y85228571D02*
X5792857Y85114285D01*
X5792857Y84885714D01*
X5735714Y84771428D01*
X5621429Y84714285D01*
X5164286Y84714285D01*
X5050000Y84771428D01*
X4992857Y84885714D01*
X4992857Y85114285D01*
X5050000Y85228571D01*
X5164286Y85285714D01*
X5278571Y85285714D01*
X5392857Y84714285D01*
X15392857Y92764286D02*
X15564286Y92707143D01*
X15850000Y92707143D01*
X15964286Y92764286D01*
X16021429Y92821429D01*
X16078572Y92935714D01*
X16078572Y93050000D01*
X16021429Y93164286D01*
X15964286Y93221429D01*
X15850000Y93278571D01*
X15621429Y93335714D01*
X15507143Y93392857D01*
X15450000Y93450000D01*
X15392857Y93564286D01*
X15392857Y93678571D01*
X15450000Y93792857D01*
X15507143Y93850000D01*
X15621429Y93907143D01*
X15907143Y93907143D01*
X16078572Y93850000D01*
X16764286Y92707143D02*
X16650000Y92764286D01*
X16592857Y92821429D01*
X16535714Y92935714D01*
X16535714Y93278571D01*
X16592857Y93392857D01*
X16650000Y93450000D01*
X16764286Y93507143D01*
X16935714Y93507143D01*
X17050000Y93450000D01*
X17107143Y93392857D01*
X17164286Y93278571D01*
X17164286Y92935714D01*
X17107143Y92821429D01*
X17050000Y92764286D01*
X16935714Y92707143D01*
X16764286Y92707143D01*
X17850000Y92707143D02*
X17735714Y92764286D01*
X17678571Y92878571D01*
X17678571Y93907143D01*
X18307142Y92707143D02*
X18307142Y93507143D01*
X18307142Y93907143D02*
X18249999Y93850000D01*
X18307142Y93792857D01*
X18364285Y93850000D01*
X18307142Y93907143D01*
X18307142Y93792857D01*
X19392857Y92707143D02*
X19392857Y93907143D01*
X19392857Y92764286D02*
X19278571Y92707143D01*
X19050000Y92707143D01*
X18935714Y92764286D01*
X18878571Y92821429D01*
X18821428Y92935714D01*
X18821428Y93278571D01*
X18878571Y93392857D01*
X18935714Y93450000D01*
X19050000Y93507143D01*
X19278571Y93507143D01*
X19392857Y93450000D01*
X21450000Y92707143D02*
X20878571Y92707143D01*
X20878571Y93907143D01*
X21850000Y93335714D02*
X22250000Y93335714D01*
X22421429Y92707143D02*
X21850000Y92707143D01*
X21850000Y93907143D01*
X22421429Y93907143D01*
X22935714Y92707143D02*
X22935714Y93907143D01*
X23221429Y93907143D01*
X23392857Y93850000D01*
X23507143Y93735714D01*
X23564286Y93621429D01*
X23621429Y93392857D01*
X23621429Y93221429D01*
X23564286Y92992857D01*
X23507143Y92878571D01*
X23392857Y92764286D01*
X23221429Y92707143D01*
X22935714Y92707143D01*
X25050000Y92821429D02*
X25107143Y92764286D01*
X25050000Y92707143D01*
X24992857Y92764286D01*
X25050000Y92821429D01*
X25050000Y92707143D01*
X25050000Y93450000D02*
X25107143Y93392857D01*
X25050000Y93335714D01*
X24992857Y93392857D01*
X25050000Y93450000D01*
X25050000Y93335714D01*
X27164287Y92707143D02*
X26478572Y92707143D01*
X26821430Y92707143D02*
X26821430Y93907143D01*
X26707144Y93735714D01*
X26592858Y93621429D01*
X26478572Y93564286D01*
X28592858Y93507143D02*
X28592858Y92307143D01*
X28592858Y93450000D02*
X28707144Y93507143D01*
X28935715Y93507143D01*
X29050001Y93450000D01*
X29107144Y93392857D01*
X29164287Y93278571D01*
X29164287Y92935714D01*
X29107144Y92821429D01*
X29050001Y92764286D01*
X28935715Y92707143D01*
X28707144Y92707143D01*
X28592858Y92764286D01*
X29850001Y92707143D02*
X29735715Y92764286D01*
X29678572Y92821429D01*
X29621429Y92935714D01*
X29621429Y93278571D01*
X29678572Y93392857D01*
X29735715Y93450000D01*
X29850001Y93507143D01*
X30021429Y93507143D01*
X30135715Y93450000D01*
X30192858Y93392857D01*
X30250001Y93278571D01*
X30250001Y92935714D01*
X30192858Y92821429D01*
X30135715Y92764286D01*
X30021429Y92707143D01*
X29850001Y92707143D01*
X30764286Y92707143D02*
X30764286Y93507143D01*
X30764286Y93907143D02*
X30707143Y93850000D01*
X30764286Y93792857D01*
X30821429Y93850000D01*
X30764286Y93907143D01*
X30764286Y93792857D01*
X31335715Y93507143D02*
X31335715Y92707143D01*
X31335715Y93392857D02*
X31392858Y93450000D01*
X31507144Y93507143D01*
X31678572Y93507143D01*
X31792858Y93450000D01*
X31850001Y93335714D01*
X31850001Y92707143D01*
X32250001Y93507143D02*
X32707144Y93507143D01*
X32421429Y93907143D02*
X32421429Y92878571D01*
X32478572Y92764286D01*
X32592858Y92707143D01*
X32707144Y92707143D01*
X14935714Y91335714D02*
X15107143Y91278571D01*
X15164286Y91221429D01*
X15221429Y91107143D01*
X15221429Y90935714D01*
X15164286Y90821429D01*
X15107143Y90764286D01*
X14992857Y90707143D01*
X14535714Y90707143D01*
X14535714Y91907143D01*
X14935714Y91907143D01*
X15050000Y91850000D01*
X15107143Y91792857D01*
X15164286Y91678571D01*
X15164286Y91564286D01*
X15107143Y91450000D01*
X15050000Y91392857D01*
X14935714Y91335714D01*
X14535714Y91335714D01*
X15907143Y90707143D02*
X15792857Y90764286D01*
X15735714Y90878571D01*
X15735714Y91907143D01*
X16364285Y90707143D02*
X16364285Y91507143D01*
X16364285Y91907143D02*
X16307142Y91850000D01*
X16364285Y91792857D01*
X16421428Y91850000D01*
X16364285Y91907143D01*
X16364285Y91792857D01*
X16935714Y91507143D02*
X16935714Y90707143D01*
X16935714Y91392857D02*
X16992857Y91450000D01*
X17107143Y91507143D01*
X17278571Y91507143D01*
X17392857Y91450000D01*
X17450000Y91335714D01*
X17450000Y90707143D01*
X18021428Y90707143D02*
X18021428Y91907143D01*
X18135714Y91164286D02*
X18478571Y90707143D01*
X18478571Y91507143D02*
X18021428Y91050000D01*
X18878572Y91507143D02*
X19164286Y90707143D01*
X19450000Y91507143D02*
X19164286Y90707143D01*
X19050000Y90421429D01*
X18992857Y90364286D01*
X18878572Y90307143D01*
X21392858Y90707143D02*
X20821429Y90707143D01*
X20821429Y91907143D01*
X21792858Y91335714D02*
X22192858Y91335714D01*
X22364287Y90707143D02*
X21792858Y90707143D01*
X21792858Y91907143D01*
X22364287Y91907143D01*
X22878572Y90707143D02*
X22878572Y91907143D01*
X23164287Y91907143D01*
X23335715Y91850000D01*
X23450001Y91735714D01*
X23507144Y91621429D01*
X23564287Y91392857D01*
X23564287Y91221429D01*
X23507144Y90992857D01*
X23450001Y90878571D01*
X23335715Y90764286D01*
X23164287Y90707143D01*
X22878572Y90707143D01*
X24992858Y90821429D02*
X25050001Y90764286D01*
X24992858Y90707143D01*
X24935715Y90764286D01*
X24992858Y90821429D01*
X24992858Y90707143D01*
X24992858Y91450000D02*
X25050001Y91392857D01*
X24992858Y91335714D01*
X24935715Y91392857D01*
X24992858Y91450000D01*
X24992858Y91335714D01*
X26421430Y91792857D02*
X26478573Y91850000D01*
X26592859Y91907143D01*
X26878573Y91907143D01*
X26992859Y91850000D01*
X27050002Y91792857D01*
X27107145Y91678571D01*
X27107145Y91564286D01*
X27050002Y91392857D01*
X26364288Y90707143D01*
X27107145Y90707143D01*
X28535716Y91507143D02*
X28535716Y90307143D01*
X28535716Y91450000D02*
X28650002Y91507143D01*
X28878573Y91507143D01*
X28992859Y91450000D01*
X29050002Y91392857D01*
X29107145Y91278571D01*
X29107145Y90935714D01*
X29050002Y90821429D01*
X28992859Y90764286D01*
X28878573Y90707143D01*
X28650002Y90707143D01*
X28535716Y90764286D01*
X29792859Y90707143D02*
X29678573Y90764286D01*
X29621430Y90821429D01*
X29564287Y90935714D01*
X29564287Y91278571D01*
X29621430Y91392857D01*
X29678573Y91450000D01*
X29792859Y91507143D01*
X29964287Y91507143D01*
X30078573Y91450000D01*
X30135716Y91392857D01*
X30192859Y91278571D01*
X30192859Y90935714D01*
X30135716Y90821429D01*
X30078573Y90764286D01*
X29964287Y90707143D01*
X29792859Y90707143D01*
X30707144Y90707143D02*
X30707144Y91507143D01*
X30707144Y91907143D02*
X30650001Y91850000D01*
X30707144Y91792857D01*
X30764287Y91850000D01*
X30707144Y91907143D01*
X30707144Y91792857D01*
X31278573Y91507143D02*
X31278573Y90707143D01*
X31278573Y91392857D02*
X31335716Y91450000D01*
X31450002Y91507143D01*
X31621430Y91507143D01*
X31735716Y91450000D01*
X31792859Y91335714D01*
X31792859Y90707143D01*
X32192859Y91507143D02*
X32650002Y91507143D01*
X32364287Y91907143D02*
X32364287Y90878571D01*
X32421430Y90764286D01*
X32535716Y90707143D01*
X32650002Y90707143D01*
X32992858Y90764286D02*
X33107144Y90707143D01*
X33335716Y90707143D01*
X33450001Y90764286D01*
X33507144Y90878571D01*
X33507144Y90935714D01*
X33450001Y91050000D01*
X33335716Y91107143D01*
X33164287Y91107143D01*
X33050001Y91164286D01*
X32992858Y91278571D01*
X32992858Y91335714D01*
X33050001Y91450000D01*
X33164287Y91507143D01*
X33335716Y91507143D01*
X33450001Y91450000D01*
X26292858Y24207143D02*
X25721429Y24207143D01*
X25721429Y25407143D01*
X27150001Y24264286D02*
X27035715Y24207143D01*
X26807144Y24207143D01*
X26692858Y24264286D01*
X26635715Y24378571D01*
X26635715Y24835714D01*
X26692858Y24950000D01*
X26807144Y25007143D01*
X27035715Y25007143D01*
X27150001Y24950000D01*
X27207144Y24835714D01*
X27207144Y24721429D01*
X26635715Y24607143D01*
X27607144Y25007143D02*
X27892858Y24207143D01*
X28178572Y25007143D01*
X29092858Y24264286D02*
X28978572Y24207143D01*
X28750001Y24207143D01*
X28635715Y24264286D01*
X28578572Y24378571D01*
X28578572Y24835714D01*
X28635715Y24950000D01*
X28750001Y25007143D01*
X28978572Y25007143D01*
X29092858Y24950000D01*
X29150001Y24835714D01*
X29150001Y24721429D01*
X28578572Y24607143D01*
X29835715Y24207143D02*
X29721429Y24264286D01*
X29664286Y24378571D01*
X29664286Y25407143D01*
X31378572Y24892857D02*
X31264286Y24950000D01*
X31207143Y25007143D01*
X31150000Y25121429D01*
X31150000Y25178571D01*
X31207143Y25292857D01*
X31264286Y25350000D01*
X31378572Y25407143D01*
X31607143Y25407143D01*
X31721429Y25350000D01*
X31778572Y25292857D01*
X31835715Y25178571D01*
X31835715Y25121429D01*
X31778572Y25007143D01*
X31721429Y24950000D01*
X31607143Y24892857D01*
X31378572Y24892857D01*
X31264286Y24835714D01*
X31207143Y24778571D01*
X31150000Y24664286D01*
X31150000Y24435714D01*
X31207143Y24321429D01*
X31264286Y24264286D01*
X31378572Y24207143D01*
X31607143Y24207143D01*
X31721429Y24264286D01*
X31778572Y24321429D01*
X31835715Y24435714D01*
X31835715Y24664286D01*
X31778572Y24778571D01*
X31721429Y24835714D01*
X31607143Y24892857D01*
X2292858Y24207143D02*
X1721429Y24207143D01*
X1721429Y25407143D01*
X3150001Y24264286D02*
X3035715Y24207143D01*
X2807144Y24207143D01*
X2692858Y24264286D01*
X2635715Y24378571D01*
X2635715Y24835714D01*
X2692858Y24950000D01*
X2807144Y25007143D01*
X3035715Y25007143D01*
X3150001Y24950000D01*
X3207144Y24835714D01*
X3207144Y24721429D01*
X2635715Y24607143D01*
X3607144Y25007143D02*
X3892858Y24207143D01*
X4178572Y25007143D01*
X5092858Y24264286D02*
X4978572Y24207143D01*
X4750001Y24207143D01*
X4635715Y24264286D01*
X4578572Y24378571D01*
X4578572Y24835714D01*
X4635715Y24950000D01*
X4750001Y25007143D01*
X4978572Y25007143D01*
X5092858Y24950000D01*
X5150001Y24835714D01*
X5150001Y24721429D01*
X4578572Y24607143D01*
X5835715Y24207143D02*
X5721429Y24264286D01*
X5664286Y24378571D01*
X5664286Y25407143D01*
X7092858Y25407143D02*
X7892858Y25407143D01*
X7378572Y24207143D01*
X26292858Y40207143D02*
X25721429Y40207143D01*
X25721429Y41407143D01*
X27150001Y40264286D02*
X27035715Y40207143D01*
X26807144Y40207143D01*
X26692858Y40264286D01*
X26635715Y40378571D01*
X26635715Y40835714D01*
X26692858Y40950000D01*
X26807144Y41007143D01*
X27035715Y41007143D01*
X27150001Y40950000D01*
X27207144Y40835714D01*
X27207144Y40721429D01*
X26635715Y40607143D01*
X27607144Y41007143D02*
X27892858Y40207143D01*
X28178572Y41007143D01*
X29092858Y40264286D02*
X28978572Y40207143D01*
X28750001Y40207143D01*
X28635715Y40264286D01*
X28578572Y40378571D01*
X28578572Y40835714D01*
X28635715Y40950000D01*
X28750001Y41007143D01*
X28978572Y41007143D01*
X29092858Y40950000D01*
X29150001Y40835714D01*
X29150001Y40721429D01*
X28578572Y40607143D01*
X29835715Y40207143D02*
X29721429Y40264286D01*
X29664286Y40378571D01*
X29664286Y41407143D01*
X31721429Y41407143D02*
X31492858Y41407143D01*
X31378572Y41350000D01*
X31321429Y41292857D01*
X31207143Y41121429D01*
X31150000Y40892857D01*
X31150000Y40435714D01*
X31207143Y40321429D01*
X31264286Y40264286D01*
X31378572Y40207143D01*
X31607143Y40207143D01*
X31721429Y40264286D01*
X31778572Y40321429D01*
X31835715Y40435714D01*
X31835715Y40721429D01*
X31778572Y40835714D01*
X31721429Y40892857D01*
X31607143Y40950000D01*
X31378572Y40950000D01*
X31264286Y40892857D01*
X31207143Y40835714D01*
X31150000Y40721429D01*
X2292858Y40207143D02*
X1721429Y40207143D01*
X1721429Y41407143D01*
X3150001Y40264286D02*
X3035715Y40207143D01*
X2807144Y40207143D01*
X2692858Y40264286D01*
X2635715Y40378571D01*
X2635715Y40835714D01*
X2692858Y40950000D01*
X2807144Y41007143D01*
X3035715Y41007143D01*
X3150001Y40950000D01*
X3207144Y40835714D01*
X3207144Y40721429D01*
X2635715Y40607143D01*
X3607144Y41007143D02*
X3892858Y40207143D01*
X4178572Y41007143D01*
X5092858Y40264286D02*
X4978572Y40207143D01*
X4750001Y40207143D01*
X4635715Y40264286D01*
X4578572Y40378571D01*
X4578572Y40835714D01*
X4635715Y40950000D01*
X4750001Y41007143D01*
X4978572Y41007143D01*
X5092858Y40950000D01*
X5150001Y40835714D01*
X5150001Y40721429D01*
X4578572Y40607143D01*
X5835715Y40207143D02*
X5721429Y40264286D01*
X5664286Y40378571D01*
X5664286Y41407143D01*
X7778572Y41407143D02*
X7207143Y41407143D01*
X7150000Y40835714D01*
X7207143Y40892857D01*
X7321429Y40950000D01*
X7607143Y40950000D01*
X7721429Y40892857D01*
X7778572Y40835714D01*
X7835715Y40721429D01*
X7835715Y40435714D01*
X7778572Y40321429D01*
X7721429Y40264286D01*
X7607143Y40207143D01*
X7321429Y40207143D01*
X7207143Y40264286D01*
X7150000Y40321429D01*
X26292858Y56207143D02*
X25721429Y56207143D01*
X25721429Y57407143D01*
X27150001Y56264286D02*
X27035715Y56207143D01*
X26807144Y56207143D01*
X26692858Y56264286D01*
X26635715Y56378571D01*
X26635715Y56835714D01*
X26692858Y56950000D01*
X26807144Y57007143D01*
X27035715Y57007143D01*
X27150001Y56950000D01*
X27207144Y56835714D01*
X27207144Y56721429D01*
X26635715Y56607143D01*
X27607144Y57007143D02*
X27892858Y56207143D01*
X28178572Y57007143D01*
X29092858Y56264286D02*
X28978572Y56207143D01*
X28750001Y56207143D01*
X28635715Y56264286D01*
X28578572Y56378571D01*
X28578572Y56835714D01*
X28635715Y56950000D01*
X28750001Y57007143D01*
X28978572Y57007143D01*
X29092858Y56950000D01*
X29150001Y56835714D01*
X29150001Y56721429D01*
X28578572Y56607143D01*
X29835715Y56207143D02*
X29721429Y56264286D01*
X29664286Y56378571D01*
X29664286Y57407143D01*
X31721429Y57007143D02*
X31721429Y56207143D01*
X31435715Y57464286D02*
X31150000Y56607143D01*
X31892858Y56607143D01*
X2292858Y56207143D02*
X1721429Y56207143D01*
X1721429Y57407143D01*
X3150001Y56264286D02*
X3035715Y56207143D01*
X2807144Y56207143D01*
X2692858Y56264286D01*
X2635715Y56378571D01*
X2635715Y56835714D01*
X2692858Y56950000D01*
X2807144Y57007143D01*
X3035715Y57007143D01*
X3150001Y56950000D01*
X3207144Y56835714D01*
X3207144Y56721429D01*
X2635715Y56607143D01*
X3607144Y57007143D02*
X3892858Y56207143D01*
X4178572Y57007143D01*
X5092858Y56264286D02*
X4978572Y56207143D01*
X4750001Y56207143D01*
X4635715Y56264286D01*
X4578572Y56378571D01*
X4578572Y56835714D01*
X4635715Y56950000D01*
X4750001Y57007143D01*
X4978572Y57007143D01*
X5092858Y56950000D01*
X5150001Y56835714D01*
X5150001Y56721429D01*
X4578572Y56607143D01*
X5835715Y56207143D02*
X5721429Y56264286D01*
X5664286Y56378571D01*
X5664286Y57407143D01*
X7092858Y57407143D02*
X7835715Y57407143D01*
X7435715Y56950000D01*
X7607143Y56950000D01*
X7721429Y56892857D01*
X7778572Y56835714D01*
X7835715Y56721429D01*
X7835715Y56435714D01*
X7778572Y56321429D01*
X7721429Y56264286D01*
X7607143Y56207143D01*
X7264286Y56207143D01*
X7150000Y56264286D01*
X7092858Y56321429D01*
X26292858Y88207143D02*
X25721429Y88207143D01*
X25721429Y89407143D01*
X27150001Y88264286D02*
X27035715Y88207143D01*
X26807144Y88207143D01*
X26692858Y88264286D01*
X26635715Y88378571D01*
X26635715Y88835714D01*
X26692858Y88950000D01*
X26807144Y89007143D01*
X27035715Y89007143D01*
X27150001Y88950000D01*
X27207144Y88835714D01*
X27207144Y88721429D01*
X26635715Y88607143D01*
X27607144Y89007143D02*
X27892858Y88207143D01*
X28178572Y89007143D01*
X29092858Y88264286D02*
X28978572Y88207143D01*
X28750001Y88207143D01*
X28635715Y88264286D01*
X28578572Y88378571D01*
X28578572Y88835714D01*
X28635715Y88950000D01*
X28750001Y89007143D01*
X28978572Y89007143D01*
X29092858Y88950000D01*
X29150001Y88835714D01*
X29150001Y88721429D01*
X28578572Y88607143D01*
X29835715Y88207143D02*
X29721429Y88264286D01*
X29664286Y88378571D01*
X29664286Y89407143D01*
X31835715Y88207143D02*
X31150000Y88207143D01*
X31492858Y88207143D02*
X31492858Y89407143D01*
X31378572Y89235714D01*
X31264286Y89121429D01*
X31150000Y89064286D01*
X26292858Y68207143D02*
X25721429Y68207143D01*
X25721429Y69407143D01*
X27150001Y68264286D02*
X27035715Y68207143D01*
X26807144Y68207143D01*
X26692858Y68264286D01*
X26635715Y68378571D01*
X26635715Y68835714D01*
X26692858Y68950000D01*
X26807144Y69007143D01*
X27035715Y69007143D01*
X27150001Y68950000D01*
X27207144Y68835714D01*
X27207144Y68721429D01*
X26635715Y68607143D01*
X27607144Y69007143D02*
X27892858Y68207143D01*
X28178572Y69007143D01*
X29092858Y68264286D02*
X28978572Y68207143D01*
X28750001Y68207143D01*
X28635715Y68264286D01*
X28578572Y68378571D01*
X28578572Y68835714D01*
X28635715Y68950000D01*
X28750001Y69007143D01*
X28978572Y69007143D01*
X29092858Y68950000D01*
X29150001Y68835714D01*
X29150001Y68721429D01*
X28578572Y68607143D01*
X29835715Y68207143D02*
X29721429Y68264286D01*
X29664286Y68378571D01*
X29664286Y69407143D01*
X31150000Y69292857D02*
X31207143Y69350000D01*
X31321429Y69407143D01*
X31607143Y69407143D01*
X31721429Y69350000D01*
X31778572Y69292857D01*
X31835715Y69178571D01*
X31835715Y69064286D01*
X31778572Y68892857D01*
X31092858Y68207143D01*
X31835715Y68207143D01*
X1000000Y26000000D02*
X49000000Y26000000D01*
X1000000Y42000000D02*
X49000000Y42000000D01*
X1000000Y58000000D02*
X49000000Y58000000D01*
X25000000Y70000000D02*
X49000000Y70000000D01*
X1000000Y10000000D02*
X49000000Y10000000D01*
X25000000Y90000000D02*
X25000000Y10000000D01*
X1000000Y90000000D02*
X49000000Y90000000D01*
D12*
G36*
X42943007Y82850234D02*
X42864553Y82830731D01*
X42754000Y82826667D01*
X42542333Y82826667D01*
X42542333Y82593834D01*
X42536632Y82453421D01*
X42516628Y82381131D01*
X42478833Y82361000D01*
X42440539Y82381904D01*
X42420823Y82455252D01*
X42415333Y82593834D01*
X42415333Y82826667D01*
X42203666Y82826667D01*
X42070557Y82833465D01*
X42005544Y82857001D01*
X41992000Y82890167D01*
X42016931Y82932021D01*
X42101701Y82951085D01*
X42182500Y82953667D01*
X42296150Y82958267D01*
X42364290Y82969903D01*
X42373000Y82976806D01*
X42353199Y83021376D01*
X42300200Y83121181D01*
X42223606Y83258405D01*
X42182500Y83330216D01*
X42098096Y83479422D01*
X42032861Y83600211D01*
X41996431Y83674483D01*
X41992000Y83688077D01*
X42030094Y83703819D01*
X42127488Y83713809D01*
X42203666Y83715667D01*
X42415333Y83715667D01*
X42415333Y83927334D01*
X42422131Y84060443D01*
X42445667Y84125456D01*
X42478833Y84139000D01*
X42518766Y84116341D01*
X42538270Y84037887D01*
X42542333Y83927334D01*
X42542333Y83715667D01*
X42754000Y83715667D01*
X42874773Y83710702D01*
X42951408Y83698007D01*
X42965666Y83688077D01*
X42945823Y83641450D01*
X42892716Y83539931D01*
X42815982Y83401621D01*
X42775167Y83330216D01*
X42690849Y83181629D01*
X42625646Y83062150D01*
X42589162Y82989593D01*
X42584667Y82976806D01*
X42622534Y82963002D01*
X42718334Y82954725D01*
X42775166Y82953667D01*
X42900728Y82945357D01*
X42957921Y82917100D01*
X42965666Y82890167D01*
X42943007Y82850234D01*
X42943007Y82850234D01*
G37*
X42943007Y82850234D02*
X42864553Y82830731D01*
X42754000Y82826667D01*
X42542333Y82826667D01*
X42542333Y82593834D01*
X42536632Y82453421D01*
X42516628Y82381131D01*
X42478833Y82361000D01*
X42440539Y82381904D01*
X42420823Y82455252D01*
X42415333Y82593834D01*
X42415333Y82826667D01*
X42203666Y82826667D01*
X42070557Y82833465D01*
X42005544Y82857001D01*
X41992000Y82890167D01*
X42016931Y82932021D01*
X42101701Y82951085D01*
X42182500Y82953667D01*
X42296150Y82958267D01*
X42364290Y82969903D01*
X42373000Y82976806D01*
X42353199Y83021376D01*
X42300200Y83121181D01*
X42223606Y83258405D01*
X42182500Y83330216D01*
X42098096Y83479422D01*
X42032861Y83600211D01*
X41996431Y83674483D01*
X41992000Y83688077D01*
X42030094Y83703819D01*
X42127488Y83713809D01*
X42203666Y83715667D01*
X42415333Y83715667D01*
X42415333Y83927334D01*
X42422131Y84060443D01*
X42445667Y84125456D01*
X42478833Y84139000D01*
X42518766Y84116341D01*
X42538270Y84037887D01*
X42542333Y83927334D01*
X42542333Y83715667D01*
X42754000Y83715667D01*
X42874773Y83710702D01*
X42951408Y83698007D01*
X42965666Y83688077D01*
X42945823Y83641450D01*
X42892716Y83539931D01*
X42815982Y83401621D01*
X42775167Y83330216D01*
X42690849Y83181629D01*
X42625646Y83062150D01*
X42589162Y82989593D01*
X42584667Y82976806D01*
X42622534Y82963002D01*
X42718334Y82954725D01*
X42775166Y82953667D01*
X42900728Y82945357D01*
X42957921Y82917100D01*
X42965666Y82890167D01*
X42943007Y82850234D01*
G36*
X41943007Y63350234D02*
X41864553Y63330731D01*
X41754000Y63326667D01*
X41542333Y63326667D01*
X41542333Y63093834D01*
X41536632Y62953421D01*
X41516628Y62881131D01*
X41478833Y62861000D01*
X41440539Y62881904D01*
X41420823Y62955252D01*
X41415333Y63093834D01*
X41415333Y63326667D01*
X41203666Y63326667D01*
X41070557Y63333465D01*
X41005544Y63357001D01*
X40992000Y63390167D01*
X41016931Y63432021D01*
X41101701Y63451085D01*
X41182500Y63453667D01*
X41296150Y63458267D01*
X41364290Y63469903D01*
X41373000Y63476806D01*
X41353199Y63521376D01*
X41300200Y63621181D01*
X41223606Y63758405D01*
X41182500Y63830216D01*
X41098096Y63979422D01*
X41032861Y64100211D01*
X40996431Y64174483D01*
X40992000Y64188077D01*
X41030094Y64203819D01*
X41127488Y64213809D01*
X41203666Y64215667D01*
X41415333Y64215667D01*
X41415333Y64427334D01*
X41422131Y64560443D01*
X41445667Y64625456D01*
X41478833Y64639000D01*
X41518766Y64616341D01*
X41538270Y64537887D01*
X41542333Y64427334D01*
X41542333Y64215667D01*
X41754000Y64215667D01*
X41874773Y64210702D01*
X41951408Y64198007D01*
X41965666Y64188077D01*
X41945823Y64141450D01*
X41892716Y64039931D01*
X41815982Y63901621D01*
X41775167Y63830216D01*
X41690849Y63681629D01*
X41625646Y63562150D01*
X41589162Y63489593D01*
X41584667Y63476806D01*
X41622534Y63463002D01*
X41718334Y63454725D01*
X41775166Y63453667D01*
X41900728Y63445357D01*
X41957921Y63417100D01*
X41965666Y63390167D01*
X41943007Y63350234D01*
X41943007Y63350234D01*
G37*
X41943007Y63350234D02*
X41864553Y63330731D01*
X41754000Y63326667D01*
X41542333Y63326667D01*
X41542333Y63093834D01*
X41536632Y62953421D01*
X41516628Y62881131D01*
X41478833Y62861000D01*
X41440539Y62881904D01*
X41420823Y62955252D01*
X41415333Y63093834D01*
X41415333Y63326667D01*
X41203666Y63326667D01*
X41070557Y63333465D01*
X41005544Y63357001D01*
X40992000Y63390167D01*
X41016931Y63432021D01*
X41101701Y63451085D01*
X41182500Y63453667D01*
X41296150Y63458267D01*
X41364290Y63469903D01*
X41373000Y63476806D01*
X41353199Y63521376D01*
X41300200Y63621181D01*
X41223606Y63758405D01*
X41182500Y63830216D01*
X41098096Y63979422D01*
X41032861Y64100211D01*
X40996431Y64174483D01*
X40992000Y64188077D01*
X41030094Y64203819D01*
X41127488Y64213809D01*
X41203666Y64215667D01*
X41415333Y64215667D01*
X41415333Y64427334D01*
X41422131Y64560443D01*
X41445667Y64625456D01*
X41478833Y64639000D01*
X41518766Y64616341D01*
X41538270Y64537887D01*
X41542333Y64427334D01*
X41542333Y64215667D01*
X41754000Y64215667D01*
X41874773Y64210702D01*
X41951408Y64198007D01*
X41965666Y64188077D01*
X41945823Y64141450D01*
X41892716Y64039931D01*
X41815982Y63901621D01*
X41775167Y63830216D01*
X41690849Y63681629D01*
X41625646Y63562150D01*
X41589162Y63489593D01*
X41584667Y63476806D01*
X41622534Y63463002D01*
X41718334Y63454725D01*
X41775166Y63453667D01*
X41900728Y63445357D01*
X41957921Y63417100D01*
X41965666Y63390167D01*
X41943007Y63350234D01*
G36*
X42193007Y49600234D02*
X42114553Y49580731D01*
X42004000Y49576667D01*
X41792333Y49576667D01*
X41792333Y49343834D01*
X41786632Y49203421D01*
X41766628Y49131131D01*
X41728833Y49111000D01*
X41690539Y49131904D01*
X41670823Y49205252D01*
X41665333Y49343834D01*
X41665333Y49576667D01*
X41453666Y49576667D01*
X41320557Y49583465D01*
X41255544Y49607001D01*
X41242000Y49640167D01*
X41266931Y49682021D01*
X41351701Y49701085D01*
X41432500Y49703667D01*
X41546150Y49708267D01*
X41614290Y49719903D01*
X41623000Y49726806D01*
X41603199Y49771376D01*
X41550200Y49871181D01*
X41473606Y50008405D01*
X41432500Y50080216D01*
X41348096Y50229422D01*
X41282861Y50350211D01*
X41246431Y50424483D01*
X41242000Y50438077D01*
X41280094Y50453819D01*
X41377488Y50463809D01*
X41453666Y50465667D01*
X41665333Y50465667D01*
X41665333Y50677334D01*
X41672131Y50810443D01*
X41695667Y50875456D01*
X41728833Y50889000D01*
X41768766Y50866341D01*
X41788270Y50787887D01*
X41792333Y50677334D01*
X41792333Y50465667D01*
X42004000Y50465667D01*
X42124773Y50460702D01*
X42201408Y50448007D01*
X42215666Y50438077D01*
X42195823Y50391450D01*
X42142716Y50289931D01*
X42065982Y50151621D01*
X42025167Y50080216D01*
X41940849Y49931629D01*
X41875646Y49812150D01*
X41839162Y49739593D01*
X41834667Y49726806D01*
X41872534Y49713002D01*
X41968334Y49704725D01*
X42025166Y49703667D01*
X42150728Y49695357D01*
X42207921Y49667100D01*
X42215666Y49640167D01*
X42193007Y49600234D01*
X42193007Y49600234D01*
G37*
X42193007Y49600234D02*
X42114553Y49580731D01*
X42004000Y49576667D01*
X41792333Y49576667D01*
X41792333Y49343834D01*
X41786632Y49203421D01*
X41766628Y49131131D01*
X41728833Y49111000D01*
X41690539Y49131904D01*
X41670823Y49205252D01*
X41665333Y49343834D01*
X41665333Y49576667D01*
X41453666Y49576667D01*
X41320557Y49583465D01*
X41255544Y49607001D01*
X41242000Y49640167D01*
X41266931Y49682021D01*
X41351701Y49701085D01*
X41432500Y49703667D01*
X41546150Y49708267D01*
X41614290Y49719903D01*
X41623000Y49726806D01*
X41603199Y49771376D01*
X41550200Y49871181D01*
X41473606Y50008405D01*
X41432500Y50080216D01*
X41348096Y50229422D01*
X41282861Y50350211D01*
X41246431Y50424483D01*
X41242000Y50438077D01*
X41280094Y50453819D01*
X41377488Y50463809D01*
X41453666Y50465667D01*
X41665333Y50465667D01*
X41665333Y50677334D01*
X41672131Y50810443D01*
X41695667Y50875456D01*
X41728833Y50889000D01*
X41768766Y50866341D01*
X41788270Y50787887D01*
X41792333Y50677334D01*
X41792333Y50465667D01*
X42004000Y50465667D01*
X42124773Y50460702D01*
X42201408Y50448007D01*
X42215666Y50438077D01*
X42195823Y50391450D01*
X42142716Y50289931D01*
X42065982Y50151621D01*
X42025167Y50080216D01*
X41940849Y49931629D01*
X41875646Y49812150D01*
X41839162Y49739593D01*
X41834667Y49726806D01*
X41872534Y49713002D01*
X41968334Y49704725D01*
X42025166Y49703667D01*
X42150728Y49695357D01*
X42207921Y49667100D01*
X42215666Y49640167D01*
X42193007Y49600234D01*
G36*
X43193007Y17600234D02*
X43114553Y17580731D01*
X43004000Y17576667D01*
X42792333Y17576667D01*
X42792333Y17343834D01*
X42786632Y17203421D01*
X42766628Y17131131D01*
X42728833Y17111000D01*
X42690539Y17131904D01*
X42670823Y17205252D01*
X42665333Y17343834D01*
X42665333Y17576667D01*
X42453666Y17576667D01*
X42320557Y17583465D01*
X42255544Y17607001D01*
X42242000Y17640167D01*
X42266931Y17682021D01*
X42351701Y17701085D01*
X42432500Y17703667D01*
X42546150Y17708267D01*
X42614290Y17719903D01*
X42623000Y17726806D01*
X42603199Y17771376D01*
X42550200Y17871181D01*
X42473606Y18008405D01*
X42432500Y18080216D01*
X42348096Y18229422D01*
X42282861Y18350211D01*
X42246431Y18424483D01*
X42242000Y18438077D01*
X42280094Y18453819D01*
X42377488Y18463809D01*
X42453666Y18465667D01*
X42665333Y18465667D01*
X42665333Y18677334D01*
X42672131Y18810443D01*
X42695667Y18875456D01*
X42728833Y18889000D01*
X42768766Y18866341D01*
X42788270Y18787887D01*
X42792333Y18677334D01*
X42792333Y18465667D01*
X43004000Y18465667D01*
X43124773Y18460702D01*
X43201408Y18448007D01*
X43215666Y18438077D01*
X43195823Y18391450D01*
X43142716Y18289931D01*
X43065982Y18151621D01*
X43025167Y18080216D01*
X42940849Y17931629D01*
X42875646Y17812150D01*
X42839162Y17739593D01*
X42834667Y17726806D01*
X42872534Y17713002D01*
X42968334Y17704725D01*
X43025166Y17703667D01*
X43150728Y17695357D01*
X43207921Y17667100D01*
X43215666Y17640167D01*
X43193007Y17600234D01*
X43193007Y17600234D01*
G37*
X43193007Y17600234D02*
X43114553Y17580731D01*
X43004000Y17576667D01*
X42792333Y17576667D01*
X42792333Y17343834D01*
X42786632Y17203421D01*
X42766628Y17131131D01*
X42728833Y17111000D01*
X42690539Y17131904D01*
X42670823Y17205252D01*
X42665333Y17343834D01*
X42665333Y17576667D01*
X42453666Y17576667D01*
X42320557Y17583465D01*
X42255544Y17607001D01*
X42242000Y17640167D01*
X42266931Y17682021D01*
X42351701Y17701085D01*
X42432500Y17703667D01*
X42546150Y17708267D01*
X42614290Y17719903D01*
X42623000Y17726806D01*
X42603199Y17771376D01*
X42550200Y17871181D01*
X42473606Y18008405D01*
X42432500Y18080216D01*
X42348096Y18229422D01*
X42282861Y18350211D01*
X42246431Y18424483D01*
X42242000Y18438077D01*
X42280094Y18453819D01*
X42377488Y18463809D01*
X42453666Y18465667D01*
X42665333Y18465667D01*
X42665333Y18677334D01*
X42672131Y18810443D01*
X42695667Y18875456D01*
X42728833Y18889000D01*
X42768766Y18866341D01*
X42788270Y18787887D01*
X42792333Y18677334D01*
X42792333Y18465667D01*
X43004000Y18465667D01*
X43124773Y18460702D01*
X43201408Y18448007D01*
X43215666Y18438077D01*
X43195823Y18391450D01*
X43142716Y18289931D01*
X43065982Y18151621D01*
X43025167Y18080216D01*
X42940849Y17931629D01*
X42875646Y17812150D01*
X42839162Y17739593D01*
X42834667Y17726806D01*
X42872534Y17713002D01*
X42968334Y17704725D01*
X43025166Y17703667D01*
X43150728Y17695357D01*
X43207921Y17667100D01*
X43215666Y17640167D01*
X43193007Y17600234D01*
G36*
X42943007Y33600234D02*
X42864553Y33580731D01*
X42754000Y33576667D01*
X42542333Y33576667D01*
X42542333Y33343834D01*
X42536632Y33203421D01*
X42516628Y33131131D01*
X42478833Y33111000D01*
X42440539Y33131904D01*
X42420823Y33205252D01*
X42415333Y33343834D01*
X42415333Y33576667D01*
X42203666Y33576667D01*
X42070557Y33583465D01*
X42005544Y33607001D01*
X41992000Y33640167D01*
X42016931Y33682021D01*
X42101701Y33701085D01*
X42182500Y33703667D01*
X42296150Y33708267D01*
X42364290Y33719903D01*
X42373000Y33726806D01*
X42353199Y33771376D01*
X42300200Y33871181D01*
X42223606Y34008405D01*
X42182500Y34080216D01*
X42098096Y34229422D01*
X42032861Y34350211D01*
X41996431Y34424483D01*
X41992000Y34438077D01*
X42030094Y34453819D01*
X42127488Y34463809D01*
X42203666Y34465667D01*
X42415333Y34465667D01*
X42415333Y34677334D01*
X42422131Y34810443D01*
X42445667Y34875456D01*
X42478833Y34889000D01*
X42518766Y34866341D01*
X42538270Y34787887D01*
X42542333Y34677334D01*
X42542333Y34465667D01*
X42754000Y34465667D01*
X42874773Y34460702D01*
X42951408Y34448007D01*
X42965666Y34438077D01*
X42945823Y34391450D01*
X42892716Y34289931D01*
X42815982Y34151621D01*
X42775167Y34080216D01*
X42690849Y33931629D01*
X42625646Y33812150D01*
X42589162Y33739593D01*
X42584667Y33726806D01*
X42622534Y33713002D01*
X42718334Y33704725D01*
X42775166Y33703667D01*
X42900728Y33695357D01*
X42957921Y33667100D01*
X42965666Y33640167D01*
X42943007Y33600234D01*
X42943007Y33600234D01*
G37*
X42943007Y33600234D02*
X42864553Y33580731D01*
X42754000Y33576667D01*
X42542333Y33576667D01*
X42542333Y33343834D01*
X42536632Y33203421D01*
X42516628Y33131131D01*
X42478833Y33111000D01*
X42440539Y33131904D01*
X42420823Y33205252D01*
X42415333Y33343834D01*
X42415333Y33576667D01*
X42203666Y33576667D01*
X42070557Y33583465D01*
X42005544Y33607001D01*
X41992000Y33640167D01*
X42016931Y33682021D01*
X42101701Y33701085D01*
X42182500Y33703667D01*
X42296150Y33708267D01*
X42364290Y33719903D01*
X42373000Y33726806D01*
X42353199Y33771376D01*
X42300200Y33871181D01*
X42223606Y34008405D01*
X42182500Y34080216D01*
X42098096Y34229422D01*
X42032861Y34350211D01*
X41996431Y34424483D01*
X41992000Y34438077D01*
X42030094Y34453819D01*
X42127488Y34463809D01*
X42203666Y34465667D01*
X42415333Y34465667D01*
X42415333Y34677334D01*
X42422131Y34810443D01*
X42445667Y34875456D01*
X42478833Y34889000D01*
X42518766Y34866341D01*
X42538270Y34787887D01*
X42542333Y34677334D01*
X42542333Y34465667D01*
X42754000Y34465667D01*
X42874773Y34460702D01*
X42951408Y34448007D01*
X42965666Y34438077D01*
X42945823Y34391450D01*
X42892716Y34289931D01*
X42815982Y34151621D01*
X42775167Y34080216D01*
X42690849Y33931629D01*
X42625646Y33812150D01*
X42589162Y33739593D01*
X42584667Y33726806D01*
X42622534Y33713002D01*
X42718334Y33704725D01*
X42775166Y33703667D01*
X42900728Y33695357D01*
X42957921Y33667100D01*
X42965666Y33640167D01*
X42943007Y33600234D01*
D13*
X31450000Y19160000D02*
X30050000Y19160000D01*
X30050000Y16840000D02*
X31450000Y16840000D01*
D14*
X20325000Y16375000D02*
X20325000Y16575000D01*
X15675000Y16375000D02*
X15675000Y16575000D01*
X15675000Y19625000D02*
X15675000Y19425000D01*
X20325000Y19625000D02*
X20325000Y19425000D01*
X20325000Y16375000D02*
X15675000Y16375000D01*
X20325000Y19625000D02*
X15675000Y19625000D01*
X19825000Y31425000D02*
X19825000Y31570000D01*
X15675000Y31425000D02*
X15675000Y31570000D01*
X15675000Y36575000D02*
X15675000Y36430000D01*
X19825000Y36575000D02*
X19825000Y36430000D01*
X19825000Y31425000D02*
X15675000Y31425000D01*
X19825000Y36575000D02*
X15675000Y36575000D01*
D12*
G36*
X14844115Y7247673D02*
X15015666Y7247666D01*
X15711801Y7247478D01*
X16327954Y7246870D01*
X16868808Y7245777D01*
X17339049Y7244136D01*
X17743359Y7241883D01*
X18086423Y7238952D01*
X18372924Y7235280D01*
X18607547Y7230803D01*
X18794975Y7225456D01*
X18939892Y7219176D01*
X19046983Y7211896D01*
X19120930Y7203555D01*
X19166419Y7194086D01*
X19176276Y7190582D01*
X19408422Y7049760D01*
X19600121Y6846199D01*
X19699135Y6677896D01*
X19723667Y6623864D01*
X19743787Y6571509D01*
X19759934Y6512258D01*
X19772543Y6437534D01*
X19782053Y6338762D01*
X19788901Y6207366D01*
X19793523Y6034770D01*
X19796358Y5812399D01*
X19797841Y5531677D01*
X19798412Y5184029D01*
X19798506Y4760878D01*
X19798506Y4728833D01*
X19798428Y4300183D01*
X19797905Y3947624D01*
X19796498Y3662581D01*
X19793770Y3436477D01*
X19789284Y3260738D01*
X19782603Y3126786D01*
X19773290Y3026048D01*
X19760908Y2949947D01*
X19745018Y2889908D01*
X19725185Y2837354D01*
X19700970Y2783711D01*
X19699135Y2779770D01*
X19547203Y2543986D01*
X19341096Y2357483D01*
X19176276Y2267085D01*
X19139517Y2257232D01*
X19075994Y2248533D01*
X18981024Y2240923D01*
X18849926Y2234340D01*
X18678018Y2228720D01*
X18460617Y2224002D01*
X18193042Y2220121D01*
X17870611Y2217014D01*
X17488642Y2214619D01*
X17042453Y2212872D01*
X16527362Y2211711D01*
X15938687Y2211072D01*
X15271746Y2210893D01*
X15006443Y2210930D01*
X14330453Y2211146D01*
X13733916Y2211529D01*
X13211618Y2212178D01*
X12758344Y2213192D01*
X12368881Y2214669D01*
X12038015Y2216708D01*
X11760532Y2219407D01*
X11531217Y2222865D01*
X11344857Y2227181D01*
X11196238Y2232453D01*
X11080145Y2238780D01*
X10991366Y2246260D01*
X10924685Y2254993D01*
X10874889Y2265076D01*
X10836764Y2276608D01*
X10805096Y2289689D01*
X10803500Y2290427D01*
X10662697Y2374589D01*
X10525879Y2484764D01*
X10498728Y2511747D01*
X10436201Y2578754D01*
X10384299Y2641574D01*
X10342038Y2708457D01*
X10308432Y2787653D01*
X10282497Y2887412D01*
X10263247Y3015984D01*
X10249698Y3181619D01*
X10240864Y3392566D01*
X10235762Y3657076D01*
X10233404Y3983399D01*
X10232808Y4379783D01*
X10232929Y4738057D01*
X10233306Y5195568D01*
X10234648Y5576630D01*
X10238057Y5889460D01*
X10244634Y6142274D01*
X10255483Y6343290D01*
X10271704Y6500724D01*
X10294401Y6622794D01*
X10324675Y6717718D01*
X10363629Y6793711D01*
X10412363Y6858991D01*
X10471982Y6921775D01*
X10533747Y6980938D01*
X10578506Y7024676D01*
X10618504Y7063365D01*
X10658928Y7097314D01*
X10704966Y7126831D01*
X10761806Y7152226D01*
X10834635Y7173807D01*
X10928642Y7191883D01*
X11049014Y7206763D01*
X11200938Y7218754D01*
X11389603Y7228167D01*
X11620196Y7235309D01*
X11897906Y7240490D01*
X12227919Y7244019D01*
X12615424Y7246203D01*
X13065608Y7247352D01*
X13583660Y7247773D01*
X14174766Y7247777D01*
X14844115Y7247673D01*
X14844115Y7247673D01*
G37*
X14844115Y7247673D02*
X15015666Y7247666D01*
X15711801Y7247478D01*
X16327954Y7246870D01*
X16868808Y7245777D01*
X17339049Y7244136D01*
X17743359Y7241883D01*
X18086423Y7238952D01*
X18372924Y7235280D01*
X18607547Y7230803D01*
X18794975Y7225456D01*
X18939892Y7219176D01*
X19046983Y7211896D01*
X19120930Y7203555D01*
X19166419Y7194086D01*
X19176276Y7190582D01*
X19408422Y7049760D01*
X19600121Y6846199D01*
X19699135Y6677896D01*
X19723667Y6623864D01*
X19743787Y6571509D01*
X19759934Y6512258D01*
X19772543Y6437534D01*
X19782053Y6338762D01*
X19788901Y6207366D01*
X19793523Y6034770D01*
X19796358Y5812399D01*
X19797841Y5531677D01*
X19798412Y5184029D01*
X19798506Y4760878D01*
X19798506Y4728833D01*
X19798428Y4300183D01*
X19797905Y3947624D01*
X19796498Y3662581D01*
X19793770Y3436477D01*
X19789284Y3260738D01*
X19782603Y3126786D01*
X19773290Y3026048D01*
X19760908Y2949947D01*
X19745018Y2889908D01*
X19725185Y2837354D01*
X19700970Y2783711D01*
X19699135Y2779770D01*
X19547203Y2543986D01*
X19341096Y2357483D01*
X19176276Y2267085D01*
X19139517Y2257232D01*
X19075994Y2248533D01*
X18981024Y2240923D01*
X18849926Y2234340D01*
X18678018Y2228720D01*
X18460617Y2224002D01*
X18193042Y2220121D01*
X17870611Y2217014D01*
X17488642Y2214619D01*
X17042453Y2212872D01*
X16527362Y2211711D01*
X15938687Y2211072D01*
X15271746Y2210893D01*
X15006443Y2210930D01*
X14330453Y2211146D01*
X13733916Y2211529D01*
X13211618Y2212178D01*
X12758344Y2213192D01*
X12368881Y2214669D01*
X12038015Y2216708D01*
X11760532Y2219407D01*
X11531217Y2222865D01*
X11344857Y2227181D01*
X11196238Y2232453D01*
X11080145Y2238780D01*
X10991366Y2246260D01*
X10924685Y2254993D01*
X10874889Y2265076D01*
X10836764Y2276608D01*
X10805096Y2289689D01*
X10803500Y2290427D01*
X10662697Y2374589D01*
X10525879Y2484764D01*
X10498728Y2511747D01*
X10436201Y2578754D01*
X10384299Y2641574D01*
X10342038Y2708457D01*
X10308432Y2787653D01*
X10282497Y2887412D01*
X10263247Y3015984D01*
X10249698Y3181619D01*
X10240864Y3392566D01*
X10235762Y3657076D01*
X10233404Y3983399D01*
X10232808Y4379783D01*
X10232929Y4738057D01*
X10233306Y5195568D01*
X10234648Y5576630D01*
X10238057Y5889460D01*
X10244634Y6142274D01*
X10255483Y6343290D01*
X10271704Y6500724D01*
X10294401Y6622794D01*
X10324675Y6717718D01*
X10363629Y6793711D01*
X10412363Y6858991D01*
X10471982Y6921775D01*
X10533747Y6980938D01*
X10578506Y7024676D01*
X10618504Y7063365D01*
X10658928Y7097314D01*
X10704966Y7126831D01*
X10761806Y7152226D01*
X10834635Y7173807D01*
X10928642Y7191883D01*
X11049014Y7206763D01*
X11200938Y7218754D01*
X11389603Y7228167D01*
X11620196Y7235309D01*
X11897906Y7240490D01*
X12227919Y7244019D01*
X12615424Y7246203D01*
X13065608Y7247352D01*
X13583660Y7247773D01*
X14174766Y7247777D01*
X14844115Y7247673D01*
G36*
X39528817Y7247909D02*
X40160948Y7247505D01*
X40727308Y7246652D01*
X41231676Y7245222D01*
X41677831Y7243085D01*
X42069553Y7240111D01*
X42410619Y7236168D01*
X42704810Y7231128D01*
X42955904Y7224860D01*
X43167680Y7217233D01*
X43343918Y7208117D01*
X43488397Y7197383D01*
X43604895Y7184899D01*
X43697191Y7170537D01*
X43769066Y7154165D01*
X43824297Y7135653D01*
X43866664Y7114872D01*
X43899946Y7091690D01*
X43927922Y7065979D01*
X43954371Y7037606D01*
X43983072Y7006444D01*
X44008586Y6980938D01*
X44078471Y6913772D01*
X44136558Y6851306D01*
X44183936Y6785348D01*
X44221697Y6707706D01*
X44250932Y6610187D01*
X44272732Y6484600D01*
X44288187Y6322751D01*
X44298388Y6116449D01*
X44304427Y5857501D01*
X44307393Y5537715D01*
X44308379Y5148899D01*
X44308473Y4728833D01*
X44308342Y4270186D01*
X44307221Y3888013D01*
X44304019Y3574122D01*
X44297646Y3320321D01*
X44287010Y3118417D01*
X44271021Y2960219D01*
X44248588Y2837534D01*
X44218620Y2742170D01*
X44180025Y2665934D01*
X44131714Y2600635D01*
X44072596Y2538080D01*
X44008586Y2476729D01*
X43975690Y2443382D01*
X43947912Y2412922D01*
X43921475Y2385217D01*
X43892602Y2360140D01*
X43857518Y2337561D01*
X43812446Y2317352D01*
X43753608Y2299382D01*
X43677229Y2283522D01*
X43579533Y2269645D01*
X43456741Y2257619D01*
X43305079Y2247317D01*
X43120770Y2238609D01*
X42900036Y2231366D01*
X42639102Y2225459D01*
X42334191Y2220758D01*
X41981526Y2217135D01*
X41577331Y2214460D01*
X41117830Y2212604D01*
X40599245Y2211439D01*
X40017801Y2210834D01*
X39369721Y2210661D01*
X38651228Y2210790D01*
X37858546Y2211093D01*
X36987898Y2211440D01*
X36257776Y2211657D01*
X35307462Y2211975D01*
X34438439Y2212495D01*
X33647333Y2213244D01*
X32930769Y2214248D01*
X32285372Y2215532D01*
X31707768Y2217122D01*
X31194581Y2219045D01*
X30742436Y2221326D01*
X30347959Y2223992D01*
X30007775Y2227068D01*
X29718508Y2230580D01*
X29476785Y2234555D01*
X29279231Y2239018D01*
X29122469Y2243996D01*
X29003126Y2249513D01*
X28917827Y2255598D01*
X28863197Y2262274D01*
X28837500Y2268794D01*
X28609575Y2411490D01*
X28420230Y2615463D01*
X28323864Y2779770D01*
X28299332Y2833803D01*
X28279212Y2886157D01*
X28263065Y2945408D01*
X28250456Y3020132D01*
X28240946Y3118904D01*
X28234098Y3250301D01*
X28229476Y3422896D01*
X28226641Y3645267D01*
X28225158Y3925989D01*
X28224587Y4273637D01*
X28224493Y4696788D01*
X28224493Y4728833D01*
X28224571Y5157483D01*
X28225094Y5510042D01*
X28226501Y5795085D01*
X28229229Y6021189D01*
X28233715Y6196929D01*
X28240396Y6330880D01*
X28249709Y6431618D01*
X28262091Y6507719D01*
X28277981Y6567759D01*
X28297814Y6620312D01*
X28322029Y6673956D01*
X28323864Y6677896D01*
X28475796Y6913680D01*
X28681903Y7100184D01*
X28846723Y7190582D01*
X28876326Y7197983D01*
X28930553Y7204744D01*
X29012876Y7210892D01*
X29126767Y7216453D01*
X29275697Y7221455D01*
X29463139Y7225922D01*
X29692564Y7229884D01*
X29967444Y7233365D01*
X30291250Y7236393D01*
X30667454Y7238994D01*
X31099529Y7241196D01*
X31590944Y7243025D01*
X32145174Y7244507D01*
X32765688Y7245670D01*
X33455959Y7246540D01*
X34219458Y7247143D01*
X35059657Y7247507D01*
X35980029Y7247659D01*
X36266999Y7247666D01*
X37200006Y7247746D01*
X38052125Y7247900D01*
X38827135Y7247998D01*
X39528817Y7247909D01*
X39528817Y7247909D01*
G37*
X39528817Y7247909D02*
X40160948Y7247505D01*
X40727308Y7246652D01*
X41231676Y7245222D01*
X41677831Y7243085D01*
X42069553Y7240111D01*
X42410619Y7236168D01*
X42704810Y7231128D01*
X42955904Y7224860D01*
X43167680Y7217233D01*
X43343918Y7208117D01*
X43488397Y7197383D01*
X43604895Y7184899D01*
X43697191Y7170537D01*
X43769066Y7154165D01*
X43824297Y7135653D01*
X43866664Y7114872D01*
X43899946Y7091690D01*
X43927922Y7065979D01*
X43954371Y7037606D01*
X43983072Y7006444D01*
X44008586Y6980938D01*
X44078471Y6913772D01*
X44136558Y6851306D01*
X44183936Y6785348D01*
X44221697Y6707706D01*
X44250932Y6610187D01*
X44272732Y6484600D01*
X44288187Y6322751D01*
X44298388Y6116449D01*
X44304427Y5857501D01*
X44307393Y5537715D01*
X44308379Y5148899D01*
X44308473Y4728833D01*
X44308342Y4270186D01*
X44307221Y3888013D01*
X44304019Y3574122D01*
X44297646Y3320321D01*
X44287010Y3118417D01*
X44271021Y2960219D01*
X44248588Y2837534D01*
X44218620Y2742170D01*
X44180025Y2665934D01*
X44131714Y2600635D01*
X44072596Y2538080D01*
X44008586Y2476729D01*
X43975690Y2443382D01*
X43947912Y2412922D01*
X43921475Y2385217D01*
X43892602Y2360140D01*
X43857518Y2337561D01*
X43812446Y2317352D01*
X43753608Y2299382D01*
X43677229Y2283522D01*
X43579533Y2269645D01*
X43456741Y2257619D01*
X43305079Y2247317D01*
X43120770Y2238609D01*
X42900036Y2231366D01*
X42639102Y2225459D01*
X42334191Y2220758D01*
X41981526Y2217135D01*
X41577331Y2214460D01*
X41117830Y2212604D01*
X40599245Y2211439D01*
X40017801Y2210834D01*
X39369721Y2210661D01*
X38651228Y2210790D01*
X37858546Y2211093D01*
X36987898Y2211440D01*
X36257776Y2211657D01*
X35307462Y2211975D01*
X34438439Y2212495D01*
X33647333Y2213244D01*
X32930769Y2214248D01*
X32285372Y2215532D01*
X31707768Y2217122D01*
X31194581Y2219045D01*
X30742436Y2221326D01*
X30347959Y2223992D01*
X30007775Y2227068D01*
X29718508Y2230580D01*
X29476785Y2234555D01*
X29279231Y2239018D01*
X29122469Y2243996D01*
X29003126Y2249513D01*
X28917827Y2255598D01*
X28863197Y2262274D01*
X28837500Y2268794D01*
X28609575Y2411490D01*
X28420230Y2615463D01*
X28323864Y2779770D01*
X28299332Y2833803D01*
X28279212Y2886157D01*
X28263065Y2945408D01*
X28250456Y3020132D01*
X28240946Y3118904D01*
X28234098Y3250301D01*
X28229476Y3422896D01*
X28226641Y3645267D01*
X28225158Y3925989D01*
X28224587Y4273637D01*
X28224493Y4696788D01*
X28224493Y4728833D01*
X28224571Y5157483D01*
X28225094Y5510042D01*
X28226501Y5795085D01*
X28229229Y6021189D01*
X28233715Y6196929D01*
X28240396Y6330880D01*
X28249709Y6431618D01*
X28262091Y6507719D01*
X28277981Y6567759D01*
X28297814Y6620312D01*
X28322029Y6673956D01*
X28323864Y6677896D01*
X28475796Y6913680D01*
X28681903Y7100184D01*
X28846723Y7190582D01*
X28876326Y7197983D01*
X28930553Y7204744D01*
X29012876Y7210892D01*
X29126767Y7216453D01*
X29275697Y7221455D01*
X29463139Y7225922D01*
X29692564Y7229884D01*
X29967444Y7233365D01*
X30291250Y7236393D01*
X30667454Y7238994D01*
X31099529Y7241196D01*
X31590944Y7243025D01*
X32145174Y7244507D01*
X32765688Y7245670D01*
X33455959Y7246540D01*
X34219458Y7247143D01*
X35059657Y7247507D01*
X35980029Y7247659D01*
X36266999Y7247666D01*
X37200006Y7247746D01*
X38052125Y7247900D01*
X38827135Y7247998D01*
X39528817Y7247909D01*
D13*
X37000000Y34985000D02*
X37660000Y34985000D01*
X35330000Y34985000D02*
X36000000Y34985000D01*
X35340000Y34985000D02*
X35340000Y32250000D01*
X37660000Y33575000D02*
X37660000Y34985000D01*
X38655000Y50760000D02*
X37725000Y50760000D01*
X35495000Y50760000D02*
X36425000Y50760000D01*
X35495000Y50760000D02*
X35495000Y47600000D01*
X38655000Y50760000D02*
X38655000Y49300000D01*
X11890000Y44870000D02*
G75*
G02X13890000Y44870000I1000000J0D01*
G01*
X13890000Y44870000D02*
X15540000Y44870000D01*
X15540000Y44870000D02*
X15540000Y55150000D01*
X15540000Y55150000D02*
X10240000Y55150000D01*
X10240000Y55150000D02*
X10240000Y44870000D01*
X10240000Y44870000D02*
X11890000Y44870000D01*
X36820000Y17500000D02*
X36820000Y18500000D01*
X38180000Y18500000D02*
X38180000Y17500000D01*
X34320000Y17500000D02*
X34320000Y18500000D01*
X35680000Y18500000D02*
X35680000Y17500000D01*
X12630000Y18600000D02*
X12630000Y17400000D01*
X10870000Y17400000D02*
X10870000Y18600000D01*
X7370000Y17400000D02*
X7370000Y18600000D01*
X9130000Y18600000D02*
X9130000Y17400000D01*
X30880000Y34600000D02*
X30880000Y33400000D01*
X29120000Y33400000D02*
X29120000Y34600000D01*
X10820000Y34750000D02*
X10820000Y32750000D01*
X8680000Y32750000D02*
X8680000Y34750000D01*
X3180000Y32750000D02*
X3180000Y34750000D01*
X5320000Y34750000D02*
X5320000Y32750000D01*
X31070000Y51000000D02*
X31070000Y49000000D01*
X28930000Y49000000D02*
X28930000Y51000000D01*
X5140000Y48100000D02*
X5140000Y51820000D01*
X6860000Y48100000D02*
X6860000Y51820000D01*
X2640000Y48100000D02*
X2640000Y51820000D01*
X4360000Y48100000D02*
X4360000Y51820000D01*
X29110000Y65870000D02*
X29110000Y62150000D01*
X27390000Y65870000D02*
X27390000Y62150000D01*
X47400000Y71520000D02*
X47400000Y71190000D01*
X47400000Y71190000D02*
X40980000Y71190000D01*
X40980000Y71190000D02*
X40980000Y71520000D01*
X47400000Y73480000D02*
X47400000Y73810000D01*
X47400000Y73810000D02*
X40980000Y73810000D01*
X40980000Y73810000D02*
X40980000Y73480000D01*
X47400000Y75520000D02*
X47400000Y75190000D01*
X47400000Y75190000D02*
X40980000Y75190000D01*
X40980000Y75190000D02*
X40980000Y75520000D01*
X47400000Y77480000D02*
X47400000Y77810000D01*
X47400000Y77810000D02*
X40980000Y77810000D01*
X40980000Y77810000D02*
X40980000Y77480000D01*
X26980000Y73480000D02*
X26980000Y73810000D01*
X26980000Y73810000D02*
X33400000Y73810000D01*
X33400000Y73810000D02*
X33400000Y73480000D01*
X26980000Y71520000D02*
X26980000Y71190000D01*
X26980000Y71190000D02*
X33400000Y71190000D01*
X33400000Y71190000D02*
X33400000Y71520000D01*
X26980000Y77480000D02*
X26980000Y77810000D01*
X26980000Y77810000D02*
X33400000Y77810000D01*
X33400000Y77810000D02*
X33400000Y77480000D01*
X26980000Y75520000D02*
X26980000Y75190000D01*
X26980000Y75190000D02*
X33400000Y75190000D01*
X33400000Y75190000D02*
X33400000Y75520000D01*
X26980000Y81480000D02*
X26980000Y81810000D01*
X26980000Y81810000D02*
X33400000Y81810000D01*
X33400000Y81810000D02*
X33400000Y81480000D01*
X26980000Y79520000D02*
X26980000Y79190000D01*
X26980000Y79190000D02*
X33400000Y79190000D01*
X33400000Y79190000D02*
X33400000Y79520000D01*
X43700000Y16200000D02*
X44800000Y16200000D01*
X44800000Y16200000D02*
X44800000Y18800000D01*
X43700000Y16200000D02*
X43700000Y18800000D01*
X45000000Y35000000D02*
X45000000Y31800000D01*
X43500000Y31800000D02*
X43500000Y35000000D01*
X43500000Y31800000D02*
X45000000Y31800000D01*
X45850000Y52250000D02*
X45850000Y47600000D01*
X42650000Y52250000D02*
X42650000Y47600000D01*
X42650000Y47600000D02*
X43450000Y47600000D01*
X43171392Y65692335D02*
G75*
G03X43014484Y62460000I1078608J-1672335D01*
G01*
X45328608Y65692335D02*
G75*
G02X45485516Y62460000I-1078608J-1672335D01*
G01*
X43170163Y65061130D02*
G75*
G03X43170000Y62979039I1079837J-1041130D01*
G01*
X45329837Y65061130D02*
G75*
G02X45330000Y62979039I-1079837J-1041130D01*
G01*
X43014000Y62460000D02*
X43170000Y62460000D01*
X45330000Y62460000D02*
X45486000Y62460000D01*
X44250462Y86260000D02*
G75*
G03X42705170Y80710000I-462J-2990000D01*
G01*
X44249538Y86260000D02*
G75*
G02X45794830Y80710000I462J-2990000D01*
G01*
X46750000Y83270000D02*
G75*
G03X46750000Y83270000I-2500000J0D01*
G01*
X42705000Y80710000D02*
X45795000Y80710000D01*
X27530000Y85780000D02*
X27530000Y85910000D01*
X27530000Y85910000D02*
X32850000Y85910000D01*
X32850000Y85910000D02*
X32850000Y85780000D01*
X27530000Y83220000D02*
X27530000Y83090000D01*
X27530000Y83090000D02*
X32850000Y83090000D01*
X32850000Y83090000D02*
X32850000Y83220000D01*
X28370000Y85910000D02*
X28370000Y83090000D01*
X17500000Y12900000D02*
X18500000Y12900000D01*
X18500000Y14600000D02*
X17500000Y14600000D01*
X16750000Y27730000D02*
X18750000Y27730000D01*
X18750000Y29770000D02*
X16750000Y29770000D01*
X22679723Y45194278D02*
G75*
G03X22680000Y49805580I-1179723J2305722D01*
G01*
X20320277Y45194278D02*
G75*
G02X20320000Y49805580I1179723J2305722D01*
G01*
X20320277Y45194278D02*
G75*
G03X22680000Y45194420I1179723J2305722D01*
G01*
X24050000Y47500000D02*
X18950000Y47500000D01*
X24050000Y47460000D02*
X22480000Y47460000D01*
X20520000Y47460000D02*
X18950000Y47460000D01*
X24049000Y47420000D02*
X22480000Y47420000D01*
X20520000Y47420000D02*
X18951000Y47420000D01*
X24048000Y47380000D02*
X22480000Y47380000D01*
X20520000Y47380000D02*
X18952000Y47380000D01*
X24046000Y47340000D02*
X22480000Y47340000D01*
X20520000Y47340000D02*
X18954000Y47340000D01*
X24043000Y47300000D02*
X22480000Y47300000D01*
X20520000Y47300000D02*
X18957000Y47300000D01*
X24039000Y47260000D02*
X22480000Y47260000D01*
X20520000Y47260000D02*
X18961000Y47260000D01*
X24035000Y47220000D02*
X22480000Y47220000D01*
X20520000Y47220000D02*
X18965000Y47220000D01*
X24031000Y47180000D02*
X22480000Y47180000D01*
X20520000Y47180000D02*
X18969000Y47180000D01*
X24025000Y47140000D02*
X22480000Y47140000D01*
X20520000Y47140000D02*
X18975000Y47140000D01*
X24019000Y47100000D02*
X22480000Y47100000D01*
X20520000Y47100000D02*
X18981000Y47100000D01*
X24013000Y47060000D02*
X22480000Y47060000D01*
X20520000Y47060000D02*
X18987000Y47060000D01*
X24006000Y47020000D02*
X22480000Y47020000D01*
X20520000Y47020000D02*
X18994000Y47020000D01*
X23998000Y46980000D02*
X22480000Y46980000D01*
X20520000Y46980000D02*
X19002000Y46980000D01*
X23989000Y46940000D02*
X22480000Y46940000D01*
X20520000Y46940000D02*
X19011000Y46940000D01*
X23980000Y46900000D02*
X22480000Y46900000D01*
X20520000Y46900000D02*
X19020000Y46900000D01*
X23970000Y46860000D02*
X22480000Y46860000D01*
X20520000Y46860000D02*
X19030000Y46860000D01*
X23960000Y46820000D02*
X22480000Y46820000D01*
X20520000Y46820000D02*
X19040000Y46820000D01*
X23948000Y46779000D02*
X22480000Y46779000D01*
X20520000Y46779000D02*
X19052000Y46779000D01*
X23936000Y46739000D02*
X22480000Y46739000D01*
X20520000Y46739000D02*
X19064000Y46739000D01*
X23924000Y46699000D02*
X22480000Y46699000D01*
X20520000Y46699000D02*
X19076000Y46699000D01*
X23910000Y46659000D02*
X22480000Y46659000D01*
X20520000Y46659000D02*
X19090000Y46659000D01*
X23896000Y46619000D02*
X22480000Y46619000D01*
X20520000Y46619000D02*
X19104000Y46619000D01*
X23882000Y46579000D02*
X22480000Y46579000D01*
X20520000Y46579000D02*
X19118000Y46579000D01*
X23866000Y46539000D02*
X22480000Y46539000D01*
X20520000Y46539000D02*
X19134000Y46539000D01*
X23850000Y46499000D02*
X22480000Y46499000D01*
X20520000Y46499000D02*
X19150000Y46499000D01*
X23833000Y46459000D02*
X22480000Y46459000D01*
X20520000Y46459000D02*
X19167000Y46459000D01*
X23815000Y46419000D02*
X22480000Y46419000D01*
X20520000Y46419000D02*
X19185000Y46419000D01*
X23796000Y46379000D02*
X22480000Y46379000D01*
X20520000Y46379000D02*
X19204000Y46379000D01*
X23776000Y46339000D02*
X22480000Y46339000D01*
X20520000Y46339000D02*
X19224000Y46339000D01*
X23756000Y46299000D02*
X22480000Y46299000D01*
X20520000Y46299000D02*
X19244000Y46299000D01*
X23734000Y46259000D02*
X22480000Y46259000D01*
X20520000Y46259000D02*
X19266000Y46259000D01*
X23712000Y46219000D02*
X22480000Y46219000D01*
X20520000Y46219000D02*
X19288000Y46219000D01*
X23689000Y46179000D02*
X22480000Y46179000D01*
X20520000Y46179000D02*
X19311000Y46179000D01*
X23665000Y46139000D02*
X22480000Y46139000D01*
X20520000Y46139000D02*
X19335000Y46139000D01*
X23640000Y46099000D02*
X22480000Y46099000D01*
X20520000Y46099000D02*
X19360000Y46099000D01*
X23613000Y46059000D02*
X22480000Y46059000D01*
X20520000Y46059000D02*
X19387000Y46059000D01*
X23586000Y46019000D02*
X22480000Y46019000D01*
X20520000Y46019000D02*
X19414000Y46019000D01*
X23558000Y45979000D02*
X22480000Y45979000D01*
X20520000Y45979000D02*
X19442000Y45979000D01*
X23528000Y45939000D02*
X22480000Y45939000D01*
X20520000Y45939000D02*
X19472000Y45939000D01*
X23497000Y45899000D02*
X22480000Y45899000D01*
X20520000Y45899000D02*
X19503000Y45899000D01*
X23465000Y45859000D02*
X22480000Y45859000D01*
X20520000Y45859000D02*
X19535000Y45859000D01*
X23432000Y45819000D02*
X22480000Y45819000D01*
X20520000Y45819000D02*
X19568000Y45819000D01*
X23397000Y45779000D02*
X22480000Y45779000D01*
X20520000Y45779000D02*
X19603000Y45779000D01*
X23361000Y45739000D02*
X22480000Y45739000D01*
X20520000Y45739000D02*
X19639000Y45739000D01*
X23323000Y45699000D02*
X22480000Y45699000D01*
X20520000Y45699000D02*
X19677000Y45699000D01*
X23283000Y45659000D02*
X22480000Y45659000D01*
X20520000Y45659000D02*
X19717000Y45659000D01*
X23242000Y45619000D02*
X22480000Y45619000D01*
X20520000Y45619000D02*
X19758000Y45619000D01*
X23199000Y45579000D02*
X22480000Y45579000D01*
X20520000Y45579000D02*
X19801000Y45579000D01*
X23154000Y45539000D02*
X22480000Y45539000D01*
X20520000Y45539000D02*
X19846000Y45539000D01*
X23106000Y45499000D02*
X19894000Y45499000D01*
X23056000Y45459000D02*
X19944000Y45459000D01*
X23004000Y45419000D02*
X19996000Y45419000D01*
X22948000Y45379000D02*
X20052000Y45379000D01*
X22890000Y45339000D02*
X20110000Y45339000D01*
X22827000Y45299000D02*
X20173000Y45299000D01*
X22761000Y45259000D02*
X20239000Y45259000D01*
X22689000Y45219000D02*
X20311000Y45219000D01*
X22612000Y45179000D02*
X20388000Y45179000D01*
X22528000Y45139000D02*
X20472000Y45139000D01*
X22434000Y45099000D02*
X20566000Y45099000D01*
X22329000Y45059000D02*
X20671000Y45059000D01*
X22207000Y45019000D02*
X20793000Y45019000D01*
X22059000Y44979000D02*
X20941000Y44979000D01*
X21854000Y44939000D02*
X21146000Y44939000D01*
X21500000Y50700000D02*
X21500000Y49500000D01*
X22150000Y50100000D02*
X20850000Y50100000D01*
X33900000Y65800000D02*
X33900000Y62200000D01*
X34627205Y66324184D02*
G75*
G03X33900000Y65800000I1122795J-2324184D01*
G01*
X36848807Y66356400D02*
G75*
G02X38350000Y64000000I-1098807J-2356400D01*
G01*
X36848807Y61643600D02*
G75*
G03X38350000Y64000000I-1098807J2356400D01*
G01*
X34627205Y61675816D02*
G75*
G02X33900000Y62200000I1122795J2324184D01*
G01*
D14*
X30654762Y15293381D02*
X30559524Y15341000D01*
X30464286Y15436238D01*
X30321429Y15579095D01*
X30226190Y15626714D01*
X30130952Y15626714D01*
X30178571Y15388619D02*
X30083333Y15436238D01*
X29988095Y15531476D01*
X29940476Y15721952D01*
X29940476Y16055286D01*
X29988095Y16245762D01*
X30083333Y16341000D01*
X30178571Y16388619D01*
X30369048Y16388619D01*
X30464286Y16341000D01*
X30559524Y16245762D01*
X30607143Y16055286D01*
X30607143Y15721952D01*
X30559524Y15531476D01*
X30464286Y15436238D01*
X30369048Y15388619D01*
X30178571Y15388619D01*
X31464286Y16055286D02*
X31464286Y15388619D01*
X31226190Y16436238D02*
X30988095Y15721952D01*
X31607143Y15721952D01*
X17238095Y21297619D02*
X17238095Y20488095D01*
X17285714Y20392857D01*
X17333333Y20345238D01*
X17428571Y20297619D01*
X17619048Y20297619D01*
X17714286Y20345238D01*
X17761905Y20392857D01*
X17809524Y20488095D01*
X17809524Y21297619D01*
X18190476Y21297619D02*
X18809524Y21297619D01*
X18476190Y20916667D01*
X18619048Y20916667D01*
X18714286Y20869048D01*
X18761905Y20821429D01*
X18809524Y20726190D01*
X18809524Y20488095D01*
X18761905Y20392857D01*
X18714286Y20345238D01*
X18619048Y20297619D01*
X18333333Y20297619D01*
X18238095Y20345238D01*
X18190476Y20392857D01*
X22238095Y32797619D02*
X22238095Y31988095D01*
X22285714Y31892857D01*
X22333333Y31845238D01*
X22428571Y31797619D01*
X22619048Y31797619D01*
X22714286Y31845238D01*
X22761905Y31892857D01*
X22809524Y31988095D01*
X22809524Y32797619D01*
X23238095Y32702381D02*
X23285714Y32750000D01*
X23380952Y32797619D01*
X23619048Y32797619D01*
X23714286Y32750000D01*
X23761905Y32702381D01*
X23809524Y32607143D01*
X23809524Y32511905D01*
X23761905Y32369048D01*
X23190476Y31797619D01*
X23809524Y31797619D01*
X35047619Y34154762D02*
X35000000Y34059524D01*
X34904762Y33964286D01*
X34761905Y33821429D01*
X34714286Y33726190D01*
X34714286Y33630952D01*
X34952381Y33678571D02*
X34904762Y33583333D01*
X34809524Y33488095D01*
X34619048Y33440476D01*
X34285714Y33440476D01*
X34095238Y33488095D01*
X34000000Y33583333D01*
X33952381Y33678571D01*
X33952381Y33869048D01*
X34000000Y33964286D01*
X34095238Y34059524D01*
X34285714Y34107143D01*
X34619048Y34107143D01*
X34809524Y34059524D01*
X34904762Y33964286D01*
X34952381Y33869048D01*
X34952381Y33678571D01*
X33952381Y34440476D02*
X33952381Y35059524D01*
X34333333Y34726190D01*
X34333333Y34869048D01*
X34380952Y34964286D01*
X34428571Y35011905D01*
X34523810Y35059524D01*
X34761905Y35059524D01*
X34857143Y35011905D01*
X34904762Y34964286D01*
X34952381Y34869048D01*
X34952381Y34583333D01*
X34904762Y34488095D01*
X34857143Y34440476D01*
X34904762Y51202381D02*
X34809524Y51250000D01*
X34714286Y51345238D01*
X34571429Y51488095D01*
X34476190Y51535714D01*
X34380952Y51535714D01*
X34428571Y51297619D02*
X34333333Y51345238D01*
X34238095Y51440476D01*
X34190476Y51630952D01*
X34190476Y51964286D01*
X34238095Y52154762D01*
X34333333Y52250000D01*
X34428571Y52297619D01*
X34619048Y52297619D01*
X34714286Y52250000D01*
X34809524Y52154762D01*
X34857143Y51964286D01*
X34857143Y51630952D01*
X34809524Y51440476D01*
X34714286Y51345238D01*
X34619048Y51297619D01*
X34428571Y51297619D01*
X35238095Y52202381D02*
X35285714Y52250000D01*
X35380952Y52297619D01*
X35619048Y52297619D01*
X35714286Y52250000D01*
X35761905Y52202381D01*
X35809524Y52107143D01*
X35809524Y52011905D01*
X35761905Y51869048D01*
X35190476Y51297619D01*
X35809524Y51297619D01*
X12128095Y44417619D02*
X12128095Y43608095D01*
X12175714Y43512857D01*
X12223333Y43465238D01*
X12318571Y43417619D01*
X12509048Y43417619D01*
X12604286Y43465238D01*
X12651905Y43512857D01*
X12699524Y43608095D01*
X12699524Y44417619D01*
X13699524Y43417619D02*
X13128095Y43417619D01*
X13413809Y43417619D02*
X13413809Y44417619D01*
X13318571Y44274762D01*
X13223333Y44179524D01*
X13128095Y44131905D01*
X37952381Y13857143D02*
X37476190Y13523809D01*
X37952381Y13285714D02*
X36952381Y13285714D01*
X36952381Y13666667D01*
X37000000Y13761905D01*
X37047619Y13809524D01*
X37142857Y13857143D01*
X37285714Y13857143D01*
X37380952Y13809524D01*
X37428571Y13761905D01*
X37476190Y13666667D01*
X37476190Y13285714D01*
X37952381Y14809524D02*
X37952381Y14238095D01*
X37952381Y14523809D02*
X36952381Y14523809D01*
X37095238Y14428571D01*
X37190476Y14333333D01*
X37238095Y14238095D01*
X36952381Y15666667D02*
X36952381Y15476190D01*
X37000000Y15380952D01*
X37047619Y15333333D01*
X37190476Y15238095D01*
X37380952Y15190476D01*
X37761905Y15190476D01*
X37857143Y15238095D01*
X37904762Y15285714D01*
X37952381Y15380952D01*
X37952381Y15571429D01*
X37904762Y15666667D01*
X37857143Y15714286D01*
X37761905Y15761905D01*
X37523810Y15761905D01*
X37428571Y15714286D01*
X37380952Y15666667D01*
X37333333Y15571429D01*
X37333333Y15380952D01*
X37380952Y15285714D01*
X37428571Y15238095D01*
X37523810Y15190476D01*
X35452381Y13857143D02*
X34976190Y13523809D01*
X35452381Y13285714D02*
X34452381Y13285714D01*
X34452381Y13666667D01*
X34500000Y13761905D01*
X34547619Y13809524D01*
X34642857Y13857143D01*
X34785714Y13857143D01*
X34880952Y13809524D01*
X34928571Y13761905D01*
X34976190Y13666667D01*
X34976190Y13285714D01*
X35452381Y14809524D02*
X35452381Y14238095D01*
X35452381Y14523809D02*
X34452381Y14523809D01*
X34595238Y14428571D01*
X34690476Y14333333D01*
X34738095Y14238095D01*
X34452381Y15714286D02*
X34452381Y15238095D01*
X34928571Y15190476D01*
X34880952Y15238095D01*
X34833333Y15333333D01*
X34833333Y15571429D01*
X34880952Y15666667D01*
X34928571Y15714286D01*
X35023810Y15761905D01*
X35261905Y15761905D01*
X35357143Y15714286D01*
X35404762Y15666667D01*
X35452381Y15571429D01*
X35452381Y15333333D01*
X35404762Y15238095D01*
X35357143Y15190476D01*
X12202381Y13357143D02*
X11726190Y13023809D01*
X12202381Y12785714D02*
X11202381Y12785714D01*
X11202381Y13166667D01*
X11250000Y13261905D01*
X11297619Y13309524D01*
X11392857Y13357143D01*
X11535714Y13357143D01*
X11630952Y13309524D01*
X11678571Y13261905D01*
X11726190Y13166667D01*
X11726190Y12785714D01*
X12202381Y14309524D02*
X12202381Y13738095D01*
X12202381Y14023809D02*
X11202381Y14023809D01*
X11345238Y13928571D01*
X11440476Y13833333D01*
X11488095Y13738095D01*
X11535714Y15166667D02*
X12202381Y15166667D01*
X11154762Y14928571D02*
X11869048Y14690476D01*
X11869048Y15309524D01*
X8702381Y13357143D02*
X8226190Y13023809D01*
X8702381Y12785714D02*
X7702381Y12785714D01*
X7702381Y13166667D01*
X7750000Y13261905D01*
X7797619Y13309524D01*
X7892857Y13357143D01*
X8035714Y13357143D01*
X8130952Y13309524D01*
X8178571Y13261905D01*
X8226190Y13166667D01*
X8226190Y12785714D01*
X8702381Y14309524D02*
X8702381Y13738095D01*
X8702381Y14023809D02*
X7702381Y14023809D01*
X7845238Y13928571D01*
X7940476Y13833333D01*
X7988095Y13738095D01*
X7702381Y14642857D02*
X7702381Y15261905D01*
X8083333Y14928571D01*
X8083333Y15071429D01*
X8130952Y15166667D01*
X8178571Y15214286D01*
X8273810Y15261905D01*
X8511905Y15261905D01*
X8607143Y15214286D01*
X8654762Y15166667D01*
X8702381Y15071429D01*
X8702381Y14785714D01*
X8654762Y14690476D01*
X8607143Y14642857D01*
X28752381Y33357143D02*
X28276190Y33023809D01*
X28752381Y32785714D02*
X27752381Y32785714D01*
X27752381Y33166667D01*
X27800000Y33261905D01*
X27847619Y33309524D01*
X27942857Y33357143D01*
X28085714Y33357143D01*
X28180952Y33309524D01*
X28228571Y33261905D01*
X28276190Y33166667D01*
X28276190Y32785714D01*
X28752381Y34309524D02*
X28752381Y33738095D01*
X28752381Y34023809D02*
X27752381Y34023809D01*
X27895238Y33928571D01*
X27990476Y33833333D01*
X28038095Y33738095D01*
X27847619Y34690476D02*
X27800000Y34738095D01*
X27752381Y34833333D01*
X27752381Y35071429D01*
X27800000Y35166667D01*
X27847619Y35214286D01*
X27942857Y35261905D01*
X28038095Y35261905D01*
X28180952Y35214286D01*
X28752381Y34642857D01*
X28752381Y35261905D01*
X10202381Y27857143D02*
X9726190Y27523809D01*
X10202381Y27285714D02*
X9202381Y27285714D01*
X9202381Y27666667D01*
X9250000Y27761905D01*
X9297619Y27809524D01*
X9392857Y27857143D01*
X9535714Y27857143D01*
X9630952Y27809524D01*
X9678571Y27761905D01*
X9726190Y27666667D01*
X9726190Y27285714D01*
X10202381Y28809524D02*
X10202381Y28238095D01*
X10202381Y28523809D02*
X9202381Y28523809D01*
X9345238Y28428571D01*
X9440476Y28333333D01*
X9488095Y28238095D01*
X10202381Y29761905D02*
X10202381Y29190476D01*
X10202381Y29476190D02*
X9202381Y29476190D01*
X9345238Y29380952D01*
X9440476Y29285714D01*
X9488095Y29190476D01*
X4702381Y27607143D02*
X4226190Y27273809D01*
X4702381Y27035714D02*
X3702381Y27035714D01*
X3702381Y27416667D01*
X3750000Y27511905D01*
X3797619Y27559524D01*
X3892857Y27607143D01*
X4035714Y27607143D01*
X4130952Y27559524D01*
X4178571Y27511905D01*
X4226190Y27416667D01*
X4226190Y27035714D01*
X4702381Y28559524D02*
X4702381Y27988095D01*
X4702381Y28273809D02*
X3702381Y28273809D01*
X3845238Y28178571D01*
X3940476Y28083333D01*
X3988095Y27988095D01*
X3702381Y29178571D02*
X3702381Y29273810D01*
X3750000Y29369048D01*
X3797619Y29416667D01*
X3892857Y29464286D01*
X4083333Y29511905D01*
X4321429Y29511905D01*
X4511905Y29464286D01*
X4607143Y29416667D01*
X4654762Y29369048D01*
X4702381Y29273810D01*
X4702381Y29178571D01*
X4654762Y29083333D01*
X4607143Y29035714D01*
X4511905Y28988095D01*
X4321429Y28940476D01*
X4083333Y28940476D01*
X3892857Y28988095D01*
X3797619Y29035714D01*
X3750000Y29083333D01*
X3702381Y29178571D01*
X28202381Y49833334D02*
X27726190Y49500000D01*
X28202381Y49261905D02*
X27202381Y49261905D01*
X27202381Y49642858D01*
X27250000Y49738096D01*
X27297619Y49785715D01*
X27392857Y49833334D01*
X27535714Y49833334D01*
X27630952Y49785715D01*
X27678571Y49738096D01*
X27726190Y49642858D01*
X27726190Y49261905D01*
X28202381Y50309524D02*
X28202381Y50500000D01*
X28154762Y50595239D01*
X28107143Y50642858D01*
X27964286Y50738096D01*
X27773810Y50785715D01*
X27392857Y50785715D01*
X27297619Y50738096D01*
X27250000Y50690477D01*
X27202381Y50595239D01*
X27202381Y50404762D01*
X27250000Y50309524D01*
X27297619Y50261905D01*
X27392857Y50214286D01*
X27630952Y50214286D01*
X27726190Y50261905D01*
X27773810Y50309524D01*
X27821429Y50404762D01*
X27821429Y50595239D01*
X27773810Y50690477D01*
X27726190Y50738096D01*
X27630952Y50785715D01*
X6452381Y44833334D02*
X5976190Y44500000D01*
X6452381Y44261905D02*
X5452381Y44261905D01*
X5452381Y44642858D01*
X5500000Y44738096D01*
X5547619Y44785715D01*
X5642857Y44833334D01*
X5785714Y44833334D01*
X5880952Y44785715D01*
X5928571Y44738096D01*
X5976190Y44642858D01*
X5976190Y44261905D01*
X5880952Y45404762D02*
X5833333Y45309524D01*
X5785714Y45261905D01*
X5690476Y45214286D01*
X5642857Y45214286D01*
X5547619Y45261905D01*
X5500000Y45309524D01*
X5452381Y45404762D01*
X5452381Y45595239D01*
X5500000Y45690477D01*
X5547619Y45738096D01*
X5642857Y45785715D01*
X5690476Y45785715D01*
X5785714Y45738096D01*
X5833333Y45690477D01*
X5880952Y45595239D01*
X5880952Y45404762D01*
X5928571Y45309524D01*
X5976190Y45261905D01*
X6071429Y45214286D01*
X6261905Y45214286D01*
X6357143Y45261905D01*
X6404762Y45309524D01*
X6452381Y45404762D01*
X6452381Y45595239D01*
X6404762Y45690477D01*
X6357143Y45738096D01*
X6261905Y45785715D01*
X6071429Y45785715D01*
X5976190Y45738096D01*
X5928571Y45690477D01*
X5880952Y45595239D01*
X3952381Y44833334D02*
X3476190Y44500000D01*
X3952381Y44261905D02*
X2952381Y44261905D01*
X2952381Y44642858D01*
X3000000Y44738096D01*
X3047619Y44785715D01*
X3142857Y44833334D01*
X3285714Y44833334D01*
X3380952Y44785715D01*
X3428571Y44738096D01*
X3476190Y44642858D01*
X3476190Y44261905D01*
X2952381Y45166667D02*
X2952381Y45833334D01*
X3952381Y45404762D01*
X28702381Y59083334D02*
X28226190Y58750000D01*
X28702381Y58511905D02*
X27702381Y58511905D01*
X27702381Y58892858D01*
X27750000Y58988096D01*
X27797619Y59035715D01*
X27892857Y59083334D01*
X28035714Y59083334D01*
X28130952Y59035715D01*
X28178571Y58988096D01*
X28226190Y58892858D01*
X28226190Y58511905D01*
X27702381Y59940477D02*
X27702381Y59750000D01*
X27750000Y59654762D01*
X27797619Y59607143D01*
X27940476Y59511905D01*
X28130952Y59464286D01*
X28511905Y59464286D01*
X28607143Y59511905D01*
X28654762Y59559524D01*
X28702381Y59654762D01*
X28702381Y59845239D01*
X28654762Y59940477D01*
X28607143Y59988096D01*
X28511905Y60035715D01*
X28273810Y60035715D01*
X28178571Y59988096D01*
X28130952Y59940477D01*
X28083333Y59845239D01*
X28083333Y59654762D01*
X28130952Y59559524D01*
X28178571Y59511905D01*
X28273810Y59464286D01*
X38333334Y71047619D02*
X38000000Y71523810D01*
X37761905Y71047619D02*
X37761905Y72047619D01*
X38142858Y72047619D01*
X38238096Y72000000D01*
X38285715Y71952381D01*
X38333334Y71857143D01*
X38333334Y71714286D01*
X38285715Y71619048D01*
X38238096Y71571429D01*
X38142858Y71523810D01*
X37761905Y71523810D01*
X39238096Y72047619D02*
X38761905Y72047619D01*
X38714286Y71571429D01*
X38761905Y71619048D01*
X38857143Y71666667D01*
X39095239Y71666667D01*
X39190477Y71619048D01*
X39238096Y71571429D01*
X39285715Y71476190D01*
X39285715Y71238095D01*
X39238096Y71142857D01*
X39190477Y71095238D01*
X39095239Y71047619D01*
X38857143Y71047619D01*
X38761905Y71095238D01*
X38714286Y71142857D01*
X38333334Y75047619D02*
X38000000Y75523810D01*
X37761905Y75047619D02*
X37761905Y76047619D01*
X38142858Y76047619D01*
X38238096Y76000000D01*
X38285715Y75952381D01*
X38333334Y75857143D01*
X38333334Y75714286D01*
X38285715Y75619048D01*
X38238096Y75571429D01*
X38142858Y75523810D01*
X37761905Y75523810D01*
X39190477Y75714286D02*
X39190477Y75047619D01*
X38952381Y76095238D02*
X38714286Y75380952D01*
X39333334Y75380952D01*
X35583334Y73047619D02*
X35250000Y73523810D01*
X35011905Y73047619D02*
X35011905Y74047619D01*
X35392858Y74047619D01*
X35488096Y74000000D01*
X35535715Y73952381D01*
X35583334Y73857143D01*
X35583334Y73714286D01*
X35535715Y73619048D01*
X35488096Y73571429D01*
X35392858Y73523810D01*
X35011905Y73523810D01*
X35916667Y74047619D02*
X36535715Y74047619D01*
X36202381Y73666667D01*
X36345239Y73666667D01*
X36440477Y73619048D01*
X36488096Y73571429D01*
X36535715Y73476190D01*
X36535715Y73238095D01*
X36488096Y73142857D01*
X36440477Y73095238D01*
X36345239Y73047619D01*
X36059524Y73047619D01*
X35964286Y73095238D01*
X35916667Y73142857D01*
X35583334Y77047619D02*
X35250000Y77523810D01*
X35011905Y77047619D02*
X35011905Y78047619D01*
X35392858Y78047619D01*
X35488096Y78000000D01*
X35535715Y77952381D01*
X35583334Y77857143D01*
X35583334Y77714286D01*
X35535715Y77619048D01*
X35488096Y77571429D01*
X35392858Y77523810D01*
X35011905Y77523810D01*
X35964286Y77952381D02*
X36011905Y78000000D01*
X36107143Y78047619D01*
X36345239Y78047619D01*
X36440477Y78000000D01*
X36488096Y77952381D01*
X36535715Y77857143D01*
X36535715Y77761905D01*
X36488096Y77619048D01*
X35916667Y77047619D01*
X36535715Y77047619D01*
X35583334Y81047619D02*
X35250000Y81523810D01*
X35011905Y81047619D02*
X35011905Y82047619D01*
X35392858Y82047619D01*
X35488096Y82000000D01*
X35535715Y81952381D01*
X35583334Y81857143D01*
X35583334Y81714286D01*
X35535715Y81619048D01*
X35488096Y81571429D01*
X35392858Y81523810D01*
X35011905Y81523810D01*
X36535715Y81047619D02*
X35964286Y81047619D01*
X36250000Y81047619D02*
X36250000Y82047619D01*
X36154762Y81904762D01*
X36059524Y81809524D01*
X35964286Y81761905D01*
X46702381Y16880953D02*
X46702381Y16404762D01*
X45702381Y16404762D01*
X46178571Y17214286D02*
X46178571Y17547620D01*
X46702381Y17690477D02*
X46702381Y17214286D01*
X45702381Y17214286D01*
X45702381Y17690477D01*
X46702381Y18119048D02*
X45702381Y18119048D01*
X45702381Y18357143D01*
X45750000Y18500001D01*
X45845238Y18595239D01*
X45940476Y18642858D01*
X46130952Y18690477D01*
X46273810Y18690477D01*
X46464286Y18642858D01*
X46559524Y18595239D01*
X46654762Y18500001D01*
X46702381Y18357143D01*
X46702381Y18119048D01*
X45702381Y19595239D02*
X45702381Y19119048D01*
X46178571Y19071429D01*
X46130952Y19119048D01*
X46083333Y19214286D01*
X46083333Y19452382D01*
X46130952Y19547620D01*
X46178571Y19595239D01*
X46273810Y19642858D01*
X46511905Y19642858D01*
X46607143Y19595239D01*
X46654762Y19547620D01*
X46702381Y19452382D01*
X46702381Y19214286D01*
X46654762Y19119048D01*
X46607143Y19071429D01*
X46702381Y32880953D02*
X46702381Y32404762D01*
X45702381Y32404762D01*
X46178571Y33214286D02*
X46178571Y33547620D01*
X46702381Y33690477D02*
X46702381Y33214286D01*
X45702381Y33214286D01*
X45702381Y33690477D01*
X46702381Y34119048D02*
X45702381Y34119048D01*
X45702381Y34357143D01*
X45750000Y34500001D01*
X45845238Y34595239D01*
X45940476Y34642858D01*
X46130952Y34690477D01*
X46273810Y34690477D01*
X46464286Y34642858D01*
X46559524Y34595239D01*
X46654762Y34500001D01*
X46702381Y34357143D01*
X46702381Y34119048D01*
X46035714Y35547620D02*
X46702381Y35547620D01*
X45654762Y35309524D02*
X46369048Y35071429D01*
X46369048Y35690477D01*
X47452381Y48880953D02*
X47452381Y48404762D01*
X46452381Y48404762D01*
X46928571Y49214286D02*
X46928571Y49547620D01*
X47452381Y49690477D02*
X47452381Y49214286D01*
X46452381Y49214286D01*
X46452381Y49690477D01*
X47452381Y50119048D02*
X46452381Y50119048D01*
X46452381Y50357143D01*
X46500000Y50500001D01*
X46595238Y50595239D01*
X46690476Y50642858D01*
X46880952Y50690477D01*
X47023810Y50690477D01*
X47214286Y50642858D01*
X47309524Y50595239D01*
X47404762Y50500001D01*
X47452381Y50357143D01*
X47452381Y50119048D01*
X46452381Y51023810D02*
X46452381Y51642858D01*
X46833333Y51309524D01*
X46833333Y51452382D01*
X46880952Y51547620D01*
X46928571Y51595239D01*
X47023810Y51642858D01*
X47261905Y51642858D01*
X47357143Y51595239D01*
X47404762Y51547620D01*
X47452381Y51452382D01*
X47452381Y51166667D01*
X47404762Y51071429D01*
X47357143Y51023810D01*
X47952381Y62630953D02*
X47952381Y62154762D01*
X46952381Y62154762D01*
X47428571Y62964286D02*
X47428571Y63297620D01*
X47952381Y63440477D02*
X47952381Y62964286D01*
X46952381Y62964286D01*
X46952381Y63440477D01*
X47952381Y63869048D02*
X46952381Y63869048D01*
X46952381Y64107143D01*
X47000000Y64250001D01*
X47095238Y64345239D01*
X47190476Y64392858D01*
X47380952Y64440477D01*
X47523810Y64440477D01*
X47714286Y64392858D01*
X47809524Y64345239D01*
X47904762Y64250001D01*
X47952381Y64107143D01*
X47952381Y63869048D01*
X47047619Y64821429D02*
X47000000Y64869048D01*
X46952381Y64964286D01*
X46952381Y65202382D01*
X47000000Y65297620D01*
X47047619Y65345239D01*
X47142857Y65392858D01*
X47238095Y65392858D01*
X47380952Y65345239D01*
X47952381Y64773810D01*
X47952381Y65392858D01*
X48702381Y81880953D02*
X48702381Y81404762D01*
X47702381Y81404762D01*
X48178571Y82214286D02*
X48178571Y82547620D01*
X48702381Y82690477D02*
X48702381Y82214286D01*
X47702381Y82214286D01*
X47702381Y82690477D01*
X48702381Y83119048D02*
X47702381Y83119048D01*
X47702381Y83357143D01*
X47750000Y83500001D01*
X47845238Y83595239D01*
X47940476Y83642858D01*
X48130952Y83690477D01*
X48273810Y83690477D01*
X48464286Y83642858D01*
X48559524Y83595239D01*
X48654762Y83500001D01*
X48702381Y83357143D01*
X48702381Y83119048D01*
X48702381Y84642858D02*
X48702381Y84071429D01*
X48702381Y84357143D02*
X47702381Y84357143D01*
X47845238Y84261905D01*
X47940476Y84166667D01*
X47988095Y84071429D01*
X35761905Y84047619D02*
X35761905Y85047619D01*
X36000000Y85047619D01*
X36142858Y85000000D01*
X36238096Y84904762D01*
X36285715Y84809524D01*
X36333334Y84619048D01*
X36333334Y84476190D01*
X36285715Y84285714D01*
X36238096Y84190476D01*
X36142858Y84095238D01*
X36000000Y84047619D01*
X35761905Y84047619D01*
X37285715Y84047619D02*
X36714286Y84047619D01*
X37000000Y84047619D02*
X37000000Y85047619D01*
X36904762Y84904762D01*
X36809524Y84809524D01*
X36714286Y84761905D01*
X21333334Y13392857D02*
X21285715Y13345238D01*
X21142858Y13297619D01*
X21047620Y13297619D01*
X20904762Y13345238D01*
X20809524Y13440476D01*
X20761905Y13535714D01*
X20714286Y13726190D01*
X20714286Y13869048D01*
X20761905Y14059524D01*
X20809524Y14154762D01*
X20904762Y14250000D01*
X21047620Y14297619D01*
X21142858Y14297619D01*
X21285715Y14250000D01*
X21333334Y14202381D01*
X21666667Y14297619D02*
X22285715Y14297619D01*
X21952381Y13916667D01*
X22095239Y13916667D01*
X22190477Y13869048D01*
X22238096Y13821429D01*
X22285715Y13726190D01*
X22285715Y13488095D01*
X22238096Y13392857D01*
X22190477Y13345238D01*
X22095239Y13297619D01*
X21809524Y13297619D01*
X21714286Y13345238D01*
X21666667Y13392857D01*
X22083334Y28392857D02*
X22035715Y28345238D01*
X21892858Y28297619D01*
X21797620Y28297619D01*
X21654762Y28345238D01*
X21559524Y28440476D01*
X21511905Y28535714D01*
X21464286Y28726190D01*
X21464286Y28869048D01*
X21511905Y29059524D01*
X21559524Y29154762D01*
X21654762Y29250000D01*
X21797620Y29297619D01*
X21892858Y29297619D01*
X22035715Y29250000D01*
X22083334Y29202381D01*
X22464286Y29202381D02*
X22511905Y29250000D01*
X22607143Y29297619D01*
X22845239Y29297619D01*
X22940477Y29250000D01*
X22988096Y29202381D01*
X23035715Y29107143D01*
X23035715Y29011905D01*
X22988096Y28869048D01*
X22416667Y28297619D01*
X23035715Y28297619D01*
X21333334Y43142857D02*
X21285715Y43095238D01*
X21142858Y43047619D01*
X21047620Y43047619D01*
X20904762Y43095238D01*
X20809524Y43190476D01*
X20761905Y43285714D01*
X20714286Y43476190D01*
X20714286Y43619048D01*
X20761905Y43809524D01*
X20809524Y43904762D01*
X20904762Y44000000D01*
X21047620Y44047619D01*
X21142858Y44047619D01*
X21285715Y44000000D01*
X21333334Y43952381D01*
X22285715Y43047619D02*
X21714286Y43047619D01*
X22000000Y43047619D02*
X22000000Y44047619D01*
X21904762Y43904762D01*
X21809524Y43809524D01*
X21714286Y43761905D01*
D15*
X12992857Y66888095D02*
X12992857Y68411905D01*
X13754762Y67650000D02*
X12230952Y67650000D01*
X12992857Y79588095D02*
X12992857Y81111905D01*
D14*
X39857619Y63904762D02*
X39810000Y63809524D01*
X39714762Y63714286D01*
X39571905Y63571429D01*
X39524286Y63476190D01*
X39524286Y63380952D01*
X39762381Y63428571D02*
X39714762Y63333333D01*
X39619524Y63238095D01*
X39429048Y63190476D01*
X39095714Y63190476D01*
X38905238Y63238095D01*
X38810000Y63333333D01*
X38762381Y63428571D01*
X38762381Y63619048D01*
X38810000Y63714286D01*
X38905238Y63809524D01*
X39095714Y63857143D01*
X39429048Y63857143D01*
X39619524Y63809524D01*
X39714762Y63714286D01*
X39762381Y63619048D01*
X39762381Y63428571D01*
X39762381Y64809524D02*
X39762381Y64238095D01*
X39762381Y64523809D02*
X38762381Y64523809D01*
X38905238Y64428571D01*
X39000476Y64333333D01*
X39048095Y64238095D01*
%LPC*%
D12*
G36*
X27316033Y7237209D02*
X27322439Y7229603D01*
X27341728Y7150106D01*
X27327448Y7020616D01*
X27287124Y6865166D01*
X27228286Y6707785D01*
X27158462Y6572505D01*
X27089894Y6487273D01*
X27033315Y6442625D01*
X26976279Y6414971D01*
X26899598Y6401824D01*
X26784081Y6400699D01*
X26610538Y6409110D01*
X26526162Y6414241D01*
X26319581Y6428246D01*
X26125913Y6443496D01*
X25972556Y6457733D01*
X25910167Y6465002D01*
X25740834Y6488096D01*
X25449026Y5310132D01*
X25349709Y4910634D01*
X25266738Y4583662D01*
X25196340Y4319497D01*
X25134739Y4108424D01*
X25078159Y3940726D01*
X25022827Y3806687D01*
X24964966Y3696590D01*
X24900803Y3600719D01*
X24826562Y3509358D01*
X24738468Y3412790D01*
X24693346Y3365095D01*
X24396570Y3052667D01*
X24814702Y3054841D01*
X25036387Y3059330D01*
X25265245Y3069414D01*
X25462414Y3083220D01*
X25518584Y3088788D01*
X25692257Y3100844D01*
X25784574Y3089494D01*
X25795483Y3054955D01*
X25724933Y2997443D01*
X25572870Y2917177D01*
X25560917Y2911531D01*
X25404260Y2844835D01*
X25245761Y2794448D01*
X25070288Y2758300D01*
X24862710Y2734319D01*
X24607898Y2720434D01*
X24290720Y2714572D01*
X24118084Y2714000D01*
X23374725Y2714000D01*
X23518334Y2862167D01*
X23627220Y2954030D01*
X23728190Y3005425D01*
X23758615Y3010333D01*
X23916010Y3038226D01*
X24084444Y3109761D01*
X24226695Y3206722D01*
X24281770Y3266351D01*
X24321110Y3326128D01*
X24358452Y3395359D01*
X24396351Y3482438D01*
X24437362Y3595755D01*
X24484039Y3743702D01*
X24538937Y3934671D01*
X24604610Y4177054D01*
X24683612Y4479241D01*
X24778499Y4849624D01*
X24852536Y5141316D01*
X25204561Y6531464D01*
X24562531Y6517149D01*
X24314121Y6510875D01*
X24133555Y6503125D01*
X24004015Y6491248D01*
X23908686Y6472593D01*
X23830753Y6444509D01*
X23753400Y6404345D01*
X23718469Y6384077D01*
X23501959Y6211878D01*
X23353532Y5994450D01*
X23275799Y5740241D01*
X23271369Y5457702D01*
X23340792Y5161098D01*
X23425609Y4920028D01*
X23150898Y4741047D01*
X23004501Y4648507D01*
X22908306Y4606674D01*
X22844844Y4622645D01*
X22796648Y4703515D01*
X22746248Y4856380D01*
X22729627Y4912159D01*
X22679677Y5220151D01*
X22708619Y5524248D01*
X22810814Y5815686D01*
X22980629Y6085701D01*
X23212426Y6325528D01*
X23500570Y6526401D01*
X23839425Y6679558D01*
X23873571Y6691149D01*
X24052918Y6745318D01*
X24229960Y6786248D01*
X24418045Y6814810D01*
X24630524Y6831873D01*
X24880746Y6838310D01*
X25182061Y6834991D01*
X25547818Y6822787D01*
X25754371Y6813838D01*
X26097392Y6799201D01*
X26365196Y6790337D01*
X26567040Y6787284D01*
X26712180Y6790080D01*
X26809871Y6798761D01*
X26869370Y6813365D01*
X26880237Y6818409D01*
X26955557Y6883206D01*
X27045176Y6994016D01*
X27099533Y7077141D01*
X27178636Y7204705D01*
X27231654Y7267451D01*
X27272736Y7275060D01*
X27316033Y7237209D01*
X27316033Y7237209D01*
G37*
X27316033Y7237209D02*
X27322439Y7229603D01*
X27341728Y7150106D01*
X27327448Y7020616D01*
X27287124Y6865166D01*
X27228286Y6707785D01*
X27158462Y6572505D01*
X27089894Y6487273D01*
X27033315Y6442625D01*
X26976279Y6414971D01*
X26899598Y6401824D01*
X26784081Y6400699D01*
X26610538Y6409110D01*
X26526162Y6414241D01*
X26319581Y6428246D01*
X26125913Y6443496D01*
X25972556Y6457733D01*
X25910167Y6465002D01*
X25740834Y6488096D01*
X25449026Y5310132D01*
X25349709Y4910634D01*
X25266738Y4583662D01*
X25196340Y4319497D01*
X25134739Y4108424D01*
X25078159Y3940726D01*
X25022827Y3806687D01*
X24964966Y3696590D01*
X24900803Y3600719D01*
X24826562Y3509358D01*
X24738468Y3412790D01*
X24693346Y3365095D01*
X24396570Y3052667D01*
X24814702Y3054841D01*
X25036387Y3059330D01*
X25265245Y3069414D01*
X25462414Y3083220D01*
X25518584Y3088788D01*
X25692257Y3100844D01*
X25784574Y3089494D01*
X25795483Y3054955D01*
X25724933Y2997443D01*
X25572870Y2917177D01*
X25560917Y2911531D01*
X25404260Y2844835D01*
X25245761Y2794448D01*
X25070288Y2758300D01*
X24862710Y2734319D01*
X24607898Y2720434D01*
X24290720Y2714572D01*
X24118084Y2714000D01*
X23374725Y2714000D01*
X23518334Y2862167D01*
X23627220Y2954030D01*
X23728190Y3005425D01*
X23758615Y3010333D01*
X23916010Y3038226D01*
X24084444Y3109761D01*
X24226695Y3206722D01*
X24281770Y3266351D01*
X24321110Y3326128D01*
X24358452Y3395359D01*
X24396351Y3482438D01*
X24437362Y3595755D01*
X24484039Y3743702D01*
X24538937Y3934671D01*
X24604610Y4177054D01*
X24683612Y4479241D01*
X24778499Y4849624D01*
X24852536Y5141316D01*
X25204561Y6531464D01*
X24562531Y6517149D01*
X24314121Y6510875D01*
X24133555Y6503125D01*
X24004015Y6491248D01*
X23908686Y6472593D01*
X23830753Y6444509D01*
X23753400Y6404345D01*
X23718469Y6384077D01*
X23501959Y6211878D01*
X23353532Y5994450D01*
X23275799Y5740241D01*
X23271369Y5457702D01*
X23340792Y5161098D01*
X23425609Y4920028D01*
X23150898Y4741047D01*
X23004501Y4648507D01*
X22908306Y4606674D01*
X22844844Y4622645D01*
X22796648Y4703515D01*
X22746248Y4856380D01*
X22729627Y4912159D01*
X22679677Y5220151D01*
X22708619Y5524248D01*
X22810814Y5815686D01*
X22980629Y6085701D01*
X23212426Y6325528D01*
X23500570Y6526401D01*
X23839425Y6679558D01*
X23873571Y6691149D01*
X24052918Y6745318D01*
X24229960Y6786248D01*
X24418045Y6814810D01*
X24630524Y6831873D01*
X24880746Y6838310D01*
X25182061Y6834991D01*
X25547818Y6822787D01*
X25754371Y6813838D01*
X26097392Y6799201D01*
X26365196Y6790337D01*
X26567040Y6787284D01*
X26712180Y6790080D01*
X26809871Y6798761D01*
X26869370Y6813365D01*
X26880237Y6818409D01*
X26955557Y6883206D01*
X27045176Y6994016D01*
X27099533Y7077141D01*
X27178636Y7204705D01*
X27231654Y7267451D01*
X27272736Y7275060D01*
X27316033Y7237209D01*
G36*
X8014664Y7102733D02*
X8023965Y7064900D01*
X8024334Y7037438D01*
X8032062Y7001942D01*
X8064967Y6977568D01*
X8137628Y6961155D01*
X8264625Y6949542D01*
X8460536Y6939566D01*
X8479417Y6938753D01*
X8813498Y6908221D01*
X9073760Y6845780D01*
X9266361Y6747311D01*
X9397456Y6608698D01*
X9473203Y6425825D01*
X9497338Y6258049D01*
X9476255Y5940617D01*
X9375686Y5641103D01*
X9200041Y5366017D01*
X8953727Y5121871D01*
X8641153Y4915177D01*
X8559745Y4873322D01*
X8265590Y4744500D01*
X7981311Y4648127D01*
X7728108Y4590558D01*
X7569892Y4576667D01*
X7459636Y4559955D01*
X7401186Y4499737D01*
X7393250Y4481135D01*
X7369927Y4404227D01*
X7335144Y4270669D01*
X7292837Y4097730D01*
X7246936Y3902676D01*
X7201374Y3702773D01*
X7160086Y3515290D01*
X7127002Y3357492D01*
X7106056Y3246646D01*
X7101181Y3200020D01*
X7101392Y3199719D01*
X7145991Y3197291D01*
X7258931Y3199559D01*
X7424051Y3205989D01*
X7625188Y3216051D01*
X7664500Y3218236D01*
X7873370Y3227398D01*
X8052098Y3230297D01*
X8183504Y3227011D01*
X8250407Y3217620D01*
X8253998Y3215539D01*
X8243368Y3181494D01*
X8169525Y3131120D01*
X8050365Y3072375D01*
X7903784Y3013214D01*
X7747680Y2961594D01*
X7602708Y2925991D01*
X7498726Y2914304D01*
X7324409Y2903839D01*
X7094084Y2895057D01*
X6822079Y2888417D01*
X6522723Y2884380D01*
X6274584Y2883333D01*
X5171391Y2883333D01*
X5458609Y3179667D01*
X6489774Y3179667D01*
X6620785Y3655917D01*
X6661732Y3809473D01*
X6717247Y4024455D01*
X6783958Y4287196D01*
X6858495Y4584032D01*
X6933800Y4886488D01*
X7523603Y4886488D01*
X7532268Y4856920D01*
X7660869Y4835241D01*
X7838834Y4846842D01*
X8038532Y4889787D01*
X8050249Y4893213D01*
X8306855Y5011932D01*
X8524457Y5198077D01*
X8694544Y5440090D01*
X8808606Y5726413D01*
X8854280Y5985179D01*
X8847048Y6245610D01*
X8777376Y6449517D01*
X8646299Y6595673D01*
X8454850Y6682854D01*
X8243009Y6709720D01*
X8103170Y6707783D01*
X7999457Y6697880D01*
X7960347Y6685609D01*
X7941919Y6637703D01*
X7906705Y6519917D01*
X7858098Y6344597D01*
X7799486Y6124091D01*
X7734261Y5870746D01*
X7707988Y5766603D01*
X7625566Y5429150D01*
X7567569Y5171056D01*
X7533685Y4990707D01*
X7523603Y4886488D01*
X6933800Y4886488D01*
X6937487Y4901296D01*
X7017562Y5225325D01*
X7095351Y5542451D01*
X7167482Y5839011D01*
X7230583Y6101337D01*
X7281285Y6315766D01*
X7316217Y6468632D01*
X7326719Y6517727D01*
X7355621Y6659621D01*
X7213727Y6631216D01*
X6961913Y6574645D01*
X6771727Y6514192D01*
X6620381Y6439451D01*
X6485089Y6340013D01*
X6395115Y6257354D01*
X6223305Y6058208D01*
X6110975Y5845804D01*
X6054791Y5605762D01*
X6051420Y5323703D01*
X6097529Y4985248D01*
X6098738Y4978833D01*
X6105980Y4907127D01*
X6084995Y4852686D01*
X6020809Y4797133D01*
X5898447Y4722093D01*
X5881532Y4712288D01*
X5750221Y4643632D01*
X5643377Y4600904D01*
X5587039Y4593176D01*
X5550218Y4642830D01*
X5510158Y4750071D01*
X5483722Y4854781D01*
X5454769Y5189599D01*
X5504510Y5512790D01*
X5627111Y5817564D01*
X5816738Y6097129D01*
X6067555Y6344692D01*
X6373729Y6553463D01*
X6729425Y6716649D01*
X7128809Y6827459D01*
X7187729Y6838380D01*
X7387745Y6881658D01*
X7584823Y6938278D01*
X7742442Y6997458D01*
X7768162Y7009733D01*
X7903439Y7076953D01*
X7980047Y7107351D01*
X8014664Y7102733D01*
X8014664Y7102733D01*
G37*
X8014664Y7102733D02*
X8023965Y7064900D01*
X8024334Y7037438D01*
X8032062Y7001942D01*
X8064967Y6977568D01*
X8137628Y6961155D01*
X8264625Y6949542D01*
X8460536Y6939566D01*
X8479417Y6938753D01*
X8813498Y6908221D01*
X9073760Y6845780D01*
X9266361Y6747311D01*
X9397456Y6608698D01*
X9473203Y6425825D01*
X9497338Y6258049D01*
X9476255Y5940617D01*
X9375686Y5641103D01*
X9200041Y5366017D01*
X8953727Y5121871D01*
X8641153Y4915177D01*
X8559745Y4873322D01*
X8265590Y4744500D01*
X7981311Y4648127D01*
X7728108Y4590558D01*
X7569892Y4576667D01*
X7459636Y4559955D01*
X7401186Y4499737D01*
X7393250Y4481135D01*
X7369927Y4404227D01*
X7335144Y4270669D01*
X7292837Y4097730D01*
X7246936Y3902676D01*
X7201374Y3702773D01*
X7160086Y3515290D01*
X7127002Y3357492D01*
X7106056Y3246646D01*
X7101181Y3200020D01*
X7101392Y3199719D01*
X7145991Y3197291D01*
X7258931Y3199559D01*
X7424051Y3205989D01*
X7625188Y3216051D01*
X7664500Y3218236D01*
X7873370Y3227398D01*
X8052098Y3230297D01*
X8183504Y3227011D01*
X8250407Y3217620D01*
X8253998Y3215539D01*
X8243368Y3181494D01*
X8169525Y3131120D01*
X8050365Y3072375D01*
X7903784Y3013214D01*
X7747680Y2961594D01*
X7602708Y2925991D01*
X7498726Y2914304D01*
X7324409Y2903839D01*
X7094084Y2895057D01*
X6822079Y2888417D01*
X6522723Y2884380D01*
X6274584Y2883333D01*
X5171391Y2883333D01*
X5458609Y3179667D01*
X6489774Y3179667D01*
X6620785Y3655917D01*
X6661732Y3809473D01*
X6717247Y4024455D01*
X6783958Y4287196D01*
X6858495Y4584032D01*
X6933800Y4886488D01*
X7523603Y4886488D01*
X7532268Y4856920D01*
X7660869Y4835241D01*
X7838834Y4846842D01*
X8038532Y4889787D01*
X8050249Y4893213D01*
X8306855Y5011932D01*
X8524457Y5198077D01*
X8694544Y5440090D01*
X8808606Y5726413D01*
X8854280Y5985179D01*
X8847048Y6245610D01*
X8777376Y6449517D01*
X8646299Y6595673D01*
X8454850Y6682854D01*
X8243009Y6709720D01*
X8103170Y6707783D01*
X7999457Y6697880D01*
X7960347Y6685609D01*
X7941919Y6637703D01*
X7906705Y6519917D01*
X7858098Y6344597D01*
X7799486Y6124091D01*
X7734261Y5870746D01*
X7707988Y5766603D01*
X7625566Y5429150D01*
X7567569Y5171056D01*
X7533685Y4990707D01*
X7523603Y4886488D01*
X6933800Y4886488D01*
X6937487Y4901296D01*
X7017562Y5225325D01*
X7095351Y5542451D01*
X7167482Y5839011D01*
X7230583Y6101337D01*
X7281285Y6315766D01*
X7316217Y6468632D01*
X7326719Y6517727D01*
X7355621Y6659621D01*
X7213727Y6631216D01*
X6961913Y6574645D01*
X6771727Y6514192D01*
X6620381Y6439451D01*
X6485089Y6340013D01*
X6395115Y6257354D01*
X6223305Y6058208D01*
X6110975Y5845804D01*
X6054791Y5605762D01*
X6051420Y5323703D01*
X6097529Y4985248D01*
X6098738Y4978833D01*
X6105980Y4907127D01*
X6084995Y4852686D01*
X6020809Y4797133D01*
X5898447Y4722093D01*
X5881532Y4712288D01*
X5750221Y4643632D01*
X5643377Y4600904D01*
X5587039Y4593176D01*
X5550218Y4642830D01*
X5510158Y4750071D01*
X5483722Y4854781D01*
X5454769Y5189599D01*
X5504510Y5512790D01*
X5627111Y5817564D01*
X5816738Y6097129D01*
X6067555Y6344692D01*
X6373729Y6553463D01*
X6729425Y6716649D01*
X7128809Y6827459D01*
X7187729Y6838380D01*
X7387745Y6881658D01*
X7584823Y6938278D01*
X7742442Y6997458D01*
X7768162Y7009733D01*
X7903439Y7076953D01*
X7980047Y7107351D01*
X8014664Y7102733D01*
G36*
X38934325Y97488544D02*
X39026503Y97470906D01*
X39055561Y97432617D01*
X39028547Y97369540D01*
X38952511Y97277533D01*
X38925069Y97247813D01*
X38882935Y97201505D01*
X38847366Y97155523D01*
X38815484Y97100335D01*
X38784409Y97026411D01*
X38751261Y96924218D01*
X38713160Y96784227D01*
X38667228Y96596904D01*
X38610583Y96352720D01*
X38540347Y96042142D01*
X38481310Y95779049D01*
X38413595Y95485805D01*
X38346461Y95211032D01*
X38283566Y94968514D01*
X38228566Y94772037D01*
X38185119Y94635386D01*
X38164366Y94584306D01*
X38056424Y94434668D01*
X37888865Y94275988D01*
X37682648Y94125231D01*
X37458730Y93999363D01*
X37419237Y93981137D01*
X37244353Y93925054D01*
X37025003Y93886199D01*
X36785597Y93865547D01*
X36550544Y93864070D01*
X36344252Y93882743D01*
X36191133Y93922541D01*
X36172333Y93931381D01*
X36075062Y93993249D01*
X36028830Y94067874D01*
X36011142Y94188227D01*
X36008449Y94275087D01*
X36022229Y94345396D01*
X36063289Y94417570D01*
X36076871Y94433436D01*
X36468666Y94433436D01*
X36507155Y94322116D01*
X36613345Y94236995D01*
X36773325Y94181747D01*
X36973181Y94160044D01*
X37199001Y94175559D01*
X37338955Y94203702D01*
X37541517Y94294979D01*
X37649533Y94390548D01*
X37684897Y94432604D01*
X37715481Y94477004D01*
X37744104Y94533304D01*
X37773585Y94611060D01*
X37806743Y94719827D01*
X37846397Y94869159D01*
X37895365Y95068614D01*
X37956466Y95327745D01*
X38032519Y95656110D01*
X38067041Y95805868D01*
X38071858Y95850344D01*
X38051099Y95859390D01*
X37993750Y95827851D01*
X37888798Y95750571D01*
X37798461Y95680154D01*
X37459504Y95412522D01*
X37182135Y95190474D01*
X36960452Y95008474D01*
X36788548Y94860988D01*
X36660520Y94742478D01*
X36570464Y94647411D01*
X36512476Y94570250D01*
X36480651Y94505461D01*
X36469084Y94447508D01*
X36468666Y94433436D01*
X36076871Y94433436D01*
X36142438Y94510024D01*
X36270485Y94641173D01*
X36286308Y94657038D01*
X36442041Y94809068D01*
X36604829Y94961509D01*
X36746399Y95088061D01*
X36783685Y95119694D01*
X36895988Y95216457D01*
X36952959Y95281264D01*
X36965903Y95334387D01*
X36946128Y95396096D01*
X36942435Y95404292D01*
X36900464Y95560256D01*
X36899941Y95761265D01*
X36930811Y95953148D01*
X37369525Y95953148D01*
X37383949Y95809998D01*
X37393802Y95782865D01*
X37437525Y95706841D01*
X37467979Y95680334D01*
X37511720Y95703954D01*
X37606944Y95767467D01*
X37737487Y95859851D01*
X37824954Y95923750D01*
X38154467Y96167167D01*
X38250610Y96522715D01*
X38311976Y96724961D01*
X38374370Y96868360D01*
X38449954Y96978000D01*
X38494664Y97026176D01*
X38642575Y97174087D01*
X38243537Y97144586D01*
X38003820Y97119658D01*
X37838270Y97084896D01*
X37738666Y97039579D01*
X37652931Y96940878D01*
X37568871Y96780039D01*
X37492493Y96578955D01*
X37429804Y96359518D01*
X37386812Y96143618D01*
X37369525Y95953148D01*
X36930811Y95953148D01*
X36941358Y96018700D01*
X36975276Y96161730D01*
X37057184Y96447511D01*
X37143515Y96668832D01*
X37244296Y96845718D01*
X37369555Y96998190D01*
X37418859Y97047412D01*
X37594914Y97203698D01*
X37759222Y97315661D01*
X37933469Y97391698D01*
X38139342Y97440200D01*
X38398527Y97469563D01*
X38532416Y97478432D01*
X38771979Y97489673D01*
X38934325Y97488544D01*
X38934325Y97488544D01*
G37*
X38934325Y97488544D02*
X39026503Y97470906D01*
X39055561Y97432617D01*
X39028547Y97369540D01*
X38952511Y97277533D01*
X38925069Y97247813D01*
X38882935Y97201505D01*
X38847366Y97155523D01*
X38815484Y97100335D01*
X38784409Y97026411D01*
X38751261Y96924218D01*
X38713160Y96784227D01*
X38667228Y96596904D01*
X38610583Y96352720D01*
X38540347Y96042142D01*
X38481310Y95779049D01*
X38413595Y95485805D01*
X38346461Y95211032D01*
X38283566Y94968514D01*
X38228566Y94772037D01*
X38185119Y94635386D01*
X38164366Y94584306D01*
X38056424Y94434668D01*
X37888865Y94275988D01*
X37682648Y94125231D01*
X37458730Y93999363D01*
X37419237Y93981137D01*
X37244353Y93925054D01*
X37025003Y93886199D01*
X36785597Y93865547D01*
X36550544Y93864070D01*
X36344252Y93882743D01*
X36191133Y93922541D01*
X36172333Y93931381D01*
X36075062Y93993249D01*
X36028830Y94067874D01*
X36011142Y94188227D01*
X36008449Y94275087D01*
X36022229Y94345396D01*
X36063289Y94417570D01*
X36076871Y94433436D01*
X36468666Y94433436D01*
X36507155Y94322116D01*
X36613345Y94236995D01*
X36773325Y94181747D01*
X36973181Y94160044D01*
X37199001Y94175559D01*
X37338955Y94203702D01*
X37541517Y94294979D01*
X37649533Y94390548D01*
X37684897Y94432604D01*
X37715481Y94477004D01*
X37744104Y94533304D01*
X37773585Y94611060D01*
X37806743Y94719827D01*
X37846397Y94869159D01*
X37895365Y95068614D01*
X37956466Y95327745D01*
X38032519Y95656110D01*
X38067041Y95805868D01*
X38071858Y95850344D01*
X38051099Y95859390D01*
X37993750Y95827851D01*
X37888798Y95750571D01*
X37798461Y95680154D01*
X37459504Y95412522D01*
X37182135Y95190474D01*
X36960452Y95008474D01*
X36788548Y94860988D01*
X36660520Y94742478D01*
X36570464Y94647411D01*
X36512476Y94570250D01*
X36480651Y94505461D01*
X36469084Y94447508D01*
X36468666Y94433436D01*
X36076871Y94433436D01*
X36142438Y94510024D01*
X36270485Y94641173D01*
X36286308Y94657038D01*
X36442041Y94809068D01*
X36604829Y94961509D01*
X36746399Y95088061D01*
X36783685Y95119694D01*
X36895988Y95216457D01*
X36952959Y95281264D01*
X36965903Y95334387D01*
X36946128Y95396096D01*
X36942435Y95404292D01*
X36900464Y95560256D01*
X36899941Y95761265D01*
X36930811Y95953148D01*
X37369525Y95953148D01*
X37383949Y95809998D01*
X37393802Y95782865D01*
X37437525Y95706841D01*
X37467979Y95680334D01*
X37511720Y95703954D01*
X37606944Y95767467D01*
X37737487Y95859851D01*
X37824954Y95923750D01*
X38154467Y96167167D01*
X38250610Y96522715D01*
X38311976Y96724961D01*
X38374370Y96868360D01*
X38449954Y96978000D01*
X38494664Y97026176D01*
X38642575Y97174087D01*
X38243537Y97144586D01*
X38003820Y97119658D01*
X37838270Y97084896D01*
X37738666Y97039579D01*
X37652931Y96940878D01*
X37568871Y96780039D01*
X37492493Y96578955D01*
X37429804Y96359518D01*
X37386812Y96143618D01*
X37369525Y95953148D01*
X36930811Y95953148D01*
X36941358Y96018700D01*
X36975276Y96161730D01*
X37057184Y96447511D01*
X37143515Y96668832D01*
X37244296Y96845718D01*
X37369555Y96998190D01*
X37418859Y97047412D01*
X37594914Y97203698D01*
X37759222Y97315661D01*
X37933469Y97391698D01*
X38139342Y97440200D01*
X38398527Y97469563D01*
X38532416Y97478432D01*
X38771979Y97489673D01*
X38934325Y97488544D01*
G36*
X11243610Y98411014D02*
X11399974Y98324597D01*
X11496093Y98179002D01*
X11508463Y98141575D01*
X11521541Y98029110D01*
X11480741Y97934966D01*
X11375488Y97842301D01*
X11284398Y97784748D01*
X11155784Y97708995D01*
X11128355Y97827081D01*
X11073407Y97993051D01*
X10993312Y98089463D01*
X10871914Y98130946D01*
X10787543Y98135667D01*
X10660490Y98126873D01*
X10565043Y98089317D01*
X10464168Y98006236D01*
X10432197Y97974826D01*
X10291446Y97783940D01*
X10229692Y97576226D01*
X10249690Y97361411D01*
X10302046Y97265050D01*
X10415663Y97134169D01*
X10594728Y96964187D01*
X10688291Y96881908D01*
X10847769Y96738127D01*
X10986408Y96602233D01*
X11089376Y96489494D01*
X11141841Y96415178D01*
X11141948Y96414937D01*
X11181994Y96224276D01*
X11154222Y96004776D01*
X11063967Y95770227D01*
X10916562Y95534417D01*
X10717342Y95311136D01*
X10713572Y95307560D01*
X10409215Y95073419D01*
X10066189Y94912522D01*
X9775986Y94836970D01*
X9609529Y94808288D01*
X9491643Y94797526D01*
X9387984Y94805483D01*
X9264205Y94832958D01*
X9198403Y94850388D01*
X9048763Y94905925D01*
X8903611Y94984870D01*
X8783961Y95072761D01*
X8710825Y95155135D01*
X8698000Y95194817D01*
X8714749Y95276535D01*
X8757803Y95399962D01*
X8816366Y95540768D01*
X8879644Y95674626D01*
X8936843Y95777205D01*
X8977168Y95824178D01*
X8977251Y95824210D01*
X9025304Y95800057D01*
X9078691Y95697913D01*
X9098923Y95641745D01*
X9208413Y95427707D01*
X9366620Y95270072D01*
X9559765Y95168123D01*
X9774068Y95121145D01*
X9995748Y95128422D01*
X10211025Y95189238D01*
X10406120Y95302877D01*
X10567252Y95468623D01*
X10680642Y95685760D01*
X10693239Y95724575D01*
X10723128Y95880652D01*
X10708079Y96023543D01*
X10641385Y96167118D01*
X10516341Y96325247D01*
X10326241Y96511800D01*
X10301935Y96533871D01*
X10153979Y96673460D01*
X10025091Y96806017D01*
X9931944Y96913784D01*
X9896668Y96965479D01*
X9834265Y97172576D01*
X9842656Y97396137D01*
X9912814Y97624393D01*
X10035712Y97845576D01*
X10202323Y98047920D01*
X10403619Y98219654D01*
X10630574Y98349013D01*
X10874159Y98424228D01*
X11026620Y98438490D01*
X11243610Y98411014D01*
X11243610Y98411014D01*
G37*
X11243610Y98411014D02*
X11399974Y98324597D01*
X11496093Y98179002D01*
X11508463Y98141575D01*
X11521541Y98029110D01*
X11480741Y97934966D01*
X11375488Y97842301D01*
X11284398Y97784748D01*
X11155784Y97708995D01*
X11128355Y97827081D01*
X11073407Y97993051D01*
X10993312Y98089463D01*
X10871914Y98130946D01*
X10787543Y98135667D01*
X10660490Y98126873D01*
X10565043Y98089317D01*
X10464168Y98006236D01*
X10432197Y97974826D01*
X10291446Y97783940D01*
X10229692Y97576226D01*
X10249690Y97361411D01*
X10302046Y97265050D01*
X10415663Y97134169D01*
X10594728Y96964187D01*
X10688291Y96881908D01*
X10847769Y96738127D01*
X10986408Y96602233D01*
X11089376Y96489494D01*
X11141841Y96415178D01*
X11141948Y96414937D01*
X11181994Y96224276D01*
X11154222Y96004776D01*
X11063967Y95770227D01*
X10916562Y95534417D01*
X10717342Y95311136D01*
X10713572Y95307560D01*
X10409215Y95073419D01*
X10066189Y94912522D01*
X9775986Y94836970D01*
X9609529Y94808288D01*
X9491643Y94797526D01*
X9387984Y94805483D01*
X9264205Y94832958D01*
X9198403Y94850388D01*
X9048763Y94905925D01*
X8903611Y94984870D01*
X8783961Y95072761D01*
X8710825Y95155135D01*
X8698000Y95194817D01*
X8714749Y95276535D01*
X8757803Y95399962D01*
X8816366Y95540768D01*
X8879644Y95674626D01*
X8936843Y95777205D01*
X8977168Y95824178D01*
X8977251Y95824210D01*
X9025304Y95800057D01*
X9078691Y95697913D01*
X9098923Y95641745D01*
X9208413Y95427707D01*
X9366620Y95270072D01*
X9559765Y95168123D01*
X9774068Y95121145D01*
X9995748Y95128422D01*
X10211025Y95189238D01*
X10406120Y95302877D01*
X10567252Y95468623D01*
X10680642Y95685760D01*
X10693239Y95724575D01*
X10723128Y95880652D01*
X10708079Y96023543D01*
X10641385Y96167118D01*
X10516341Y96325247D01*
X10326241Y96511800D01*
X10301935Y96533871D01*
X10153979Y96673460D01*
X10025091Y96806017D01*
X9931944Y96913784D01*
X9896668Y96965479D01*
X9834265Y97172576D01*
X9842656Y97396137D01*
X9912814Y97624393D01*
X10035712Y97845576D01*
X10202323Y98047920D01*
X10403619Y98219654D01*
X10630574Y98349013D01*
X10874159Y98424228D01*
X11026620Y98438490D01*
X11243610Y98411014D01*
G36*
X25026318Y98410157D02*
X25192125Y98288269D01*
X25252047Y98207695D01*
X25318943Y98069705D01*
X25325052Y97955710D01*
X25265419Y97845105D01*
X25135094Y97717289D01*
X25133916Y97716281D01*
X24932833Y97544308D01*
X24899373Y97681237D01*
X24827544Y97904507D01*
X24733336Y98054392D01*
X24605514Y98141439D01*
X24432844Y98176194D01*
X24370197Y98178000D01*
X24183398Y98146122D01*
X23970078Y98059087D01*
X23754079Y97929797D01*
X23559245Y97771152D01*
X23493936Y97703878D01*
X23226765Y97348700D01*
X23022980Y96945878D01*
X22879603Y96488943D01*
X22835699Y96273740D01*
X22806343Y95937346D01*
X22843486Y95648364D01*
X22946438Y95409239D01*
X23114509Y95222416D01*
X23137331Y95204876D01*
X23314163Y95124289D01*
X23539200Y95101764D01*
X23800637Y95135631D01*
X24086673Y95224224D01*
X24385503Y95365874D01*
X24421672Y95386364D01*
X24562748Y95464095D01*
X24676019Y95519783D01*
X24741677Y95543888D01*
X24748508Y95543804D01*
X24771366Y95504452D01*
X24732783Y95434023D01*
X24644267Y95344414D01*
X24517327Y95247523D01*
X24382500Y95165424D01*
X24040637Y95002246D01*
X23706645Y94885761D01*
X23393697Y94818704D01*
X23114967Y94803810D01*
X22883630Y94843814D01*
X22865069Y94850393D01*
X22639670Y94973455D01*
X22476265Y95152164D01*
X22373893Y95388133D01*
X22331594Y95682973D01*
X22330263Y95747645D01*
X22368473Y96173346D01*
X22480342Y96594548D01*
X22657780Y96999984D01*
X22892700Y97378392D01*
X23177016Y97718505D01*
X23502638Y98009059D01*
X23861480Y98238789D01*
X24228209Y98391186D01*
X24541321Y98462161D01*
X24808370Y98468303D01*
X25026318Y98410157D01*
X25026318Y98410157D01*
G37*
X25026318Y98410157D02*
X25192125Y98288269D01*
X25252047Y98207695D01*
X25318943Y98069705D01*
X25325052Y97955710D01*
X25265419Y97845105D01*
X25135094Y97717289D01*
X25133916Y97716281D01*
X24932833Y97544308D01*
X24899373Y97681237D01*
X24827544Y97904507D01*
X24733336Y98054392D01*
X24605514Y98141439D01*
X24432844Y98176194D01*
X24370197Y98178000D01*
X24183398Y98146122D01*
X23970078Y98059087D01*
X23754079Y97929797D01*
X23559245Y97771152D01*
X23493936Y97703878D01*
X23226765Y97348700D01*
X23022980Y96945878D01*
X22879603Y96488943D01*
X22835699Y96273740D01*
X22806343Y95937346D01*
X22843486Y95648364D01*
X22946438Y95409239D01*
X23114509Y95222416D01*
X23137331Y95204876D01*
X23314163Y95124289D01*
X23539200Y95101764D01*
X23800637Y95135631D01*
X24086673Y95224224D01*
X24385503Y95365874D01*
X24421672Y95386364D01*
X24562748Y95464095D01*
X24676019Y95519783D01*
X24741677Y95543888D01*
X24748508Y95543804D01*
X24771366Y95504452D01*
X24732783Y95434023D01*
X24644267Y95344414D01*
X24517327Y95247523D01*
X24382500Y95165424D01*
X24040637Y95002246D01*
X23706645Y94885761D01*
X23393697Y94818704D01*
X23114967Y94803810D01*
X22883630Y94843814D01*
X22865069Y94850393D01*
X22639670Y94973455D01*
X22476265Y95152164D01*
X22373893Y95388133D01*
X22331594Y95682973D01*
X22330263Y95747645D01*
X22368473Y96173346D01*
X22480342Y96594548D01*
X22657780Y96999984D01*
X22892700Y97378392D01*
X23177016Y97718505D01*
X23502638Y98009059D01*
X23861480Y98238789D01*
X24228209Y98391186D01*
X24541321Y98462161D01*
X24808370Y98468303D01*
X25026318Y98410157D01*
G36*
X13283231Y97478867D02*
X13454756Y97414190D01*
X13589748Y97305206D01*
X13631698Y97243061D01*
X13683395Y97063602D01*
X13687499Y96836473D01*
X13649499Y96579964D01*
X13574886Y96312364D01*
X13469148Y96051963D01*
X13337777Y95817050D01*
X13186260Y95625914D01*
X13130638Y95573729D01*
X12931246Y95428515D01*
X12699894Y95299621D01*
X12465146Y95200601D01*
X12255566Y95145009D01*
X12216695Y95140050D01*
X12081210Y95134523D01*
X11987800Y95158748D01*
X11895721Y95224899D01*
X11876798Y95241612D01*
X11767464Y95373554D01*
X11707358Y95537651D01*
X11692605Y95749833D01*
X11705964Y95918873D01*
X12146315Y95918873D01*
X12175665Y95715248D01*
X12246172Y95559652D01*
X12350415Y95459539D01*
X12480972Y95422361D01*
X12630424Y95455571D01*
X12774561Y95551457D01*
X12906838Y95706554D01*
X13028975Y95919729D01*
X13129381Y96164411D01*
X13196463Y96414022D01*
X13216597Y96564735D01*
X13217963Y96798870D01*
X13182158Y96969268D01*
X13104793Y97090252D01*
X13039364Y97143287D01*
X12904710Y97186712D01*
X12760490Y97156200D01*
X12614638Y97060649D01*
X12475088Y96908959D01*
X12349773Y96710030D01*
X12246628Y96472762D01*
X12173586Y96206056D01*
X12165543Y96163076D01*
X12146315Y95918873D01*
X11705964Y95918873D01*
X11707453Y95937712D01*
X11790911Y96329686D01*
X11940668Y96669038D01*
X12156901Y96956024D01*
X12439785Y97190902D01*
X12649475Y97310842D01*
X12816399Y97386787D01*
X12975580Y97448311D01*
X13095461Y97483351D01*
X13105670Y97485197D01*
X13283231Y97478867D01*
X13283231Y97478867D01*
G37*
X13283231Y97478867D02*
X13454756Y97414190D01*
X13589748Y97305206D01*
X13631698Y97243061D01*
X13683395Y97063602D01*
X13687499Y96836473D01*
X13649499Y96579964D01*
X13574886Y96312364D01*
X13469148Y96051963D01*
X13337777Y95817050D01*
X13186260Y95625914D01*
X13130638Y95573729D01*
X12931246Y95428515D01*
X12699894Y95299621D01*
X12465146Y95200601D01*
X12255566Y95145009D01*
X12216695Y95140050D01*
X12081210Y95134523D01*
X11987800Y95158748D01*
X11895721Y95224899D01*
X11876798Y95241612D01*
X11767464Y95373554D01*
X11707358Y95537651D01*
X11692605Y95749833D01*
X11705964Y95918873D01*
X12146315Y95918873D01*
X12175665Y95715248D01*
X12246172Y95559652D01*
X12350415Y95459539D01*
X12480972Y95422361D01*
X12630424Y95455571D01*
X12774561Y95551457D01*
X12906838Y95706554D01*
X13028975Y95919729D01*
X13129381Y96164411D01*
X13196463Y96414022D01*
X13216597Y96564735D01*
X13217963Y96798870D01*
X13182158Y96969268D01*
X13104793Y97090252D01*
X13039364Y97143287D01*
X12904710Y97186712D01*
X12760490Y97156200D01*
X12614638Y97060649D01*
X12475088Y96908959D01*
X12349773Y96710030D01*
X12246628Y96472762D01*
X12173586Y96206056D01*
X12165543Y96163076D01*
X12146315Y95918873D01*
X11705964Y95918873D01*
X11707453Y95937712D01*
X11790911Y96329686D01*
X11940668Y96669038D01*
X12156901Y96956024D01*
X12439785Y97190902D01*
X12649475Y97310842D01*
X12816399Y97386787D01*
X12975580Y97448311D01*
X13095461Y97483351D01*
X13105670Y97485197D01*
X13283231Y97478867D01*
G36*
X15695413Y98935046D02*
X15783877Y98922204D01*
X15808279Y98908250D01*
X15781928Y98859253D01*
X15717730Y98773712D01*
X15686379Y98736042D01*
X15601292Y98647941D01*
X15528201Y98614594D01*
X15431112Y98621006D01*
X15416613Y98623646D01*
X15296162Y98639073D01*
X15200343Y98628265D01*
X15121835Y98581685D01*
X15053316Y98489797D01*
X14987464Y98343064D01*
X14916957Y98131950D01*
X14842633Y97876041D01*
X14770577Y97610061D01*
X14696174Y97318886D01*
X14622546Y97016482D01*
X14552814Y96716813D01*
X14490102Y96433847D01*
X14437531Y96181548D01*
X14398223Y95973883D01*
X14375302Y95824817D01*
X14370666Y95764925D01*
X14379872Y95660688D01*
X14414382Y95607295D01*
X14484533Y95604747D01*
X14600662Y95653046D01*
X14773108Y95752196D01*
X14794000Y95765000D01*
X14951707Y95860017D01*
X15051477Y95912799D01*
X15106239Y95927438D01*
X15128923Y95908026D01*
X15132666Y95872169D01*
X15098777Y95816458D01*
X15007452Y95728688D01*
X14874206Y95619773D01*
X14714554Y95500627D01*
X14544012Y95382164D01*
X14378094Y95275299D01*
X14232316Y95190944D01*
X14122191Y95140014D01*
X14077621Y95130000D01*
X13999401Y95158842D01*
X13934085Y95254780D01*
X13919020Y95288741D01*
X13899924Y95338619D01*
X13887834Y95389569D01*
X13884327Y95452057D01*
X13890979Y95536551D01*
X13909366Y95653514D01*
X13941065Y95813414D01*
X13987653Y96026717D01*
X14050706Y96303887D01*
X14111909Y96569325D01*
X14208228Y96984232D01*
X14289000Y97325413D01*
X14357161Y97601765D01*
X14415649Y97822186D01*
X14467399Y97995574D01*
X14515350Y98130825D01*
X14562438Y98236839D01*
X14611599Y98322511D01*
X14665772Y98396741D01*
X14727893Y98468426D01*
X14744828Y98486798D01*
X14959261Y98695677D01*
X15155139Y98835247D01*
X15347591Y98913874D01*
X15551748Y98939926D01*
X15564288Y98940000D01*
X15695413Y98935046D01*
X15695413Y98935046D01*
G37*
X15695413Y98935046D02*
X15783877Y98922204D01*
X15808279Y98908250D01*
X15781928Y98859253D01*
X15717730Y98773712D01*
X15686379Y98736042D01*
X15601292Y98647941D01*
X15528201Y98614594D01*
X15431112Y98621006D01*
X15416613Y98623646D01*
X15296162Y98639073D01*
X15200343Y98628265D01*
X15121835Y98581685D01*
X15053316Y98489797D01*
X14987464Y98343064D01*
X14916957Y98131950D01*
X14842633Y97876041D01*
X14770577Y97610061D01*
X14696174Y97318886D01*
X14622546Y97016482D01*
X14552814Y96716813D01*
X14490102Y96433847D01*
X14437531Y96181548D01*
X14398223Y95973883D01*
X14375302Y95824817D01*
X14370666Y95764925D01*
X14379872Y95660688D01*
X14414382Y95607295D01*
X14484533Y95604747D01*
X14600662Y95653046D01*
X14773108Y95752196D01*
X14794000Y95765000D01*
X14951707Y95860017D01*
X15051477Y95912799D01*
X15106239Y95927438D01*
X15128923Y95908026D01*
X15132666Y95872169D01*
X15098777Y95816458D01*
X15007452Y95728688D01*
X14874206Y95619773D01*
X14714554Y95500627D01*
X14544012Y95382164D01*
X14378094Y95275299D01*
X14232316Y95190944D01*
X14122191Y95140014D01*
X14077621Y95130000D01*
X13999401Y95158842D01*
X13934085Y95254780D01*
X13919020Y95288741D01*
X13899924Y95338619D01*
X13887834Y95389569D01*
X13884327Y95452057D01*
X13890979Y95536551D01*
X13909366Y95653514D01*
X13941065Y95813414D01*
X13987653Y96026717D01*
X14050706Y96303887D01*
X14111909Y96569325D01*
X14208228Y96984232D01*
X14289000Y97325413D01*
X14357161Y97601765D01*
X14415649Y97822186D01*
X14467399Y97995574D01*
X14515350Y98130825D01*
X14562438Y98236839D01*
X14611599Y98322511D01*
X14665772Y98396741D01*
X14727893Y98468426D01*
X14744828Y98486798D01*
X14959261Y98695677D01*
X15155139Y98835247D01*
X15347591Y98913874D01*
X15551748Y98939926D01*
X15564288Y98940000D01*
X15695413Y98935046D01*
G36*
X18137631Y98938653D02*
X18180336Y98916326D01*
X18180666Y98913247D01*
X18160312Y98863491D01*
X18109522Y98772023D01*
X18089750Y98739389D01*
X18022786Y98645346D01*
X17958800Y98609581D01*
X17863730Y98614242D01*
X17853942Y98615797D01*
X17673317Y98616620D01*
X17531513Y98547537D01*
X17419238Y98411758D01*
X17376986Y98317917D01*
X17322468Y98158368D01*
X17258637Y97945520D01*
X17188442Y97691787D01*
X17114836Y97409579D01*
X17040771Y97111308D01*
X16969198Y96809386D01*
X16903068Y96516223D01*
X16845334Y96244232D01*
X16798946Y96005823D01*
X16766856Y95813409D01*
X16752016Y95679400D01*
X16755366Y95620157D01*
X16779955Y95577626D01*
X16823028Y95576361D01*
X16911187Y95616549D01*
X16920489Y95621307D01*
X17042059Y95689992D01*
X17184263Y95778878D01*
X17235794Y95813287D01*
X17356649Y95893270D01*
X17424234Y95926058D01*
X17453885Y95914072D01*
X17460942Y95859728D01*
X17461000Y95848795D01*
X17436507Y95784400D01*
X17358982Y95701095D01*
X17222353Y95594003D01*
X17020546Y95458249D01*
X16813893Y95329274D01*
X16607802Y95211568D01*
X16459324Y95149347D01*
X16360803Y95144170D01*
X16304580Y95197596D01*
X16282998Y95311184D01*
X16284947Y95436943D01*
X16289311Y95554091D01*
X16287084Y95626573D01*
X16283252Y95638027D01*
X16244780Y95615372D01*
X16155364Y95555461D01*
X16032893Y95470336D01*
X16008085Y95452817D01*
X15781065Y95298482D01*
X15607868Y95197075D01*
X15479187Y95145105D01*
X15385714Y95139084D01*
X15318142Y95175522D01*
X15305405Y95189398D01*
X15226813Y95348065D01*
X15200074Y95568981D01*
X15222227Y95818052D01*
X15640666Y95818052D01*
X15646678Y95670162D01*
X15671901Y95583306D01*
X15727115Y95555201D01*
X15823099Y95583566D01*
X15970633Y95666118D01*
X16068020Y95727593D01*
X16198485Y95811698D01*
X16297442Y95875978D01*
X16346745Y95908635D01*
X16349010Y95910298D01*
X16361439Y95952309D01*
X16388733Y96061734D01*
X16427227Y96223371D01*
X16473256Y96422019D01*
X16488189Y96487456D01*
X16617525Y97056167D01*
X16522261Y97133742D01*
X16393750Y97187979D01*
X16244853Y97171399D01*
X16096411Y97087137D01*
X16072498Y97066099D01*
X15947810Y96908360D01*
X15834587Y96688721D01*
X15740679Y96429871D01*
X15673936Y96154498D01*
X15642211Y95885292D01*
X15640666Y95818052D01*
X15222227Y95818052D01*
X15224866Y95847714D01*
X15300865Y96179835D01*
X15399528Y96484350D01*
X15481292Y96690511D01*
X15562921Y96842556D01*
X15661462Y96969277D01*
X15725910Y97035562D01*
X15897080Y97181344D01*
X16088448Y97310820D01*
X16279707Y97413077D01*
X16450549Y97477197D01*
X16576455Y97492747D01*
X16642007Y97489462D01*
X16686849Y97506326D01*
X16722355Y97559199D01*
X16759893Y97663940D01*
X16802663Y97808250D01*
X16863131Y97988195D01*
X16933775Y98156778D01*
X17000341Y98280381D01*
X17006800Y98289785D01*
X17140521Y98444677D01*
X17320432Y98609767D01*
X17516069Y98759298D01*
X17680305Y98859231D01*
X17786955Y98898928D01*
X17915611Y98927220D01*
X18040946Y98941372D01*
X18137631Y98938653D01*
X18137631Y98938653D01*
G37*
X18137631Y98938653D02*
X18180336Y98916326D01*
X18180666Y98913247D01*
X18160312Y98863491D01*
X18109522Y98772023D01*
X18089750Y98739389D01*
X18022786Y98645346D01*
X17958800Y98609581D01*
X17863730Y98614242D01*
X17853942Y98615797D01*
X17673317Y98616620D01*
X17531513Y98547537D01*
X17419238Y98411758D01*
X17376986Y98317917D01*
X17322468Y98158368D01*
X17258637Y97945520D01*
X17188442Y97691787D01*
X17114836Y97409579D01*
X17040771Y97111308D01*
X16969198Y96809386D01*
X16903068Y96516223D01*
X16845334Y96244232D01*
X16798946Y96005823D01*
X16766856Y95813409D01*
X16752016Y95679400D01*
X16755366Y95620157D01*
X16779955Y95577626D01*
X16823028Y95576361D01*
X16911187Y95616549D01*
X16920489Y95621307D01*
X17042059Y95689992D01*
X17184263Y95778878D01*
X17235794Y95813287D01*
X17356649Y95893270D01*
X17424234Y95926058D01*
X17453885Y95914072D01*
X17460942Y95859728D01*
X17461000Y95848795D01*
X17436507Y95784400D01*
X17358982Y95701095D01*
X17222353Y95594003D01*
X17020546Y95458249D01*
X16813893Y95329274D01*
X16607802Y95211568D01*
X16459324Y95149347D01*
X16360803Y95144170D01*
X16304580Y95197596D01*
X16282998Y95311184D01*
X16284947Y95436943D01*
X16289311Y95554091D01*
X16287084Y95626573D01*
X16283252Y95638027D01*
X16244780Y95615372D01*
X16155364Y95555461D01*
X16032893Y95470336D01*
X16008085Y95452817D01*
X15781065Y95298482D01*
X15607868Y95197075D01*
X15479187Y95145105D01*
X15385714Y95139084D01*
X15318142Y95175522D01*
X15305405Y95189398D01*
X15226813Y95348065D01*
X15200074Y95568981D01*
X15222227Y95818052D01*
X15640666Y95818052D01*
X15646678Y95670162D01*
X15671901Y95583306D01*
X15727115Y95555201D01*
X15823099Y95583566D01*
X15970633Y95666118D01*
X16068020Y95727593D01*
X16198485Y95811698D01*
X16297442Y95875978D01*
X16346745Y95908635D01*
X16349010Y95910298D01*
X16361439Y95952309D01*
X16388733Y96061734D01*
X16427227Y96223371D01*
X16473256Y96422019D01*
X16488189Y96487456D01*
X16617525Y97056167D01*
X16522261Y97133742D01*
X16393750Y97187979D01*
X16244853Y97171399D01*
X16096411Y97087137D01*
X16072498Y97066099D01*
X15947810Y96908360D01*
X15834587Y96688721D01*
X15740679Y96429871D01*
X15673936Y96154498D01*
X15642211Y95885292D01*
X15640666Y95818052D01*
X15222227Y95818052D01*
X15224866Y95847714D01*
X15300865Y96179835D01*
X15399528Y96484350D01*
X15481292Y96690511D01*
X15562921Y96842556D01*
X15661462Y96969277D01*
X15725910Y97035562D01*
X15897080Y97181344D01*
X16088448Y97310820D01*
X16279707Y97413077D01*
X16450549Y97477197D01*
X16576455Y97492747D01*
X16642007Y97489462D01*
X16686849Y97506326D01*
X16722355Y97559199D01*
X16759893Y97663940D01*
X16802663Y97808250D01*
X16863131Y97988195D01*
X16933775Y98156778D01*
X17000341Y98280381D01*
X17006800Y98289785D01*
X17140521Y98444677D01*
X17320432Y98609767D01*
X17516069Y98759298D01*
X17680305Y98859231D01*
X17786955Y98898928D01*
X17915611Y98927220D01*
X18040946Y98941372D01*
X18137631Y98938653D01*
G36*
X19068012Y97419973D02*
X19153575Y97303685D01*
X19181018Y97146239D01*
X19143152Y96959372D01*
X19113706Y96890360D01*
X19023293Y96758493D01*
X18873282Y96600970D01*
X18679158Y96431258D01*
X18456408Y96262826D01*
X18220518Y96109143D01*
X18204606Y96099694D01*
X18105594Y96030167D01*
X18062688Y95955139D01*
X18053666Y95843561D01*
X18082481Y95697005D01*
X18156881Y95570652D01*
X18258804Y95488305D01*
X18337492Y95469597D01*
X18463299Y95498159D01*
X18630104Y95574330D01*
X18817475Y95687456D01*
X18973171Y95801141D01*
X19088285Y95890095D01*
X19175948Y95953246D01*
X19216587Y95976667D01*
X19233669Y95940453D01*
X19239000Y95874479D01*
X19216364Y95799708D01*
X19141966Y95707791D01*
X19006065Y95587293D01*
X18968939Y95557397D01*
X18670527Y95346138D01*
X18397864Y95206716D01*
X18154322Y95140246D01*
X17943269Y95147844D01*
X17842000Y95184130D01*
X17706773Y95297509D01*
X17626280Y95473955D01*
X17601350Y95711247D01*
X17606551Y95816147D01*
X17643093Y96065408D01*
X17683583Y96232101D01*
X18062988Y96232101D01*
X18253262Y96368745D01*
X18396379Y96482775D01*
X18537397Y96612471D01*
X18587267Y96664483D01*
X18682709Y96788743D01*
X18724583Y96904175D01*
X18731000Y96994118D01*
X18710876Y97131339D01*
X18649056Y97195339D01*
X18543365Y97187771D01*
X18499462Y97170294D01*
X18425606Y97104315D01*
X18338799Y96978683D01*
X18250298Y96814877D01*
X18171355Y96634376D01*
X18113226Y96458661D01*
X18101789Y96411301D01*
X18062988Y96232101D01*
X17683583Y96232101D01*
X17707753Y96331604D01*
X17791979Y96587930D01*
X17887217Y96807587D01*
X17964307Y96937138D01*
X18081436Y97066111D01*
X18242840Y97202175D01*
X18423646Y97328103D01*
X18598985Y97426674D01*
X18743983Y97480662D01*
X18751279Y97482127D01*
X18931518Y97483366D01*
X19068012Y97419973D01*
X19068012Y97419973D01*
G37*
X19068012Y97419973D02*
X19153575Y97303685D01*
X19181018Y97146239D01*
X19143152Y96959372D01*
X19113706Y96890360D01*
X19023293Y96758493D01*
X18873282Y96600970D01*
X18679158Y96431258D01*
X18456408Y96262826D01*
X18220518Y96109143D01*
X18204606Y96099694D01*
X18105594Y96030167D01*
X18062688Y95955139D01*
X18053666Y95843561D01*
X18082481Y95697005D01*
X18156881Y95570652D01*
X18258804Y95488305D01*
X18337492Y95469597D01*
X18463299Y95498159D01*
X18630104Y95574330D01*
X18817475Y95687456D01*
X18973171Y95801141D01*
X19088285Y95890095D01*
X19175948Y95953246D01*
X19216587Y95976667D01*
X19233669Y95940453D01*
X19239000Y95874479D01*
X19216364Y95799708D01*
X19141966Y95707791D01*
X19006065Y95587293D01*
X18968939Y95557397D01*
X18670527Y95346138D01*
X18397864Y95206716D01*
X18154322Y95140246D01*
X17943269Y95147844D01*
X17842000Y95184130D01*
X17706773Y95297509D01*
X17626280Y95473955D01*
X17601350Y95711247D01*
X17606551Y95816147D01*
X17643093Y96065408D01*
X17683583Y96232101D01*
X18062988Y96232101D01*
X18253262Y96368745D01*
X18396379Y96482775D01*
X18537397Y96612471D01*
X18587267Y96664483D01*
X18682709Y96788743D01*
X18724583Y96904175D01*
X18731000Y96994118D01*
X18710876Y97131339D01*
X18649056Y97195339D01*
X18543365Y97187771D01*
X18499462Y97170294D01*
X18425606Y97104315D01*
X18338799Y96978683D01*
X18250298Y96814877D01*
X18171355Y96634376D01*
X18113226Y96458661D01*
X18101789Y96411301D01*
X18062988Y96232101D01*
X17683583Y96232101D01*
X17707753Y96331604D01*
X17791979Y96587930D01*
X17887217Y96807587D01*
X17964307Y96937138D01*
X18081436Y97066111D01*
X18242840Y97202175D01*
X18423646Y97328103D01*
X18598985Y97426674D01*
X18743983Y97480662D01*
X18751279Y97482127D01*
X18931518Y97483366D01*
X19068012Y97419973D01*
G36*
X21131514Y97480665D02*
X21228921Y97448946D01*
X21260748Y97407461D01*
X21259537Y97402835D01*
X21236598Y97336447D01*
X21197578Y97219958D01*
X21167930Y97130250D01*
X21123735Y97008370D01*
X21086558Y96927644D01*
X21069847Y96908000D01*
X21022717Y96933269D01*
X20967544Y96977946D01*
X20853592Y97029840D01*
X20704800Y97032712D01*
X20550052Y96993282D01*
X20418232Y96918274D01*
X20346758Y96833479D01*
X20324051Y96769293D01*
X20285095Y96638240D01*
X20234176Y96455592D01*
X20175579Y96236620D01*
X20130090Y96061334D01*
X20068860Y95828457D01*
X20012038Y95623706D01*
X19963855Y95461464D01*
X19928540Y95356112D01*
X19912915Y95322946D01*
X19845486Y95276960D01*
X19743770Y95231290D01*
X19634002Y95194439D01*
X19542415Y95174907D01*
X19495242Y95181196D01*
X19493430Y95187008D01*
X19504172Y95241534D01*
X19533815Y95364172D01*
X19578908Y95541373D01*
X19636000Y95759588D01*
X19701641Y96005265D01*
X19705097Y96018067D01*
X19771463Y96268788D01*
X19829281Y96496695D01*
X19875040Y96687160D01*
X19905227Y96825554D01*
X19916329Y96897249D01*
X19916333Y96897813D01*
X19891809Y96989225D01*
X19816445Y97017162D01*
X19687551Y96982098D01*
X19620001Y96950335D01*
X19498812Y96892682D01*
X19437352Y96879927D01*
X19422202Y96914339D01*
X19435491Y96981542D01*
X19481267Y97036958D01*
X19584610Y97113735D01*
X19727102Y97202166D01*
X19890322Y97292546D01*
X20055851Y97375166D01*
X20205269Y97440322D01*
X20320157Y97478304D01*
X20381275Y97479948D01*
X20414771Y97412113D01*
X20410493Y97304785D01*
X20400513Y97209641D01*
X20406329Y97162967D01*
X20408652Y97162000D01*
X20452923Y97185008D01*
X20536826Y97242284D01*
X20564741Y97262836D01*
X20771873Y97399955D01*
X20944849Y97472458D01*
X21097334Y97485595D01*
X21131514Y97480665D01*
X21131514Y97480665D01*
G37*
X21131514Y97480665D02*
X21228921Y97448946D01*
X21260748Y97407461D01*
X21259537Y97402835D01*
X21236598Y97336447D01*
X21197578Y97219958D01*
X21167930Y97130250D01*
X21123735Y97008370D01*
X21086558Y96927644D01*
X21069847Y96908000D01*
X21022717Y96933269D01*
X20967544Y96977946D01*
X20853592Y97029840D01*
X20704800Y97032712D01*
X20550052Y96993282D01*
X20418232Y96918274D01*
X20346758Y96833479D01*
X20324051Y96769293D01*
X20285095Y96638240D01*
X20234176Y96455592D01*
X20175579Y96236620D01*
X20130090Y96061334D01*
X20068860Y95828457D01*
X20012038Y95623706D01*
X19963855Y95461464D01*
X19928540Y95356112D01*
X19912915Y95322946D01*
X19845486Y95276960D01*
X19743770Y95231290D01*
X19634002Y95194439D01*
X19542415Y95174907D01*
X19495242Y95181196D01*
X19493430Y95187008D01*
X19504172Y95241534D01*
X19533815Y95364172D01*
X19578908Y95541373D01*
X19636000Y95759588D01*
X19701641Y96005265D01*
X19705097Y96018067D01*
X19771463Y96268788D01*
X19829281Y96496695D01*
X19875040Y96687160D01*
X19905227Y96825554D01*
X19916329Y96897249D01*
X19916333Y96897813D01*
X19891809Y96989225D01*
X19816445Y97017162D01*
X19687551Y96982098D01*
X19620001Y96950335D01*
X19498812Y96892682D01*
X19437352Y96879927D01*
X19422202Y96914339D01*
X19435491Y96981542D01*
X19481267Y97036958D01*
X19584610Y97113735D01*
X19727102Y97202166D01*
X19890322Y97292546D01*
X20055851Y97375166D01*
X20205269Y97440322D01*
X20320157Y97478304D01*
X20381275Y97479948D01*
X20414771Y97412113D01*
X20410493Y97304785D01*
X20400513Y97209641D01*
X20406329Y97162967D01*
X20408652Y97162000D01*
X20452923Y97185008D01*
X20536826Y97242284D01*
X20564741Y97262836D01*
X20771873Y97399955D01*
X20944849Y97472458D01*
X21097334Y97485595D01*
X21131514Y97480665D01*
G36*
X27112729Y98935520D02*
X27204970Y98923801D01*
X27232944Y98908250D01*
X27202577Y98856235D01*
X27142607Y98762398D01*
X27113000Y98717513D01*
X27041876Y98619961D01*
X26979436Y98578383D01*
X26890446Y98576366D01*
X26827792Y98584655D01*
X26632603Y98595588D01*
X26491717Y98557346D01*
X26386233Y98463293D01*
X26356028Y98418971D01*
X26321582Y98341820D01*
X26273864Y98206199D01*
X26217288Y98027996D01*
X26156268Y97823100D01*
X26095218Y97607399D01*
X26038550Y97396782D01*
X25990679Y97207139D01*
X25956018Y97054356D01*
X25938980Y96954325D01*
X25940569Y96923320D01*
X25982014Y96936364D01*
X26080553Y96986091D01*
X26221333Y97064553D01*
X26385359Y97161299D01*
X26627967Y97304559D01*
X26810959Y97403748D01*
X26944463Y97462795D01*
X27038606Y97485635D01*
X27103517Y97476197D01*
X27136567Y97452910D01*
X27155301Y97420867D01*
X27160738Y97366414D01*
X27150922Y97277868D01*
X27123895Y97143551D01*
X27077700Y96951783D01*
X27010378Y96690884D01*
X27006185Y96674911D01*
X26920935Y96338465D01*
X26861961Y96075941D01*
X26828517Y95881021D01*
X26819857Y95747390D01*
X26835233Y95668729D01*
X26873900Y95638723D01*
X26883626Y95638000D01*
X26952145Y95658439D01*
X27067651Y95712045D01*
X27205246Y95787253D01*
X27206413Y95787936D01*
X27334934Y95859765D01*
X27432150Y95907544D01*
X27478243Y95921597D01*
X27479029Y95921082D01*
X27479029Y95873568D01*
X27459858Y95807083D01*
X27413565Y95753537D01*
X27311127Y95668514D01*
X27169443Y95563349D01*
X27005414Y95449378D01*
X26835939Y95337937D01*
X26677917Y95240362D01*
X26548249Y95167990D01*
X26463832Y95132154D01*
X26450779Y95130212D01*
X26395611Y95164083D01*
X26376695Y95196963D01*
X26352491Y95348671D01*
X26367849Y95572139D01*
X26422517Y95864407D01*
X26438990Y95934334D01*
X26521574Y96279795D01*
X26583053Y96550285D01*
X26624677Y96752496D01*
X26647696Y96893119D01*
X26653357Y96978846D01*
X26642912Y97016368D01*
X26641247Y97017595D01*
X26589897Y97008347D01*
X26486735Y96964371D01*
X26351406Y96896349D01*
X26203555Y96814965D01*
X26062828Y96730904D01*
X25948869Y96654849D01*
X25895439Y96611997D01*
X25854959Y96541415D01*
X25802476Y96399311D01*
X25741811Y96197338D01*
X25676783Y95947149D01*
X25674665Y95938447D01*
X25617272Y95704065D01*
X25573605Y95537916D01*
X25537413Y95425953D01*
X25502445Y95354133D01*
X25462450Y95308410D01*
X25411177Y95274741D01*
X25369598Y95253054D01*
X25256372Y95202073D01*
X25168491Y95174140D01*
X25152594Y95172334D01*
X25147092Y95211511D01*
X25159992Y95321668D01*
X25188772Y95491749D01*
X25230906Y95710694D01*
X25283870Y95967446D01*
X25345139Y96250945D01*
X25412191Y96550133D01*
X25482499Y96853953D01*
X25553541Y97151345D01*
X25622791Y97431252D01*
X25687725Y97682614D01*
X25745820Y97894374D01*
X25794549Y98055474D01*
X25831391Y98154854D01*
X25835226Y98162762D01*
X25947172Y98327315D01*
X26116521Y98507667D01*
X26323539Y98684707D01*
X26507665Y98814066D01*
X26640834Y98888487D01*
X26764124Y98926631D01*
X26918329Y98939454D01*
X26976649Y98940000D01*
X27112729Y98935520D01*
X27112729Y98935520D01*
G37*
X27112729Y98935520D02*
X27204970Y98923801D01*
X27232944Y98908250D01*
X27202577Y98856235D01*
X27142607Y98762398D01*
X27113000Y98717513D01*
X27041876Y98619961D01*
X26979436Y98578383D01*
X26890446Y98576366D01*
X26827792Y98584655D01*
X26632603Y98595588D01*
X26491717Y98557346D01*
X26386233Y98463293D01*
X26356028Y98418971D01*
X26321582Y98341820D01*
X26273864Y98206199D01*
X26217288Y98027996D01*
X26156268Y97823100D01*
X26095218Y97607399D01*
X26038550Y97396782D01*
X25990679Y97207139D01*
X25956018Y97054356D01*
X25938980Y96954325D01*
X25940569Y96923320D01*
X25982014Y96936364D01*
X26080553Y96986091D01*
X26221333Y97064553D01*
X26385359Y97161299D01*
X26627967Y97304559D01*
X26810959Y97403748D01*
X26944463Y97462795D01*
X27038606Y97485635D01*
X27103517Y97476197D01*
X27136567Y97452910D01*
X27155301Y97420867D01*
X27160738Y97366414D01*
X27150922Y97277868D01*
X27123895Y97143551D01*
X27077700Y96951783D01*
X27010378Y96690884D01*
X27006185Y96674911D01*
X26920935Y96338465D01*
X26861961Y96075941D01*
X26828517Y95881021D01*
X26819857Y95747390D01*
X26835233Y95668729D01*
X26873900Y95638723D01*
X26883626Y95638000D01*
X26952145Y95658439D01*
X27067651Y95712045D01*
X27205246Y95787253D01*
X27206413Y95787936D01*
X27334934Y95859765D01*
X27432150Y95907544D01*
X27478243Y95921597D01*
X27479029Y95921082D01*
X27479029Y95873568D01*
X27459858Y95807083D01*
X27413565Y95753537D01*
X27311127Y95668514D01*
X27169443Y95563349D01*
X27005414Y95449378D01*
X26835939Y95337937D01*
X26677917Y95240362D01*
X26548249Y95167990D01*
X26463832Y95132154D01*
X26450779Y95130212D01*
X26395611Y95164083D01*
X26376695Y95196963D01*
X26352491Y95348671D01*
X26367849Y95572139D01*
X26422517Y95864407D01*
X26438990Y95934334D01*
X26521574Y96279795D01*
X26583053Y96550285D01*
X26624677Y96752496D01*
X26647696Y96893119D01*
X26653357Y96978846D01*
X26642912Y97016368D01*
X26641247Y97017595D01*
X26589897Y97008347D01*
X26486735Y96964371D01*
X26351406Y96896349D01*
X26203555Y96814965D01*
X26062828Y96730904D01*
X25948869Y96654849D01*
X25895439Y96611997D01*
X25854959Y96541415D01*
X25802476Y96399311D01*
X25741811Y96197338D01*
X25676783Y95947149D01*
X25674665Y95938447D01*
X25617272Y95704065D01*
X25573605Y95537916D01*
X25537413Y95425953D01*
X25502445Y95354133D01*
X25462450Y95308410D01*
X25411177Y95274741D01*
X25369598Y95253054D01*
X25256372Y95202073D01*
X25168491Y95174140D01*
X25152594Y95172334D01*
X25147092Y95211511D01*
X25159992Y95321668D01*
X25188772Y95491749D01*
X25230906Y95710694D01*
X25283870Y95967446D01*
X25345139Y96250945D01*
X25412191Y96550133D01*
X25482499Y96853953D01*
X25553541Y97151345D01*
X25622791Y97431252D01*
X25687725Y97682614D01*
X25745820Y97894374D01*
X25794549Y98055474D01*
X25831391Y98154854D01*
X25835226Y98162762D01*
X25947172Y98327315D01*
X26116521Y98507667D01*
X26323539Y98684707D01*
X26507665Y98814066D01*
X26640834Y98888487D01*
X26764124Y98926631D01*
X26918329Y98939454D01*
X26976649Y98940000D01*
X27112729Y98935520D01*
G36*
X29077788Y97474078D02*
X29270104Y97468003D01*
X29439288Y97456085D01*
X29561630Y97440318D01*
X29602483Y97429923D01*
X29700134Y97391189D01*
X29613542Y97281105D01*
X29563492Y97189585D01*
X29508329Y97042917D01*
X29451161Y96855748D01*
X29395092Y96642725D01*
X29343229Y96418495D01*
X29298677Y96197706D01*
X29264542Y95995003D01*
X29243929Y95825035D01*
X29239944Y95702448D01*
X29255693Y95641889D01*
X29265147Y95638000D01*
X29323287Y95659473D01*
X29428044Y95715499D01*
X29544311Y95786167D01*
X29666995Y95862258D01*
X29760325Y95915717D01*
X29802077Y95934334D01*
X29817348Y95898956D01*
X29814694Y95839084D01*
X29780700Y95775999D01*
X29689517Y95687790D01*
X29535078Y95569276D01*
X29343688Y95436917D01*
X29111422Y95285504D01*
X28938922Y95186240D01*
X28819157Y95139251D01*
X28745094Y95144663D01*
X28709702Y95202602D01*
X28705948Y95313192D01*
X28722281Y95448032D01*
X28739242Y95570321D01*
X28746877Y95651403D01*
X28745818Y95669250D01*
X28709785Y95651385D01*
X28622188Y95594981D01*
X28500057Y95511130D01*
X28464639Y95486124D01*
X28218235Y95318891D01*
X28025200Y95206896D01*
X27877354Y95147240D01*
X27766513Y95137023D01*
X27684498Y95173348D01*
X27657933Y95200257D01*
X27626655Y95274988D01*
X27608543Y95412999D01*
X27602507Y95623681D01*
X27602661Y95676507D01*
X27608607Y95857506D01*
X28044761Y95857506D01*
X28047854Y95718453D01*
X28065638Y95633877D01*
X28072555Y95623889D01*
X28136775Y95596996D01*
X28236450Y95617925D01*
X28381137Y95690055D01*
X28538019Y95788416D01*
X28829070Y95981165D01*
X28961501Y96539833D01*
X29008794Y96746504D01*
X29045982Y96923014D01*
X29069941Y97053396D01*
X29077546Y97121684D01*
X29076465Y97127288D01*
X29028098Y97148000D01*
X28921971Y97170922D01*
X28826844Y97185081D01*
X28665935Y97196396D01*
X28556160Y97179033D01*
X28492631Y97147215D01*
X28401558Y97052461D01*
X28305213Y96892220D01*
X28212443Y96684482D01*
X28132101Y96447241D01*
X28111671Y96372723D01*
X28077865Y96207522D01*
X28055163Y96028156D01*
X28044761Y95857506D01*
X27608607Y95857506D01*
X27610442Y95913360D01*
X27634218Y96105844D01*
X27680333Y96293702D01*
X27721514Y96421167D01*
X27820255Y96680736D01*
X27923292Y96878733D01*
X28046886Y97037402D01*
X28207297Y97178988D01*
X28348212Y97278528D01*
X28650743Y97479500D01*
X29077788Y97474078D01*
X29077788Y97474078D01*
G37*
X29077788Y97474078D02*
X29270104Y97468003D01*
X29439288Y97456085D01*
X29561630Y97440318D01*
X29602483Y97429923D01*
X29700134Y97391189D01*
X29613542Y97281105D01*
X29563492Y97189585D01*
X29508329Y97042917D01*
X29451161Y96855748D01*
X29395092Y96642725D01*
X29343229Y96418495D01*
X29298677Y96197706D01*
X29264542Y95995003D01*
X29243929Y95825035D01*
X29239944Y95702448D01*
X29255693Y95641889D01*
X29265147Y95638000D01*
X29323287Y95659473D01*
X29428044Y95715499D01*
X29544311Y95786167D01*
X29666995Y95862258D01*
X29760325Y95915717D01*
X29802077Y95934334D01*
X29817348Y95898956D01*
X29814694Y95839084D01*
X29780700Y95775999D01*
X29689517Y95687790D01*
X29535078Y95569276D01*
X29343688Y95436917D01*
X29111422Y95285504D01*
X28938922Y95186240D01*
X28819157Y95139251D01*
X28745094Y95144663D01*
X28709702Y95202602D01*
X28705948Y95313192D01*
X28722281Y95448032D01*
X28739242Y95570321D01*
X28746877Y95651403D01*
X28745818Y95669250D01*
X28709785Y95651385D01*
X28622188Y95594981D01*
X28500057Y95511130D01*
X28464639Y95486124D01*
X28218235Y95318891D01*
X28025200Y95206896D01*
X27877354Y95147240D01*
X27766513Y95137023D01*
X27684498Y95173348D01*
X27657933Y95200257D01*
X27626655Y95274988D01*
X27608543Y95412999D01*
X27602507Y95623681D01*
X27602661Y95676507D01*
X27608607Y95857506D01*
X28044761Y95857506D01*
X28047854Y95718453D01*
X28065638Y95633877D01*
X28072555Y95623889D01*
X28136775Y95596996D01*
X28236450Y95617925D01*
X28381137Y95690055D01*
X28538019Y95788416D01*
X28829070Y95981165D01*
X28961501Y96539833D01*
X29008794Y96746504D01*
X29045982Y96923014D01*
X29069941Y97053396D01*
X29077546Y97121684D01*
X29076465Y97127288D01*
X29028098Y97148000D01*
X28921971Y97170922D01*
X28826844Y97185081D01*
X28665935Y97196396D01*
X28556160Y97179033D01*
X28492631Y97147215D01*
X28401558Y97052461D01*
X28305213Y96892220D01*
X28212443Y96684482D01*
X28132101Y96447241D01*
X28111671Y96372723D01*
X28077865Y96207522D01*
X28055163Y96028156D01*
X28044761Y95857506D01*
X27608607Y95857506D01*
X27610442Y95913360D01*
X27634218Y96105844D01*
X27680333Y96293702D01*
X27721514Y96421167D01*
X27820255Y96680736D01*
X27923292Y96878733D01*
X28046886Y97037402D01*
X28207297Y97178988D01*
X28348212Y97278528D01*
X28650743Y97479500D01*
X29077788Y97474078D01*
G36*
X31584248Y98931474D02*
X31818413Y98918834D01*
X31698789Y98760925D01*
X31619151Y98664826D01*
X31551826Y98623203D01*
X31461920Y98620249D01*
X31404091Y98627423D01*
X31303148Y98637089D01*
X31218240Y98630191D01*
X31145304Y98599021D01*
X31080272Y98535870D01*
X31019079Y98433030D01*
X30957661Y98282791D01*
X30891951Y98077447D01*
X30817884Y97809287D01*
X30731394Y97470604D01*
X30675871Y97246667D01*
X30573023Y96824957D01*
X30491226Y96478796D01*
X30429243Y96202052D01*
X30385836Y95988592D01*
X30359770Y95832285D01*
X30349807Y95726999D01*
X30354711Y95666601D01*
X30356254Y95662042D01*
X30416379Y95604290D01*
X30515655Y95607553D01*
X30606663Y95652590D01*
X30690961Y95706310D01*
X30814366Y95780867D01*
X30891250Y95825946D01*
X31006047Y95890129D01*
X31066101Y95913200D01*
X31088982Y95898082D01*
X31092333Y95859373D01*
X31058768Y95803979D01*
X30968522Y95715939D01*
X30837270Y95606577D01*
X30680683Y95487217D01*
X30514435Y95369184D01*
X30354201Y95263801D01*
X30215652Y95182392D01*
X30114464Y95136281D01*
X30082814Y95130000D01*
X29992526Y95169786D01*
X29929253Y95254898D01*
X29883585Y95366828D01*
X29864666Y95459972D01*
X29874104Y95522207D01*
X29900426Y95653793D01*
X29940646Y95841775D01*
X29991777Y96073201D01*
X30050835Y96335119D01*
X30114831Y96614577D01*
X30180781Y96898621D01*
X30245698Y97174299D01*
X30306595Y97428660D01*
X30360486Y97648749D01*
X30404386Y97821615D01*
X30434527Y97931687D01*
X30570729Y98263580D01*
X30763463Y98533550D01*
X30888933Y98651588D01*
X31080318Y98795569D01*
X31242056Y98883837D01*
X31398251Y98926093D01*
X31573006Y98932040D01*
X31584248Y98931474D01*
X31584248Y98931474D01*
G37*
X31584248Y98931474D02*
X31818413Y98918834D01*
X31698789Y98760925D01*
X31619151Y98664826D01*
X31551826Y98623203D01*
X31461920Y98620249D01*
X31404091Y98627423D01*
X31303148Y98637089D01*
X31218240Y98630191D01*
X31145304Y98599021D01*
X31080272Y98535870D01*
X31019079Y98433030D01*
X30957661Y98282791D01*
X30891951Y98077447D01*
X30817884Y97809287D01*
X30731394Y97470604D01*
X30675871Y97246667D01*
X30573023Y96824957D01*
X30491226Y96478796D01*
X30429243Y96202052D01*
X30385836Y95988592D01*
X30359770Y95832285D01*
X30349807Y95726999D01*
X30354711Y95666601D01*
X30356254Y95662042D01*
X30416379Y95604290D01*
X30515655Y95607553D01*
X30606663Y95652590D01*
X30690961Y95706310D01*
X30814366Y95780867D01*
X30891250Y95825946D01*
X31006047Y95890129D01*
X31066101Y95913200D01*
X31088982Y95898082D01*
X31092333Y95859373D01*
X31058768Y95803979D01*
X30968522Y95715939D01*
X30837270Y95606577D01*
X30680683Y95487217D01*
X30514435Y95369184D01*
X30354201Y95263801D01*
X30215652Y95182392D01*
X30114464Y95136281D01*
X30082814Y95130000D01*
X29992526Y95169786D01*
X29929253Y95254898D01*
X29883585Y95366828D01*
X29864666Y95459972D01*
X29874104Y95522207D01*
X29900426Y95653793D01*
X29940646Y95841775D01*
X29991777Y96073201D01*
X30050835Y96335119D01*
X30114831Y96614577D01*
X30180781Y96898621D01*
X30245698Y97174299D01*
X30306595Y97428660D01*
X30360486Y97648749D01*
X30404386Y97821615D01*
X30434527Y97931687D01*
X30570729Y98263580D01*
X30763463Y98533550D01*
X30888933Y98651588D01*
X31080318Y98795569D01*
X31242056Y98883837D01*
X31398251Y98926093D01*
X31573006Y98932040D01*
X31584248Y98931474D01*
G36*
X33093038Y98937822D02*
X33124333Y98916572D01*
X33100249Y98872152D01*
X33039590Y98787795D01*
X33007916Y98747201D01*
X32929868Y98658340D01*
X32860915Y98620404D01*
X32763795Y98619033D01*
X32696406Y98627122D01*
X32609120Y98635940D01*
X32534709Y98632510D01*
X32469892Y98609721D01*
X32411385Y98560459D01*
X32355905Y98477611D01*
X32300170Y98354063D01*
X32240896Y98182704D01*
X32174802Y97956420D01*
X32098605Y97668098D01*
X32009021Y97310625D01*
X31918609Y96941812D01*
X31825717Y96550140D01*
X31757097Y96233957D01*
X31712077Y95987845D01*
X31689986Y95806386D01*
X31690152Y95684160D01*
X31711902Y95615748D01*
X31751682Y95595667D01*
X31817786Y95616324D01*
X31933444Y95671116D01*
X32076431Y95749278D01*
X32112915Y95770657D01*
X32281696Y95865325D01*
X32388728Y95910511D01*
X32440067Y95907431D01*
X32441775Y95857302D01*
X32434234Y95835127D01*
X32388080Y95782524D01*
X32285751Y95697646D01*
X32143747Y95591653D01*
X31978568Y95475707D01*
X31806716Y95360967D01*
X31644689Y95258595D01*
X31508990Y95179751D01*
X31416118Y95135597D01*
X31391738Y95130000D01*
X31304312Y95169352D01*
X31231516Y95279126D01*
X31200642Y95350678D01*
X31185372Y95417807D01*
X31186578Y95500707D01*
X31205131Y95619574D01*
X31241904Y95794601D01*
X31256648Y95861210D01*
X31338922Y96224786D01*
X31423987Y96588904D01*
X31509016Y96942405D01*
X31591180Y97274134D01*
X31667650Y97572935D01*
X31735600Y97827651D01*
X31792199Y98027127D01*
X31834620Y98160206D01*
X31848547Y98195947D01*
X31945164Y98355069D01*
X32092063Y98529401D01*
X32264915Y98694136D01*
X32439390Y98824468D01*
X32498230Y98858354D01*
X32596638Y98893557D01*
X32729088Y98921316D01*
X32871815Y98939419D01*
X33001054Y98945657D01*
X33093038Y98937822D01*
X33093038Y98937822D01*
G37*
X33093038Y98937822D02*
X33124333Y98916572D01*
X33100249Y98872152D01*
X33039590Y98787795D01*
X33007916Y98747201D01*
X32929868Y98658340D01*
X32860915Y98620404D01*
X32763795Y98619033D01*
X32696406Y98627122D01*
X32609120Y98635940D01*
X32534709Y98632510D01*
X32469892Y98609721D01*
X32411385Y98560459D01*
X32355905Y98477611D01*
X32300170Y98354063D01*
X32240896Y98182704D01*
X32174802Y97956420D01*
X32098605Y97668098D01*
X32009021Y97310625D01*
X31918609Y96941812D01*
X31825717Y96550140D01*
X31757097Y96233957D01*
X31712077Y95987845D01*
X31689986Y95806386D01*
X31690152Y95684160D01*
X31711902Y95615748D01*
X31751682Y95595667D01*
X31817786Y95616324D01*
X31933444Y95671116D01*
X32076431Y95749278D01*
X32112915Y95770657D01*
X32281696Y95865325D01*
X32388728Y95910511D01*
X32440067Y95907431D01*
X32441775Y95857302D01*
X32434234Y95835127D01*
X32388080Y95782524D01*
X32285751Y95697646D01*
X32143747Y95591653D01*
X31978568Y95475707D01*
X31806716Y95360967D01*
X31644689Y95258595D01*
X31508990Y95179751D01*
X31416118Y95135597D01*
X31391738Y95130000D01*
X31304312Y95169352D01*
X31231516Y95279126D01*
X31200642Y95350678D01*
X31185372Y95417807D01*
X31186578Y95500707D01*
X31205131Y95619574D01*
X31241904Y95794601D01*
X31256648Y95861210D01*
X31338922Y96224786D01*
X31423987Y96588904D01*
X31509016Y96942405D01*
X31591180Y97274134D01*
X31667650Y97572935D01*
X31735600Y97827651D01*
X31792199Y98027127D01*
X31834620Y98160206D01*
X31848547Y98195947D01*
X31945164Y98355069D01*
X32092063Y98529401D01*
X32264915Y98694136D01*
X32439390Y98824468D01*
X32498230Y98858354D01*
X32596638Y98893557D01*
X32729088Y98921316D01*
X32871815Y98939419D01*
X33001054Y98945657D01*
X33093038Y98937822D01*
G36*
X33969437Y97420367D02*
X34054750Y97304196D01*
X34081977Y97146585D01*
X34044101Y96959098D01*
X34013509Y96887199D01*
X33954196Y96784911D01*
X33871591Y96685126D01*
X33751576Y96573884D01*
X33580030Y96437226D01*
X33489359Y96368997D01*
X33322160Y96246035D01*
X33176631Y96141743D01*
X33067714Y96066641D01*
X33010347Y96031248D01*
X33008578Y96030502D01*
X32973085Y95977372D01*
X32955594Y95869670D01*
X32955000Y95843214D01*
X32984297Y95695398D01*
X33060074Y95568616D01*
X33164159Y95486657D01*
X33241097Y95468667D01*
X33345988Y95492798D01*
X33493441Y95556721D01*
X33659593Y95647737D01*
X33820577Y95753142D01*
X33917163Y95828475D01*
X34033248Y95924474D01*
X34100250Y95966035D01*
X34131450Y95955988D01*
X34140127Y95897162D01*
X34140333Y95876019D01*
X34112135Y95792363D01*
X34022620Y95685802D01*
X33896916Y95573766D01*
X33619367Y95371619D01*
X33351516Y95230003D01*
X33102659Y95152189D01*
X32882093Y95141444D01*
X32756384Y95172740D01*
X32667169Y95234595D01*
X32587051Y95327089D01*
X32533169Y95472470D01*
X32514276Y95674753D01*
X32527146Y95915292D01*
X32568552Y96175439D01*
X32583029Y96232101D01*
X32964321Y96232101D01*
X33154595Y96368745D01*
X33297712Y96482775D01*
X33438730Y96612471D01*
X33488601Y96664483D01*
X33584043Y96788743D01*
X33625916Y96904175D01*
X33632333Y96994118D01*
X33612209Y97131339D01*
X33550389Y97195339D01*
X33444699Y97187771D01*
X33400796Y97170294D01*
X33326939Y97104315D01*
X33240133Y96978683D01*
X33151631Y96814877D01*
X33072689Y96634376D01*
X33014559Y96458661D01*
X33003122Y96411301D01*
X32964321Y96232101D01*
X32583029Y96232101D01*
X32635267Y96436545D01*
X32724064Y96679962D01*
X32831717Y96887044D01*
X32865640Y96937138D01*
X32982769Y97066111D01*
X33144173Y97202175D01*
X33324980Y97328103D01*
X33500318Y97426674D01*
X33645316Y97480662D01*
X33652612Y97482127D01*
X33833052Y97483532D01*
X33969437Y97420367D01*
X33969437Y97420367D01*
G37*
X33969437Y97420367D02*
X34054750Y97304196D01*
X34081977Y97146585D01*
X34044101Y96959098D01*
X34013509Y96887199D01*
X33954196Y96784911D01*
X33871591Y96685126D01*
X33751576Y96573884D01*
X33580030Y96437226D01*
X33489359Y96368997D01*
X33322160Y96246035D01*
X33176631Y96141743D01*
X33067714Y96066641D01*
X33010347Y96031248D01*
X33008578Y96030502D01*
X32973085Y95977372D01*
X32955594Y95869670D01*
X32955000Y95843214D01*
X32984297Y95695398D01*
X33060074Y95568616D01*
X33164159Y95486657D01*
X33241097Y95468667D01*
X33345988Y95492798D01*
X33493441Y95556721D01*
X33659593Y95647737D01*
X33820577Y95753142D01*
X33917163Y95828475D01*
X34033248Y95924474D01*
X34100250Y95966035D01*
X34131450Y95955988D01*
X34140127Y95897162D01*
X34140333Y95876019D01*
X34112135Y95792363D01*
X34022620Y95685802D01*
X33896916Y95573766D01*
X33619367Y95371619D01*
X33351516Y95230003D01*
X33102659Y95152189D01*
X32882093Y95141444D01*
X32756384Y95172740D01*
X32667169Y95234595D01*
X32587051Y95327089D01*
X32533169Y95472470D01*
X32514276Y95674753D01*
X32527146Y95915292D01*
X32568552Y96175439D01*
X32583029Y96232101D01*
X32964321Y96232101D01*
X33154595Y96368745D01*
X33297712Y96482775D01*
X33438730Y96612471D01*
X33488601Y96664483D01*
X33584043Y96788743D01*
X33625916Y96904175D01*
X33632333Y96994118D01*
X33612209Y97131339D01*
X33550389Y97195339D01*
X33444699Y97187771D01*
X33400796Y97170294D01*
X33326939Y97104315D01*
X33240133Y96978683D01*
X33151631Y96814877D01*
X33072689Y96634376D01*
X33014559Y96458661D01*
X33003122Y96411301D01*
X32964321Y96232101D01*
X32583029Y96232101D01*
X32635267Y96436545D01*
X32724064Y96679962D01*
X32831717Y96887044D01*
X32865640Y96937138D01*
X32982769Y97066111D01*
X33144173Y97202175D01*
X33324980Y97328103D01*
X33500318Y97426674D01*
X33645316Y97480662D01*
X33652612Y97482127D01*
X33833052Y97483532D01*
X33969437Y97420367D01*
G36*
X36379982Y97491180D02*
X36415206Y97456117D01*
X36427605Y97385572D01*
X36416620Y97269641D01*
X36381693Y97098419D01*
X36322264Y96862003D01*
X36276969Y96693378D01*
X36189693Y96363541D01*
X36128006Y96106498D01*
X36090866Y95914672D01*
X36077234Y95780487D01*
X36086069Y95696368D01*
X36116330Y95654737D01*
X36133453Y95648436D01*
X36201524Y95661376D01*
X36317605Y95708501D01*
X36457451Y95779864D01*
X36467513Y95785515D01*
X36599880Y95856541D01*
X36701285Y95903856D01*
X36751944Y95918339D01*
X36753674Y95917437D01*
X36762252Y95853785D01*
X36692953Y95758482D01*
X36546236Y95632003D01*
X36330757Y95480225D01*
X36105095Y95333586D01*
X35937862Y95231585D01*
X35818775Y95169390D01*
X35737552Y95142167D01*
X35683913Y95145084D01*
X35656453Y95163280D01*
X35621249Y95241263D01*
X35614755Y95379596D01*
X35637480Y95583036D01*
X35689928Y95856337D01*
X35763263Y96167167D01*
X35834242Y96455673D01*
X35884018Y96672441D01*
X35914101Y96827296D01*
X35926002Y96930063D01*
X35921234Y96990567D01*
X35901308Y97018632D01*
X35894697Y97021547D01*
X35841856Y97006716D01*
X35735808Y96954586D01*
X35594137Y96874302D01*
X35494811Y96813574D01*
X35139729Y96590500D01*
X34983028Y95963359D01*
X34927800Y95745270D01*
X34878991Y95558044D01*
X34840508Y95416249D01*
X34816262Y95334453D01*
X34810546Y95320436D01*
X34765772Y95296114D01*
X34668473Y95251141D01*
X34594549Y95218832D01*
X34476355Y95171632D01*
X34416012Y95160086D01*
X34395465Y95182341D01*
X34394333Y95198310D01*
X34405112Y95260664D01*
X34434770Y95388308D01*
X34479292Y95565020D01*
X34534660Y95774577D01*
X34561034Y95871587D01*
X34659205Y96239733D01*
X34733655Y96541086D01*
X34783713Y96772463D01*
X34808709Y96930684D01*
X34807973Y97012563D01*
X34803259Y97021186D01*
X34753113Y97020665D01*
X34651576Y96991799D01*
X34564663Y96958738D01*
X34442728Y96909754D01*
X34379438Y96893360D01*
X34355595Y96908842D01*
X34352000Y96950813D01*
X34387228Y97018367D01*
X34495405Y97107969D01*
X34650095Y97205363D01*
X34895235Y97344328D01*
X35077196Y97434921D01*
X35202732Y97476492D01*
X35278599Y97468391D01*
X35311552Y97409967D01*
X35308348Y97300571D01*
X35277059Y97145036D01*
X35212089Y96873499D01*
X35554628Y97090377D01*
X35806677Y97245585D01*
X36020060Y97368143D01*
X36185889Y97453302D01*
X36295275Y97496313D01*
X36322491Y97500667D01*
X36379982Y97491180D01*
X36379982Y97491180D01*
G37*
X36379982Y97491180D02*
X36415206Y97456117D01*
X36427605Y97385572D01*
X36416620Y97269641D01*
X36381693Y97098419D01*
X36322264Y96862003D01*
X36276969Y96693378D01*
X36189693Y96363541D01*
X36128006Y96106498D01*
X36090866Y95914672D01*
X36077234Y95780487D01*
X36086069Y95696368D01*
X36116330Y95654737D01*
X36133453Y95648436D01*
X36201524Y95661376D01*
X36317605Y95708501D01*
X36457451Y95779864D01*
X36467513Y95785515D01*
X36599880Y95856541D01*
X36701285Y95903856D01*
X36751944Y95918339D01*
X36753674Y95917437D01*
X36762252Y95853785D01*
X36692953Y95758482D01*
X36546236Y95632003D01*
X36330757Y95480225D01*
X36105095Y95333586D01*
X35937862Y95231585D01*
X35818775Y95169390D01*
X35737552Y95142167D01*
X35683913Y95145084D01*
X35656453Y95163280D01*
X35621249Y95241263D01*
X35614755Y95379596D01*
X35637480Y95583036D01*
X35689928Y95856337D01*
X35763263Y96167167D01*
X35834242Y96455673D01*
X35884018Y96672441D01*
X35914101Y96827296D01*
X35926002Y96930063D01*
X35921234Y96990567D01*
X35901308Y97018632D01*
X35894697Y97021547D01*
X35841856Y97006716D01*
X35735808Y96954586D01*
X35594137Y96874302D01*
X35494811Y96813574D01*
X35139729Y96590500D01*
X34983028Y95963359D01*
X34927800Y95745270D01*
X34878991Y95558044D01*
X34840508Y95416249D01*
X34816262Y95334453D01*
X34810546Y95320436D01*
X34765772Y95296114D01*
X34668473Y95251141D01*
X34594549Y95218832D01*
X34476355Y95171632D01*
X34416012Y95160086D01*
X34395465Y95182341D01*
X34394333Y95198310D01*
X34405112Y95260664D01*
X34434770Y95388308D01*
X34479292Y95565020D01*
X34534660Y95774577D01*
X34561034Y95871587D01*
X34659205Y96239733D01*
X34733655Y96541086D01*
X34783713Y96772463D01*
X34808709Y96930684D01*
X34807973Y97012563D01*
X34803259Y97021186D01*
X34753113Y97020665D01*
X34651576Y96991799D01*
X34564663Y96958738D01*
X34442728Y96909754D01*
X34379438Y96893360D01*
X34355595Y96908842D01*
X34352000Y96950813D01*
X34387228Y97018367D01*
X34495405Y97107969D01*
X34650095Y97205363D01*
X34895235Y97344328D01*
X35077196Y97434921D01*
X35202732Y97476492D01*
X35278599Y97468391D01*
X35311552Y97409967D01*
X35308348Y97300571D01*
X35277059Y97145036D01*
X35212089Y96873499D01*
X35554628Y97090377D01*
X35806677Y97245585D01*
X36020060Y97368143D01*
X36185889Y97453302D01*
X36295275Y97496313D01*
X36322491Y97500667D01*
X36379982Y97491180D01*
G36*
X40438353Y97474610D02*
X40548124Y97412928D01*
X40627800Y97326195D01*
X40657741Y97213118D01*
X40659666Y97156826D01*
X40639793Y96997936D01*
X40575383Y96845524D01*
X40459248Y96691269D01*
X40284201Y96526850D01*
X40043055Y96343945D01*
X39836983Y96204326D01*
X39668735Y96087509D01*
X39566758Y95992951D01*
X39522649Y95903011D01*
X39528005Y95800046D01*
X39574422Y95666415D01*
X39577377Y95659314D01*
X39652617Y95539707D01*
X39756808Y95486731D01*
X39900151Y95498449D01*
X40075486Y95564754D01*
X40245070Y95656132D01*
X40419549Y95769139D01*
X40490333Y95822263D01*
X40597381Y95906293D01*
X40655997Y95941272D01*
X40683070Y95932016D01*
X40695491Y95883340D01*
X40695887Y95880863D01*
X40685193Y95809345D01*
X40624955Y95720996D01*
X40505254Y95601835D01*
X40484697Y95583253D01*
X40252855Y95403325D01*
X40011905Y95265870D01*
X39776256Y95175751D01*
X39560315Y95137833D01*
X39378489Y95156976D01*
X39309659Y95186636D01*
X39198094Y95281266D01*
X39129674Y95418854D01*
X39098390Y95614439D01*
X39094833Y95724356D01*
X39128359Y96096541D01*
X39189241Y96332690D01*
X39563331Y96332690D01*
X39569889Y96277097D01*
X39580018Y96273000D01*
X39624659Y96297064D01*
X39717112Y96360635D01*
X39838718Y96450783D01*
X39858868Y96466221D01*
X40064137Y96648097D01*
X40189103Y96818042D01*
X40236412Y96981099D01*
X40210637Y97137371D01*
X40151202Y97194001D01*
X40055621Y97196463D01*
X39950649Y97147267D01*
X39907492Y97108959D01*
X39839630Y97016617D01*
X39766595Y96885530D01*
X39695416Y96733646D01*
X39633126Y96578912D01*
X39586754Y96439278D01*
X39563331Y96332690D01*
X39189241Y96332690D01*
X39229143Y96487458D01*
X39311021Y96700949D01*
X39416259Y96879519D01*
X39570709Y97059138D01*
X39756059Y97225417D01*
X39954002Y97363969D01*
X40146228Y97460405D01*
X40314427Y97500335D01*
X40328656Y97500667D01*
X40438353Y97474610D01*
X40438353Y97474610D01*
G37*
X40438353Y97474610D02*
X40548124Y97412928D01*
X40627800Y97326195D01*
X40657741Y97213118D01*
X40659666Y97156826D01*
X40639793Y96997936D01*
X40575383Y96845524D01*
X40459248Y96691269D01*
X40284201Y96526850D01*
X40043055Y96343945D01*
X39836983Y96204326D01*
X39668735Y96087509D01*
X39566758Y95992951D01*
X39522649Y95903011D01*
X39528005Y95800046D01*
X39574422Y95666415D01*
X39577377Y95659314D01*
X39652617Y95539707D01*
X39756808Y95486731D01*
X39900151Y95498449D01*
X40075486Y95564754D01*
X40245070Y95656132D01*
X40419549Y95769139D01*
X40490333Y95822263D01*
X40597381Y95906293D01*
X40655997Y95941272D01*
X40683070Y95932016D01*
X40695491Y95883340D01*
X40695887Y95880863D01*
X40685193Y95809345D01*
X40624955Y95720996D01*
X40505254Y95601835D01*
X40484697Y95583253D01*
X40252855Y95403325D01*
X40011905Y95265870D01*
X39776256Y95175751D01*
X39560315Y95137833D01*
X39378489Y95156976D01*
X39309659Y95186636D01*
X39198094Y95281266D01*
X39129674Y95418854D01*
X39098390Y95614439D01*
X39094833Y95724356D01*
X39128359Y96096541D01*
X39189241Y96332690D01*
X39563331Y96332690D01*
X39569889Y96277097D01*
X39580018Y96273000D01*
X39624659Y96297064D01*
X39717112Y96360635D01*
X39838718Y96450783D01*
X39858868Y96466221D01*
X40064137Y96648097D01*
X40189103Y96818042D01*
X40236412Y96981099D01*
X40210637Y97137371D01*
X40151202Y97194001D01*
X40055621Y97196463D01*
X39950649Y97147267D01*
X39907492Y97108959D01*
X39839630Y97016617D01*
X39766595Y96885530D01*
X39695416Y96733646D01*
X39633126Y96578912D01*
X39586754Y96439278D01*
X39563331Y96332690D01*
X39189241Y96332690D01*
X39229143Y96487458D01*
X39311021Y96700949D01*
X39416259Y96879519D01*
X39570709Y97059138D01*
X39756059Y97225417D01*
X39954002Y97363969D01*
X40146228Y97460405D01*
X40314427Y97500335D01*
X40328656Y97500667D01*
X40438353Y97474610D01*
D16*
X15540000Y67650000D02*
G75*
G03X15540000Y67650000I-2540000J0D01*
G01*
X17064000Y80350000D02*
G75*
G03X17064000Y80350000I-4064000J0D01*
G01*
D17*
X29420000Y18650000D03*
X29420000Y18000000D03*
X29420000Y17350000D03*
X32080000Y17350000D03*
X32080000Y18000000D03*
X32080000Y18650000D03*
D18*
X20950000Y17025000D03*
X20950000Y17675000D03*
X20950000Y18325000D03*
X20950000Y18975000D03*
X15050000Y18975000D03*
X15050000Y18325000D03*
X15050000Y17675000D03*
X15050000Y17025000D03*
D19*
X20450000Y32095000D03*
X20450000Y33365000D03*
X20450000Y34635000D03*
X20450000Y35905000D03*
X15050000Y35905000D03*
X15050000Y34635000D03*
X15050000Y33365000D03*
X15050000Y32095000D03*
D20*
X35850000Y32920000D03*
X37150000Y32920000D03*
X36500000Y35580000D03*
D21*
X36125000Y48500000D03*
X38025000Y48500000D03*
X37075000Y51500000D03*
D22*
X16700000Y46200000D03*
D23*
X9080000Y53820000D03*
X16700000Y48740000D03*
X9080000Y51280000D03*
X16700000Y51280000D03*
X9080000Y48740000D03*
X16700000Y53820000D03*
X9080000Y46200000D03*
D24*
X37500000Y19100000D03*
X37500000Y16900000D03*
X35000000Y19100000D03*
X35000000Y16900000D03*
D25*
X11750000Y16650000D03*
X11750000Y19350000D03*
X8250000Y19350000D03*
X8250000Y16650000D03*
X30000000Y32650000D03*
X30000000Y35350000D03*
D26*
X9750000Y31750000D03*
X9750000Y35750000D03*
X4250000Y35750000D03*
X4250000Y31750000D03*
X30000000Y48000000D03*
X30000000Y52000000D03*
D27*
X6000000Y47420000D03*
D28*
X6000000Y52500000D03*
D27*
X3500000Y47420000D03*
D28*
X3500000Y52500000D03*
D27*
X28250000Y66550000D03*
D28*
X28250000Y61470000D03*
D29*
X48000000Y72500000D03*
D23*
X40380000Y72500000D03*
D29*
X48000000Y76500000D03*
D23*
X40380000Y76500000D03*
D29*
X26380000Y72500000D03*
D23*
X34000000Y72500000D03*
D29*
X26380000Y76500000D03*
D23*
X34000000Y76500000D03*
D29*
X26380000Y80500000D03*
D23*
X34000000Y80500000D03*
D24*
X44250000Y16900000D03*
X44250000Y19100000D03*
D25*
X44250000Y32650000D03*
X44250000Y35350000D03*
D30*
X44250000Y48500000D03*
X44250000Y51500000D03*
D31*
X44250000Y62750000D03*
D32*
X44250000Y65290000D03*
D31*
X44250000Y82000000D03*
D32*
X44250000Y84540000D03*
D33*
X26380000Y84500000D03*
D34*
X34000000Y84500000D03*
D35*
X19250000Y13750000D03*
X16750000Y13750000D03*
D36*
X19750000Y28750000D03*
X15750000Y28750000D03*
D22*
X21500000Y48500000D03*
D29*
X21500000Y46500000D03*
D37*
X35750000Y64000000D03*
X35750000Y61460000D03*
D38*
X35750000Y66540000D03*
D39*
X27750000Y19250000D03*
X33500000Y16250000D03*
X13750000Y20750000D03*
X7250000Y27750000D03*
X7250000Y34000000D03*
X37250000Y31250000D03*
X22500000Y16500000D03*
X15250000Y13750000D03*
X13750000Y28750000D03*
X22000000Y31250000D03*
X38000000Y46750000D03*
X44250000Y53750000D03*
X26000000Y51250000D03*
X24000000Y51250000D03*
M02*
