%TF.GenerationSoftware,KiCad,Pcbnew,(6.0.0-rc1-dev-318-g6fdc5972f)*%
%TF.CreationDate,2018-08-27T12:44:09+01:00*%
%TF.ProjectId,SolderChallenge,536F6C6465724368616C6C656E67652E,rev?*%
%TF.SameCoordinates,PX2faf080PY8f0d180*%
%TF.FileFunction,Legend,Top*%
%TF.FilePolarity,Positive*%
%FSLAX46Y46*%
G04 Gerber Fmt 4.6, Leading zero omitted, Abs format (unit mm)*
G04 Created by KiCad (PCBNEW (6.0.0-rc1-dev-318-g6fdc5972f)) date 08/27/18 12:44:09*
%MOMM*%
%LPD*%
G01*
G04 APERTURE LIST*
%ADD10C,0.150000*%
%ADD11C,0.200000*%
%ADD12C,0.120000*%
%ADD13C,0.300000*%
%ADD14C,0.010000*%
%ADD15C,0.100000*%
%ADD16C,0.290000*%
%ADD17C,2.032000*%
%ADD18R,1.400000X0.800000*%
%ADD19R,1.000000X1.900000*%
%ADD20R,1.200000X1.500000*%
%ADD21R,2.100000X2.400000*%
%ADD22O,2.000000X2.000000*%
%ADD23C,2.000000*%
%ADD24R,2.600000X2.600000*%
%ADD25O,2.600000X2.600000*%
%ADD26C,2.200000*%
%ADD27R,2.200000X2.200000*%
%ADD28R,1.950000X1.000000*%
%ADD29R,0.700000X0.800000*%
%ADD30R,1.850000X0.850000*%
%ADD31R,2.000000X2.000000*%
%ADD32R,1.300000X1.600000*%
%ADD33R,1.700000X1.900000*%
%ADD34C,1.800000*%
%ADD35O,1.800000X1.800000*%
%ADD36R,3.000000X1.900000*%
%ADD37R,1.900000X1.650000*%
%ADD38R,2.400000X2.000000*%
%ADD39C,1.920000*%
%ADD40R,1.920000X1.920000*%
%ADD41C,1.000000*%
G04 APERTURE END LIST*
D10*
X42700000Y47100000D02*
X42100000Y47800000D01*
X42100000Y47100000D02*
X42700000Y47100000D01*
X42100000Y47100000D02*
X42100000Y47800000D01*
D11*
X3792857Y66714286D02*
X2592857Y66714286D01*
X2592857Y67171429D01*
X2650000Y67285715D01*
X2707142Y67342858D01*
X2821428Y67400000D01*
X2992857Y67400000D01*
X3107142Y67342858D01*
X3164285Y67285715D01*
X3221428Y67171429D01*
X3221428Y66714286D01*
X3792857Y67914286D02*
X2992857Y67914286D01*
X3221428Y67914286D02*
X3107142Y67971429D01*
X3050000Y68028572D01*
X2992857Y68142858D01*
X2992857Y68257143D01*
X3735714Y69114286D02*
X3792857Y69000000D01*
X3792857Y68771429D01*
X3735714Y68657143D01*
X3621428Y68600000D01*
X3164285Y68600000D01*
X3050000Y68657143D01*
X2992857Y68771429D01*
X2992857Y69000000D01*
X3050000Y69114286D01*
X3164285Y69171429D01*
X3278571Y69171429D01*
X3392857Y68600000D01*
X3735714Y69628572D02*
X3792857Y69742858D01*
X3792857Y69971429D01*
X3735714Y70085715D01*
X3621428Y70142858D01*
X3564285Y70142858D01*
X3450000Y70085715D01*
X3392857Y69971429D01*
X3392857Y69800000D01*
X3335714Y69685715D01*
X3221428Y69628572D01*
X3164285Y69628572D01*
X3050000Y69685715D01*
X2992857Y69800000D01*
X2992857Y69971429D01*
X3050000Y70085715D01*
X3735714Y70600000D02*
X3792857Y70714286D01*
X3792857Y70942858D01*
X3735714Y71057143D01*
X3621428Y71114286D01*
X3564285Y71114286D01*
X3450000Y71057143D01*
X3392857Y70942858D01*
X3392857Y70771429D01*
X3335714Y70657143D01*
X3221428Y70600000D01*
X3164285Y70600000D01*
X3050000Y70657143D01*
X2992857Y70771429D01*
X2992857Y70942858D01*
X3050000Y71057143D01*
X3792857Y72600000D02*
X3792857Y72828572D01*
X3735714Y72942858D01*
X3678571Y73000000D01*
X3507142Y73114286D01*
X3278571Y73171429D01*
X2821428Y73171429D01*
X2707142Y73114286D01*
X2650000Y73057143D01*
X2592857Y72942858D01*
X2592857Y72714286D01*
X2650000Y72600000D01*
X2707142Y72542858D01*
X2821428Y72485715D01*
X3107142Y72485715D01*
X3221428Y72542858D01*
X3278571Y72600000D01*
X3335714Y72714286D01*
X3335714Y72942858D01*
X3278571Y73057143D01*
X3221428Y73114286D01*
X3107142Y73171429D01*
X2592857Y73514286D02*
X3792857Y73914286D01*
X2592857Y74314286D01*
X3792857Y75628572D02*
X2592857Y75628572D01*
X3050000Y75628572D02*
X2992857Y75742858D01*
X2992857Y75971429D01*
X3050000Y76085715D01*
X3107142Y76142858D01*
X3221428Y76200000D01*
X3564285Y76200000D01*
X3678571Y76142858D01*
X3735714Y76085715D01*
X3792857Y75971429D01*
X3792857Y75742858D01*
X3735714Y75628572D01*
X3792857Y77228572D02*
X3164285Y77228572D01*
X3050000Y77171429D01*
X2992857Y77057143D01*
X2992857Y76828572D01*
X3050000Y76714286D01*
X3735714Y77228572D02*
X3792857Y77114286D01*
X3792857Y76828572D01*
X3735714Y76714286D01*
X3621428Y76657143D01*
X3507142Y76657143D01*
X3392857Y76714286D01*
X3335714Y76828572D01*
X3335714Y77114286D01*
X3278571Y77228572D01*
X2992857Y77628572D02*
X2992857Y78085715D01*
X2592857Y77800000D02*
X3621428Y77800000D01*
X3735714Y77857143D01*
X3792857Y77971429D01*
X3792857Y78085715D01*
X2992857Y78314286D02*
X2992857Y78771429D01*
X2592857Y78485715D02*
X3621428Y78485715D01*
X3735714Y78542858D01*
X3792857Y78657143D01*
X3792857Y78771429D01*
X3735714Y79628572D02*
X3792857Y79514286D01*
X3792857Y79285715D01*
X3735714Y79171429D01*
X3621428Y79114286D01*
X3164285Y79114286D01*
X3050000Y79171429D01*
X2992857Y79285715D01*
X2992857Y79514286D01*
X3050000Y79628572D01*
X3164285Y79685715D01*
X3278571Y79685715D01*
X3392857Y79114286D01*
X3792857Y80200000D02*
X2992857Y80200000D01*
X3221428Y80200000D02*
X3107142Y80257143D01*
X3050000Y80314286D01*
X2992857Y80428572D01*
X2992857Y80542858D01*
X2992857Y80828572D02*
X3792857Y81114286D01*
X2992857Y81400000D02*
X3792857Y81114286D01*
X4078571Y81000000D01*
X4135714Y80942858D01*
X4192857Y80828572D01*
X5792857Y62942858D02*
X5735714Y62828572D01*
X5678571Y62771429D01*
X5564285Y62714286D01*
X5221428Y62714286D01*
X5107142Y62771429D01*
X5050000Y62828572D01*
X4992857Y62942858D01*
X4992857Y63114286D01*
X5050000Y63228572D01*
X5107142Y63285715D01*
X5221428Y63342858D01*
X5564285Y63342858D01*
X5678571Y63285715D01*
X5735714Y63228572D01*
X5792857Y63114286D01*
X5792857Y62942858D01*
X4992857Y63857143D02*
X5792857Y63857143D01*
X5107142Y63857143D02*
X5050000Y63914286D01*
X4992857Y64028572D01*
X4992857Y64200000D01*
X5050000Y64314286D01*
X5164285Y64371429D01*
X5792857Y64371429D01*
X4992857Y65857143D02*
X6192857Y65857143D01*
X5050000Y65857143D02*
X4992857Y65971429D01*
X4992857Y66200000D01*
X5050000Y66314286D01*
X5107142Y66371429D01*
X5221428Y66428572D01*
X5564285Y66428572D01*
X5678571Y66371429D01*
X5735714Y66314286D01*
X5792857Y66200000D01*
X5792857Y65971429D01*
X5735714Y65857143D01*
X5792857Y67457143D02*
X5164285Y67457143D01*
X5050000Y67400000D01*
X4992857Y67285715D01*
X4992857Y67057143D01*
X5050000Y66942858D01*
X5735714Y67457143D02*
X5792857Y67342858D01*
X5792857Y67057143D01*
X5735714Y66942858D01*
X5621428Y66885715D01*
X5507142Y66885715D01*
X5392857Y66942858D01*
X5335714Y67057143D01*
X5335714Y67342858D01*
X5278571Y67457143D01*
X5792857Y68542858D02*
X4592857Y68542858D01*
X5735714Y68542858D02*
X5792857Y68428572D01*
X5792857Y68200000D01*
X5735714Y68085715D01*
X5678571Y68028572D01*
X5564285Y67971429D01*
X5221428Y67971429D01*
X5107142Y68028572D01*
X5050000Y68085715D01*
X4992857Y68200000D01*
X4992857Y68428572D01*
X5050000Y68542858D01*
X5735714Y69057143D02*
X5792857Y69171429D01*
X5792857Y69400000D01*
X5735714Y69514286D01*
X5621428Y69571429D01*
X5564285Y69571429D01*
X5450000Y69514286D01*
X5392857Y69400000D01*
X5392857Y69228572D01*
X5335714Y69114286D01*
X5221428Y69057143D01*
X5164285Y69057143D01*
X5050000Y69114286D01*
X4992857Y69228572D01*
X4992857Y69400000D01*
X5050000Y69514286D01*
X4992857Y70828572D02*
X4992857Y71285715D01*
X4592857Y71000000D02*
X5621428Y71000000D01*
X5735714Y71057143D01*
X5792857Y71171429D01*
X5792857Y71285715D01*
X5792857Y71857143D02*
X5735714Y71742858D01*
X5678571Y71685715D01*
X5564285Y71628572D01*
X5221428Y71628572D01*
X5107142Y71685715D01*
X5050000Y71742858D01*
X4992857Y71857143D01*
X4992857Y72028572D01*
X5050000Y72142858D01*
X5107142Y72200000D01*
X5221428Y72257143D01*
X5564285Y72257143D01*
X5678571Y72200000D01*
X5735714Y72142858D01*
X5792857Y72028572D01*
X5792857Y71857143D01*
X5792857Y74200000D02*
X4592857Y74200000D01*
X5735714Y74200000D02*
X5792857Y74085715D01*
X5792857Y73857143D01*
X5735714Y73742858D01*
X5678571Y73685715D01*
X5564285Y73628572D01*
X5221428Y73628572D01*
X5107142Y73685715D01*
X5050000Y73742858D01*
X4992857Y73857143D01*
X4992857Y74085715D01*
X5050000Y74200000D01*
X5792857Y74771429D02*
X4992857Y74771429D01*
X4592857Y74771429D02*
X4650000Y74714286D01*
X4707142Y74771429D01*
X4650000Y74828572D01*
X4592857Y74771429D01*
X4707142Y74771429D01*
X5735714Y75285715D02*
X5792857Y75400000D01*
X5792857Y75628572D01*
X5735714Y75742858D01*
X5621428Y75800000D01*
X5564285Y75800000D01*
X5450000Y75742858D01*
X5392857Y75628572D01*
X5392857Y75457143D01*
X5335714Y75342858D01*
X5221428Y75285715D01*
X5164285Y75285715D01*
X5050000Y75342858D01*
X4992857Y75457143D01*
X4992857Y75628572D01*
X5050000Y75742858D01*
X4992857Y76314286D02*
X6192857Y76314286D01*
X5050000Y76314286D02*
X4992857Y76428572D01*
X4992857Y76657143D01*
X5050000Y76771429D01*
X5107142Y76828572D01*
X5221428Y76885715D01*
X5564285Y76885715D01*
X5678571Y76828572D01*
X5735714Y76771429D01*
X5792857Y76657143D01*
X5792857Y76428572D01*
X5735714Y76314286D01*
X5792857Y77571429D02*
X5735714Y77457143D01*
X5621428Y77400000D01*
X4592857Y77400000D01*
X5792857Y78542858D02*
X5164285Y78542858D01*
X5050000Y78485715D01*
X4992857Y78371429D01*
X4992857Y78142858D01*
X5050000Y78028572D01*
X5735714Y78542858D02*
X5792857Y78428572D01*
X5792857Y78142858D01*
X5735714Y78028572D01*
X5621428Y77971429D01*
X5507142Y77971429D01*
X5392857Y78028572D01*
X5335714Y78142858D01*
X5335714Y78428572D01*
X5278571Y78542858D01*
X4992857Y79000000D02*
X5792857Y79285715D01*
X4992857Y79571429D02*
X5792857Y79285715D01*
X6078571Y79171429D01*
X6135714Y79114286D01*
X6192857Y79000000D01*
X5735714Y80885715D02*
X5792857Y81000000D01*
X5792857Y81228572D01*
X5735714Y81342858D01*
X5621428Y81400000D01*
X5564285Y81400000D01*
X5450000Y81342858D01*
X5392857Y81228572D01*
X5392857Y81057143D01*
X5335714Y80942858D01*
X5221428Y80885715D01*
X5164285Y80885715D01*
X5050000Y80942858D01*
X4992857Y81057143D01*
X4992857Y81228572D01*
X5050000Y81342858D01*
X5735714Y82428572D02*
X5792857Y82314286D01*
X5792857Y82085715D01*
X5735714Y81971429D01*
X5678571Y81914286D01*
X5564285Y81857143D01*
X5221428Y81857143D01*
X5107142Y81914286D01*
X5050000Y81971429D01*
X4992857Y82085715D01*
X4992857Y82314286D01*
X5050000Y82428572D01*
X5792857Y83114286D02*
X5735714Y83000000D01*
X5678571Y82942858D01*
X5564285Y82885715D01*
X5221428Y82885715D01*
X5107142Y82942858D01*
X5050000Y83000000D01*
X4992857Y83114286D01*
X4992857Y83285715D01*
X5050000Y83400000D01*
X5107142Y83457143D01*
X5221428Y83514286D01*
X5564285Y83514286D01*
X5678571Y83457143D01*
X5735714Y83400000D01*
X5792857Y83285715D01*
X5792857Y83114286D01*
X5792857Y84028572D02*
X4992857Y84028572D01*
X5221428Y84028572D02*
X5107142Y84085715D01*
X5050000Y84142858D01*
X4992857Y84257143D01*
X4992857Y84371429D01*
X5735714Y85228572D02*
X5792857Y85114286D01*
X5792857Y84885715D01*
X5735714Y84771429D01*
X5621428Y84714286D01*
X5164285Y84714286D01*
X5050000Y84771429D01*
X4992857Y84885715D01*
X4992857Y85114286D01*
X5050000Y85228572D01*
X5164285Y85285715D01*
X5278571Y85285715D01*
X5392857Y84714286D01*
X15522857Y92764286D02*
X15694285Y92707143D01*
X15980000Y92707143D01*
X16094285Y92764286D01*
X16151428Y92821429D01*
X16208571Y92935715D01*
X16208571Y93050000D01*
X16151428Y93164286D01*
X16094285Y93221429D01*
X15980000Y93278572D01*
X15751428Y93335715D01*
X15637142Y93392858D01*
X15580000Y93450000D01*
X15522857Y93564286D01*
X15522857Y93678572D01*
X15580000Y93792858D01*
X15637142Y93850000D01*
X15751428Y93907143D01*
X16037142Y93907143D01*
X16208571Y93850000D01*
X16894285Y92707143D02*
X16780000Y92764286D01*
X16722857Y92821429D01*
X16665714Y92935715D01*
X16665714Y93278572D01*
X16722857Y93392858D01*
X16780000Y93450000D01*
X16894285Y93507143D01*
X17065714Y93507143D01*
X17180000Y93450000D01*
X17237142Y93392858D01*
X17294285Y93278572D01*
X17294285Y92935715D01*
X17237142Y92821429D01*
X17180000Y92764286D01*
X17065714Y92707143D01*
X16894285Y92707143D01*
X17980000Y92707143D02*
X17865714Y92764286D01*
X17808571Y92878572D01*
X17808571Y93907143D01*
X18437142Y92707143D02*
X18437142Y93507143D01*
X18437142Y93907143D02*
X18380000Y93850000D01*
X18437142Y93792858D01*
X18494285Y93850000D01*
X18437142Y93907143D01*
X18437142Y93792858D01*
X19522857Y92707143D02*
X19522857Y93907143D01*
X19522857Y92764286D02*
X19408571Y92707143D01*
X19180000Y92707143D01*
X19065714Y92764286D01*
X19008571Y92821429D01*
X18951428Y92935715D01*
X18951428Y93278572D01*
X19008571Y93392858D01*
X19065714Y93450000D01*
X19180000Y93507143D01*
X19408571Y93507143D01*
X19522857Y93450000D01*
X21580000Y92707143D02*
X21008571Y92707143D01*
X21008571Y93907143D01*
X21980000Y93335715D02*
X22380000Y93335715D01*
X22551428Y92707143D02*
X21980000Y92707143D01*
X21980000Y93907143D01*
X22551428Y93907143D01*
X23065714Y92707143D02*
X23065714Y93907143D01*
X23351428Y93907143D01*
X23522857Y93850000D01*
X23637142Y93735715D01*
X23694285Y93621429D01*
X23751428Y93392858D01*
X23751428Y93221429D01*
X23694285Y92992858D01*
X23637142Y92878572D01*
X23522857Y92764286D01*
X23351428Y92707143D01*
X23065714Y92707143D01*
X25180000Y92821429D02*
X25237142Y92764286D01*
X25180000Y92707143D01*
X25122857Y92764286D01*
X25180000Y92821429D01*
X25180000Y92707143D01*
X25180000Y93450000D02*
X25237142Y93392858D01*
X25180000Y93335715D01*
X25122857Y93392858D01*
X25180000Y93450000D01*
X25180000Y93335715D01*
X27294285Y92707143D02*
X26608571Y92707143D01*
X26951428Y92707143D02*
X26951428Y93907143D01*
X26837142Y93735715D01*
X26722857Y93621429D01*
X26608571Y93564286D01*
X28722857Y93507143D02*
X28722857Y92307143D01*
X28722857Y93450000D02*
X28837142Y93507143D01*
X29065714Y93507143D01*
X29180000Y93450000D01*
X29237142Y93392858D01*
X29294285Y93278572D01*
X29294285Y92935715D01*
X29237142Y92821429D01*
X29180000Y92764286D01*
X29065714Y92707143D01*
X28837142Y92707143D01*
X28722857Y92764286D01*
X29980000Y92707143D02*
X29865714Y92764286D01*
X29808571Y92821429D01*
X29751428Y92935715D01*
X29751428Y93278572D01*
X29808571Y93392858D01*
X29865714Y93450000D01*
X29980000Y93507143D01*
X30151428Y93507143D01*
X30265714Y93450000D01*
X30322857Y93392858D01*
X30380000Y93278572D01*
X30380000Y92935715D01*
X30322857Y92821429D01*
X30265714Y92764286D01*
X30151428Y92707143D01*
X29980000Y92707143D01*
X30894285Y92707143D02*
X30894285Y93507143D01*
X30894285Y93907143D02*
X30837142Y93850000D01*
X30894285Y93792858D01*
X30951428Y93850000D01*
X30894285Y93907143D01*
X30894285Y93792858D01*
X31465714Y93507143D02*
X31465714Y92707143D01*
X31465714Y93392858D02*
X31522857Y93450000D01*
X31637142Y93507143D01*
X31808571Y93507143D01*
X31922857Y93450000D01*
X31980000Y93335715D01*
X31980000Y92707143D01*
X32380000Y93507143D02*
X32837142Y93507143D01*
X32551428Y93907143D02*
X32551428Y92878572D01*
X32608571Y92764286D01*
X32722857Y92707143D01*
X32837142Y92707143D01*
X15065714Y91335715D02*
X15237142Y91278572D01*
X15294285Y91221429D01*
X15351428Y91107143D01*
X15351428Y90935715D01*
X15294285Y90821429D01*
X15237142Y90764286D01*
X15122857Y90707143D01*
X14665714Y90707143D01*
X14665714Y91907143D01*
X15065714Y91907143D01*
X15180000Y91850000D01*
X15237142Y91792858D01*
X15294285Y91678572D01*
X15294285Y91564286D01*
X15237142Y91450000D01*
X15180000Y91392858D01*
X15065714Y91335715D01*
X14665714Y91335715D01*
X16037142Y90707143D02*
X15922857Y90764286D01*
X15865714Y90878572D01*
X15865714Y91907143D01*
X16494285Y90707143D02*
X16494285Y91507143D01*
X16494285Y91907143D02*
X16437142Y91850000D01*
X16494285Y91792858D01*
X16551428Y91850000D01*
X16494285Y91907143D01*
X16494285Y91792858D01*
X17065714Y91507143D02*
X17065714Y90707143D01*
X17065714Y91392858D02*
X17122857Y91450000D01*
X17237142Y91507143D01*
X17408571Y91507143D01*
X17522857Y91450000D01*
X17580000Y91335715D01*
X17580000Y90707143D01*
X18151428Y90707143D02*
X18151428Y91907143D01*
X18265714Y91164286D02*
X18608571Y90707143D01*
X18608571Y91507143D02*
X18151428Y91050000D01*
X19008571Y91507143D02*
X19294285Y90707143D01*
X19580000Y91507143D02*
X19294285Y90707143D01*
X19180000Y90421429D01*
X19122857Y90364286D01*
X19008571Y90307143D01*
X21522857Y90707143D02*
X20951428Y90707143D01*
X20951428Y91907143D01*
X21922857Y91335715D02*
X22322857Y91335715D01*
X22494285Y90707143D02*
X21922857Y90707143D01*
X21922857Y91907143D01*
X22494285Y91907143D01*
X23008571Y90707143D02*
X23008571Y91907143D01*
X23294285Y91907143D01*
X23465714Y91850000D01*
X23580000Y91735715D01*
X23637142Y91621429D01*
X23694285Y91392858D01*
X23694285Y91221429D01*
X23637142Y90992858D01*
X23580000Y90878572D01*
X23465714Y90764286D01*
X23294285Y90707143D01*
X23008571Y90707143D01*
X25122857Y90821429D02*
X25180000Y90764286D01*
X25122857Y90707143D01*
X25065714Y90764286D01*
X25122857Y90821429D01*
X25122857Y90707143D01*
X25122857Y91450000D02*
X25180000Y91392858D01*
X25122857Y91335715D01*
X25065714Y91392858D01*
X25122857Y91450000D01*
X25122857Y91335715D01*
X26551428Y91792858D02*
X26608571Y91850000D01*
X26722857Y91907143D01*
X27008571Y91907143D01*
X27122857Y91850000D01*
X27180000Y91792858D01*
X27237142Y91678572D01*
X27237142Y91564286D01*
X27180000Y91392858D01*
X26494285Y90707143D01*
X27237142Y90707143D01*
X28665714Y91507143D02*
X28665714Y90307143D01*
X28665714Y91450000D02*
X28780000Y91507143D01*
X29008571Y91507143D01*
X29122857Y91450000D01*
X29180000Y91392858D01*
X29237142Y91278572D01*
X29237142Y90935715D01*
X29180000Y90821429D01*
X29122857Y90764286D01*
X29008571Y90707143D01*
X28780000Y90707143D01*
X28665714Y90764286D01*
X29922857Y90707143D02*
X29808571Y90764286D01*
X29751428Y90821429D01*
X29694285Y90935715D01*
X29694285Y91278572D01*
X29751428Y91392858D01*
X29808571Y91450000D01*
X29922857Y91507143D01*
X30094285Y91507143D01*
X30208571Y91450000D01*
X30265714Y91392858D01*
X30322857Y91278572D01*
X30322857Y90935715D01*
X30265714Y90821429D01*
X30208571Y90764286D01*
X30094285Y90707143D01*
X29922857Y90707143D01*
X30837142Y90707143D02*
X30837142Y91507143D01*
X30837142Y91907143D02*
X30780000Y91850000D01*
X30837142Y91792858D01*
X30894285Y91850000D01*
X30837142Y91907143D01*
X30837142Y91792858D01*
X31408571Y91507143D02*
X31408571Y90707143D01*
X31408571Y91392858D02*
X31465714Y91450000D01*
X31580000Y91507143D01*
X31751428Y91507143D01*
X31865714Y91450000D01*
X31922857Y91335715D01*
X31922857Y90707143D01*
X32322857Y91507143D02*
X32780000Y91507143D01*
X32494285Y91907143D02*
X32494285Y90878572D01*
X32551428Y90764286D01*
X32665714Y90707143D01*
X32780000Y90707143D01*
X33122857Y90764286D02*
X33237142Y90707143D01*
X33465714Y90707143D01*
X33580000Y90764286D01*
X33637142Y90878572D01*
X33637142Y90935715D01*
X33580000Y91050000D01*
X33465714Y91107143D01*
X33294285Y91107143D01*
X33180000Y91164286D01*
X33122857Y91278572D01*
X33122857Y91335715D01*
X33180000Y91450000D01*
X33294285Y91507143D01*
X33465714Y91507143D01*
X33580000Y91450000D01*
X26292857Y24207143D02*
X25721428Y24207143D01*
X25721428Y25407143D01*
X27150000Y24264286D02*
X27035714Y24207143D01*
X26807142Y24207143D01*
X26692857Y24264286D01*
X26635714Y24378572D01*
X26635714Y24835715D01*
X26692857Y24950000D01*
X26807142Y25007143D01*
X27035714Y25007143D01*
X27150000Y24950000D01*
X27207142Y24835715D01*
X27207142Y24721429D01*
X26635714Y24607143D01*
X27607142Y25007143D02*
X27892857Y24207143D01*
X28178571Y25007143D01*
X29092857Y24264286D02*
X28978571Y24207143D01*
X28750000Y24207143D01*
X28635714Y24264286D01*
X28578571Y24378572D01*
X28578571Y24835715D01*
X28635714Y24950000D01*
X28750000Y25007143D01*
X28978571Y25007143D01*
X29092857Y24950000D01*
X29150000Y24835715D01*
X29150000Y24721429D01*
X28578571Y24607143D01*
X29835714Y24207143D02*
X29721428Y24264286D01*
X29664285Y24378572D01*
X29664285Y25407143D01*
X31378571Y24892858D02*
X31264285Y24950000D01*
X31207142Y25007143D01*
X31150000Y25121429D01*
X31150000Y25178572D01*
X31207142Y25292858D01*
X31264285Y25350000D01*
X31378571Y25407143D01*
X31607142Y25407143D01*
X31721428Y25350000D01*
X31778571Y25292858D01*
X31835714Y25178572D01*
X31835714Y25121429D01*
X31778571Y25007143D01*
X31721428Y24950000D01*
X31607142Y24892858D01*
X31378571Y24892858D01*
X31264285Y24835715D01*
X31207142Y24778572D01*
X31150000Y24664286D01*
X31150000Y24435715D01*
X31207142Y24321429D01*
X31264285Y24264286D01*
X31378571Y24207143D01*
X31607142Y24207143D01*
X31721428Y24264286D01*
X31778571Y24321429D01*
X31835714Y24435715D01*
X31835714Y24664286D01*
X31778571Y24778572D01*
X31721428Y24835715D01*
X31607142Y24892858D01*
X2292857Y24207143D02*
X1721428Y24207143D01*
X1721428Y25407143D01*
X3150000Y24264286D02*
X3035714Y24207143D01*
X2807142Y24207143D01*
X2692857Y24264286D01*
X2635714Y24378572D01*
X2635714Y24835715D01*
X2692857Y24950000D01*
X2807142Y25007143D01*
X3035714Y25007143D01*
X3150000Y24950000D01*
X3207142Y24835715D01*
X3207142Y24721429D01*
X2635714Y24607143D01*
X3607142Y25007143D02*
X3892857Y24207143D01*
X4178571Y25007143D01*
X5092857Y24264286D02*
X4978571Y24207143D01*
X4750000Y24207143D01*
X4635714Y24264286D01*
X4578571Y24378572D01*
X4578571Y24835715D01*
X4635714Y24950000D01*
X4750000Y25007143D01*
X4978571Y25007143D01*
X5092857Y24950000D01*
X5150000Y24835715D01*
X5150000Y24721429D01*
X4578571Y24607143D01*
X5835714Y24207143D02*
X5721428Y24264286D01*
X5664285Y24378572D01*
X5664285Y25407143D01*
X7092857Y25407143D02*
X7892857Y25407143D01*
X7378571Y24207143D01*
X26292857Y40207143D02*
X25721428Y40207143D01*
X25721428Y41407143D01*
X27150000Y40264286D02*
X27035714Y40207143D01*
X26807142Y40207143D01*
X26692857Y40264286D01*
X26635714Y40378572D01*
X26635714Y40835715D01*
X26692857Y40950000D01*
X26807142Y41007143D01*
X27035714Y41007143D01*
X27150000Y40950000D01*
X27207142Y40835715D01*
X27207142Y40721429D01*
X26635714Y40607143D01*
X27607142Y41007143D02*
X27892857Y40207143D01*
X28178571Y41007143D01*
X29092857Y40264286D02*
X28978571Y40207143D01*
X28750000Y40207143D01*
X28635714Y40264286D01*
X28578571Y40378572D01*
X28578571Y40835715D01*
X28635714Y40950000D01*
X28750000Y41007143D01*
X28978571Y41007143D01*
X29092857Y40950000D01*
X29150000Y40835715D01*
X29150000Y40721429D01*
X28578571Y40607143D01*
X29835714Y40207143D02*
X29721428Y40264286D01*
X29664285Y40378572D01*
X29664285Y41407143D01*
X31721428Y41407143D02*
X31492857Y41407143D01*
X31378571Y41350000D01*
X31321428Y41292858D01*
X31207142Y41121429D01*
X31150000Y40892858D01*
X31150000Y40435715D01*
X31207142Y40321429D01*
X31264285Y40264286D01*
X31378571Y40207143D01*
X31607142Y40207143D01*
X31721428Y40264286D01*
X31778571Y40321429D01*
X31835714Y40435715D01*
X31835714Y40721429D01*
X31778571Y40835715D01*
X31721428Y40892858D01*
X31607142Y40950000D01*
X31378571Y40950000D01*
X31264285Y40892858D01*
X31207142Y40835715D01*
X31150000Y40721429D01*
X2292857Y40207143D02*
X1721428Y40207143D01*
X1721428Y41407143D01*
X3150000Y40264286D02*
X3035714Y40207143D01*
X2807142Y40207143D01*
X2692857Y40264286D01*
X2635714Y40378572D01*
X2635714Y40835715D01*
X2692857Y40950000D01*
X2807142Y41007143D01*
X3035714Y41007143D01*
X3150000Y40950000D01*
X3207142Y40835715D01*
X3207142Y40721429D01*
X2635714Y40607143D01*
X3607142Y41007143D02*
X3892857Y40207143D01*
X4178571Y41007143D01*
X5092857Y40264286D02*
X4978571Y40207143D01*
X4750000Y40207143D01*
X4635714Y40264286D01*
X4578571Y40378572D01*
X4578571Y40835715D01*
X4635714Y40950000D01*
X4750000Y41007143D01*
X4978571Y41007143D01*
X5092857Y40950000D01*
X5150000Y40835715D01*
X5150000Y40721429D01*
X4578571Y40607143D01*
X5835714Y40207143D02*
X5721428Y40264286D01*
X5664285Y40378572D01*
X5664285Y41407143D01*
X7778571Y41407143D02*
X7207142Y41407143D01*
X7150000Y40835715D01*
X7207142Y40892858D01*
X7321428Y40950000D01*
X7607142Y40950000D01*
X7721428Y40892858D01*
X7778571Y40835715D01*
X7835714Y40721429D01*
X7835714Y40435715D01*
X7778571Y40321429D01*
X7721428Y40264286D01*
X7607142Y40207143D01*
X7321428Y40207143D01*
X7207142Y40264286D01*
X7150000Y40321429D01*
X26292857Y56207143D02*
X25721428Y56207143D01*
X25721428Y57407143D01*
X27150000Y56264286D02*
X27035714Y56207143D01*
X26807142Y56207143D01*
X26692857Y56264286D01*
X26635714Y56378572D01*
X26635714Y56835715D01*
X26692857Y56950000D01*
X26807142Y57007143D01*
X27035714Y57007143D01*
X27150000Y56950000D01*
X27207142Y56835715D01*
X27207142Y56721429D01*
X26635714Y56607143D01*
X27607142Y57007143D02*
X27892857Y56207143D01*
X28178571Y57007143D01*
X29092857Y56264286D02*
X28978571Y56207143D01*
X28750000Y56207143D01*
X28635714Y56264286D01*
X28578571Y56378572D01*
X28578571Y56835715D01*
X28635714Y56950000D01*
X28750000Y57007143D01*
X28978571Y57007143D01*
X29092857Y56950000D01*
X29150000Y56835715D01*
X29150000Y56721429D01*
X28578571Y56607143D01*
X29835714Y56207143D02*
X29721428Y56264286D01*
X29664285Y56378572D01*
X29664285Y57407143D01*
X31721428Y57007143D02*
X31721428Y56207143D01*
X31435714Y57464286D02*
X31150000Y56607143D01*
X31892857Y56607143D01*
X2292857Y56207143D02*
X1721428Y56207143D01*
X1721428Y57407143D01*
X3150000Y56264286D02*
X3035714Y56207143D01*
X2807142Y56207143D01*
X2692857Y56264286D01*
X2635714Y56378572D01*
X2635714Y56835715D01*
X2692857Y56950000D01*
X2807142Y57007143D01*
X3035714Y57007143D01*
X3150000Y56950000D01*
X3207142Y56835715D01*
X3207142Y56721429D01*
X2635714Y56607143D01*
X3607142Y57007143D02*
X3892857Y56207143D01*
X4178571Y57007143D01*
X5092857Y56264286D02*
X4978571Y56207143D01*
X4750000Y56207143D01*
X4635714Y56264286D01*
X4578571Y56378572D01*
X4578571Y56835715D01*
X4635714Y56950000D01*
X4750000Y57007143D01*
X4978571Y57007143D01*
X5092857Y56950000D01*
X5150000Y56835715D01*
X5150000Y56721429D01*
X4578571Y56607143D01*
X5835714Y56207143D02*
X5721428Y56264286D01*
X5664285Y56378572D01*
X5664285Y57407143D01*
X7092857Y57407143D02*
X7835714Y57407143D01*
X7435714Y56950000D01*
X7607142Y56950000D01*
X7721428Y56892858D01*
X7778571Y56835715D01*
X7835714Y56721429D01*
X7835714Y56435715D01*
X7778571Y56321429D01*
X7721428Y56264286D01*
X7607142Y56207143D01*
X7264285Y56207143D01*
X7150000Y56264286D01*
X7092857Y56321429D01*
X26292857Y88207143D02*
X25721428Y88207143D01*
X25721428Y89407143D01*
X27150000Y88264286D02*
X27035714Y88207143D01*
X26807142Y88207143D01*
X26692857Y88264286D01*
X26635714Y88378572D01*
X26635714Y88835715D01*
X26692857Y88950000D01*
X26807142Y89007143D01*
X27035714Y89007143D01*
X27150000Y88950000D01*
X27207142Y88835715D01*
X27207142Y88721429D01*
X26635714Y88607143D01*
X27607142Y89007143D02*
X27892857Y88207143D01*
X28178571Y89007143D01*
X29092857Y88264286D02*
X28978571Y88207143D01*
X28750000Y88207143D01*
X28635714Y88264286D01*
X28578571Y88378572D01*
X28578571Y88835715D01*
X28635714Y88950000D01*
X28750000Y89007143D01*
X28978571Y89007143D01*
X29092857Y88950000D01*
X29150000Y88835715D01*
X29150000Y88721429D01*
X28578571Y88607143D01*
X29835714Y88207143D02*
X29721428Y88264286D01*
X29664285Y88378572D01*
X29664285Y89407143D01*
X31835714Y88207143D02*
X31150000Y88207143D01*
X31492857Y88207143D02*
X31492857Y89407143D01*
X31378571Y89235715D01*
X31264285Y89121429D01*
X31150000Y89064286D01*
X26292857Y68207143D02*
X25721428Y68207143D01*
X25721428Y69407143D01*
X27150000Y68264286D02*
X27035714Y68207143D01*
X26807142Y68207143D01*
X26692857Y68264286D01*
X26635714Y68378572D01*
X26635714Y68835715D01*
X26692857Y68950000D01*
X26807142Y69007143D01*
X27035714Y69007143D01*
X27150000Y68950000D01*
X27207142Y68835715D01*
X27207142Y68721429D01*
X26635714Y68607143D01*
X27607142Y69007143D02*
X27892857Y68207143D01*
X28178571Y69007143D01*
X29092857Y68264286D02*
X28978571Y68207143D01*
X28750000Y68207143D01*
X28635714Y68264286D01*
X28578571Y68378572D01*
X28578571Y68835715D01*
X28635714Y68950000D01*
X28750000Y69007143D01*
X28978571Y69007143D01*
X29092857Y68950000D01*
X29150000Y68835715D01*
X29150000Y68721429D01*
X28578571Y68607143D01*
X29835714Y68207143D02*
X29721428Y68264286D01*
X29664285Y68378572D01*
X29664285Y69407143D01*
X31150000Y69292858D02*
X31207142Y69350000D01*
X31321428Y69407143D01*
X31607142Y69407143D01*
X31721428Y69350000D01*
X31778571Y69292858D01*
X31835714Y69178572D01*
X31835714Y69064286D01*
X31778571Y68892858D01*
X31092857Y68207143D01*
X31835714Y68207143D01*
X1000000Y26000000D02*
X49000000Y26000000D01*
X1000000Y42000000D02*
X49000000Y42000000D01*
X1000000Y58000000D02*
X49000000Y58000000D01*
X25000000Y70000000D02*
X49000000Y70000000D01*
X1000000Y10000000D02*
X49000000Y10000000D01*
X25000000Y90000000D02*
X25000000Y10000000D01*
X1000000Y90000000D02*
X49000000Y90000000D01*
D12*
X30050000Y16840000D02*
X31450000Y16840000D01*
X31450000Y19160000D02*
X30050000Y19160000D01*
X38655000Y50760000D02*
X38655000Y49300000D01*
X35495000Y50760000D02*
X35495000Y49249868D01*
X35495000Y50760000D02*
X36425000Y50760000D01*
X38655000Y50760000D02*
X37725000Y50760000D01*
X43700000Y16200000D02*
X44800000Y16200000D01*
X44800000Y16200000D02*
X44800000Y18800000D01*
X43700000Y16200000D02*
X43700000Y18800000D01*
X8780000Y32750000D02*
X8780000Y34750000D01*
X10720000Y34750000D02*
X10720000Y32750000D01*
X5220000Y34750000D02*
X5220000Y32750000D01*
X3280000Y32750000D02*
X3280000Y34750000D01*
X29030000Y49000000D02*
X29030000Y51000000D01*
X30970000Y51000000D02*
X30970000Y49000000D01*
X40290000Y73810000D02*
X40290000Y73480000D01*
X46710000Y73810000D02*
X40290000Y73810000D01*
X46710000Y73480000D02*
X46710000Y73810000D01*
X40290000Y71190000D02*
X40290000Y71520000D01*
X46710000Y71190000D02*
X40290000Y71190000D01*
X46710000Y71520000D02*
X46710000Y71190000D01*
X40290000Y77810000D02*
X40290000Y77480000D01*
X46710000Y77810000D02*
X40290000Y77810000D01*
X46710000Y77480000D02*
X46710000Y77810000D01*
X40290000Y75190000D02*
X40290000Y75520000D01*
X46710000Y75190000D02*
X40290000Y75190000D01*
X46710000Y75520000D02*
X46710000Y75190000D01*
X34090000Y71190000D02*
X34090000Y71520000D01*
X27670000Y71190000D02*
X34090000Y71190000D01*
X27670000Y71520000D02*
X27670000Y71190000D01*
X34090000Y73810000D02*
X34090000Y73480000D01*
X27670000Y73810000D02*
X34090000Y73810000D01*
X27670000Y73480000D02*
X27670000Y73810000D01*
X34090000Y75190000D02*
X34090000Y75520000D01*
X27670000Y75190000D02*
X34090000Y75190000D01*
X27670000Y75520000D02*
X27670000Y75190000D01*
X34090000Y77810000D02*
X34090000Y77480000D01*
X27670000Y77810000D02*
X34090000Y77810000D01*
X27670000Y77480000D02*
X27670000Y77810000D01*
X34090000Y79190000D02*
X34090000Y79520000D01*
X27670000Y79190000D02*
X34090000Y79190000D01*
X27670000Y79520000D02*
X27670000Y79190000D01*
X34090000Y81810000D02*
X34090000Y81480000D01*
X27670000Y81810000D02*
X34090000Y81810000D01*
X27670000Y81480000D02*
X27670000Y81810000D01*
X33550000Y83220000D02*
X33550000Y83090000D01*
X33550000Y83090000D02*
X28230000Y83090000D01*
X28230000Y83090000D02*
X28230000Y83220000D01*
X33550000Y85780000D02*
X33550000Y85910000D01*
X33550000Y85910000D02*
X28230000Y85910000D01*
X28230000Y85910000D02*
X28230000Y85780000D01*
X32710000Y83090000D02*
X32710000Y85910000D01*
X45330000Y62460000D02*
X45486000Y62460000D01*
X43014000Y62460000D02*
X43170000Y62460000D01*
X45329837Y65061130D02*
G75*
G02X45330000Y62979039I-1079837J-1041130D01*
G01*
X43170163Y65061130D02*
G75*
G03X43170000Y62979039I1079837J-1041130D01*
G01*
X45328608Y65692335D02*
G75*
G02X45485516Y62460000I-1078608J-1672335D01*
G01*
X43171392Y65692335D02*
G75*
G03X43014484Y62460000I1078608J-1672335D01*
G01*
X23160000Y48610000D02*
X23160000Y43390000D01*
X19840000Y48610000D02*
X19840000Y43390000D01*
X23160000Y48610000D02*
X22496000Y48610000D01*
X20504000Y48610000D02*
X19840000Y48610000D01*
X23160000Y43390000D02*
X22496000Y43390000D01*
X20504000Y43390000D02*
X19840000Y43390000D01*
D13*
X20340800Y31104400D02*
G75*
G02X20645600Y31104400I152400J0D01*
G01*
X20645600Y31104400D02*
G75*
G02X20340800Y31104400I-152400J0D01*
G01*
D10*
X19825000Y36575000D02*
X15675000Y36575000D01*
X19825000Y31425000D02*
X15675000Y31425000D01*
X19825000Y36575000D02*
X19825000Y36430000D01*
X15675000Y36575000D02*
X15675000Y36430000D01*
X15675000Y31425000D02*
X15675000Y31570000D01*
X19825000Y31425000D02*
X19825000Y31570000D01*
D11*
X34750000Y35200000D02*
X35850000Y35200000D01*
X34750000Y33400000D02*
X34750000Y35200000D01*
X38250000Y35200000D02*
X37150000Y35200000D01*
X38250000Y33400000D02*
X38250000Y35200000D01*
D10*
X20325000Y16375000D02*
X20325000Y16575000D01*
X15675000Y16375000D02*
X15675000Y16575000D01*
X15675000Y19625000D02*
X15675000Y19425000D01*
X20325000Y19625000D02*
X20325000Y19425000D01*
X20325000Y16375000D02*
X15675000Y16375000D01*
X20325000Y19625000D02*
X15675000Y19625000D01*
D13*
X20971800Y16171200D02*
G75*
G02X20717800Y16171200I-127000J0D01*
G01*
X20717800Y16171200D02*
G75*
G02X20971800Y16171200I127000J0D01*
G01*
D14*
G36*
X42943007Y82850234D02*
X42864553Y82830731D01*
X42754000Y82826667D01*
X42542333Y82826667D01*
X42542333Y82593834D01*
X42536632Y82453421D01*
X42516628Y82381131D01*
X42478833Y82361000D01*
X42440539Y82381904D01*
X42420823Y82455252D01*
X42415333Y82593834D01*
X42415333Y82826667D01*
X42203666Y82826667D01*
X42070557Y82833465D01*
X42005544Y82857001D01*
X41992000Y82890167D01*
X42016931Y82932021D01*
X42101701Y82951085D01*
X42182500Y82953667D01*
X42296150Y82958267D01*
X42364290Y82969903D01*
X42373000Y82976806D01*
X42353199Y83021376D01*
X42300200Y83121181D01*
X42223606Y83258405D01*
X42182500Y83330216D01*
X42098096Y83479422D01*
X42032861Y83600211D01*
X41996431Y83674483D01*
X41992000Y83688077D01*
X42030094Y83703819D01*
X42127488Y83713809D01*
X42203666Y83715667D01*
X42415333Y83715667D01*
X42415333Y83927334D01*
X42422131Y84060443D01*
X42445667Y84125456D01*
X42478833Y84139000D01*
X42518766Y84116341D01*
X42538270Y84037887D01*
X42542333Y83927334D01*
X42542333Y83715667D01*
X42754000Y83715667D01*
X42874773Y83710702D01*
X42951408Y83698007D01*
X42965666Y83688077D01*
X42945823Y83641450D01*
X42892716Y83539931D01*
X42815982Y83401621D01*
X42775167Y83330216D01*
X42690849Y83181629D01*
X42625646Y83062150D01*
X42589162Y82989593D01*
X42584667Y82976806D01*
X42622534Y82963002D01*
X42718334Y82954725D01*
X42775166Y82953667D01*
X42900728Y82945357D01*
X42957921Y82917100D01*
X42965666Y82890167D01*
X42943007Y82850234D01*
X42943007Y82850234D01*
G37*
X42943007Y82850234D02*
X42864553Y82830731D01*
X42754000Y82826667D01*
X42542333Y82826667D01*
X42542333Y82593834D01*
X42536632Y82453421D01*
X42516628Y82381131D01*
X42478833Y82361000D01*
X42440539Y82381904D01*
X42420823Y82455252D01*
X42415333Y82593834D01*
X42415333Y82826667D01*
X42203666Y82826667D01*
X42070557Y82833465D01*
X42005544Y82857001D01*
X41992000Y82890167D01*
X42016931Y82932021D01*
X42101701Y82951085D01*
X42182500Y82953667D01*
X42296150Y82958267D01*
X42364290Y82969903D01*
X42373000Y82976806D01*
X42353199Y83021376D01*
X42300200Y83121181D01*
X42223606Y83258405D01*
X42182500Y83330216D01*
X42098096Y83479422D01*
X42032861Y83600211D01*
X41996431Y83674483D01*
X41992000Y83688077D01*
X42030094Y83703819D01*
X42127488Y83713809D01*
X42203666Y83715667D01*
X42415333Y83715667D01*
X42415333Y83927334D01*
X42422131Y84060443D01*
X42445667Y84125456D01*
X42478833Y84139000D01*
X42518766Y84116341D01*
X42538270Y84037887D01*
X42542333Y83927334D01*
X42542333Y83715667D01*
X42754000Y83715667D01*
X42874773Y83710702D01*
X42951408Y83698007D01*
X42965666Y83688077D01*
X42945823Y83641450D01*
X42892716Y83539931D01*
X42815982Y83401621D01*
X42775167Y83330216D01*
X42690849Y83181629D01*
X42625646Y83062150D01*
X42589162Y82989593D01*
X42584667Y82976806D01*
X42622534Y82963002D01*
X42718334Y82954725D01*
X42775166Y82953667D01*
X42900728Y82945357D01*
X42957921Y82917100D01*
X42965666Y82890167D01*
X42943007Y82850234D01*
G36*
X41943007Y63350234D02*
X41864553Y63330731D01*
X41754000Y63326667D01*
X41542333Y63326667D01*
X41542333Y63093834D01*
X41536632Y62953421D01*
X41516628Y62881131D01*
X41478833Y62861000D01*
X41440539Y62881904D01*
X41420823Y62955252D01*
X41415333Y63093834D01*
X41415333Y63326667D01*
X41203666Y63326667D01*
X41070557Y63333465D01*
X41005544Y63357001D01*
X40992000Y63390167D01*
X41016931Y63432021D01*
X41101701Y63451085D01*
X41182500Y63453667D01*
X41296150Y63458267D01*
X41364290Y63469903D01*
X41373000Y63476806D01*
X41353199Y63521376D01*
X41300200Y63621181D01*
X41223606Y63758405D01*
X41182500Y63830216D01*
X41098096Y63979422D01*
X41032861Y64100211D01*
X40996431Y64174483D01*
X40992000Y64188077D01*
X41030094Y64203819D01*
X41127488Y64213809D01*
X41203666Y64215667D01*
X41415333Y64215667D01*
X41415333Y64427334D01*
X41422131Y64560443D01*
X41445667Y64625456D01*
X41478833Y64639000D01*
X41518766Y64616341D01*
X41538270Y64537887D01*
X41542333Y64427334D01*
X41542333Y64215667D01*
X41754000Y64215667D01*
X41874773Y64210702D01*
X41951408Y64198007D01*
X41965666Y64188077D01*
X41945823Y64141450D01*
X41892716Y64039931D01*
X41815982Y63901621D01*
X41775167Y63830216D01*
X41690849Y63681629D01*
X41625646Y63562150D01*
X41589162Y63489593D01*
X41584667Y63476806D01*
X41622534Y63463002D01*
X41718334Y63454725D01*
X41775166Y63453667D01*
X41900728Y63445357D01*
X41957921Y63417100D01*
X41965666Y63390167D01*
X41943007Y63350234D01*
X41943007Y63350234D01*
G37*
X41943007Y63350234D02*
X41864553Y63330731D01*
X41754000Y63326667D01*
X41542333Y63326667D01*
X41542333Y63093834D01*
X41536632Y62953421D01*
X41516628Y62881131D01*
X41478833Y62861000D01*
X41440539Y62881904D01*
X41420823Y62955252D01*
X41415333Y63093834D01*
X41415333Y63326667D01*
X41203666Y63326667D01*
X41070557Y63333465D01*
X41005544Y63357001D01*
X40992000Y63390167D01*
X41016931Y63432021D01*
X41101701Y63451085D01*
X41182500Y63453667D01*
X41296150Y63458267D01*
X41364290Y63469903D01*
X41373000Y63476806D01*
X41353199Y63521376D01*
X41300200Y63621181D01*
X41223606Y63758405D01*
X41182500Y63830216D01*
X41098096Y63979422D01*
X41032861Y64100211D01*
X40996431Y64174483D01*
X40992000Y64188077D01*
X41030094Y64203819D01*
X41127488Y64213809D01*
X41203666Y64215667D01*
X41415333Y64215667D01*
X41415333Y64427334D01*
X41422131Y64560443D01*
X41445667Y64625456D01*
X41478833Y64639000D01*
X41518766Y64616341D01*
X41538270Y64537887D01*
X41542333Y64427334D01*
X41542333Y64215667D01*
X41754000Y64215667D01*
X41874773Y64210702D01*
X41951408Y64198007D01*
X41965666Y64188077D01*
X41945823Y64141450D01*
X41892716Y64039931D01*
X41815982Y63901621D01*
X41775167Y63830216D01*
X41690849Y63681629D01*
X41625646Y63562150D01*
X41589162Y63489593D01*
X41584667Y63476806D01*
X41622534Y63463002D01*
X41718334Y63454725D01*
X41775166Y63453667D01*
X41900728Y63445357D01*
X41957921Y63417100D01*
X41965666Y63390167D01*
X41943007Y63350234D01*
G36*
X42193007Y49600234D02*
X42114553Y49580731D01*
X42004000Y49576667D01*
X41792333Y49576667D01*
X41792333Y49343834D01*
X41786632Y49203421D01*
X41766628Y49131131D01*
X41728833Y49111000D01*
X41690539Y49131904D01*
X41670823Y49205252D01*
X41665333Y49343834D01*
X41665333Y49576667D01*
X41453666Y49576667D01*
X41320557Y49583465D01*
X41255544Y49607001D01*
X41242000Y49640167D01*
X41266931Y49682021D01*
X41351701Y49701085D01*
X41432500Y49703667D01*
X41546150Y49708267D01*
X41614290Y49719903D01*
X41623000Y49726806D01*
X41603199Y49771376D01*
X41550200Y49871181D01*
X41473606Y50008405D01*
X41432500Y50080216D01*
X41348096Y50229422D01*
X41282861Y50350211D01*
X41246431Y50424483D01*
X41242000Y50438077D01*
X41280094Y50453819D01*
X41377488Y50463809D01*
X41453666Y50465667D01*
X41665333Y50465667D01*
X41665333Y50677334D01*
X41672131Y50810443D01*
X41695667Y50875456D01*
X41728833Y50889000D01*
X41768766Y50866341D01*
X41788270Y50787887D01*
X41792333Y50677334D01*
X41792333Y50465667D01*
X42004000Y50465667D01*
X42124773Y50460702D01*
X42201408Y50448007D01*
X42215666Y50438077D01*
X42195823Y50391450D01*
X42142716Y50289931D01*
X42065982Y50151621D01*
X42025167Y50080216D01*
X41940849Y49931629D01*
X41875646Y49812150D01*
X41839162Y49739593D01*
X41834667Y49726806D01*
X41872534Y49713002D01*
X41968334Y49704725D01*
X42025166Y49703667D01*
X42150728Y49695357D01*
X42207921Y49667100D01*
X42215666Y49640167D01*
X42193007Y49600234D01*
X42193007Y49600234D01*
G37*
X42193007Y49600234D02*
X42114553Y49580731D01*
X42004000Y49576667D01*
X41792333Y49576667D01*
X41792333Y49343834D01*
X41786632Y49203421D01*
X41766628Y49131131D01*
X41728833Y49111000D01*
X41690539Y49131904D01*
X41670823Y49205252D01*
X41665333Y49343834D01*
X41665333Y49576667D01*
X41453666Y49576667D01*
X41320557Y49583465D01*
X41255544Y49607001D01*
X41242000Y49640167D01*
X41266931Y49682021D01*
X41351701Y49701085D01*
X41432500Y49703667D01*
X41546150Y49708267D01*
X41614290Y49719903D01*
X41623000Y49726806D01*
X41603199Y49771376D01*
X41550200Y49871181D01*
X41473606Y50008405D01*
X41432500Y50080216D01*
X41348096Y50229422D01*
X41282861Y50350211D01*
X41246431Y50424483D01*
X41242000Y50438077D01*
X41280094Y50453819D01*
X41377488Y50463809D01*
X41453666Y50465667D01*
X41665333Y50465667D01*
X41665333Y50677334D01*
X41672131Y50810443D01*
X41695667Y50875456D01*
X41728833Y50889000D01*
X41768766Y50866341D01*
X41788270Y50787887D01*
X41792333Y50677334D01*
X41792333Y50465667D01*
X42004000Y50465667D01*
X42124773Y50460702D01*
X42201408Y50448007D01*
X42215666Y50438077D01*
X42195823Y50391450D01*
X42142716Y50289931D01*
X42065982Y50151621D01*
X42025167Y50080216D01*
X41940849Y49931629D01*
X41875646Y49812150D01*
X41839162Y49739593D01*
X41834667Y49726806D01*
X41872534Y49713002D01*
X41968334Y49704725D01*
X42025166Y49703667D01*
X42150728Y49695357D01*
X42207921Y49667100D01*
X42215666Y49640167D01*
X42193007Y49600234D01*
G36*
X43193007Y17600234D02*
X43114553Y17580731D01*
X43004000Y17576667D01*
X42792333Y17576667D01*
X42792333Y17343834D01*
X42786632Y17203421D01*
X42766628Y17131131D01*
X42728833Y17111000D01*
X42690539Y17131904D01*
X42670823Y17205252D01*
X42665333Y17343834D01*
X42665333Y17576667D01*
X42453666Y17576667D01*
X42320557Y17583465D01*
X42255544Y17607001D01*
X42242000Y17640167D01*
X42266931Y17682021D01*
X42351701Y17701085D01*
X42432500Y17703667D01*
X42546150Y17708267D01*
X42614290Y17719903D01*
X42623000Y17726806D01*
X42603199Y17771376D01*
X42550200Y17871181D01*
X42473606Y18008405D01*
X42432500Y18080216D01*
X42348096Y18229422D01*
X42282861Y18350211D01*
X42246431Y18424483D01*
X42242000Y18438077D01*
X42280094Y18453819D01*
X42377488Y18463809D01*
X42453666Y18465667D01*
X42665333Y18465667D01*
X42665333Y18677334D01*
X42672131Y18810443D01*
X42695667Y18875456D01*
X42728833Y18889000D01*
X42768766Y18866341D01*
X42788270Y18787887D01*
X42792333Y18677334D01*
X42792333Y18465667D01*
X43004000Y18465667D01*
X43124773Y18460702D01*
X43201408Y18448007D01*
X43215666Y18438077D01*
X43195823Y18391450D01*
X43142716Y18289931D01*
X43065982Y18151621D01*
X43025167Y18080216D01*
X42940849Y17931629D01*
X42875646Y17812150D01*
X42839162Y17739593D01*
X42834667Y17726806D01*
X42872534Y17713002D01*
X42968334Y17704725D01*
X43025166Y17703667D01*
X43150728Y17695357D01*
X43207921Y17667100D01*
X43215666Y17640167D01*
X43193007Y17600234D01*
X43193007Y17600234D01*
G37*
X43193007Y17600234D02*
X43114553Y17580731D01*
X43004000Y17576667D01*
X42792333Y17576667D01*
X42792333Y17343834D01*
X42786632Y17203421D01*
X42766628Y17131131D01*
X42728833Y17111000D01*
X42690539Y17131904D01*
X42670823Y17205252D01*
X42665333Y17343834D01*
X42665333Y17576667D01*
X42453666Y17576667D01*
X42320557Y17583465D01*
X42255544Y17607001D01*
X42242000Y17640167D01*
X42266931Y17682021D01*
X42351701Y17701085D01*
X42432500Y17703667D01*
X42546150Y17708267D01*
X42614290Y17719903D01*
X42623000Y17726806D01*
X42603199Y17771376D01*
X42550200Y17871181D01*
X42473606Y18008405D01*
X42432500Y18080216D01*
X42348096Y18229422D01*
X42282861Y18350211D01*
X42246431Y18424483D01*
X42242000Y18438077D01*
X42280094Y18453819D01*
X42377488Y18463809D01*
X42453666Y18465667D01*
X42665333Y18465667D01*
X42665333Y18677334D01*
X42672131Y18810443D01*
X42695667Y18875456D01*
X42728833Y18889000D01*
X42768766Y18866341D01*
X42788270Y18787887D01*
X42792333Y18677334D01*
X42792333Y18465667D01*
X43004000Y18465667D01*
X43124773Y18460702D01*
X43201408Y18448007D01*
X43215666Y18438077D01*
X43195823Y18391450D01*
X43142716Y18289931D01*
X43065982Y18151621D01*
X43025167Y18080216D01*
X42940849Y17931629D01*
X42875646Y17812150D01*
X42839162Y17739593D01*
X42834667Y17726806D01*
X42872534Y17713002D01*
X42968334Y17704725D01*
X43025166Y17703667D01*
X43150728Y17695357D01*
X43207921Y17667100D01*
X43215666Y17640167D01*
X43193007Y17600234D01*
G36*
X42056993Y34399766D02*
X42135447Y34419269D01*
X42246000Y34423333D01*
X42457667Y34423333D01*
X42457667Y34656166D01*
X42463368Y34796579D01*
X42483372Y34868869D01*
X42521167Y34889000D01*
X42559461Y34868096D01*
X42579177Y34794748D01*
X42584667Y34656166D01*
X42584667Y34423333D01*
X42796334Y34423333D01*
X42929443Y34416535D01*
X42994456Y34392999D01*
X43008000Y34359833D01*
X42983069Y34317979D01*
X42898299Y34298915D01*
X42817500Y34296333D01*
X42703850Y34291733D01*
X42635710Y34280097D01*
X42627000Y34273194D01*
X42646801Y34228624D01*
X42699800Y34128819D01*
X42776394Y33991595D01*
X42817500Y33919784D01*
X42901904Y33770578D01*
X42967139Y33649789D01*
X43003569Y33575517D01*
X43008000Y33561923D01*
X42969906Y33546181D01*
X42872512Y33536191D01*
X42796334Y33534333D01*
X42584667Y33534333D01*
X42584667Y33322666D01*
X42577869Y33189557D01*
X42554333Y33124544D01*
X42521167Y33111000D01*
X42481234Y33133659D01*
X42461730Y33212113D01*
X42457667Y33322666D01*
X42457667Y33534333D01*
X42246000Y33534333D01*
X42125227Y33539298D01*
X42048592Y33551993D01*
X42034334Y33561923D01*
X42054177Y33608550D01*
X42107284Y33710069D01*
X42184018Y33848379D01*
X42224833Y33919784D01*
X42309151Y34068371D01*
X42374354Y34187850D01*
X42410838Y34260407D01*
X42415333Y34273194D01*
X42377466Y34286998D01*
X42281666Y34295275D01*
X42224834Y34296333D01*
X42099272Y34304643D01*
X42042079Y34332900D01*
X42034334Y34359833D01*
X42056993Y34399766D01*
X42056993Y34399766D01*
G37*
X42056993Y34399766D02*
X42135447Y34419269D01*
X42246000Y34423333D01*
X42457667Y34423333D01*
X42457667Y34656166D01*
X42463368Y34796579D01*
X42483372Y34868869D01*
X42521167Y34889000D01*
X42559461Y34868096D01*
X42579177Y34794748D01*
X42584667Y34656166D01*
X42584667Y34423333D01*
X42796334Y34423333D01*
X42929443Y34416535D01*
X42994456Y34392999D01*
X43008000Y34359833D01*
X42983069Y34317979D01*
X42898299Y34298915D01*
X42817500Y34296333D01*
X42703850Y34291733D01*
X42635710Y34280097D01*
X42627000Y34273194D01*
X42646801Y34228624D01*
X42699800Y34128819D01*
X42776394Y33991595D01*
X42817500Y33919784D01*
X42901904Y33770578D01*
X42967139Y33649789D01*
X43003569Y33575517D01*
X43008000Y33561923D01*
X42969906Y33546181D01*
X42872512Y33536191D01*
X42796334Y33534333D01*
X42584667Y33534333D01*
X42584667Y33322666D01*
X42577869Y33189557D01*
X42554333Y33124544D01*
X42521167Y33111000D01*
X42481234Y33133659D01*
X42461730Y33212113D01*
X42457667Y33322666D01*
X42457667Y33534333D01*
X42246000Y33534333D01*
X42125227Y33539298D01*
X42048592Y33551993D01*
X42034334Y33561923D01*
X42054177Y33608550D01*
X42107284Y33710069D01*
X42184018Y33848379D01*
X42224833Y33919784D01*
X42309151Y34068371D01*
X42374354Y34187850D01*
X42410838Y34260407D01*
X42415333Y34273194D01*
X42377466Y34286998D01*
X42281666Y34295275D01*
X42224834Y34296333D01*
X42099272Y34304643D01*
X42042079Y34332900D01*
X42034334Y34359833D01*
X42056993Y34399766D01*
G36*
X14844115Y7247673D02*
X15015666Y7247666D01*
X15711801Y7247478D01*
X16327954Y7246870D01*
X16868808Y7245777D01*
X17339049Y7244136D01*
X17743359Y7241883D01*
X18086423Y7238952D01*
X18372924Y7235280D01*
X18607547Y7230803D01*
X18794975Y7225456D01*
X18939892Y7219176D01*
X19046983Y7211896D01*
X19120930Y7203555D01*
X19166419Y7194086D01*
X19176276Y7190582D01*
X19408422Y7049760D01*
X19600121Y6846199D01*
X19699135Y6677896D01*
X19723667Y6623864D01*
X19743787Y6571509D01*
X19759934Y6512258D01*
X19772543Y6437534D01*
X19782053Y6338762D01*
X19788901Y6207366D01*
X19793523Y6034770D01*
X19796358Y5812399D01*
X19797841Y5531677D01*
X19798412Y5184029D01*
X19798506Y4760878D01*
X19798506Y4728833D01*
X19798428Y4300183D01*
X19797905Y3947624D01*
X19796498Y3662581D01*
X19793770Y3436477D01*
X19789284Y3260738D01*
X19782603Y3126786D01*
X19773290Y3026048D01*
X19760908Y2949947D01*
X19745018Y2889908D01*
X19725185Y2837354D01*
X19700970Y2783711D01*
X19699135Y2779770D01*
X19547203Y2543986D01*
X19341096Y2357483D01*
X19176276Y2267085D01*
X19139517Y2257232D01*
X19075994Y2248533D01*
X18981024Y2240923D01*
X18849926Y2234340D01*
X18678018Y2228720D01*
X18460617Y2224002D01*
X18193042Y2220121D01*
X17870611Y2217014D01*
X17488642Y2214619D01*
X17042453Y2212872D01*
X16527362Y2211711D01*
X15938687Y2211072D01*
X15271746Y2210893D01*
X15006443Y2210930D01*
X14330453Y2211146D01*
X13733916Y2211529D01*
X13211618Y2212178D01*
X12758344Y2213192D01*
X12368881Y2214669D01*
X12038015Y2216708D01*
X11760532Y2219407D01*
X11531217Y2222865D01*
X11344857Y2227181D01*
X11196238Y2232453D01*
X11080145Y2238780D01*
X10991366Y2246260D01*
X10924685Y2254993D01*
X10874889Y2265076D01*
X10836764Y2276608D01*
X10805096Y2289689D01*
X10803500Y2290427D01*
X10662697Y2374589D01*
X10525879Y2484764D01*
X10498728Y2511747D01*
X10436201Y2578754D01*
X10384299Y2641574D01*
X10342038Y2708457D01*
X10308432Y2787653D01*
X10282497Y2887412D01*
X10263247Y3015984D01*
X10249698Y3181619D01*
X10240864Y3392566D01*
X10235762Y3657076D01*
X10233404Y3983399D01*
X10232808Y4379783D01*
X10232929Y4738057D01*
X10233306Y5195568D01*
X10234648Y5576630D01*
X10238057Y5889460D01*
X10244634Y6142274D01*
X10255483Y6343290D01*
X10271704Y6500724D01*
X10294401Y6622794D01*
X10324675Y6717718D01*
X10363629Y6793711D01*
X10412363Y6858991D01*
X10471982Y6921775D01*
X10533747Y6980938D01*
X10578506Y7024676D01*
X10618504Y7063365D01*
X10658928Y7097314D01*
X10704966Y7126831D01*
X10761806Y7152226D01*
X10834635Y7173807D01*
X10928642Y7191883D01*
X11049014Y7206763D01*
X11200938Y7218754D01*
X11389603Y7228167D01*
X11620196Y7235309D01*
X11897906Y7240490D01*
X12227919Y7244019D01*
X12615424Y7246203D01*
X13065608Y7247352D01*
X13583660Y7247773D01*
X14174766Y7247777D01*
X14844115Y7247673D01*
X14844115Y7247673D01*
G37*
X14844115Y7247673D02*
X15015666Y7247666D01*
X15711801Y7247478D01*
X16327954Y7246870D01*
X16868808Y7245777D01*
X17339049Y7244136D01*
X17743359Y7241883D01*
X18086423Y7238952D01*
X18372924Y7235280D01*
X18607547Y7230803D01*
X18794975Y7225456D01*
X18939892Y7219176D01*
X19046983Y7211896D01*
X19120930Y7203555D01*
X19166419Y7194086D01*
X19176276Y7190582D01*
X19408422Y7049760D01*
X19600121Y6846199D01*
X19699135Y6677896D01*
X19723667Y6623864D01*
X19743787Y6571509D01*
X19759934Y6512258D01*
X19772543Y6437534D01*
X19782053Y6338762D01*
X19788901Y6207366D01*
X19793523Y6034770D01*
X19796358Y5812399D01*
X19797841Y5531677D01*
X19798412Y5184029D01*
X19798506Y4760878D01*
X19798506Y4728833D01*
X19798428Y4300183D01*
X19797905Y3947624D01*
X19796498Y3662581D01*
X19793770Y3436477D01*
X19789284Y3260738D01*
X19782603Y3126786D01*
X19773290Y3026048D01*
X19760908Y2949947D01*
X19745018Y2889908D01*
X19725185Y2837354D01*
X19700970Y2783711D01*
X19699135Y2779770D01*
X19547203Y2543986D01*
X19341096Y2357483D01*
X19176276Y2267085D01*
X19139517Y2257232D01*
X19075994Y2248533D01*
X18981024Y2240923D01*
X18849926Y2234340D01*
X18678018Y2228720D01*
X18460617Y2224002D01*
X18193042Y2220121D01*
X17870611Y2217014D01*
X17488642Y2214619D01*
X17042453Y2212872D01*
X16527362Y2211711D01*
X15938687Y2211072D01*
X15271746Y2210893D01*
X15006443Y2210930D01*
X14330453Y2211146D01*
X13733916Y2211529D01*
X13211618Y2212178D01*
X12758344Y2213192D01*
X12368881Y2214669D01*
X12038015Y2216708D01*
X11760532Y2219407D01*
X11531217Y2222865D01*
X11344857Y2227181D01*
X11196238Y2232453D01*
X11080145Y2238780D01*
X10991366Y2246260D01*
X10924685Y2254993D01*
X10874889Y2265076D01*
X10836764Y2276608D01*
X10805096Y2289689D01*
X10803500Y2290427D01*
X10662697Y2374589D01*
X10525879Y2484764D01*
X10498728Y2511747D01*
X10436201Y2578754D01*
X10384299Y2641574D01*
X10342038Y2708457D01*
X10308432Y2787653D01*
X10282497Y2887412D01*
X10263247Y3015984D01*
X10249698Y3181619D01*
X10240864Y3392566D01*
X10235762Y3657076D01*
X10233404Y3983399D01*
X10232808Y4379783D01*
X10232929Y4738057D01*
X10233306Y5195568D01*
X10234648Y5576630D01*
X10238057Y5889460D01*
X10244634Y6142274D01*
X10255483Y6343290D01*
X10271704Y6500724D01*
X10294401Y6622794D01*
X10324675Y6717718D01*
X10363629Y6793711D01*
X10412363Y6858991D01*
X10471982Y6921775D01*
X10533747Y6980938D01*
X10578506Y7024676D01*
X10618504Y7063365D01*
X10658928Y7097314D01*
X10704966Y7126831D01*
X10761806Y7152226D01*
X10834635Y7173807D01*
X10928642Y7191883D01*
X11049014Y7206763D01*
X11200938Y7218754D01*
X11389603Y7228167D01*
X11620196Y7235309D01*
X11897906Y7240490D01*
X12227919Y7244019D01*
X12615424Y7246203D01*
X13065608Y7247352D01*
X13583660Y7247773D01*
X14174766Y7247777D01*
X14844115Y7247673D01*
G36*
X39528817Y7247909D02*
X40160948Y7247505D01*
X40727308Y7246652D01*
X41231676Y7245222D01*
X41677831Y7243085D01*
X42069553Y7240111D01*
X42410619Y7236168D01*
X42704810Y7231128D01*
X42955904Y7224860D01*
X43167680Y7217233D01*
X43343918Y7208117D01*
X43488397Y7197383D01*
X43604895Y7184899D01*
X43697191Y7170537D01*
X43769066Y7154165D01*
X43824297Y7135653D01*
X43866664Y7114872D01*
X43899946Y7091690D01*
X43927922Y7065979D01*
X43954371Y7037606D01*
X43983072Y7006444D01*
X44008586Y6980938D01*
X44078471Y6913772D01*
X44136558Y6851306D01*
X44183936Y6785348D01*
X44221697Y6707706D01*
X44250932Y6610187D01*
X44272732Y6484600D01*
X44288187Y6322751D01*
X44298388Y6116449D01*
X44304427Y5857501D01*
X44307393Y5537715D01*
X44308379Y5148899D01*
X44308473Y4728833D01*
X44308342Y4270186D01*
X44307221Y3888013D01*
X44304019Y3574122D01*
X44297646Y3320321D01*
X44287010Y3118417D01*
X44271021Y2960219D01*
X44248588Y2837534D01*
X44218620Y2742170D01*
X44180025Y2665934D01*
X44131714Y2600635D01*
X44072596Y2538080D01*
X44008586Y2476729D01*
X43975690Y2443382D01*
X43947912Y2412922D01*
X43921475Y2385217D01*
X43892602Y2360140D01*
X43857518Y2337561D01*
X43812446Y2317352D01*
X43753608Y2299382D01*
X43677229Y2283522D01*
X43579533Y2269645D01*
X43456741Y2257619D01*
X43305079Y2247317D01*
X43120770Y2238609D01*
X42900036Y2231366D01*
X42639102Y2225459D01*
X42334191Y2220758D01*
X41981526Y2217135D01*
X41577331Y2214460D01*
X41117830Y2212604D01*
X40599245Y2211439D01*
X40017801Y2210834D01*
X39369721Y2210661D01*
X38651228Y2210790D01*
X37858546Y2211093D01*
X36987898Y2211440D01*
X36257776Y2211657D01*
X35307462Y2211975D01*
X34438439Y2212495D01*
X33647333Y2213244D01*
X32930769Y2214248D01*
X32285372Y2215532D01*
X31707768Y2217122D01*
X31194581Y2219045D01*
X30742436Y2221326D01*
X30347959Y2223992D01*
X30007775Y2227068D01*
X29718508Y2230580D01*
X29476785Y2234555D01*
X29279231Y2239018D01*
X29122469Y2243996D01*
X29003126Y2249513D01*
X28917827Y2255598D01*
X28863197Y2262274D01*
X28837500Y2268794D01*
X28609575Y2411490D01*
X28420230Y2615463D01*
X28323864Y2779770D01*
X28299332Y2833803D01*
X28279212Y2886157D01*
X28263065Y2945408D01*
X28250456Y3020132D01*
X28240946Y3118904D01*
X28234098Y3250301D01*
X28229476Y3422896D01*
X28226641Y3645267D01*
X28225158Y3925989D01*
X28224587Y4273637D01*
X28224493Y4696788D01*
X28224493Y4728833D01*
X28224571Y5157483D01*
X28225094Y5510042D01*
X28226501Y5795085D01*
X28229229Y6021189D01*
X28233715Y6196929D01*
X28240396Y6330880D01*
X28249709Y6431618D01*
X28262091Y6507719D01*
X28277981Y6567759D01*
X28297814Y6620312D01*
X28322029Y6673956D01*
X28323864Y6677896D01*
X28475796Y6913680D01*
X28681903Y7100184D01*
X28846723Y7190582D01*
X28876326Y7197983D01*
X28930553Y7204744D01*
X29012876Y7210892D01*
X29126767Y7216453D01*
X29275697Y7221455D01*
X29463139Y7225922D01*
X29692564Y7229884D01*
X29967444Y7233365D01*
X30291250Y7236393D01*
X30667454Y7238994D01*
X31099529Y7241196D01*
X31590944Y7243025D01*
X32145174Y7244507D01*
X32765688Y7245670D01*
X33455959Y7246540D01*
X34219458Y7247143D01*
X35059657Y7247507D01*
X35980029Y7247659D01*
X36266999Y7247666D01*
X37200006Y7247746D01*
X38052125Y7247900D01*
X38827135Y7247998D01*
X39528817Y7247909D01*
X39528817Y7247909D01*
G37*
X39528817Y7247909D02*
X40160948Y7247505D01*
X40727308Y7246652D01*
X41231676Y7245222D01*
X41677831Y7243085D01*
X42069553Y7240111D01*
X42410619Y7236168D01*
X42704810Y7231128D01*
X42955904Y7224860D01*
X43167680Y7217233D01*
X43343918Y7208117D01*
X43488397Y7197383D01*
X43604895Y7184899D01*
X43697191Y7170537D01*
X43769066Y7154165D01*
X43824297Y7135653D01*
X43866664Y7114872D01*
X43899946Y7091690D01*
X43927922Y7065979D01*
X43954371Y7037606D01*
X43983072Y7006444D01*
X44008586Y6980938D01*
X44078471Y6913772D01*
X44136558Y6851306D01*
X44183936Y6785348D01*
X44221697Y6707706D01*
X44250932Y6610187D01*
X44272732Y6484600D01*
X44288187Y6322751D01*
X44298388Y6116449D01*
X44304427Y5857501D01*
X44307393Y5537715D01*
X44308379Y5148899D01*
X44308473Y4728833D01*
X44308342Y4270186D01*
X44307221Y3888013D01*
X44304019Y3574122D01*
X44297646Y3320321D01*
X44287010Y3118417D01*
X44271021Y2960219D01*
X44248588Y2837534D01*
X44218620Y2742170D01*
X44180025Y2665934D01*
X44131714Y2600635D01*
X44072596Y2538080D01*
X44008586Y2476729D01*
X43975690Y2443382D01*
X43947912Y2412922D01*
X43921475Y2385217D01*
X43892602Y2360140D01*
X43857518Y2337561D01*
X43812446Y2317352D01*
X43753608Y2299382D01*
X43677229Y2283522D01*
X43579533Y2269645D01*
X43456741Y2257619D01*
X43305079Y2247317D01*
X43120770Y2238609D01*
X42900036Y2231366D01*
X42639102Y2225459D01*
X42334191Y2220758D01*
X41981526Y2217135D01*
X41577331Y2214460D01*
X41117830Y2212604D01*
X40599245Y2211439D01*
X40017801Y2210834D01*
X39369721Y2210661D01*
X38651228Y2210790D01*
X37858546Y2211093D01*
X36987898Y2211440D01*
X36257776Y2211657D01*
X35307462Y2211975D01*
X34438439Y2212495D01*
X33647333Y2213244D01*
X32930769Y2214248D01*
X32285372Y2215532D01*
X31707768Y2217122D01*
X31194581Y2219045D01*
X30742436Y2221326D01*
X30347959Y2223992D01*
X30007775Y2227068D01*
X29718508Y2230580D01*
X29476785Y2234555D01*
X29279231Y2239018D01*
X29122469Y2243996D01*
X29003126Y2249513D01*
X28917827Y2255598D01*
X28863197Y2262274D01*
X28837500Y2268794D01*
X28609575Y2411490D01*
X28420230Y2615463D01*
X28323864Y2779770D01*
X28299332Y2833803D01*
X28279212Y2886157D01*
X28263065Y2945408D01*
X28250456Y3020132D01*
X28240946Y3118904D01*
X28234098Y3250301D01*
X28229476Y3422896D01*
X28226641Y3645267D01*
X28225158Y3925989D01*
X28224587Y4273637D01*
X28224493Y4696788D01*
X28224493Y4728833D01*
X28224571Y5157483D01*
X28225094Y5510042D01*
X28226501Y5795085D01*
X28229229Y6021189D01*
X28233715Y6196929D01*
X28240396Y6330880D01*
X28249709Y6431618D01*
X28262091Y6507719D01*
X28277981Y6567759D01*
X28297814Y6620312D01*
X28322029Y6673956D01*
X28323864Y6677896D01*
X28475796Y6913680D01*
X28681903Y7100184D01*
X28846723Y7190582D01*
X28876326Y7197983D01*
X28930553Y7204744D01*
X29012876Y7210892D01*
X29126767Y7216453D01*
X29275697Y7221455D01*
X29463139Y7225922D01*
X29692564Y7229884D01*
X29967444Y7233365D01*
X30291250Y7236393D01*
X30667454Y7238994D01*
X31099529Y7241196D01*
X31590944Y7243025D01*
X32145174Y7244507D01*
X32765688Y7245670D01*
X33455959Y7246540D01*
X34219458Y7247143D01*
X35059657Y7247507D01*
X35980029Y7247659D01*
X36266999Y7247666D01*
X37200006Y7247746D01*
X38052125Y7247900D01*
X38827135Y7247998D01*
X39528817Y7247909D01*
D12*
X11890000Y44870000D02*
G75*
G02X13890000Y44870000I1000000J0D01*
G01*
X13890000Y44870000D02*
X15540000Y44870000D01*
X15540000Y44870000D02*
X15540000Y55150000D01*
X15540000Y55150000D02*
X10240000Y55150000D01*
X10240000Y55150000D02*
X10240000Y44870000D01*
X10240000Y44870000D02*
X11890000Y44870000D01*
X36820000Y17500000D02*
X36820000Y18500000D01*
X38180000Y18500000D02*
X38180000Y17500000D01*
X34320000Y17500000D02*
X34320000Y18500000D01*
X35680000Y18500000D02*
X35680000Y17500000D01*
X12630000Y18600000D02*
X12630000Y17400000D01*
X10870000Y17400000D02*
X10870000Y18600000D01*
X7370000Y17400000D02*
X7370000Y18600000D01*
X9130000Y18600000D02*
X9130000Y17400000D01*
X30880000Y34600000D02*
X30880000Y33400000D01*
X29120000Y33400000D02*
X29120000Y34600000D01*
X5140000Y48100000D02*
X5140000Y51820000D01*
X6860000Y48100000D02*
X6860000Y51820000D01*
X2640000Y48100000D02*
X2640000Y51820000D01*
X4360000Y48100000D02*
X4360000Y51820000D01*
X29110000Y65870000D02*
X29110000Y62150000D01*
X27390000Y65870000D02*
X27390000Y62150000D01*
X43500000Y33000000D02*
X43500000Y36200000D01*
X45000000Y36200000D02*
X45000000Y33000000D01*
X45000000Y36200000D02*
X43500000Y36200000D01*
X45850000Y52250000D02*
X45850000Y47600000D01*
X42650000Y52250000D02*
X42650000Y47600000D01*
X42650000Y47600000D02*
X43450000Y47600000D01*
X44250462Y86260000D02*
G75*
G03X42705170Y80710000I-462J-2990000D01*
G01*
X44249538Y86260000D02*
G75*
G02X45794830Y80710000I462J-2990000D01*
G01*
X46750000Y83270000D02*
G75*
G03X46750000Y83270000I-2500000J0D01*
G01*
X42705000Y80710000D02*
X45795000Y80710000D01*
X17500000Y12900000D02*
X18500000Y12900000D01*
X18500000Y14600000D02*
X17500000Y14600000D01*
X16750000Y27730000D02*
X18750000Y27730000D01*
X18750000Y29770000D02*
X16750000Y29770000D01*
X33900000Y65800000D02*
X33900000Y62200000D01*
X34627205Y66324184D02*
G75*
G03X33900000Y65800000I1122795J-2324184D01*
G01*
X36848807Y66356400D02*
G75*
G02X38350000Y64000000I-1098807J-2356400D01*
G01*
X36848807Y61643600D02*
G75*
G03X38350000Y64000000I-1098807J2356400D01*
G01*
X34627205Y61675816D02*
G75*
G02X33900000Y62200000I1122795J2324184D01*
G01*
D15*
X29654600Y19498600D02*
G75*
G03X29654600Y19498600I-200000J0D01*
G01*
D10*
X30654761Y15293381D02*
X30559523Y15341000D01*
X30464285Y15436239D01*
X30321428Y15579096D01*
X30226190Y15626715D01*
X30130952Y15626715D01*
X30178571Y15388620D02*
X30083333Y15436239D01*
X29988095Y15531477D01*
X29940476Y15721953D01*
X29940476Y16055286D01*
X29988095Y16245762D01*
X30083333Y16341000D01*
X30178571Y16388620D01*
X30369047Y16388620D01*
X30464285Y16341000D01*
X30559523Y16245762D01*
X30607142Y16055286D01*
X30607142Y15721953D01*
X30559523Y15531477D01*
X30464285Y15436239D01*
X30369047Y15388620D01*
X30178571Y15388620D01*
X31464285Y16055286D02*
X31464285Y15388620D01*
X31226190Y16436239D02*
X30988095Y15721953D01*
X31607142Y15721953D01*
X34904761Y51202381D02*
X34809523Y51250000D01*
X34714285Y51345239D01*
X34571428Y51488096D01*
X34476190Y51535715D01*
X34380952Y51535715D01*
X34428571Y51297620D02*
X34333333Y51345239D01*
X34238095Y51440477D01*
X34190476Y51630953D01*
X34190476Y51964286D01*
X34238095Y52154762D01*
X34333333Y52250000D01*
X34428571Y52297620D01*
X34619047Y52297620D01*
X34714285Y52250000D01*
X34809523Y52154762D01*
X34857142Y51964286D01*
X34857142Y51630953D01*
X34809523Y51440477D01*
X34714285Y51345239D01*
X34619047Y51297620D01*
X34428571Y51297620D01*
X35238095Y52202381D02*
X35285714Y52250000D01*
X35380952Y52297620D01*
X35619047Y52297620D01*
X35714285Y52250000D01*
X35761904Y52202381D01*
X35809523Y52107143D01*
X35809523Y52011905D01*
X35761904Y51869048D01*
X35190476Y51297620D01*
X35809523Y51297620D01*
X46702380Y16880953D02*
X46702380Y16404762D01*
X45702380Y16404762D01*
X46178571Y17214286D02*
X46178571Y17547620D01*
X46702380Y17690477D02*
X46702380Y17214286D01*
X45702380Y17214286D01*
X45702380Y17690477D01*
X46702380Y18119048D02*
X45702380Y18119048D01*
X45702380Y18357143D01*
X45750000Y18500000D01*
X45845238Y18595239D01*
X45940476Y18642858D01*
X46130952Y18690477D01*
X46273809Y18690477D01*
X46464285Y18642858D01*
X46559523Y18595239D01*
X46654761Y18500000D01*
X46702380Y18357143D01*
X46702380Y18119048D01*
X45702380Y19595239D02*
X45702380Y19119048D01*
X46178571Y19071429D01*
X46130952Y19119048D01*
X46083333Y19214286D01*
X46083333Y19452381D01*
X46130952Y19547620D01*
X46178571Y19595239D01*
X46273809Y19642858D01*
X46511904Y19642858D01*
X46607142Y19595239D01*
X46654761Y19547620D01*
X46702380Y19452381D01*
X46702380Y19214286D01*
X46654761Y19119048D01*
X46607142Y19071429D01*
X10202380Y27857143D02*
X9726190Y27523810D01*
X10202380Y27285715D02*
X9202380Y27285715D01*
X9202380Y27666667D01*
X9250000Y27761905D01*
X9297619Y27809524D01*
X9392857Y27857143D01*
X9535714Y27857143D01*
X9630952Y27809524D01*
X9678571Y27761905D01*
X9726190Y27666667D01*
X9726190Y27285715D01*
X10202380Y28809524D02*
X10202380Y28238096D01*
X10202380Y28523810D02*
X9202380Y28523810D01*
X9345238Y28428572D01*
X9440476Y28333334D01*
X9488095Y28238096D01*
X10202380Y29761905D02*
X10202380Y29190477D01*
X10202380Y29476191D02*
X9202380Y29476191D01*
X9345238Y29380953D01*
X9440476Y29285715D01*
X9488095Y29190477D01*
X4702380Y27607143D02*
X4226190Y27273810D01*
X4702380Y27035715D02*
X3702380Y27035715D01*
X3702380Y27416667D01*
X3750000Y27511905D01*
X3797619Y27559524D01*
X3892857Y27607143D01*
X4035714Y27607143D01*
X4130952Y27559524D01*
X4178571Y27511905D01*
X4226190Y27416667D01*
X4226190Y27035715D01*
X4702380Y28559524D02*
X4702380Y27988096D01*
X4702380Y28273810D02*
X3702380Y28273810D01*
X3845238Y28178572D01*
X3940476Y28083334D01*
X3988095Y27988096D01*
X3702380Y29178572D02*
X3702380Y29273810D01*
X3750000Y29369048D01*
X3797619Y29416667D01*
X3892857Y29464286D01*
X4083333Y29511905D01*
X4321428Y29511905D01*
X4511904Y29464286D01*
X4607142Y29416667D01*
X4654761Y29369048D01*
X4702380Y29273810D01*
X4702380Y29178572D01*
X4654761Y29083334D01*
X4607142Y29035715D01*
X4511904Y28988096D01*
X4321428Y28940477D01*
X4083333Y28940477D01*
X3892857Y28988096D01*
X3797619Y29035715D01*
X3750000Y29083334D01*
X3702380Y29178572D01*
X28202380Y49833334D02*
X27726190Y49500000D01*
X28202380Y49261905D02*
X27202380Y49261905D01*
X27202380Y49642858D01*
X27250000Y49738096D01*
X27297619Y49785715D01*
X27392857Y49833334D01*
X27535714Y49833334D01*
X27630952Y49785715D01*
X27678571Y49738096D01*
X27726190Y49642858D01*
X27726190Y49261905D01*
X28202380Y50309524D02*
X28202380Y50500000D01*
X28154761Y50595239D01*
X28107142Y50642858D01*
X27964285Y50738096D01*
X27773809Y50785715D01*
X27392857Y50785715D01*
X27297619Y50738096D01*
X27250000Y50690477D01*
X27202380Y50595239D01*
X27202380Y50404762D01*
X27250000Y50309524D01*
X27297619Y50261905D01*
X27392857Y50214286D01*
X27630952Y50214286D01*
X27726190Y50261905D01*
X27773809Y50309524D01*
X27821428Y50404762D01*
X27821428Y50595239D01*
X27773809Y50690477D01*
X27726190Y50738096D01*
X27630952Y50785715D01*
X47833333Y73647620D02*
X47500000Y74123810D01*
X47261904Y73647620D02*
X47261904Y74647620D01*
X47642857Y74647620D01*
X47738095Y74600000D01*
X47785714Y74552381D01*
X47833333Y74457143D01*
X47833333Y74314286D01*
X47785714Y74219048D01*
X47738095Y74171429D01*
X47642857Y74123810D01*
X47261904Y74123810D01*
X48738095Y74647620D02*
X48261904Y74647620D01*
X48214285Y74171429D01*
X48261904Y74219048D01*
X48357142Y74266667D01*
X48595238Y74266667D01*
X48690476Y74219048D01*
X48738095Y74171429D01*
X48785714Y74076191D01*
X48785714Y73838096D01*
X48738095Y73742858D01*
X48690476Y73695239D01*
X48595238Y73647620D01*
X48357142Y73647620D01*
X48261904Y73695239D01*
X48214285Y73742858D01*
X47833333Y77647620D02*
X47500000Y78123810D01*
X47261904Y77647620D02*
X47261904Y78647620D01*
X47642857Y78647620D01*
X47738095Y78600000D01*
X47785714Y78552381D01*
X47833333Y78457143D01*
X47833333Y78314286D01*
X47785714Y78219048D01*
X47738095Y78171429D01*
X47642857Y78123810D01*
X47261904Y78123810D01*
X48690476Y78314286D02*
X48690476Y77647620D01*
X48452380Y78695239D02*
X48214285Y77980953D01*
X48833333Y77980953D01*
X36233333Y73547620D02*
X35900000Y74023810D01*
X35661904Y73547620D02*
X35661904Y74547620D01*
X36042857Y74547620D01*
X36138095Y74500000D01*
X36185714Y74452381D01*
X36233333Y74357143D01*
X36233333Y74214286D01*
X36185714Y74119048D01*
X36138095Y74071429D01*
X36042857Y74023810D01*
X35661904Y74023810D01*
X36566666Y74547620D02*
X37185714Y74547620D01*
X36852380Y74166667D01*
X36995238Y74166667D01*
X37090476Y74119048D01*
X37138095Y74071429D01*
X37185714Y73976191D01*
X37185714Y73738096D01*
X37138095Y73642858D01*
X37090476Y73595239D01*
X36995238Y73547620D01*
X36709523Y73547620D01*
X36614285Y73595239D01*
X36566666Y73642858D01*
X36233333Y77571620D02*
X35900000Y78047810D01*
X35661904Y77571620D02*
X35661904Y78571620D01*
X36042857Y78571620D01*
X36138095Y78524000D01*
X36185714Y78476381D01*
X36233333Y78381143D01*
X36233333Y78238286D01*
X36185714Y78143048D01*
X36138095Y78095429D01*
X36042857Y78047810D01*
X35661904Y78047810D01*
X36614285Y78476381D02*
X36661904Y78524000D01*
X36757142Y78571620D01*
X36995238Y78571620D01*
X37090476Y78524000D01*
X37138095Y78476381D01*
X37185714Y78381143D01*
X37185714Y78285905D01*
X37138095Y78143048D01*
X36566666Y77571620D01*
X37185714Y77571620D01*
X36233333Y81647620D02*
X35900000Y82123810D01*
X35661904Y81647620D02*
X35661904Y82647620D01*
X36042857Y82647620D01*
X36138095Y82600000D01*
X36185714Y82552381D01*
X36233333Y82457143D01*
X36233333Y82314286D01*
X36185714Y82219048D01*
X36138095Y82171429D01*
X36042857Y82123810D01*
X35661904Y82123810D01*
X37185714Y81647620D02*
X36614285Y81647620D01*
X36900000Y81647620D02*
X36900000Y82647620D01*
X36804761Y82504762D01*
X36709523Y82409524D01*
X36614285Y82361905D01*
X23841904Y84047620D02*
X23841904Y85047620D01*
X24080000Y85047620D01*
X24222857Y85000000D01*
X24318095Y84904762D01*
X24365714Y84809524D01*
X24413333Y84619048D01*
X24413333Y84476191D01*
X24365714Y84285715D01*
X24318095Y84190477D01*
X24222857Y84095239D01*
X24080000Y84047620D01*
X23841904Y84047620D01*
X25365714Y84047620D02*
X24794285Y84047620D01*
X25080000Y84047620D02*
X25080000Y85047620D01*
X24984761Y84904762D01*
X24889523Y84809524D01*
X24794285Y84761905D01*
X47952380Y62630953D02*
X47952380Y62154762D01*
X46952380Y62154762D01*
X47428571Y62964286D02*
X47428571Y63297620D01*
X47952380Y63440477D02*
X47952380Y62964286D01*
X46952380Y62964286D01*
X46952380Y63440477D01*
X47952380Y63869048D02*
X46952380Y63869048D01*
X46952380Y64107143D01*
X47000000Y64250000D01*
X47095238Y64345239D01*
X47190476Y64392858D01*
X47380952Y64440477D01*
X47523809Y64440477D01*
X47714285Y64392858D01*
X47809523Y64345239D01*
X47904761Y64250000D01*
X47952380Y64107143D01*
X47952380Y63869048D01*
X47047619Y64821429D02*
X47000000Y64869048D01*
X46952380Y64964286D01*
X46952380Y65202381D01*
X47000000Y65297620D01*
X47047619Y65345239D01*
X47142857Y65392858D01*
X47238095Y65392858D01*
X47380952Y65345239D01*
X47952380Y64773810D01*
X47952380Y65392858D01*
X24767142Y45833334D02*
X24814761Y45785715D01*
X24862380Y45642858D01*
X24862380Y45547620D01*
X24814761Y45404762D01*
X24719523Y45309524D01*
X24624285Y45261905D01*
X24433809Y45214286D01*
X24290952Y45214286D01*
X24100476Y45261905D01*
X24005238Y45309524D01*
X23910000Y45404762D01*
X23862380Y45547620D01*
X23862380Y45642858D01*
X23910000Y45785715D01*
X23957619Y45833334D01*
X24862380Y46785715D02*
X24862380Y46214286D01*
X24862380Y46500000D02*
X23862380Y46500000D01*
X24005238Y46404762D01*
X24100476Y46309524D01*
X24148095Y46214286D01*
X22238095Y32797620D02*
X22238095Y31988096D01*
X22285714Y31892858D01*
X22333333Y31845239D01*
X22428571Y31797620D01*
X22619047Y31797620D01*
X22714285Y31845239D01*
X22761904Y31892858D01*
X22809523Y31988096D01*
X22809523Y32797620D01*
X23238095Y32702381D02*
X23285714Y32750000D01*
X23380952Y32797620D01*
X23619047Y32797620D01*
X23714285Y32750000D01*
X23761904Y32702381D01*
X23809523Y32607143D01*
X23809523Y32511905D01*
X23761904Y32369048D01*
X23190476Y31797620D01*
X23809523Y31797620D01*
X39847619Y34104762D02*
X39800000Y34009524D01*
X39704761Y33914286D01*
X39561904Y33771429D01*
X39514285Y33676191D01*
X39514285Y33580953D01*
X39752380Y33628572D02*
X39704761Y33533334D01*
X39609523Y33438096D01*
X39419047Y33390477D01*
X39085714Y33390477D01*
X38895238Y33438096D01*
X38800000Y33533334D01*
X38752380Y33628572D01*
X38752380Y33819048D01*
X38800000Y33914286D01*
X38895238Y34009524D01*
X39085714Y34057143D01*
X39419047Y34057143D01*
X39609523Y34009524D01*
X39704761Y33914286D01*
X39752380Y33819048D01*
X39752380Y33628572D01*
X38752380Y34390477D02*
X38752380Y35009524D01*
X39133333Y34676191D01*
X39133333Y34819048D01*
X39180952Y34914286D01*
X39228571Y34961905D01*
X39323809Y35009524D01*
X39561904Y35009524D01*
X39657142Y34961905D01*
X39704761Y34914286D01*
X39752380Y34819048D01*
X39752380Y34533334D01*
X39704761Y34438096D01*
X39657142Y34390477D01*
X17238095Y21297620D02*
X17238095Y20488096D01*
X17285714Y20392858D01*
X17333333Y20345239D01*
X17428571Y20297620D01*
X17619047Y20297620D01*
X17714285Y20345239D01*
X17761904Y20392858D01*
X17809523Y20488096D01*
X17809523Y21297620D01*
X18190476Y21297620D02*
X18809523Y21297620D01*
X18476190Y20916667D01*
X18619047Y20916667D01*
X18714285Y20869048D01*
X18761904Y20821429D01*
X18809523Y20726191D01*
X18809523Y20488096D01*
X18761904Y20392858D01*
X18714285Y20345239D01*
X18619047Y20297620D01*
X18333333Y20297620D01*
X18238095Y20345239D01*
X18190476Y20392858D01*
X12128095Y44417620D02*
X12128095Y43608096D01*
X12175714Y43512858D01*
X12223333Y43465239D01*
X12318571Y43417620D01*
X12509047Y43417620D01*
X12604285Y43465239D01*
X12651904Y43512858D01*
X12699523Y43608096D01*
X12699523Y44417620D01*
X13699523Y43417620D02*
X13128095Y43417620D01*
X13413809Y43417620D02*
X13413809Y44417620D01*
X13318571Y44274762D01*
X13223333Y44179524D01*
X13128095Y44131905D01*
X37952380Y13857143D02*
X37476190Y13523810D01*
X37952380Y13285715D02*
X36952380Y13285715D01*
X36952380Y13666667D01*
X37000000Y13761905D01*
X37047619Y13809524D01*
X37142857Y13857143D01*
X37285714Y13857143D01*
X37380952Y13809524D01*
X37428571Y13761905D01*
X37476190Y13666667D01*
X37476190Y13285715D01*
X37952380Y14809524D02*
X37952380Y14238096D01*
X37952380Y14523810D02*
X36952380Y14523810D01*
X37095238Y14428572D01*
X37190476Y14333334D01*
X37238095Y14238096D01*
X36952380Y15666667D02*
X36952380Y15476191D01*
X37000000Y15380953D01*
X37047619Y15333334D01*
X37190476Y15238096D01*
X37380952Y15190477D01*
X37761904Y15190477D01*
X37857142Y15238096D01*
X37904761Y15285715D01*
X37952380Y15380953D01*
X37952380Y15571429D01*
X37904761Y15666667D01*
X37857142Y15714286D01*
X37761904Y15761905D01*
X37523809Y15761905D01*
X37428571Y15714286D01*
X37380952Y15666667D01*
X37333333Y15571429D01*
X37333333Y15380953D01*
X37380952Y15285715D01*
X37428571Y15238096D01*
X37523809Y15190477D01*
X35452380Y13857143D02*
X34976190Y13523810D01*
X35452380Y13285715D02*
X34452380Y13285715D01*
X34452380Y13666667D01*
X34500000Y13761905D01*
X34547619Y13809524D01*
X34642857Y13857143D01*
X34785714Y13857143D01*
X34880952Y13809524D01*
X34928571Y13761905D01*
X34976190Y13666667D01*
X34976190Y13285715D01*
X35452380Y14809524D02*
X35452380Y14238096D01*
X35452380Y14523810D02*
X34452380Y14523810D01*
X34595238Y14428572D01*
X34690476Y14333334D01*
X34738095Y14238096D01*
X34452380Y15714286D02*
X34452380Y15238096D01*
X34928571Y15190477D01*
X34880952Y15238096D01*
X34833333Y15333334D01*
X34833333Y15571429D01*
X34880952Y15666667D01*
X34928571Y15714286D01*
X35023809Y15761905D01*
X35261904Y15761905D01*
X35357142Y15714286D01*
X35404761Y15666667D01*
X35452380Y15571429D01*
X35452380Y15333334D01*
X35404761Y15238096D01*
X35357142Y15190477D01*
X12202380Y13357143D02*
X11726190Y13023810D01*
X12202380Y12785715D02*
X11202380Y12785715D01*
X11202380Y13166667D01*
X11250000Y13261905D01*
X11297619Y13309524D01*
X11392857Y13357143D01*
X11535714Y13357143D01*
X11630952Y13309524D01*
X11678571Y13261905D01*
X11726190Y13166667D01*
X11726190Y12785715D01*
X12202380Y14309524D02*
X12202380Y13738096D01*
X12202380Y14023810D02*
X11202380Y14023810D01*
X11345238Y13928572D01*
X11440476Y13833334D01*
X11488095Y13738096D01*
X11535714Y15166667D02*
X12202380Y15166667D01*
X11154761Y14928572D02*
X11869047Y14690477D01*
X11869047Y15309524D01*
X8702380Y13357143D02*
X8226190Y13023810D01*
X8702380Y12785715D02*
X7702380Y12785715D01*
X7702380Y13166667D01*
X7750000Y13261905D01*
X7797619Y13309524D01*
X7892857Y13357143D01*
X8035714Y13357143D01*
X8130952Y13309524D01*
X8178571Y13261905D01*
X8226190Y13166667D01*
X8226190Y12785715D01*
X8702380Y14309524D02*
X8702380Y13738096D01*
X8702380Y14023810D02*
X7702380Y14023810D01*
X7845238Y13928572D01*
X7940476Y13833334D01*
X7988095Y13738096D01*
X7702380Y14642858D02*
X7702380Y15261905D01*
X8083333Y14928572D01*
X8083333Y15071429D01*
X8130952Y15166667D01*
X8178571Y15214286D01*
X8273809Y15261905D01*
X8511904Y15261905D01*
X8607142Y15214286D01*
X8654761Y15166667D01*
X8702380Y15071429D01*
X8702380Y14785715D01*
X8654761Y14690477D01*
X8607142Y14642858D01*
X28752380Y33357143D02*
X28276190Y33023810D01*
X28752380Y32785715D02*
X27752380Y32785715D01*
X27752380Y33166667D01*
X27800000Y33261905D01*
X27847619Y33309524D01*
X27942857Y33357143D01*
X28085714Y33357143D01*
X28180952Y33309524D01*
X28228571Y33261905D01*
X28276190Y33166667D01*
X28276190Y32785715D01*
X28752380Y34309524D02*
X28752380Y33738096D01*
X28752380Y34023810D02*
X27752380Y34023810D01*
X27895238Y33928572D01*
X27990476Y33833334D01*
X28038095Y33738096D01*
X27847619Y34690477D02*
X27800000Y34738096D01*
X27752380Y34833334D01*
X27752380Y35071429D01*
X27800000Y35166667D01*
X27847619Y35214286D01*
X27942857Y35261905D01*
X28038095Y35261905D01*
X28180952Y35214286D01*
X28752380Y34642858D01*
X28752380Y35261905D01*
X6452380Y44833334D02*
X5976190Y44500000D01*
X6452380Y44261905D02*
X5452380Y44261905D01*
X5452380Y44642858D01*
X5500000Y44738096D01*
X5547619Y44785715D01*
X5642857Y44833334D01*
X5785714Y44833334D01*
X5880952Y44785715D01*
X5928571Y44738096D01*
X5976190Y44642858D01*
X5976190Y44261905D01*
X5880952Y45404762D02*
X5833333Y45309524D01*
X5785714Y45261905D01*
X5690476Y45214286D01*
X5642857Y45214286D01*
X5547619Y45261905D01*
X5500000Y45309524D01*
X5452380Y45404762D01*
X5452380Y45595239D01*
X5500000Y45690477D01*
X5547619Y45738096D01*
X5642857Y45785715D01*
X5690476Y45785715D01*
X5785714Y45738096D01*
X5833333Y45690477D01*
X5880952Y45595239D01*
X5880952Y45404762D01*
X5928571Y45309524D01*
X5976190Y45261905D01*
X6071428Y45214286D01*
X6261904Y45214286D01*
X6357142Y45261905D01*
X6404761Y45309524D01*
X6452380Y45404762D01*
X6452380Y45595239D01*
X6404761Y45690477D01*
X6357142Y45738096D01*
X6261904Y45785715D01*
X6071428Y45785715D01*
X5976190Y45738096D01*
X5928571Y45690477D01*
X5880952Y45595239D01*
X3952380Y44833334D02*
X3476190Y44500000D01*
X3952380Y44261905D02*
X2952380Y44261905D01*
X2952380Y44642858D01*
X3000000Y44738096D01*
X3047619Y44785715D01*
X3142857Y44833334D01*
X3285714Y44833334D01*
X3380952Y44785715D01*
X3428571Y44738096D01*
X3476190Y44642858D01*
X3476190Y44261905D01*
X2952380Y45166667D02*
X2952380Y45833334D01*
X3952380Y45404762D01*
X28702380Y59083334D02*
X28226190Y58750000D01*
X28702380Y58511905D02*
X27702380Y58511905D01*
X27702380Y58892858D01*
X27750000Y58988096D01*
X27797619Y59035715D01*
X27892857Y59083334D01*
X28035714Y59083334D01*
X28130952Y59035715D01*
X28178571Y58988096D01*
X28226190Y58892858D01*
X28226190Y58511905D01*
X27702380Y59940477D02*
X27702380Y59750000D01*
X27750000Y59654762D01*
X27797619Y59607143D01*
X27940476Y59511905D01*
X28130952Y59464286D01*
X28511904Y59464286D01*
X28607142Y59511905D01*
X28654761Y59559524D01*
X28702380Y59654762D01*
X28702380Y59845239D01*
X28654761Y59940477D01*
X28607142Y59988096D01*
X28511904Y60035715D01*
X28273809Y60035715D01*
X28178571Y59988096D01*
X28130952Y59940477D01*
X28083333Y59845239D01*
X28083333Y59654762D01*
X28130952Y59559524D01*
X28178571Y59511905D01*
X28273809Y59464286D01*
X46752380Y32880953D02*
X46752380Y32404762D01*
X45752380Y32404762D01*
X46228571Y33214286D02*
X46228571Y33547620D01*
X46752380Y33690477D02*
X46752380Y33214286D01*
X45752380Y33214286D01*
X45752380Y33690477D01*
X46752380Y34119048D02*
X45752380Y34119048D01*
X45752380Y34357143D01*
X45800000Y34500000D01*
X45895238Y34595239D01*
X45990476Y34642858D01*
X46180952Y34690477D01*
X46323809Y34690477D01*
X46514285Y34642858D01*
X46609523Y34595239D01*
X46704761Y34500000D01*
X46752380Y34357143D01*
X46752380Y34119048D01*
X46085714Y35547620D02*
X46752380Y35547620D01*
X45704761Y35309524D02*
X46419047Y35071429D01*
X46419047Y35690477D01*
X47452380Y48880953D02*
X47452380Y48404762D01*
X46452380Y48404762D01*
X46928571Y49214286D02*
X46928571Y49547620D01*
X47452380Y49690477D02*
X47452380Y49214286D01*
X46452380Y49214286D01*
X46452380Y49690477D01*
X47452380Y50119048D02*
X46452380Y50119048D01*
X46452380Y50357143D01*
X46500000Y50500000D01*
X46595238Y50595239D01*
X46690476Y50642858D01*
X46880952Y50690477D01*
X47023809Y50690477D01*
X47214285Y50642858D01*
X47309523Y50595239D01*
X47404761Y50500000D01*
X47452380Y50357143D01*
X47452380Y50119048D01*
X46452380Y51023810D02*
X46452380Y51642858D01*
X46833333Y51309524D01*
X46833333Y51452381D01*
X46880952Y51547620D01*
X46928571Y51595239D01*
X47023809Y51642858D01*
X47261904Y51642858D01*
X47357142Y51595239D01*
X47404761Y51547620D01*
X47452380Y51452381D01*
X47452380Y51166667D01*
X47404761Y51071429D01*
X47357142Y51023810D01*
X48702380Y81880953D02*
X48702380Y81404762D01*
X47702380Y81404762D01*
X48178571Y82214286D02*
X48178571Y82547620D01*
X48702380Y82690477D02*
X48702380Y82214286D01*
X47702380Y82214286D01*
X47702380Y82690477D01*
X48702380Y83119048D02*
X47702380Y83119048D01*
X47702380Y83357143D01*
X47750000Y83500000D01*
X47845238Y83595239D01*
X47940476Y83642858D01*
X48130952Y83690477D01*
X48273809Y83690477D01*
X48464285Y83642858D01*
X48559523Y83595239D01*
X48654761Y83500000D01*
X48702380Y83357143D01*
X48702380Y83119048D01*
X48702380Y84642858D02*
X48702380Y84071429D01*
X48702380Y84357143D02*
X47702380Y84357143D01*
X47845238Y84261905D01*
X47940476Y84166667D01*
X47988095Y84071429D01*
X21333333Y13392858D02*
X21285714Y13345239D01*
X21142857Y13297620D01*
X21047619Y13297620D01*
X20904761Y13345239D01*
X20809523Y13440477D01*
X20761904Y13535715D01*
X20714285Y13726191D01*
X20714285Y13869048D01*
X20761904Y14059524D01*
X20809523Y14154762D01*
X20904761Y14250000D01*
X21047619Y14297620D01*
X21142857Y14297620D01*
X21285714Y14250000D01*
X21333333Y14202381D01*
X21666666Y14297620D02*
X22285714Y14297620D01*
X21952380Y13916667D01*
X22095238Y13916667D01*
X22190476Y13869048D01*
X22238095Y13821429D01*
X22285714Y13726191D01*
X22285714Y13488096D01*
X22238095Y13392858D01*
X22190476Y13345239D01*
X22095238Y13297620D01*
X21809523Y13297620D01*
X21714285Y13345239D01*
X21666666Y13392858D01*
X22083333Y28392858D02*
X22035714Y28345239D01*
X21892857Y28297620D01*
X21797619Y28297620D01*
X21654761Y28345239D01*
X21559523Y28440477D01*
X21511904Y28535715D01*
X21464285Y28726191D01*
X21464285Y28869048D01*
X21511904Y29059524D01*
X21559523Y29154762D01*
X21654761Y29250000D01*
X21797619Y29297620D01*
X21892857Y29297620D01*
X22035714Y29250000D01*
X22083333Y29202381D01*
X22464285Y29202381D02*
X22511904Y29250000D01*
X22607142Y29297620D01*
X22845238Y29297620D01*
X22940476Y29250000D01*
X22988095Y29202381D01*
X23035714Y29107143D01*
X23035714Y29011905D01*
X22988095Y28869048D01*
X22416666Y28297620D01*
X23035714Y28297620D01*
D16*
X12992857Y66888096D02*
X12992857Y68411905D01*
X13754761Y67650000D02*
X12230952Y67650000D01*
X12992857Y79588096D02*
X12992857Y81111905D01*
D10*
X39857619Y63904762D02*
X39810000Y63809524D01*
X39714761Y63714286D01*
X39571904Y63571429D01*
X39524285Y63476191D01*
X39524285Y63380953D01*
X39762380Y63428572D02*
X39714761Y63333334D01*
X39619523Y63238096D01*
X39429047Y63190477D01*
X39095714Y63190477D01*
X38905238Y63238096D01*
X38810000Y63333334D01*
X38762380Y63428572D01*
X38762380Y63619048D01*
X38810000Y63714286D01*
X38905238Y63809524D01*
X39095714Y63857143D01*
X39429047Y63857143D01*
X39619523Y63809524D01*
X39714761Y63714286D01*
X39762380Y63619048D01*
X39762380Y63428572D01*
X39762380Y64809524D02*
X39762380Y64238096D01*
X39762380Y64523810D02*
X38762380Y64523810D01*
X38905238Y64428572D01*
X39000476Y64333334D01*
X39048095Y64238096D01*
%LPC*%
D14*
G36*
X27316033Y7237209D02*
X27322439Y7229603D01*
X27341728Y7150106D01*
X27327448Y7020616D01*
X27287124Y6865166D01*
X27228286Y6707785D01*
X27158462Y6572505D01*
X27089894Y6487273D01*
X27033315Y6442625D01*
X26976279Y6414971D01*
X26899598Y6401824D01*
X26784081Y6400699D01*
X26610538Y6409110D01*
X26526162Y6414241D01*
X26319581Y6428246D01*
X26125913Y6443496D01*
X25972556Y6457733D01*
X25910167Y6465002D01*
X25740834Y6488096D01*
X25449026Y5310132D01*
X25349709Y4910634D01*
X25266738Y4583662D01*
X25196340Y4319497D01*
X25134739Y4108424D01*
X25078159Y3940726D01*
X25022827Y3806687D01*
X24964966Y3696590D01*
X24900803Y3600719D01*
X24826562Y3509358D01*
X24738468Y3412790D01*
X24693346Y3365095D01*
X24396570Y3052667D01*
X24814702Y3054841D01*
X25036387Y3059330D01*
X25265245Y3069414D01*
X25462414Y3083220D01*
X25518584Y3088788D01*
X25692257Y3100844D01*
X25784574Y3089494D01*
X25795483Y3054955D01*
X25724933Y2997443D01*
X25572870Y2917177D01*
X25560917Y2911531D01*
X25404260Y2844835D01*
X25245761Y2794448D01*
X25070288Y2758300D01*
X24862710Y2734319D01*
X24607898Y2720434D01*
X24290720Y2714572D01*
X24118084Y2714000D01*
X23374725Y2714000D01*
X23518334Y2862167D01*
X23627220Y2954030D01*
X23728190Y3005425D01*
X23758615Y3010333D01*
X23916010Y3038226D01*
X24084444Y3109761D01*
X24226695Y3206722D01*
X24281770Y3266351D01*
X24321110Y3326128D01*
X24358452Y3395359D01*
X24396351Y3482438D01*
X24437362Y3595755D01*
X24484039Y3743702D01*
X24538937Y3934671D01*
X24604610Y4177054D01*
X24683612Y4479241D01*
X24778499Y4849624D01*
X24852536Y5141316D01*
X25204561Y6531464D01*
X24562531Y6517149D01*
X24314121Y6510875D01*
X24133555Y6503125D01*
X24004015Y6491248D01*
X23908686Y6472593D01*
X23830753Y6444509D01*
X23753400Y6404345D01*
X23718469Y6384077D01*
X23501959Y6211878D01*
X23353532Y5994450D01*
X23275799Y5740241D01*
X23271369Y5457702D01*
X23340792Y5161098D01*
X23425609Y4920028D01*
X23150898Y4741047D01*
X23004501Y4648507D01*
X22908306Y4606674D01*
X22844844Y4622645D01*
X22796648Y4703515D01*
X22746248Y4856380D01*
X22729627Y4912159D01*
X22679677Y5220151D01*
X22708619Y5524248D01*
X22810814Y5815686D01*
X22980629Y6085701D01*
X23212426Y6325528D01*
X23500570Y6526401D01*
X23839425Y6679558D01*
X23873571Y6691149D01*
X24052918Y6745318D01*
X24229960Y6786248D01*
X24418045Y6814810D01*
X24630524Y6831873D01*
X24880746Y6838310D01*
X25182061Y6834991D01*
X25547818Y6822787D01*
X25754371Y6813838D01*
X26097392Y6799201D01*
X26365196Y6790337D01*
X26567040Y6787284D01*
X26712180Y6790080D01*
X26809871Y6798761D01*
X26869370Y6813365D01*
X26880237Y6818409D01*
X26955557Y6883206D01*
X27045176Y6994016D01*
X27099533Y7077141D01*
X27178636Y7204705D01*
X27231654Y7267451D01*
X27272736Y7275060D01*
X27316033Y7237209D01*
X27316033Y7237209D01*
G37*
X27316033Y7237209D02*
X27322439Y7229603D01*
X27341728Y7150106D01*
X27327448Y7020616D01*
X27287124Y6865166D01*
X27228286Y6707785D01*
X27158462Y6572505D01*
X27089894Y6487273D01*
X27033315Y6442625D01*
X26976279Y6414971D01*
X26899598Y6401824D01*
X26784081Y6400699D01*
X26610538Y6409110D01*
X26526162Y6414241D01*
X26319581Y6428246D01*
X26125913Y6443496D01*
X25972556Y6457733D01*
X25910167Y6465002D01*
X25740834Y6488096D01*
X25449026Y5310132D01*
X25349709Y4910634D01*
X25266738Y4583662D01*
X25196340Y4319497D01*
X25134739Y4108424D01*
X25078159Y3940726D01*
X25022827Y3806687D01*
X24964966Y3696590D01*
X24900803Y3600719D01*
X24826562Y3509358D01*
X24738468Y3412790D01*
X24693346Y3365095D01*
X24396570Y3052667D01*
X24814702Y3054841D01*
X25036387Y3059330D01*
X25265245Y3069414D01*
X25462414Y3083220D01*
X25518584Y3088788D01*
X25692257Y3100844D01*
X25784574Y3089494D01*
X25795483Y3054955D01*
X25724933Y2997443D01*
X25572870Y2917177D01*
X25560917Y2911531D01*
X25404260Y2844835D01*
X25245761Y2794448D01*
X25070288Y2758300D01*
X24862710Y2734319D01*
X24607898Y2720434D01*
X24290720Y2714572D01*
X24118084Y2714000D01*
X23374725Y2714000D01*
X23518334Y2862167D01*
X23627220Y2954030D01*
X23728190Y3005425D01*
X23758615Y3010333D01*
X23916010Y3038226D01*
X24084444Y3109761D01*
X24226695Y3206722D01*
X24281770Y3266351D01*
X24321110Y3326128D01*
X24358452Y3395359D01*
X24396351Y3482438D01*
X24437362Y3595755D01*
X24484039Y3743702D01*
X24538937Y3934671D01*
X24604610Y4177054D01*
X24683612Y4479241D01*
X24778499Y4849624D01*
X24852536Y5141316D01*
X25204561Y6531464D01*
X24562531Y6517149D01*
X24314121Y6510875D01*
X24133555Y6503125D01*
X24004015Y6491248D01*
X23908686Y6472593D01*
X23830753Y6444509D01*
X23753400Y6404345D01*
X23718469Y6384077D01*
X23501959Y6211878D01*
X23353532Y5994450D01*
X23275799Y5740241D01*
X23271369Y5457702D01*
X23340792Y5161098D01*
X23425609Y4920028D01*
X23150898Y4741047D01*
X23004501Y4648507D01*
X22908306Y4606674D01*
X22844844Y4622645D01*
X22796648Y4703515D01*
X22746248Y4856380D01*
X22729627Y4912159D01*
X22679677Y5220151D01*
X22708619Y5524248D01*
X22810814Y5815686D01*
X22980629Y6085701D01*
X23212426Y6325528D01*
X23500570Y6526401D01*
X23839425Y6679558D01*
X23873571Y6691149D01*
X24052918Y6745318D01*
X24229960Y6786248D01*
X24418045Y6814810D01*
X24630524Y6831873D01*
X24880746Y6838310D01*
X25182061Y6834991D01*
X25547818Y6822787D01*
X25754371Y6813838D01*
X26097392Y6799201D01*
X26365196Y6790337D01*
X26567040Y6787284D01*
X26712180Y6790080D01*
X26809871Y6798761D01*
X26869370Y6813365D01*
X26880237Y6818409D01*
X26955557Y6883206D01*
X27045176Y6994016D01*
X27099533Y7077141D01*
X27178636Y7204705D01*
X27231654Y7267451D01*
X27272736Y7275060D01*
X27316033Y7237209D01*
G36*
X8014664Y7102733D02*
X8023965Y7064900D01*
X8024334Y7037438D01*
X8032062Y7001942D01*
X8064967Y6977568D01*
X8137628Y6961155D01*
X8264625Y6949542D01*
X8460536Y6939566D01*
X8479417Y6938753D01*
X8813498Y6908221D01*
X9073760Y6845780D01*
X9266361Y6747311D01*
X9397456Y6608698D01*
X9473203Y6425825D01*
X9497338Y6258049D01*
X9476255Y5940617D01*
X9375686Y5641103D01*
X9200041Y5366017D01*
X8953727Y5121871D01*
X8641153Y4915177D01*
X8559745Y4873322D01*
X8265590Y4744500D01*
X7981311Y4648127D01*
X7728108Y4590558D01*
X7569892Y4576667D01*
X7459636Y4559955D01*
X7401186Y4499737D01*
X7393250Y4481135D01*
X7369927Y4404227D01*
X7335144Y4270669D01*
X7292837Y4097730D01*
X7246936Y3902676D01*
X7201374Y3702773D01*
X7160086Y3515290D01*
X7127002Y3357492D01*
X7106056Y3246646D01*
X7101181Y3200020D01*
X7101392Y3199719D01*
X7145991Y3197291D01*
X7258931Y3199559D01*
X7424051Y3205989D01*
X7625188Y3216051D01*
X7664500Y3218236D01*
X7873370Y3227398D01*
X8052098Y3230297D01*
X8183504Y3227011D01*
X8250407Y3217620D01*
X8253998Y3215539D01*
X8243368Y3181494D01*
X8169525Y3131120D01*
X8050365Y3072375D01*
X7903784Y3013214D01*
X7747680Y2961594D01*
X7602708Y2925991D01*
X7498726Y2914304D01*
X7324409Y2903839D01*
X7094084Y2895057D01*
X6822079Y2888417D01*
X6522723Y2884380D01*
X6274584Y2883333D01*
X5171391Y2883333D01*
X5458609Y3179667D01*
X6489774Y3179667D01*
X6620785Y3655917D01*
X6661732Y3809473D01*
X6717247Y4024455D01*
X6783958Y4287196D01*
X6858495Y4584032D01*
X6933800Y4886488D01*
X7523603Y4886488D01*
X7532268Y4856920D01*
X7660869Y4835241D01*
X7838834Y4846842D01*
X8038532Y4889787D01*
X8050249Y4893213D01*
X8306855Y5011932D01*
X8524457Y5198077D01*
X8694544Y5440090D01*
X8808606Y5726413D01*
X8854280Y5985179D01*
X8847048Y6245610D01*
X8777376Y6449517D01*
X8646299Y6595673D01*
X8454850Y6682854D01*
X8243009Y6709720D01*
X8103170Y6707783D01*
X7999457Y6697880D01*
X7960347Y6685609D01*
X7941919Y6637703D01*
X7906705Y6519917D01*
X7858098Y6344597D01*
X7799486Y6124091D01*
X7734261Y5870746D01*
X7707988Y5766603D01*
X7625566Y5429150D01*
X7567569Y5171056D01*
X7533685Y4990707D01*
X7523603Y4886488D01*
X6933800Y4886488D01*
X6937487Y4901296D01*
X7017562Y5225325D01*
X7095351Y5542451D01*
X7167482Y5839011D01*
X7230583Y6101337D01*
X7281285Y6315766D01*
X7316217Y6468632D01*
X7326719Y6517727D01*
X7355621Y6659621D01*
X7213727Y6631216D01*
X6961913Y6574645D01*
X6771727Y6514192D01*
X6620381Y6439451D01*
X6485089Y6340013D01*
X6395115Y6257354D01*
X6223305Y6058208D01*
X6110975Y5845804D01*
X6054791Y5605762D01*
X6051420Y5323703D01*
X6097529Y4985248D01*
X6098738Y4978833D01*
X6105980Y4907127D01*
X6084995Y4852686D01*
X6020809Y4797133D01*
X5898447Y4722093D01*
X5881532Y4712288D01*
X5750221Y4643632D01*
X5643377Y4600904D01*
X5587039Y4593176D01*
X5550218Y4642830D01*
X5510158Y4750071D01*
X5483722Y4854781D01*
X5454769Y5189599D01*
X5504510Y5512790D01*
X5627111Y5817564D01*
X5816738Y6097129D01*
X6067555Y6344692D01*
X6373729Y6553463D01*
X6729425Y6716649D01*
X7128809Y6827459D01*
X7187729Y6838380D01*
X7387745Y6881658D01*
X7584823Y6938278D01*
X7742442Y6997458D01*
X7768162Y7009733D01*
X7903439Y7076953D01*
X7980047Y7107351D01*
X8014664Y7102733D01*
X8014664Y7102733D01*
G37*
X8014664Y7102733D02*
X8023965Y7064900D01*
X8024334Y7037438D01*
X8032062Y7001942D01*
X8064967Y6977568D01*
X8137628Y6961155D01*
X8264625Y6949542D01*
X8460536Y6939566D01*
X8479417Y6938753D01*
X8813498Y6908221D01*
X9073760Y6845780D01*
X9266361Y6747311D01*
X9397456Y6608698D01*
X9473203Y6425825D01*
X9497338Y6258049D01*
X9476255Y5940617D01*
X9375686Y5641103D01*
X9200041Y5366017D01*
X8953727Y5121871D01*
X8641153Y4915177D01*
X8559745Y4873322D01*
X8265590Y4744500D01*
X7981311Y4648127D01*
X7728108Y4590558D01*
X7569892Y4576667D01*
X7459636Y4559955D01*
X7401186Y4499737D01*
X7393250Y4481135D01*
X7369927Y4404227D01*
X7335144Y4270669D01*
X7292837Y4097730D01*
X7246936Y3902676D01*
X7201374Y3702773D01*
X7160086Y3515290D01*
X7127002Y3357492D01*
X7106056Y3246646D01*
X7101181Y3200020D01*
X7101392Y3199719D01*
X7145991Y3197291D01*
X7258931Y3199559D01*
X7424051Y3205989D01*
X7625188Y3216051D01*
X7664500Y3218236D01*
X7873370Y3227398D01*
X8052098Y3230297D01*
X8183504Y3227011D01*
X8250407Y3217620D01*
X8253998Y3215539D01*
X8243368Y3181494D01*
X8169525Y3131120D01*
X8050365Y3072375D01*
X7903784Y3013214D01*
X7747680Y2961594D01*
X7602708Y2925991D01*
X7498726Y2914304D01*
X7324409Y2903839D01*
X7094084Y2895057D01*
X6822079Y2888417D01*
X6522723Y2884380D01*
X6274584Y2883333D01*
X5171391Y2883333D01*
X5458609Y3179667D01*
X6489774Y3179667D01*
X6620785Y3655917D01*
X6661732Y3809473D01*
X6717247Y4024455D01*
X6783958Y4287196D01*
X6858495Y4584032D01*
X6933800Y4886488D01*
X7523603Y4886488D01*
X7532268Y4856920D01*
X7660869Y4835241D01*
X7838834Y4846842D01*
X8038532Y4889787D01*
X8050249Y4893213D01*
X8306855Y5011932D01*
X8524457Y5198077D01*
X8694544Y5440090D01*
X8808606Y5726413D01*
X8854280Y5985179D01*
X8847048Y6245610D01*
X8777376Y6449517D01*
X8646299Y6595673D01*
X8454850Y6682854D01*
X8243009Y6709720D01*
X8103170Y6707783D01*
X7999457Y6697880D01*
X7960347Y6685609D01*
X7941919Y6637703D01*
X7906705Y6519917D01*
X7858098Y6344597D01*
X7799486Y6124091D01*
X7734261Y5870746D01*
X7707988Y5766603D01*
X7625566Y5429150D01*
X7567569Y5171056D01*
X7533685Y4990707D01*
X7523603Y4886488D01*
X6933800Y4886488D01*
X6937487Y4901296D01*
X7017562Y5225325D01*
X7095351Y5542451D01*
X7167482Y5839011D01*
X7230583Y6101337D01*
X7281285Y6315766D01*
X7316217Y6468632D01*
X7326719Y6517727D01*
X7355621Y6659621D01*
X7213727Y6631216D01*
X6961913Y6574645D01*
X6771727Y6514192D01*
X6620381Y6439451D01*
X6485089Y6340013D01*
X6395115Y6257354D01*
X6223305Y6058208D01*
X6110975Y5845804D01*
X6054791Y5605762D01*
X6051420Y5323703D01*
X6097529Y4985248D01*
X6098738Y4978833D01*
X6105980Y4907127D01*
X6084995Y4852686D01*
X6020809Y4797133D01*
X5898447Y4722093D01*
X5881532Y4712288D01*
X5750221Y4643632D01*
X5643377Y4600904D01*
X5587039Y4593176D01*
X5550218Y4642830D01*
X5510158Y4750071D01*
X5483722Y4854781D01*
X5454769Y5189599D01*
X5504510Y5512790D01*
X5627111Y5817564D01*
X5816738Y6097129D01*
X6067555Y6344692D01*
X6373729Y6553463D01*
X6729425Y6716649D01*
X7128809Y6827459D01*
X7187729Y6838380D01*
X7387745Y6881658D01*
X7584823Y6938278D01*
X7742442Y6997458D01*
X7768162Y7009733D01*
X7903439Y7076953D01*
X7980047Y7107351D01*
X8014664Y7102733D01*
G36*
X38934325Y97488544D02*
X39026503Y97470906D01*
X39055561Y97432617D01*
X39028547Y97369540D01*
X38952511Y97277533D01*
X38925069Y97247813D01*
X38882935Y97201505D01*
X38847366Y97155523D01*
X38815484Y97100335D01*
X38784409Y97026411D01*
X38751261Y96924218D01*
X38713160Y96784227D01*
X38667228Y96596904D01*
X38610583Y96352720D01*
X38540347Y96042142D01*
X38481310Y95779049D01*
X38413595Y95485805D01*
X38346461Y95211032D01*
X38283566Y94968514D01*
X38228566Y94772037D01*
X38185119Y94635386D01*
X38164366Y94584306D01*
X38056424Y94434668D01*
X37888865Y94275988D01*
X37682648Y94125231D01*
X37458730Y93999363D01*
X37419237Y93981137D01*
X37244353Y93925054D01*
X37025003Y93886199D01*
X36785597Y93865547D01*
X36550544Y93864070D01*
X36344252Y93882743D01*
X36191133Y93922541D01*
X36172333Y93931381D01*
X36075062Y93993249D01*
X36028830Y94067874D01*
X36011142Y94188227D01*
X36008449Y94275087D01*
X36022229Y94345396D01*
X36063289Y94417570D01*
X36076871Y94433436D01*
X36468666Y94433436D01*
X36507155Y94322116D01*
X36613345Y94236995D01*
X36773325Y94181747D01*
X36973181Y94160044D01*
X37199001Y94175559D01*
X37338955Y94203702D01*
X37541517Y94294979D01*
X37649533Y94390548D01*
X37684897Y94432604D01*
X37715481Y94477004D01*
X37744104Y94533304D01*
X37773585Y94611060D01*
X37806743Y94719827D01*
X37846397Y94869159D01*
X37895365Y95068614D01*
X37956466Y95327745D01*
X38032519Y95656110D01*
X38067041Y95805868D01*
X38071858Y95850344D01*
X38051099Y95859390D01*
X37993750Y95827851D01*
X37888798Y95750571D01*
X37798461Y95680154D01*
X37459504Y95412522D01*
X37182135Y95190474D01*
X36960452Y95008474D01*
X36788548Y94860988D01*
X36660520Y94742478D01*
X36570464Y94647411D01*
X36512476Y94570250D01*
X36480651Y94505461D01*
X36469084Y94447508D01*
X36468666Y94433436D01*
X36076871Y94433436D01*
X36142438Y94510024D01*
X36270485Y94641173D01*
X36286308Y94657038D01*
X36442041Y94809068D01*
X36604829Y94961509D01*
X36746399Y95088061D01*
X36783685Y95119694D01*
X36895988Y95216457D01*
X36952959Y95281264D01*
X36965903Y95334387D01*
X36946128Y95396096D01*
X36942435Y95404292D01*
X36900464Y95560256D01*
X36899941Y95761265D01*
X36930811Y95953148D01*
X37369525Y95953148D01*
X37383949Y95809998D01*
X37393802Y95782865D01*
X37437525Y95706841D01*
X37467979Y95680334D01*
X37511720Y95703954D01*
X37606944Y95767467D01*
X37737487Y95859851D01*
X37824954Y95923750D01*
X38154467Y96167167D01*
X38250610Y96522715D01*
X38311976Y96724961D01*
X38374370Y96868360D01*
X38449954Y96978000D01*
X38494664Y97026176D01*
X38642575Y97174087D01*
X38243537Y97144586D01*
X38003820Y97119658D01*
X37838270Y97084896D01*
X37738666Y97039579D01*
X37652931Y96940878D01*
X37568871Y96780039D01*
X37492493Y96578955D01*
X37429804Y96359518D01*
X37386812Y96143618D01*
X37369525Y95953148D01*
X36930811Y95953148D01*
X36941358Y96018700D01*
X36975276Y96161730D01*
X37057184Y96447511D01*
X37143515Y96668832D01*
X37244296Y96845718D01*
X37369555Y96998190D01*
X37418859Y97047412D01*
X37594914Y97203698D01*
X37759222Y97315661D01*
X37933469Y97391698D01*
X38139342Y97440200D01*
X38398527Y97469563D01*
X38532416Y97478432D01*
X38771979Y97489673D01*
X38934325Y97488544D01*
X38934325Y97488544D01*
G37*
X38934325Y97488544D02*
X39026503Y97470906D01*
X39055561Y97432617D01*
X39028547Y97369540D01*
X38952511Y97277533D01*
X38925069Y97247813D01*
X38882935Y97201505D01*
X38847366Y97155523D01*
X38815484Y97100335D01*
X38784409Y97026411D01*
X38751261Y96924218D01*
X38713160Y96784227D01*
X38667228Y96596904D01*
X38610583Y96352720D01*
X38540347Y96042142D01*
X38481310Y95779049D01*
X38413595Y95485805D01*
X38346461Y95211032D01*
X38283566Y94968514D01*
X38228566Y94772037D01*
X38185119Y94635386D01*
X38164366Y94584306D01*
X38056424Y94434668D01*
X37888865Y94275988D01*
X37682648Y94125231D01*
X37458730Y93999363D01*
X37419237Y93981137D01*
X37244353Y93925054D01*
X37025003Y93886199D01*
X36785597Y93865547D01*
X36550544Y93864070D01*
X36344252Y93882743D01*
X36191133Y93922541D01*
X36172333Y93931381D01*
X36075062Y93993249D01*
X36028830Y94067874D01*
X36011142Y94188227D01*
X36008449Y94275087D01*
X36022229Y94345396D01*
X36063289Y94417570D01*
X36076871Y94433436D01*
X36468666Y94433436D01*
X36507155Y94322116D01*
X36613345Y94236995D01*
X36773325Y94181747D01*
X36973181Y94160044D01*
X37199001Y94175559D01*
X37338955Y94203702D01*
X37541517Y94294979D01*
X37649533Y94390548D01*
X37684897Y94432604D01*
X37715481Y94477004D01*
X37744104Y94533304D01*
X37773585Y94611060D01*
X37806743Y94719827D01*
X37846397Y94869159D01*
X37895365Y95068614D01*
X37956466Y95327745D01*
X38032519Y95656110D01*
X38067041Y95805868D01*
X38071858Y95850344D01*
X38051099Y95859390D01*
X37993750Y95827851D01*
X37888798Y95750571D01*
X37798461Y95680154D01*
X37459504Y95412522D01*
X37182135Y95190474D01*
X36960452Y95008474D01*
X36788548Y94860988D01*
X36660520Y94742478D01*
X36570464Y94647411D01*
X36512476Y94570250D01*
X36480651Y94505461D01*
X36469084Y94447508D01*
X36468666Y94433436D01*
X36076871Y94433436D01*
X36142438Y94510024D01*
X36270485Y94641173D01*
X36286308Y94657038D01*
X36442041Y94809068D01*
X36604829Y94961509D01*
X36746399Y95088061D01*
X36783685Y95119694D01*
X36895988Y95216457D01*
X36952959Y95281264D01*
X36965903Y95334387D01*
X36946128Y95396096D01*
X36942435Y95404292D01*
X36900464Y95560256D01*
X36899941Y95761265D01*
X36930811Y95953148D01*
X37369525Y95953148D01*
X37383949Y95809998D01*
X37393802Y95782865D01*
X37437525Y95706841D01*
X37467979Y95680334D01*
X37511720Y95703954D01*
X37606944Y95767467D01*
X37737487Y95859851D01*
X37824954Y95923750D01*
X38154467Y96167167D01*
X38250610Y96522715D01*
X38311976Y96724961D01*
X38374370Y96868360D01*
X38449954Y96978000D01*
X38494664Y97026176D01*
X38642575Y97174087D01*
X38243537Y97144586D01*
X38003820Y97119658D01*
X37838270Y97084896D01*
X37738666Y97039579D01*
X37652931Y96940878D01*
X37568871Y96780039D01*
X37492493Y96578955D01*
X37429804Y96359518D01*
X37386812Y96143618D01*
X37369525Y95953148D01*
X36930811Y95953148D01*
X36941358Y96018700D01*
X36975276Y96161730D01*
X37057184Y96447511D01*
X37143515Y96668832D01*
X37244296Y96845718D01*
X37369555Y96998190D01*
X37418859Y97047412D01*
X37594914Y97203698D01*
X37759222Y97315661D01*
X37933469Y97391698D01*
X38139342Y97440200D01*
X38398527Y97469563D01*
X38532416Y97478432D01*
X38771979Y97489673D01*
X38934325Y97488544D01*
G36*
X11243610Y98411014D02*
X11399974Y98324597D01*
X11496093Y98179002D01*
X11508463Y98141575D01*
X11521541Y98029110D01*
X11480741Y97934966D01*
X11375488Y97842301D01*
X11284398Y97784748D01*
X11155784Y97708995D01*
X11128355Y97827081D01*
X11073407Y97993051D01*
X10993312Y98089463D01*
X10871914Y98130946D01*
X10787543Y98135667D01*
X10660490Y98126873D01*
X10565043Y98089317D01*
X10464168Y98006236D01*
X10432197Y97974826D01*
X10291446Y97783940D01*
X10229692Y97576226D01*
X10249690Y97361411D01*
X10302046Y97265050D01*
X10415663Y97134169D01*
X10594728Y96964187D01*
X10688291Y96881908D01*
X10847769Y96738127D01*
X10986408Y96602233D01*
X11089376Y96489494D01*
X11141841Y96415178D01*
X11141948Y96414937D01*
X11181994Y96224276D01*
X11154222Y96004776D01*
X11063967Y95770227D01*
X10916562Y95534417D01*
X10717342Y95311136D01*
X10713572Y95307560D01*
X10409215Y95073419D01*
X10066189Y94912522D01*
X9775986Y94836970D01*
X9609529Y94808288D01*
X9491643Y94797526D01*
X9387984Y94805483D01*
X9264205Y94832958D01*
X9198403Y94850388D01*
X9048763Y94905925D01*
X8903611Y94984870D01*
X8783961Y95072761D01*
X8710825Y95155135D01*
X8698000Y95194817D01*
X8714749Y95276535D01*
X8757803Y95399962D01*
X8816366Y95540768D01*
X8879644Y95674626D01*
X8936843Y95777205D01*
X8977168Y95824178D01*
X8977251Y95824210D01*
X9025304Y95800057D01*
X9078691Y95697913D01*
X9098923Y95641745D01*
X9208413Y95427707D01*
X9366620Y95270072D01*
X9559765Y95168123D01*
X9774068Y95121145D01*
X9995748Y95128422D01*
X10211025Y95189238D01*
X10406120Y95302877D01*
X10567252Y95468623D01*
X10680642Y95685760D01*
X10693239Y95724575D01*
X10723128Y95880652D01*
X10708079Y96023543D01*
X10641385Y96167118D01*
X10516341Y96325247D01*
X10326241Y96511800D01*
X10301935Y96533871D01*
X10153979Y96673460D01*
X10025091Y96806017D01*
X9931944Y96913784D01*
X9896668Y96965479D01*
X9834265Y97172576D01*
X9842656Y97396137D01*
X9912814Y97624393D01*
X10035712Y97845576D01*
X10202323Y98047920D01*
X10403619Y98219654D01*
X10630574Y98349013D01*
X10874159Y98424228D01*
X11026620Y98438490D01*
X11243610Y98411014D01*
X11243610Y98411014D01*
G37*
X11243610Y98411014D02*
X11399974Y98324597D01*
X11496093Y98179002D01*
X11508463Y98141575D01*
X11521541Y98029110D01*
X11480741Y97934966D01*
X11375488Y97842301D01*
X11284398Y97784748D01*
X11155784Y97708995D01*
X11128355Y97827081D01*
X11073407Y97993051D01*
X10993312Y98089463D01*
X10871914Y98130946D01*
X10787543Y98135667D01*
X10660490Y98126873D01*
X10565043Y98089317D01*
X10464168Y98006236D01*
X10432197Y97974826D01*
X10291446Y97783940D01*
X10229692Y97576226D01*
X10249690Y97361411D01*
X10302046Y97265050D01*
X10415663Y97134169D01*
X10594728Y96964187D01*
X10688291Y96881908D01*
X10847769Y96738127D01*
X10986408Y96602233D01*
X11089376Y96489494D01*
X11141841Y96415178D01*
X11141948Y96414937D01*
X11181994Y96224276D01*
X11154222Y96004776D01*
X11063967Y95770227D01*
X10916562Y95534417D01*
X10717342Y95311136D01*
X10713572Y95307560D01*
X10409215Y95073419D01*
X10066189Y94912522D01*
X9775986Y94836970D01*
X9609529Y94808288D01*
X9491643Y94797526D01*
X9387984Y94805483D01*
X9264205Y94832958D01*
X9198403Y94850388D01*
X9048763Y94905925D01*
X8903611Y94984870D01*
X8783961Y95072761D01*
X8710825Y95155135D01*
X8698000Y95194817D01*
X8714749Y95276535D01*
X8757803Y95399962D01*
X8816366Y95540768D01*
X8879644Y95674626D01*
X8936843Y95777205D01*
X8977168Y95824178D01*
X8977251Y95824210D01*
X9025304Y95800057D01*
X9078691Y95697913D01*
X9098923Y95641745D01*
X9208413Y95427707D01*
X9366620Y95270072D01*
X9559765Y95168123D01*
X9774068Y95121145D01*
X9995748Y95128422D01*
X10211025Y95189238D01*
X10406120Y95302877D01*
X10567252Y95468623D01*
X10680642Y95685760D01*
X10693239Y95724575D01*
X10723128Y95880652D01*
X10708079Y96023543D01*
X10641385Y96167118D01*
X10516341Y96325247D01*
X10326241Y96511800D01*
X10301935Y96533871D01*
X10153979Y96673460D01*
X10025091Y96806017D01*
X9931944Y96913784D01*
X9896668Y96965479D01*
X9834265Y97172576D01*
X9842656Y97396137D01*
X9912814Y97624393D01*
X10035712Y97845576D01*
X10202323Y98047920D01*
X10403619Y98219654D01*
X10630574Y98349013D01*
X10874159Y98424228D01*
X11026620Y98438490D01*
X11243610Y98411014D01*
G36*
X25026318Y98410157D02*
X25192125Y98288269D01*
X25252047Y98207695D01*
X25318943Y98069705D01*
X25325052Y97955710D01*
X25265419Y97845105D01*
X25135094Y97717289D01*
X25133916Y97716281D01*
X24932833Y97544308D01*
X24899373Y97681237D01*
X24827544Y97904507D01*
X24733336Y98054392D01*
X24605514Y98141439D01*
X24432844Y98176194D01*
X24370197Y98178000D01*
X24183398Y98146122D01*
X23970078Y98059087D01*
X23754079Y97929797D01*
X23559245Y97771152D01*
X23493936Y97703878D01*
X23226765Y97348700D01*
X23022980Y96945878D01*
X22879603Y96488943D01*
X22835699Y96273740D01*
X22806343Y95937346D01*
X22843486Y95648364D01*
X22946438Y95409239D01*
X23114509Y95222416D01*
X23137331Y95204876D01*
X23314163Y95124289D01*
X23539200Y95101764D01*
X23800637Y95135631D01*
X24086673Y95224224D01*
X24385503Y95365874D01*
X24421672Y95386364D01*
X24562748Y95464095D01*
X24676019Y95519783D01*
X24741677Y95543888D01*
X24748508Y95543804D01*
X24771366Y95504452D01*
X24732783Y95434023D01*
X24644267Y95344414D01*
X24517327Y95247523D01*
X24382500Y95165424D01*
X24040637Y95002246D01*
X23706645Y94885761D01*
X23393697Y94818704D01*
X23114967Y94803810D01*
X22883630Y94843814D01*
X22865069Y94850393D01*
X22639670Y94973455D01*
X22476265Y95152164D01*
X22373893Y95388133D01*
X22331594Y95682973D01*
X22330263Y95747645D01*
X22368473Y96173346D01*
X22480342Y96594548D01*
X22657780Y96999984D01*
X22892700Y97378392D01*
X23177016Y97718505D01*
X23502638Y98009059D01*
X23861480Y98238789D01*
X24228209Y98391186D01*
X24541321Y98462161D01*
X24808370Y98468303D01*
X25026318Y98410157D01*
X25026318Y98410157D01*
G37*
X25026318Y98410157D02*
X25192125Y98288269D01*
X25252047Y98207695D01*
X25318943Y98069705D01*
X25325052Y97955710D01*
X25265419Y97845105D01*
X25135094Y97717289D01*
X25133916Y97716281D01*
X24932833Y97544308D01*
X24899373Y97681237D01*
X24827544Y97904507D01*
X24733336Y98054392D01*
X24605514Y98141439D01*
X24432844Y98176194D01*
X24370197Y98178000D01*
X24183398Y98146122D01*
X23970078Y98059087D01*
X23754079Y97929797D01*
X23559245Y97771152D01*
X23493936Y97703878D01*
X23226765Y97348700D01*
X23022980Y96945878D01*
X22879603Y96488943D01*
X22835699Y96273740D01*
X22806343Y95937346D01*
X22843486Y95648364D01*
X22946438Y95409239D01*
X23114509Y95222416D01*
X23137331Y95204876D01*
X23314163Y95124289D01*
X23539200Y95101764D01*
X23800637Y95135631D01*
X24086673Y95224224D01*
X24385503Y95365874D01*
X24421672Y95386364D01*
X24562748Y95464095D01*
X24676019Y95519783D01*
X24741677Y95543888D01*
X24748508Y95543804D01*
X24771366Y95504452D01*
X24732783Y95434023D01*
X24644267Y95344414D01*
X24517327Y95247523D01*
X24382500Y95165424D01*
X24040637Y95002246D01*
X23706645Y94885761D01*
X23393697Y94818704D01*
X23114967Y94803810D01*
X22883630Y94843814D01*
X22865069Y94850393D01*
X22639670Y94973455D01*
X22476265Y95152164D01*
X22373893Y95388133D01*
X22331594Y95682973D01*
X22330263Y95747645D01*
X22368473Y96173346D01*
X22480342Y96594548D01*
X22657780Y96999984D01*
X22892700Y97378392D01*
X23177016Y97718505D01*
X23502638Y98009059D01*
X23861480Y98238789D01*
X24228209Y98391186D01*
X24541321Y98462161D01*
X24808370Y98468303D01*
X25026318Y98410157D01*
G36*
X13283231Y97478867D02*
X13454756Y97414190D01*
X13589748Y97305206D01*
X13631698Y97243061D01*
X13683395Y97063602D01*
X13687499Y96836473D01*
X13649499Y96579964D01*
X13574886Y96312364D01*
X13469148Y96051963D01*
X13337777Y95817050D01*
X13186260Y95625914D01*
X13130638Y95573729D01*
X12931246Y95428515D01*
X12699894Y95299621D01*
X12465146Y95200601D01*
X12255566Y95145009D01*
X12216695Y95140050D01*
X12081210Y95134523D01*
X11987800Y95158748D01*
X11895721Y95224899D01*
X11876798Y95241612D01*
X11767464Y95373554D01*
X11707358Y95537651D01*
X11692605Y95749833D01*
X11705964Y95918873D01*
X12146315Y95918873D01*
X12175665Y95715248D01*
X12246172Y95559652D01*
X12350415Y95459539D01*
X12480972Y95422361D01*
X12630424Y95455571D01*
X12774561Y95551457D01*
X12906838Y95706554D01*
X13028975Y95919729D01*
X13129381Y96164411D01*
X13196463Y96414022D01*
X13216597Y96564735D01*
X13217963Y96798870D01*
X13182158Y96969268D01*
X13104793Y97090252D01*
X13039364Y97143287D01*
X12904710Y97186712D01*
X12760490Y97156200D01*
X12614638Y97060649D01*
X12475088Y96908959D01*
X12349773Y96710030D01*
X12246628Y96472762D01*
X12173586Y96206056D01*
X12165543Y96163076D01*
X12146315Y95918873D01*
X11705964Y95918873D01*
X11707453Y95937712D01*
X11790911Y96329686D01*
X11940668Y96669038D01*
X12156901Y96956024D01*
X12439785Y97190902D01*
X12649475Y97310842D01*
X12816399Y97386787D01*
X12975580Y97448311D01*
X13095461Y97483351D01*
X13105670Y97485197D01*
X13283231Y97478867D01*
X13283231Y97478867D01*
G37*
X13283231Y97478867D02*
X13454756Y97414190D01*
X13589748Y97305206D01*
X13631698Y97243061D01*
X13683395Y97063602D01*
X13687499Y96836473D01*
X13649499Y96579964D01*
X13574886Y96312364D01*
X13469148Y96051963D01*
X13337777Y95817050D01*
X13186260Y95625914D01*
X13130638Y95573729D01*
X12931246Y95428515D01*
X12699894Y95299621D01*
X12465146Y95200601D01*
X12255566Y95145009D01*
X12216695Y95140050D01*
X12081210Y95134523D01*
X11987800Y95158748D01*
X11895721Y95224899D01*
X11876798Y95241612D01*
X11767464Y95373554D01*
X11707358Y95537651D01*
X11692605Y95749833D01*
X11705964Y95918873D01*
X12146315Y95918873D01*
X12175665Y95715248D01*
X12246172Y95559652D01*
X12350415Y95459539D01*
X12480972Y95422361D01*
X12630424Y95455571D01*
X12774561Y95551457D01*
X12906838Y95706554D01*
X13028975Y95919729D01*
X13129381Y96164411D01*
X13196463Y96414022D01*
X13216597Y96564735D01*
X13217963Y96798870D01*
X13182158Y96969268D01*
X13104793Y97090252D01*
X13039364Y97143287D01*
X12904710Y97186712D01*
X12760490Y97156200D01*
X12614638Y97060649D01*
X12475088Y96908959D01*
X12349773Y96710030D01*
X12246628Y96472762D01*
X12173586Y96206056D01*
X12165543Y96163076D01*
X12146315Y95918873D01*
X11705964Y95918873D01*
X11707453Y95937712D01*
X11790911Y96329686D01*
X11940668Y96669038D01*
X12156901Y96956024D01*
X12439785Y97190902D01*
X12649475Y97310842D01*
X12816399Y97386787D01*
X12975580Y97448311D01*
X13095461Y97483351D01*
X13105670Y97485197D01*
X13283231Y97478867D01*
G36*
X15695413Y98935046D02*
X15783877Y98922204D01*
X15808279Y98908250D01*
X15781928Y98859253D01*
X15717730Y98773712D01*
X15686379Y98736042D01*
X15601292Y98647941D01*
X15528201Y98614594D01*
X15431112Y98621006D01*
X15416613Y98623646D01*
X15296162Y98639073D01*
X15200343Y98628265D01*
X15121835Y98581685D01*
X15053316Y98489797D01*
X14987464Y98343064D01*
X14916957Y98131950D01*
X14842633Y97876041D01*
X14770577Y97610061D01*
X14696174Y97318886D01*
X14622546Y97016482D01*
X14552814Y96716813D01*
X14490102Y96433847D01*
X14437531Y96181548D01*
X14398223Y95973883D01*
X14375302Y95824817D01*
X14370666Y95764925D01*
X14379872Y95660688D01*
X14414382Y95607295D01*
X14484533Y95604747D01*
X14600662Y95653046D01*
X14773108Y95752196D01*
X14794000Y95765000D01*
X14951707Y95860017D01*
X15051477Y95912799D01*
X15106239Y95927438D01*
X15128923Y95908026D01*
X15132666Y95872169D01*
X15098777Y95816458D01*
X15007452Y95728688D01*
X14874206Y95619773D01*
X14714554Y95500627D01*
X14544012Y95382164D01*
X14378094Y95275299D01*
X14232316Y95190944D01*
X14122191Y95140014D01*
X14077621Y95130000D01*
X13999401Y95158842D01*
X13934085Y95254780D01*
X13919020Y95288741D01*
X13899924Y95338619D01*
X13887834Y95389569D01*
X13884327Y95452057D01*
X13890979Y95536551D01*
X13909366Y95653514D01*
X13941065Y95813414D01*
X13987653Y96026717D01*
X14050706Y96303887D01*
X14111909Y96569325D01*
X14208228Y96984232D01*
X14289000Y97325413D01*
X14357161Y97601765D01*
X14415649Y97822186D01*
X14467399Y97995574D01*
X14515350Y98130825D01*
X14562438Y98236839D01*
X14611599Y98322511D01*
X14665772Y98396741D01*
X14727893Y98468426D01*
X14744828Y98486798D01*
X14959261Y98695677D01*
X15155139Y98835247D01*
X15347591Y98913874D01*
X15551748Y98939926D01*
X15564288Y98940000D01*
X15695413Y98935046D01*
X15695413Y98935046D01*
G37*
X15695413Y98935046D02*
X15783877Y98922204D01*
X15808279Y98908250D01*
X15781928Y98859253D01*
X15717730Y98773712D01*
X15686379Y98736042D01*
X15601292Y98647941D01*
X15528201Y98614594D01*
X15431112Y98621006D01*
X15416613Y98623646D01*
X15296162Y98639073D01*
X15200343Y98628265D01*
X15121835Y98581685D01*
X15053316Y98489797D01*
X14987464Y98343064D01*
X14916957Y98131950D01*
X14842633Y97876041D01*
X14770577Y97610061D01*
X14696174Y97318886D01*
X14622546Y97016482D01*
X14552814Y96716813D01*
X14490102Y96433847D01*
X14437531Y96181548D01*
X14398223Y95973883D01*
X14375302Y95824817D01*
X14370666Y95764925D01*
X14379872Y95660688D01*
X14414382Y95607295D01*
X14484533Y95604747D01*
X14600662Y95653046D01*
X14773108Y95752196D01*
X14794000Y95765000D01*
X14951707Y95860017D01*
X15051477Y95912799D01*
X15106239Y95927438D01*
X15128923Y95908026D01*
X15132666Y95872169D01*
X15098777Y95816458D01*
X15007452Y95728688D01*
X14874206Y95619773D01*
X14714554Y95500627D01*
X14544012Y95382164D01*
X14378094Y95275299D01*
X14232316Y95190944D01*
X14122191Y95140014D01*
X14077621Y95130000D01*
X13999401Y95158842D01*
X13934085Y95254780D01*
X13919020Y95288741D01*
X13899924Y95338619D01*
X13887834Y95389569D01*
X13884327Y95452057D01*
X13890979Y95536551D01*
X13909366Y95653514D01*
X13941065Y95813414D01*
X13987653Y96026717D01*
X14050706Y96303887D01*
X14111909Y96569325D01*
X14208228Y96984232D01*
X14289000Y97325413D01*
X14357161Y97601765D01*
X14415649Y97822186D01*
X14467399Y97995574D01*
X14515350Y98130825D01*
X14562438Y98236839D01*
X14611599Y98322511D01*
X14665772Y98396741D01*
X14727893Y98468426D01*
X14744828Y98486798D01*
X14959261Y98695677D01*
X15155139Y98835247D01*
X15347591Y98913874D01*
X15551748Y98939926D01*
X15564288Y98940000D01*
X15695413Y98935046D01*
G36*
X18137631Y98938653D02*
X18180336Y98916326D01*
X18180666Y98913247D01*
X18160312Y98863491D01*
X18109522Y98772023D01*
X18089750Y98739389D01*
X18022786Y98645346D01*
X17958800Y98609581D01*
X17863730Y98614242D01*
X17853942Y98615797D01*
X17673317Y98616620D01*
X17531513Y98547537D01*
X17419238Y98411758D01*
X17376986Y98317917D01*
X17322468Y98158368D01*
X17258637Y97945520D01*
X17188442Y97691787D01*
X17114836Y97409579D01*
X17040771Y97111308D01*
X16969198Y96809386D01*
X16903068Y96516223D01*
X16845334Y96244232D01*
X16798946Y96005823D01*
X16766856Y95813409D01*
X16752016Y95679400D01*
X16755366Y95620157D01*
X16779955Y95577626D01*
X16823028Y95576361D01*
X16911187Y95616549D01*
X16920489Y95621307D01*
X17042059Y95689992D01*
X17184263Y95778878D01*
X17235794Y95813287D01*
X17356649Y95893270D01*
X17424234Y95926058D01*
X17453885Y95914072D01*
X17460942Y95859728D01*
X17461000Y95848795D01*
X17436507Y95784400D01*
X17358982Y95701095D01*
X17222353Y95594003D01*
X17020546Y95458249D01*
X16813893Y95329274D01*
X16607802Y95211568D01*
X16459324Y95149347D01*
X16360803Y95144170D01*
X16304580Y95197596D01*
X16282998Y95311184D01*
X16284947Y95436943D01*
X16289311Y95554091D01*
X16287084Y95626573D01*
X16283252Y95638027D01*
X16244780Y95615372D01*
X16155364Y95555461D01*
X16032893Y95470336D01*
X16008085Y95452817D01*
X15781065Y95298482D01*
X15607868Y95197075D01*
X15479187Y95145105D01*
X15385714Y95139084D01*
X15318142Y95175522D01*
X15305405Y95189398D01*
X15226813Y95348065D01*
X15200074Y95568981D01*
X15222227Y95818052D01*
X15640666Y95818052D01*
X15646678Y95670162D01*
X15671901Y95583306D01*
X15727115Y95555201D01*
X15823099Y95583566D01*
X15970633Y95666118D01*
X16068020Y95727593D01*
X16198485Y95811698D01*
X16297442Y95875978D01*
X16346745Y95908635D01*
X16349010Y95910298D01*
X16361439Y95952309D01*
X16388733Y96061734D01*
X16427227Y96223371D01*
X16473256Y96422019D01*
X16488189Y96487456D01*
X16617525Y97056167D01*
X16522261Y97133742D01*
X16393750Y97187979D01*
X16244853Y97171399D01*
X16096411Y97087137D01*
X16072498Y97066099D01*
X15947810Y96908360D01*
X15834587Y96688721D01*
X15740679Y96429871D01*
X15673936Y96154498D01*
X15642211Y95885292D01*
X15640666Y95818052D01*
X15222227Y95818052D01*
X15224866Y95847714D01*
X15300865Y96179835D01*
X15399528Y96484350D01*
X15481292Y96690511D01*
X15562921Y96842556D01*
X15661462Y96969277D01*
X15725910Y97035562D01*
X15897080Y97181344D01*
X16088448Y97310820D01*
X16279707Y97413077D01*
X16450549Y97477197D01*
X16576455Y97492747D01*
X16642007Y97489462D01*
X16686849Y97506326D01*
X16722355Y97559199D01*
X16759893Y97663940D01*
X16802663Y97808250D01*
X16863131Y97988195D01*
X16933775Y98156778D01*
X17000341Y98280381D01*
X17006800Y98289785D01*
X17140521Y98444677D01*
X17320432Y98609767D01*
X17516069Y98759298D01*
X17680305Y98859231D01*
X17786955Y98898928D01*
X17915611Y98927220D01*
X18040946Y98941372D01*
X18137631Y98938653D01*
X18137631Y98938653D01*
G37*
X18137631Y98938653D02*
X18180336Y98916326D01*
X18180666Y98913247D01*
X18160312Y98863491D01*
X18109522Y98772023D01*
X18089750Y98739389D01*
X18022786Y98645346D01*
X17958800Y98609581D01*
X17863730Y98614242D01*
X17853942Y98615797D01*
X17673317Y98616620D01*
X17531513Y98547537D01*
X17419238Y98411758D01*
X17376986Y98317917D01*
X17322468Y98158368D01*
X17258637Y97945520D01*
X17188442Y97691787D01*
X17114836Y97409579D01*
X17040771Y97111308D01*
X16969198Y96809386D01*
X16903068Y96516223D01*
X16845334Y96244232D01*
X16798946Y96005823D01*
X16766856Y95813409D01*
X16752016Y95679400D01*
X16755366Y95620157D01*
X16779955Y95577626D01*
X16823028Y95576361D01*
X16911187Y95616549D01*
X16920489Y95621307D01*
X17042059Y95689992D01*
X17184263Y95778878D01*
X17235794Y95813287D01*
X17356649Y95893270D01*
X17424234Y95926058D01*
X17453885Y95914072D01*
X17460942Y95859728D01*
X17461000Y95848795D01*
X17436507Y95784400D01*
X17358982Y95701095D01*
X17222353Y95594003D01*
X17020546Y95458249D01*
X16813893Y95329274D01*
X16607802Y95211568D01*
X16459324Y95149347D01*
X16360803Y95144170D01*
X16304580Y95197596D01*
X16282998Y95311184D01*
X16284947Y95436943D01*
X16289311Y95554091D01*
X16287084Y95626573D01*
X16283252Y95638027D01*
X16244780Y95615372D01*
X16155364Y95555461D01*
X16032893Y95470336D01*
X16008085Y95452817D01*
X15781065Y95298482D01*
X15607868Y95197075D01*
X15479187Y95145105D01*
X15385714Y95139084D01*
X15318142Y95175522D01*
X15305405Y95189398D01*
X15226813Y95348065D01*
X15200074Y95568981D01*
X15222227Y95818052D01*
X15640666Y95818052D01*
X15646678Y95670162D01*
X15671901Y95583306D01*
X15727115Y95555201D01*
X15823099Y95583566D01*
X15970633Y95666118D01*
X16068020Y95727593D01*
X16198485Y95811698D01*
X16297442Y95875978D01*
X16346745Y95908635D01*
X16349010Y95910298D01*
X16361439Y95952309D01*
X16388733Y96061734D01*
X16427227Y96223371D01*
X16473256Y96422019D01*
X16488189Y96487456D01*
X16617525Y97056167D01*
X16522261Y97133742D01*
X16393750Y97187979D01*
X16244853Y97171399D01*
X16096411Y97087137D01*
X16072498Y97066099D01*
X15947810Y96908360D01*
X15834587Y96688721D01*
X15740679Y96429871D01*
X15673936Y96154498D01*
X15642211Y95885292D01*
X15640666Y95818052D01*
X15222227Y95818052D01*
X15224866Y95847714D01*
X15300865Y96179835D01*
X15399528Y96484350D01*
X15481292Y96690511D01*
X15562921Y96842556D01*
X15661462Y96969277D01*
X15725910Y97035562D01*
X15897080Y97181344D01*
X16088448Y97310820D01*
X16279707Y97413077D01*
X16450549Y97477197D01*
X16576455Y97492747D01*
X16642007Y97489462D01*
X16686849Y97506326D01*
X16722355Y97559199D01*
X16759893Y97663940D01*
X16802663Y97808250D01*
X16863131Y97988195D01*
X16933775Y98156778D01*
X17000341Y98280381D01*
X17006800Y98289785D01*
X17140521Y98444677D01*
X17320432Y98609767D01*
X17516069Y98759298D01*
X17680305Y98859231D01*
X17786955Y98898928D01*
X17915611Y98927220D01*
X18040946Y98941372D01*
X18137631Y98938653D01*
G36*
X19068012Y97419973D02*
X19153575Y97303685D01*
X19181018Y97146239D01*
X19143152Y96959372D01*
X19113706Y96890360D01*
X19023293Y96758493D01*
X18873282Y96600970D01*
X18679158Y96431258D01*
X18456408Y96262826D01*
X18220518Y96109143D01*
X18204606Y96099694D01*
X18105594Y96030167D01*
X18062688Y95955139D01*
X18053666Y95843561D01*
X18082481Y95697005D01*
X18156881Y95570652D01*
X18258804Y95488305D01*
X18337492Y95469597D01*
X18463299Y95498159D01*
X18630104Y95574330D01*
X18817475Y95687456D01*
X18973171Y95801141D01*
X19088285Y95890095D01*
X19175948Y95953246D01*
X19216587Y95976667D01*
X19233669Y95940453D01*
X19239000Y95874479D01*
X19216364Y95799708D01*
X19141966Y95707791D01*
X19006065Y95587293D01*
X18968939Y95557397D01*
X18670527Y95346138D01*
X18397864Y95206716D01*
X18154322Y95140246D01*
X17943269Y95147844D01*
X17842000Y95184130D01*
X17706773Y95297509D01*
X17626280Y95473955D01*
X17601350Y95711247D01*
X17606551Y95816147D01*
X17643093Y96065408D01*
X17683583Y96232101D01*
X18062988Y96232101D01*
X18253262Y96368745D01*
X18396379Y96482775D01*
X18537397Y96612471D01*
X18587267Y96664483D01*
X18682709Y96788743D01*
X18724583Y96904175D01*
X18731000Y96994118D01*
X18710876Y97131339D01*
X18649056Y97195339D01*
X18543365Y97187771D01*
X18499462Y97170294D01*
X18425606Y97104315D01*
X18338799Y96978683D01*
X18250298Y96814877D01*
X18171355Y96634376D01*
X18113226Y96458661D01*
X18101789Y96411301D01*
X18062988Y96232101D01*
X17683583Y96232101D01*
X17707753Y96331604D01*
X17791979Y96587930D01*
X17887217Y96807587D01*
X17964307Y96937138D01*
X18081436Y97066111D01*
X18242840Y97202175D01*
X18423646Y97328103D01*
X18598985Y97426674D01*
X18743983Y97480662D01*
X18751279Y97482127D01*
X18931518Y97483366D01*
X19068012Y97419973D01*
X19068012Y97419973D01*
G37*
X19068012Y97419973D02*
X19153575Y97303685D01*
X19181018Y97146239D01*
X19143152Y96959372D01*
X19113706Y96890360D01*
X19023293Y96758493D01*
X18873282Y96600970D01*
X18679158Y96431258D01*
X18456408Y96262826D01*
X18220518Y96109143D01*
X18204606Y96099694D01*
X18105594Y96030167D01*
X18062688Y95955139D01*
X18053666Y95843561D01*
X18082481Y95697005D01*
X18156881Y95570652D01*
X18258804Y95488305D01*
X18337492Y95469597D01*
X18463299Y95498159D01*
X18630104Y95574330D01*
X18817475Y95687456D01*
X18973171Y95801141D01*
X19088285Y95890095D01*
X19175948Y95953246D01*
X19216587Y95976667D01*
X19233669Y95940453D01*
X19239000Y95874479D01*
X19216364Y95799708D01*
X19141966Y95707791D01*
X19006065Y95587293D01*
X18968939Y95557397D01*
X18670527Y95346138D01*
X18397864Y95206716D01*
X18154322Y95140246D01*
X17943269Y95147844D01*
X17842000Y95184130D01*
X17706773Y95297509D01*
X17626280Y95473955D01*
X17601350Y95711247D01*
X17606551Y95816147D01*
X17643093Y96065408D01*
X17683583Y96232101D01*
X18062988Y96232101D01*
X18253262Y96368745D01*
X18396379Y96482775D01*
X18537397Y96612471D01*
X18587267Y96664483D01*
X18682709Y96788743D01*
X18724583Y96904175D01*
X18731000Y96994118D01*
X18710876Y97131339D01*
X18649056Y97195339D01*
X18543365Y97187771D01*
X18499462Y97170294D01*
X18425606Y97104315D01*
X18338799Y96978683D01*
X18250298Y96814877D01*
X18171355Y96634376D01*
X18113226Y96458661D01*
X18101789Y96411301D01*
X18062988Y96232101D01*
X17683583Y96232101D01*
X17707753Y96331604D01*
X17791979Y96587930D01*
X17887217Y96807587D01*
X17964307Y96937138D01*
X18081436Y97066111D01*
X18242840Y97202175D01*
X18423646Y97328103D01*
X18598985Y97426674D01*
X18743983Y97480662D01*
X18751279Y97482127D01*
X18931518Y97483366D01*
X19068012Y97419973D01*
G36*
X21131514Y97480665D02*
X21228921Y97448946D01*
X21260748Y97407461D01*
X21259537Y97402835D01*
X21236598Y97336447D01*
X21197578Y97219958D01*
X21167930Y97130250D01*
X21123735Y97008370D01*
X21086558Y96927644D01*
X21069847Y96908000D01*
X21022717Y96933269D01*
X20967544Y96977946D01*
X20853592Y97029840D01*
X20704800Y97032712D01*
X20550052Y96993282D01*
X20418232Y96918274D01*
X20346758Y96833479D01*
X20324051Y96769293D01*
X20285095Y96638240D01*
X20234176Y96455592D01*
X20175579Y96236620D01*
X20130090Y96061334D01*
X20068860Y95828457D01*
X20012038Y95623706D01*
X19963855Y95461464D01*
X19928540Y95356112D01*
X19912915Y95322946D01*
X19845486Y95276960D01*
X19743770Y95231290D01*
X19634002Y95194439D01*
X19542415Y95174907D01*
X19495242Y95181196D01*
X19493430Y95187008D01*
X19504172Y95241534D01*
X19533815Y95364172D01*
X19578908Y95541373D01*
X19636000Y95759588D01*
X19701641Y96005265D01*
X19705097Y96018067D01*
X19771463Y96268788D01*
X19829281Y96496695D01*
X19875040Y96687160D01*
X19905227Y96825554D01*
X19916329Y96897249D01*
X19916333Y96897813D01*
X19891809Y96989225D01*
X19816445Y97017162D01*
X19687551Y96982098D01*
X19620001Y96950335D01*
X19498812Y96892682D01*
X19437352Y96879927D01*
X19422202Y96914339D01*
X19435491Y96981542D01*
X19481267Y97036958D01*
X19584610Y97113735D01*
X19727102Y97202166D01*
X19890322Y97292546D01*
X20055851Y97375166D01*
X20205269Y97440322D01*
X20320157Y97478304D01*
X20381275Y97479948D01*
X20414771Y97412113D01*
X20410493Y97304785D01*
X20400513Y97209641D01*
X20406329Y97162967D01*
X20408652Y97162000D01*
X20452923Y97185008D01*
X20536826Y97242284D01*
X20564741Y97262836D01*
X20771873Y97399955D01*
X20944849Y97472458D01*
X21097334Y97485595D01*
X21131514Y97480665D01*
X21131514Y97480665D01*
G37*
X21131514Y97480665D02*
X21228921Y97448946D01*
X21260748Y97407461D01*
X21259537Y97402835D01*
X21236598Y97336447D01*
X21197578Y97219958D01*
X21167930Y97130250D01*
X21123735Y97008370D01*
X21086558Y96927644D01*
X21069847Y96908000D01*
X21022717Y96933269D01*
X20967544Y96977946D01*
X20853592Y97029840D01*
X20704800Y97032712D01*
X20550052Y96993282D01*
X20418232Y96918274D01*
X20346758Y96833479D01*
X20324051Y96769293D01*
X20285095Y96638240D01*
X20234176Y96455592D01*
X20175579Y96236620D01*
X20130090Y96061334D01*
X20068860Y95828457D01*
X20012038Y95623706D01*
X19963855Y95461464D01*
X19928540Y95356112D01*
X19912915Y95322946D01*
X19845486Y95276960D01*
X19743770Y95231290D01*
X19634002Y95194439D01*
X19542415Y95174907D01*
X19495242Y95181196D01*
X19493430Y95187008D01*
X19504172Y95241534D01*
X19533815Y95364172D01*
X19578908Y95541373D01*
X19636000Y95759588D01*
X19701641Y96005265D01*
X19705097Y96018067D01*
X19771463Y96268788D01*
X19829281Y96496695D01*
X19875040Y96687160D01*
X19905227Y96825554D01*
X19916329Y96897249D01*
X19916333Y96897813D01*
X19891809Y96989225D01*
X19816445Y97017162D01*
X19687551Y96982098D01*
X19620001Y96950335D01*
X19498812Y96892682D01*
X19437352Y96879927D01*
X19422202Y96914339D01*
X19435491Y96981542D01*
X19481267Y97036958D01*
X19584610Y97113735D01*
X19727102Y97202166D01*
X19890322Y97292546D01*
X20055851Y97375166D01*
X20205269Y97440322D01*
X20320157Y97478304D01*
X20381275Y97479948D01*
X20414771Y97412113D01*
X20410493Y97304785D01*
X20400513Y97209641D01*
X20406329Y97162967D01*
X20408652Y97162000D01*
X20452923Y97185008D01*
X20536826Y97242284D01*
X20564741Y97262836D01*
X20771873Y97399955D01*
X20944849Y97472458D01*
X21097334Y97485595D01*
X21131514Y97480665D01*
G36*
X27112729Y98935520D02*
X27204970Y98923801D01*
X27232944Y98908250D01*
X27202577Y98856235D01*
X27142607Y98762398D01*
X27113000Y98717513D01*
X27041876Y98619961D01*
X26979436Y98578383D01*
X26890446Y98576366D01*
X26827792Y98584655D01*
X26632603Y98595588D01*
X26491717Y98557346D01*
X26386233Y98463293D01*
X26356028Y98418971D01*
X26321582Y98341820D01*
X26273864Y98206199D01*
X26217288Y98027996D01*
X26156268Y97823100D01*
X26095218Y97607399D01*
X26038550Y97396782D01*
X25990679Y97207139D01*
X25956018Y97054356D01*
X25938980Y96954325D01*
X25940569Y96923320D01*
X25982014Y96936364D01*
X26080553Y96986091D01*
X26221333Y97064553D01*
X26385359Y97161299D01*
X26627967Y97304559D01*
X26810959Y97403748D01*
X26944463Y97462795D01*
X27038606Y97485635D01*
X27103517Y97476197D01*
X27136567Y97452910D01*
X27155301Y97420867D01*
X27160738Y97366414D01*
X27150922Y97277868D01*
X27123895Y97143551D01*
X27077700Y96951783D01*
X27010378Y96690884D01*
X27006185Y96674911D01*
X26920935Y96338465D01*
X26861961Y96075941D01*
X26828517Y95881021D01*
X26819857Y95747390D01*
X26835233Y95668729D01*
X26873900Y95638723D01*
X26883626Y95638000D01*
X26952145Y95658439D01*
X27067651Y95712045D01*
X27205246Y95787253D01*
X27206413Y95787936D01*
X27334934Y95859765D01*
X27432150Y95907544D01*
X27478243Y95921597D01*
X27479029Y95921082D01*
X27479029Y95873568D01*
X27459858Y95807083D01*
X27413565Y95753537D01*
X27311127Y95668514D01*
X27169443Y95563349D01*
X27005414Y95449378D01*
X26835939Y95337937D01*
X26677917Y95240362D01*
X26548249Y95167990D01*
X26463832Y95132154D01*
X26450779Y95130212D01*
X26395611Y95164083D01*
X26376695Y95196963D01*
X26352491Y95348671D01*
X26367849Y95572139D01*
X26422517Y95864407D01*
X26438990Y95934334D01*
X26521574Y96279795D01*
X26583053Y96550285D01*
X26624677Y96752496D01*
X26647696Y96893119D01*
X26653357Y96978846D01*
X26642912Y97016368D01*
X26641247Y97017595D01*
X26589897Y97008347D01*
X26486735Y96964371D01*
X26351406Y96896349D01*
X26203555Y96814965D01*
X26062828Y96730904D01*
X25948869Y96654849D01*
X25895439Y96611997D01*
X25854959Y96541415D01*
X25802476Y96399311D01*
X25741811Y96197338D01*
X25676783Y95947149D01*
X25674665Y95938447D01*
X25617272Y95704065D01*
X25573605Y95537916D01*
X25537413Y95425953D01*
X25502445Y95354133D01*
X25462450Y95308410D01*
X25411177Y95274741D01*
X25369598Y95253054D01*
X25256372Y95202073D01*
X25168491Y95174140D01*
X25152594Y95172334D01*
X25147092Y95211511D01*
X25159992Y95321668D01*
X25188772Y95491749D01*
X25230906Y95710694D01*
X25283870Y95967446D01*
X25345139Y96250945D01*
X25412191Y96550133D01*
X25482499Y96853953D01*
X25553541Y97151345D01*
X25622791Y97431252D01*
X25687725Y97682614D01*
X25745820Y97894374D01*
X25794549Y98055474D01*
X25831391Y98154854D01*
X25835226Y98162762D01*
X25947172Y98327315D01*
X26116521Y98507667D01*
X26323539Y98684707D01*
X26507665Y98814066D01*
X26640834Y98888487D01*
X26764124Y98926631D01*
X26918329Y98939454D01*
X26976649Y98940000D01*
X27112729Y98935520D01*
X27112729Y98935520D01*
G37*
X27112729Y98935520D02*
X27204970Y98923801D01*
X27232944Y98908250D01*
X27202577Y98856235D01*
X27142607Y98762398D01*
X27113000Y98717513D01*
X27041876Y98619961D01*
X26979436Y98578383D01*
X26890446Y98576366D01*
X26827792Y98584655D01*
X26632603Y98595588D01*
X26491717Y98557346D01*
X26386233Y98463293D01*
X26356028Y98418971D01*
X26321582Y98341820D01*
X26273864Y98206199D01*
X26217288Y98027996D01*
X26156268Y97823100D01*
X26095218Y97607399D01*
X26038550Y97396782D01*
X25990679Y97207139D01*
X25956018Y97054356D01*
X25938980Y96954325D01*
X25940569Y96923320D01*
X25982014Y96936364D01*
X26080553Y96986091D01*
X26221333Y97064553D01*
X26385359Y97161299D01*
X26627967Y97304559D01*
X26810959Y97403748D01*
X26944463Y97462795D01*
X27038606Y97485635D01*
X27103517Y97476197D01*
X27136567Y97452910D01*
X27155301Y97420867D01*
X27160738Y97366414D01*
X27150922Y97277868D01*
X27123895Y97143551D01*
X27077700Y96951783D01*
X27010378Y96690884D01*
X27006185Y96674911D01*
X26920935Y96338465D01*
X26861961Y96075941D01*
X26828517Y95881021D01*
X26819857Y95747390D01*
X26835233Y95668729D01*
X26873900Y95638723D01*
X26883626Y95638000D01*
X26952145Y95658439D01*
X27067651Y95712045D01*
X27205246Y95787253D01*
X27206413Y95787936D01*
X27334934Y95859765D01*
X27432150Y95907544D01*
X27478243Y95921597D01*
X27479029Y95921082D01*
X27479029Y95873568D01*
X27459858Y95807083D01*
X27413565Y95753537D01*
X27311127Y95668514D01*
X27169443Y95563349D01*
X27005414Y95449378D01*
X26835939Y95337937D01*
X26677917Y95240362D01*
X26548249Y95167990D01*
X26463832Y95132154D01*
X26450779Y95130212D01*
X26395611Y95164083D01*
X26376695Y95196963D01*
X26352491Y95348671D01*
X26367849Y95572139D01*
X26422517Y95864407D01*
X26438990Y95934334D01*
X26521574Y96279795D01*
X26583053Y96550285D01*
X26624677Y96752496D01*
X26647696Y96893119D01*
X26653357Y96978846D01*
X26642912Y97016368D01*
X26641247Y97017595D01*
X26589897Y97008347D01*
X26486735Y96964371D01*
X26351406Y96896349D01*
X26203555Y96814965D01*
X26062828Y96730904D01*
X25948869Y96654849D01*
X25895439Y96611997D01*
X25854959Y96541415D01*
X25802476Y96399311D01*
X25741811Y96197338D01*
X25676783Y95947149D01*
X25674665Y95938447D01*
X25617272Y95704065D01*
X25573605Y95537916D01*
X25537413Y95425953D01*
X25502445Y95354133D01*
X25462450Y95308410D01*
X25411177Y95274741D01*
X25369598Y95253054D01*
X25256372Y95202073D01*
X25168491Y95174140D01*
X25152594Y95172334D01*
X25147092Y95211511D01*
X25159992Y95321668D01*
X25188772Y95491749D01*
X25230906Y95710694D01*
X25283870Y95967446D01*
X25345139Y96250945D01*
X25412191Y96550133D01*
X25482499Y96853953D01*
X25553541Y97151345D01*
X25622791Y97431252D01*
X25687725Y97682614D01*
X25745820Y97894374D01*
X25794549Y98055474D01*
X25831391Y98154854D01*
X25835226Y98162762D01*
X25947172Y98327315D01*
X26116521Y98507667D01*
X26323539Y98684707D01*
X26507665Y98814066D01*
X26640834Y98888487D01*
X26764124Y98926631D01*
X26918329Y98939454D01*
X26976649Y98940000D01*
X27112729Y98935520D01*
G36*
X29077788Y97474078D02*
X29270104Y97468003D01*
X29439288Y97456085D01*
X29561630Y97440318D01*
X29602483Y97429923D01*
X29700134Y97391189D01*
X29613542Y97281105D01*
X29563492Y97189585D01*
X29508329Y97042917D01*
X29451161Y96855748D01*
X29395092Y96642725D01*
X29343229Y96418495D01*
X29298677Y96197706D01*
X29264542Y95995003D01*
X29243929Y95825035D01*
X29239944Y95702448D01*
X29255693Y95641889D01*
X29265147Y95638000D01*
X29323287Y95659473D01*
X29428044Y95715499D01*
X29544311Y95786167D01*
X29666995Y95862258D01*
X29760325Y95915717D01*
X29802077Y95934334D01*
X29817348Y95898956D01*
X29814694Y95839084D01*
X29780700Y95775999D01*
X29689517Y95687790D01*
X29535078Y95569276D01*
X29343688Y95436917D01*
X29111422Y95285504D01*
X28938922Y95186240D01*
X28819157Y95139251D01*
X28745094Y95144663D01*
X28709702Y95202602D01*
X28705948Y95313192D01*
X28722281Y95448032D01*
X28739242Y95570321D01*
X28746877Y95651403D01*
X28745818Y95669250D01*
X28709785Y95651385D01*
X28622188Y95594981D01*
X28500057Y95511130D01*
X28464639Y95486124D01*
X28218235Y95318891D01*
X28025200Y95206896D01*
X27877354Y95147240D01*
X27766513Y95137023D01*
X27684498Y95173348D01*
X27657933Y95200257D01*
X27626655Y95274988D01*
X27608543Y95412999D01*
X27602507Y95623681D01*
X27602661Y95676507D01*
X27608607Y95857506D01*
X28044761Y95857506D01*
X28047854Y95718453D01*
X28065638Y95633877D01*
X28072555Y95623889D01*
X28136775Y95596996D01*
X28236450Y95617925D01*
X28381137Y95690055D01*
X28538019Y95788416D01*
X28829070Y95981165D01*
X28961501Y96539833D01*
X29008794Y96746504D01*
X29045982Y96923014D01*
X29069941Y97053396D01*
X29077546Y97121684D01*
X29076465Y97127288D01*
X29028098Y97148000D01*
X28921971Y97170922D01*
X28826844Y97185081D01*
X28665935Y97196396D01*
X28556160Y97179033D01*
X28492631Y97147215D01*
X28401558Y97052461D01*
X28305213Y96892220D01*
X28212443Y96684482D01*
X28132101Y96447241D01*
X28111671Y96372723D01*
X28077865Y96207522D01*
X28055163Y96028156D01*
X28044761Y95857506D01*
X27608607Y95857506D01*
X27610442Y95913360D01*
X27634218Y96105844D01*
X27680333Y96293702D01*
X27721514Y96421167D01*
X27820255Y96680736D01*
X27923292Y96878733D01*
X28046886Y97037402D01*
X28207297Y97178988D01*
X28348212Y97278528D01*
X28650743Y97479500D01*
X29077788Y97474078D01*
X29077788Y97474078D01*
G37*
X29077788Y97474078D02*
X29270104Y97468003D01*
X29439288Y97456085D01*
X29561630Y97440318D01*
X29602483Y97429923D01*
X29700134Y97391189D01*
X29613542Y97281105D01*
X29563492Y97189585D01*
X29508329Y97042917D01*
X29451161Y96855748D01*
X29395092Y96642725D01*
X29343229Y96418495D01*
X29298677Y96197706D01*
X29264542Y95995003D01*
X29243929Y95825035D01*
X29239944Y95702448D01*
X29255693Y95641889D01*
X29265147Y95638000D01*
X29323287Y95659473D01*
X29428044Y95715499D01*
X29544311Y95786167D01*
X29666995Y95862258D01*
X29760325Y95915717D01*
X29802077Y95934334D01*
X29817348Y95898956D01*
X29814694Y95839084D01*
X29780700Y95775999D01*
X29689517Y95687790D01*
X29535078Y95569276D01*
X29343688Y95436917D01*
X29111422Y95285504D01*
X28938922Y95186240D01*
X28819157Y95139251D01*
X28745094Y95144663D01*
X28709702Y95202602D01*
X28705948Y95313192D01*
X28722281Y95448032D01*
X28739242Y95570321D01*
X28746877Y95651403D01*
X28745818Y95669250D01*
X28709785Y95651385D01*
X28622188Y95594981D01*
X28500057Y95511130D01*
X28464639Y95486124D01*
X28218235Y95318891D01*
X28025200Y95206896D01*
X27877354Y95147240D01*
X27766513Y95137023D01*
X27684498Y95173348D01*
X27657933Y95200257D01*
X27626655Y95274988D01*
X27608543Y95412999D01*
X27602507Y95623681D01*
X27602661Y95676507D01*
X27608607Y95857506D01*
X28044761Y95857506D01*
X28047854Y95718453D01*
X28065638Y95633877D01*
X28072555Y95623889D01*
X28136775Y95596996D01*
X28236450Y95617925D01*
X28381137Y95690055D01*
X28538019Y95788416D01*
X28829070Y95981165D01*
X28961501Y96539833D01*
X29008794Y96746504D01*
X29045982Y96923014D01*
X29069941Y97053396D01*
X29077546Y97121684D01*
X29076465Y97127288D01*
X29028098Y97148000D01*
X28921971Y97170922D01*
X28826844Y97185081D01*
X28665935Y97196396D01*
X28556160Y97179033D01*
X28492631Y97147215D01*
X28401558Y97052461D01*
X28305213Y96892220D01*
X28212443Y96684482D01*
X28132101Y96447241D01*
X28111671Y96372723D01*
X28077865Y96207522D01*
X28055163Y96028156D01*
X28044761Y95857506D01*
X27608607Y95857506D01*
X27610442Y95913360D01*
X27634218Y96105844D01*
X27680333Y96293702D01*
X27721514Y96421167D01*
X27820255Y96680736D01*
X27923292Y96878733D01*
X28046886Y97037402D01*
X28207297Y97178988D01*
X28348212Y97278528D01*
X28650743Y97479500D01*
X29077788Y97474078D01*
G36*
X31584248Y98931474D02*
X31818413Y98918834D01*
X31698789Y98760925D01*
X31619151Y98664826D01*
X31551826Y98623203D01*
X31461920Y98620249D01*
X31404091Y98627423D01*
X31303148Y98637089D01*
X31218240Y98630191D01*
X31145304Y98599021D01*
X31080272Y98535870D01*
X31019079Y98433030D01*
X30957661Y98282791D01*
X30891951Y98077447D01*
X30817884Y97809287D01*
X30731394Y97470604D01*
X30675871Y97246667D01*
X30573023Y96824957D01*
X30491226Y96478796D01*
X30429243Y96202052D01*
X30385836Y95988592D01*
X30359770Y95832285D01*
X30349807Y95726999D01*
X30354711Y95666601D01*
X30356254Y95662042D01*
X30416379Y95604290D01*
X30515655Y95607553D01*
X30606663Y95652590D01*
X30690961Y95706310D01*
X30814366Y95780867D01*
X30891250Y95825946D01*
X31006047Y95890129D01*
X31066101Y95913200D01*
X31088982Y95898082D01*
X31092333Y95859373D01*
X31058768Y95803979D01*
X30968522Y95715939D01*
X30837270Y95606577D01*
X30680683Y95487217D01*
X30514435Y95369184D01*
X30354201Y95263801D01*
X30215652Y95182392D01*
X30114464Y95136281D01*
X30082814Y95130000D01*
X29992526Y95169786D01*
X29929253Y95254898D01*
X29883585Y95366828D01*
X29864666Y95459972D01*
X29874104Y95522207D01*
X29900426Y95653793D01*
X29940646Y95841775D01*
X29991777Y96073201D01*
X30050835Y96335119D01*
X30114831Y96614577D01*
X30180781Y96898621D01*
X30245698Y97174299D01*
X30306595Y97428660D01*
X30360486Y97648749D01*
X30404386Y97821615D01*
X30434527Y97931687D01*
X30570729Y98263580D01*
X30763463Y98533550D01*
X30888933Y98651588D01*
X31080318Y98795569D01*
X31242056Y98883837D01*
X31398251Y98926093D01*
X31573006Y98932040D01*
X31584248Y98931474D01*
X31584248Y98931474D01*
G37*
X31584248Y98931474D02*
X31818413Y98918834D01*
X31698789Y98760925D01*
X31619151Y98664826D01*
X31551826Y98623203D01*
X31461920Y98620249D01*
X31404091Y98627423D01*
X31303148Y98637089D01*
X31218240Y98630191D01*
X31145304Y98599021D01*
X31080272Y98535870D01*
X31019079Y98433030D01*
X30957661Y98282791D01*
X30891951Y98077447D01*
X30817884Y97809287D01*
X30731394Y97470604D01*
X30675871Y97246667D01*
X30573023Y96824957D01*
X30491226Y96478796D01*
X30429243Y96202052D01*
X30385836Y95988592D01*
X30359770Y95832285D01*
X30349807Y95726999D01*
X30354711Y95666601D01*
X30356254Y95662042D01*
X30416379Y95604290D01*
X30515655Y95607553D01*
X30606663Y95652590D01*
X30690961Y95706310D01*
X30814366Y95780867D01*
X30891250Y95825946D01*
X31006047Y95890129D01*
X31066101Y95913200D01*
X31088982Y95898082D01*
X31092333Y95859373D01*
X31058768Y95803979D01*
X30968522Y95715939D01*
X30837270Y95606577D01*
X30680683Y95487217D01*
X30514435Y95369184D01*
X30354201Y95263801D01*
X30215652Y95182392D01*
X30114464Y95136281D01*
X30082814Y95130000D01*
X29992526Y95169786D01*
X29929253Y95254898D01*
X29883585Y95366828D01*
X29864666Y95459972D01*
X29874104Y95522207D01*
X29900426Y95653793D01*
X29940646Y95841775D01*
X29991777Y96073201D01*
X30050835Y96335119D01*
X30114831Y96614577D01*
X30180781Y96898621D01*
X30245698Y97174299D01*
X30306595Y97428660D01*
X30360486Y97648749D01*
X30404386Y97821615D01*
X30434527Y97931687D01*
X30570729Y98263580D01*
X30763463Y98533550D01*
X30888933Y98651588D01*
X31080318Y98795569D01*
X31242056Y98883837D01*
X31398251Y98926093D01*
X31573006Y98932040D01*
X31584248Y98931474D01*
G36*
X33093038Y98937822D02*
X33124333Y98916572D01*
X33100249Y98872152D01*
X33039590Y98787795D01*
X33007916Y98747201D01*
X32929868Y98658340D01*
X32860915Y98620404D01*
X32763795Y98619033D01*
X32696406Y98627122D01*
X32609120Y98635940D01*
X32534709Y98632510D01*
X32469892Y98609721D01*
X32411385Y98560459D01*
X32355905Y98477611D01*
X32300170Y98354063D01*
X32240896Y98182704D01*
X32174802Y97956420D01*
X32098605Y97668098D01*
X32009021Y97310625D01*
X31918609Y96941812D01*
X31825717Y96550140D01*
X31757097Y96233957D01*
X31712077Y95987845D01*
X31689986Y95806386D01*
X31690152Y95684160D01*
X31711902Y95615748D01*
X31751682Y95595667D01*
X31817786Y95616324D01*
X31933444Y95671116D01*
X32076431Y95749278D01*
X32112915Y95770657D01*
X32281696Y95865325D01*
X32388728Y95910511D01*
X32440067Y95907431D01*
X32441775Y95857302D01*
X32434234Y95835127D01*
X32388080Y95782524D01*
X32285751Y95697646D01*
X32143747Y95591653D01*
X31978568Y95475707D01*
X31806716Y95360967D01*
X31644689Y95258595D01*
X31508990Y95179751D01*
X31416118Y95135597D01*
X31391738Y95130000D01*
X31304312Y95169352D01*
X31231516Y95279126D01*
X31200642Y95350678D01*
X31185372Y95417807D01*
X31186578Y95500707D01*
X31205131Y95619574D01*
X31241904Y95794601D01*
X31256648Y95861210D01*
X31338922Y96224786D01*
X31423987Y96588904D01*
X31509016Y96942405D01*
X31591180Y97274134D01*
X31667650Y97572935D01*
X31735600Y97827651D01*
X31792199Y98027127D01*
X31834620Y98160206D01*
X31848547Y98195947D01*
X31945164Y98355069D01*
X32092063Y98529401D01*
X32264915Y98694136D01*
X32439390Y98824468D01*
X32498230Y98858354D01*
X32596638Y98893557D01*
X32729088Y98921316D01*
X32871815Y98939419D01*
X33001054Y98945657D01*
X33093038Y98937822D01*
X33093038Y98937822D01*
G37*
X33093038Y98937822D02*
X33124333Y98916572D01*
X33100249Y98872152D01*
X33039590Y98787795D01*
X33007916Y98747201D01*
X32929868Y98658340D01*
X32860915Y98620404D01*
X32763795Y98619033D01*
X32696406Y98627122D01*
X32609120Y98635940D01*
X32534709Y98632510D01*
X32469892Y98609721D01*
X32411385Y98560459D01*
X32355905Y98477611D01*
X32300170Y98354063D01*
X32240896Y98182704D01*
X32174802Y97956420D01*
X32098605Y97668098D01*
X32009021Y97310625D01*
X31918609Y96941812D01*
X31825717Y96550140D01*
X31757097Y96233957D01*
X31712077Y95987845D01*
X31689986Y95806386D01*
X31690152Y95684160D01*
X31711902Y95615748D01*
X31751682Y95595667D01*
X31817786Y95616324D01*
X31933444Y95671116D01*
X32076431Y95749278D01*
X32112915Y95770657D01*
X32281696Y95865325D01*
X32388728Y95910511D01*
X32440067Y95907431D01*
X32441775Y95857302D01*
X32434234Y95835127D01*
X32388080Y95782524D01*
X32285751Y95697646D01*
X32143747Y95591653D01*
X31978568Y95475707D01*
X31806716Y95360967D01*
X31644689Y95258595D01*
X31508990Y95179751D01*
X31416118Y95135597D01*
X31391738Y95130000D01*
X31304312Y95169352D01*
X31231516Y95279126D01*
X31200642Y95350678D01*
X31185372Y95417807D01*
X31186578Y95500707D01*
X31205131Y95619574D01*
X31241904Y95794601D01*
X31256648Y95861210D01*
X31338922Y96224786D01*
X31423987Y96588904D01*
X31509016Y96942405D01*
X31591180Y97274134D01*
X31667650Y97572935D01*
X31735600Y97827651D01*
X31792199Y98027127D01*
X31834620Y98160206D01*
X31848547Y98195947D01*
X31945164Y98355069D01*
X32092063Y98529401D01*
X32264915Y98694136D01*
X32439390Y98824468D01*
X32498230Y98858354D01*
X32596638Y98893557D01*
X32729088Y98921316D01*
X32871815Y98939419D01*
X33001054Y98945657D01*
X33093038Y98937822D01*
G36*
X33969437Y97420367D02*
X34054750Y97304196D01*
X34081977Y97146585D01*
X34044101Y96959098D01*
X34013509Y96887199D01*
X33954196Y96784911D01*
X33871591Y96685126D01*
X33751576Y96573884D01*
X33580030Y96437226D01*
X33489359Y96368997D01*
X33322160Y96246035D01*
X33176631Y96141743D01*
X33067714Y96066641D01*
X33010347Y96031248D01*
X33008578Y96030502D01*
X32973085Y95977372D01*
X32955594Y95869670D01*
X32955000Y95843214D01*
X32984297Y95695398D01*
X33060074Y95568616D01*
X33164159Y95486657D01*
X33241097Y95468667D01*
X33345988Y95492798D01*
X33493441Y95556721D01*
X33659593Y95647737D01*
X33820577Y95753142D01*
X33917163Y95828475D01*
X34033248Y95924474D01*
X34100250Y95966035D01*
X34131450Y95955988D01*
X34140127Y95897162D01*
X34140333Y95876019D01*
X34112135Y95792363D01*
X34022620Y95685802D01*
X33896916Y95573766D01*
X33619367Y95371619D01*
X33351516Y95230003D01*
X33102659Y95152189D01*
X32882093Y95141444D01*
X32756384Y95172740D01*
X32667169Y95234595D01*
X32587051Y95327089D01*
X32533169Y95472470D01*
X32514276Y95674753D01*
X32527146Y95915292D01*
X32568552Y96175439D01*
X32583029Y96232101D01*
X32964321Y96232101D01*
X33154595Y96368745D01*
X33297712Y96482775D01*
X33438730Y96612471D01*
X33488601Y96664483D01*
X33584043Y96788743D01*
X33625916Y96904175D01*
X33632333Y96994118D01*
X33612209Y97131339D01*
X33550389Y97195339D01*
X33444699Y97187771D01*
X33400796Y97170294D01*
X33326939Y97104315D01*
X33240133Y96978683D01*
X33151631Y96814877D01*
X33072689Y96634376D01*
X33014559Y96458661D01*
X33003122Y96411301D01*
X32964321Y96232101D01*
X32583029Y96232101D01*
X32635267Y96436545D01*
X32724064Y96679962D01*
X32831717Y96887044D01*
X32865640Y96937138D01*
X32982769Y97066111D01*
X33144173Y97202175D01*
X33324980Y97328103D01*
X33500318Y97426674D01*
X33645316Y97480662D01*
X33652612Y97482127D01*
X33833052Y97483532D01*
X33969437Y97420367D01*
X33969437Y97420367D01*
G37*
X33969437Y97420367D02*
X34054750Y97304196D01*
X34081977Y97146585D01*
X34044101Y96959098D01*
X34013509Y96887199D01*
X33954196Y96784911D01*
X33871591Y96685126D01*
X33751576Y96573884D01*
X33580030Y96437226D01*
X33489359Y96368997D01*
X33322160Y96246035D01*
X33176631Y96141743D01*
X33067714Y96066641D01*
X33010347Y96031248D01*
X33008578Y96030502D01*
X32973085Y95977372D01*
X32955594Y95869670D01*
X32955000Y95843214D01*
X32984297Y95695398D01*
X33060074Y95568616D01*
X33164159Y95486657D01*
X33241097Y95468667D01*
X33345988Y95492798D01*
X33493441Y95556721D01*
X33659593Y95647737D01*
X33820577Y95753142D01*
X33917163Y95828475D01*
X34033248Y95924474D01*
X34100250Y95966035D01*
X34131450Y95955988D01*
X34140127Y95897162D01*
X34140333Y95876019D01*
X34112135Y95792363D01*
X34022620Y95685802D01*
X33896916Y95573766D01*
X33619367Y95371619D01*
X33351516Y95230003D01*
X33102659Y95152189D01*
X32882093Y95141444D01*
X32756384Y95172740D01*
X32667169Y95234595D01*
X32587051Y95327089D01*
X32533169Y95472470D01*
X32514276Y95674753D01*
X32527146Y95915292D01*
X32568552Y96175439D01*
X32583029Y96232101D01*
X32964321Y96232101D01*
X33154595Y96368745D01*
X33297712Y96482775D01*
X33438730Y96612471D01*
X33488601Y96664483D01*
X33584043Y96788743D01*
X33625916Y96904175D01*
X33632333Y96994118D01*
X33612209Y97131339D01*
X33550389Y97195339D01*
X33444699Y97187771D01*
X33400796Y97170294D01*
X33326939Y97104315D01*
X33240133Y96978683D01*
X33151631Y96814877D01*
X33072689Y96634376D01*
X33014559Y96458661D01*
X33003122Y96411301D01*
X32964321Y96232101D01*
X32583029Y96232101D01*
X32635267Y96436545D01*
X32724064Y96679962D01*
X32831717Y96887044D01*
X32865640Y96937138D01*
X32982769Y97066111D01*
X33144173Y97202175D01*
X33324980Y97328103D01*
X33500318Y97426674D01*
X33645316Y97480662D01*
X33652612Y97482127D01*
X33833052Y97483532D01*
X33969437Y97420367D01*
G36*
X36379982Y97491180D02*
X36415206Y97456117D01*
X36427605Y97385572D01*
X36416620Y97269641D01*
X36381693Y97098419D01*
X36322264Y96862003D01*
X36276969Y96693378D01*
X36189693Y96363541D01*
X36128006Y96106498D01*
X36090866Y95914672D01*
X36077234Y95780487D01*
X36086069Y95696368D01*
X36116330Y95654737D01*
X36133453Y95648436D01*
X36201524Y95661376D01*
X36317605Y95708501D01*
X36457451Y95779864D01*
X36467513Y95785515D01*
X36599880Y95856541D01*
X36701285Y95903856D01*
X36751944Y95918339D01*
X36753674Y95917437D01*
X36762252Y95853785D01*
X36692953Y95758482D01*
X36546236Y95632003D01*
X36330757Y95480225D01*
X36105095Y95333586D01*
X35937862Y95231585D01*
X35818775Y95169390D01*
X35737552Y95142167D01*
X35683913Y95145084D01*
X35656453Y95163280D01*
X35621249Y95241263D01*
X35614755Y95379596D01*
X35637480Y95583036D01*
X35689928Y95856337D01*
X35763263Y96167167D01*
X35834242Y96455673D01*
X35884018Y96672441D01*
X35914101Y96827296D01*
X35926002Y96930063D01*
X35921234Y96990567D01*
X35901308Y97018632D01*
X35894697Y97021547D01*
X35841856Y97006716D01*
X35735808Y96954586D01*
X35594137Y96874302D01*
X35494811Y96813574D01*
X35139729Y96590500D01*
X34983028Y95963359D01*
X34927800Y95745270D01*
X34878991Y95558044D01*
X34840508Y95416249D01*
X34816262Y95334453D01*
X34810546Y95320436D01*
X34765772Y95296114D01*
X34668473Y95251141D01*
X34594549Y95218832D01*
X34476355Y95171632D01*
X34416012Y95160086D01*
X34395465Y95182341D01*
X34394333Y95198310D01*
X34405112Y95260664D01*
X34434770Y95388308D01*
X34479292Y95565020D01*
X34534660Y95774577D01*
X34561034Y95871587D01*
X34659205Y96239733D01*
X34733655Y96541086D01*
X34783713Y96772463D01*
X34808709Y96930684D01*
X34807973Y97012563D01*
X34803259Y97021186D01*
X34753113Y97020665D01*
X34651576Y96991799D01*
X34564663Y96958738D01*
X34442728Y96909754D01*
X34379438Y96893360D01*
X34355595Y96908842D01*
X34352000Y96950813D01*
X34387228Y97018367D01*
X34495405Y97107969D01*
X34650095Y97205363D01*
X34895235Y97344328D01*
X35077196Y97434921D01*
X35202732Y97476492D01*
X35278599Y97468391D01*
X35311552Y97409967D01*
X35308348Y97300571D01*
X35277059Y97145036D01*
X35212089Y96873499D01*
X35554628Y97090377D01*
X35806677Y97245585D01*
X36020060Y97368143D01*
X36185889Y97453302D01*
X36295275Y97496313D01*
X36322491Y97500667D01*
X36379982Y97491180D01*
X36379982Y97491180D01*
G37*
X36379982Y97491180D02*
X36415206Y97456117D01*
X36427605Y97385572D01*
X36416620Y97269641D01*
X36381693Y97098419D01*
X36322264Y96862003D01*
X36276969Y96693378D01*
X36189693Y96363541D01*
X36128006Y96106498D01*
X36090866Y95914672D01*
X36077234Y95780487D01*
X36086069Y95696368D01*
X36116330Y95654737D01*
X36133453Y95648436D01*
X36201524Y95661376D01*
X36317605Y95708501D01*
X36457451Y95779864D01*
X36467513Y95785515D01*
X36599880Y95856541D01*
X36701285Y95903856D01*
X36751944Y95918339D01*
X36753674Y95917437D01*
X36762252Y95853785D01*
X36692953Y95758482D01*
X36546236Y95632003D01*
X36330757Y95480225D01*
X36105095Y95333586D01*
X35937862Y95231585D01*
X35818775Y95169390D01*
X35737552Y95142167D01*
X35683913Y95145084D01*
X35656453Y95163280D01*
X35621249Y95241263D01*
X35614755Y95379596D01*
X35637480Y95583036D01*
X35689928Y95856337D01*
X35763263Y96167167D01*
X35834242Y96455673D01*
X35884018Y96672441D01*
X35914101Y96827296D01*
X35926002Y96930063D01*
X35921234Y96990567D01*
X35901308Y97018632D01*
X35894697Y97021547D01*
X35841856Y97006716D01*
X35735808Y96954586D01*
X35594137Y96874302D01*
X35494811Y96813574D01*
X35139729Y96590500D01*
X34983028Y95963359D01*
X34927800Y95745270D01*
X34878991Y95558044D01*
X34840508Y95416249D01*
X34816262Y95334453D01*
X34810546Y95320436D01*
X34765772Y95296114D01*
X34668473Y95251141D01*
X34594549Y95218832D01*
X34476355Y95171632D01*
X34416012Y95160086D01*
X34395465Y95182341D01*
X34394333Y95198310D01*
X34405112Y95260664D01*
X34434770Y95388308D01*
X34479292Y95565020D01*
X34534660Y95774577D01*
X34561034Y95871587D01*
X34659205Y96239733D01*
X34733655Y96541086D01*
X34783713Y96772463D01*
X34808709Y96930684D01*
X34807973Y97012563D01*
X34803259Y97021186D01*
X34753113Y97020665D01*
X34651576Y96991799D01*
X34564663Y96958738D01*
X34442728Y96909754D01*
X34379438Y96893360D01*
X34355595Y96908842D01*
X34352000Y96950813D01*
X34387228Y97018367D01*
X34495405Y97107969D01*
X34650095Y97205363D01*
X34895235Y97344328D01*
X35077196Y97434921D01*
X35202732Y97476492D01*
X35278599Y97468391D01*
X35311552Y97409967D01*
X35308348Y97300571D01*
X35277059Y97145036D01*
X35212089Y96873499D01*
X35554628Y97090377D01*
X35806677Y97245585D01*
X36020060Y97368143D01*
X36185889Y97453302D01*
X36295275Y97496313D01*
X36322491Y97500667D01*
X36379982Y97491180D01*
G36*
X40438353Y97474610D02*
X40548124Y97412928D01*
X40627800Y97326195D01*
X40657741Y97213118D01*
X40659666Y97156826D01*
X40639793Y96997936D01*
X40575383Y96845524D01*
X40459248Y96691269D01*
X40284201Y96526850D01*
X40043055Y96343945D01*
X39836983Y96204326D01*
X39668735Y96087509D01*
X39566758Y95992951D01*
X39522649Y95903011D01*
X39528005Y95800046D01*
X39574422Y95666415D01*
X39577377Y95659314D01*
X39652617Y95539707D01*
X39756808Y95486731D01*
X39900151Y95498449D01*
X40075486Y95564754D01*
X40245070Y95656132D01*
X40419549Y95769139D01*
X40490333Y95822263D01*
X40597381Y95906293D01*
X40655997Y95941272D01*
X40683070Y95932016D01*
X40695491Y95883340D01*
X40695887Y95880863D01*
X40685193Y95809345D01*
X40624955Y95720996D01*
X40505254Y95601835D01*
X40484697Y95583253D01*
X40252855Y95403325D01*
X40011905Y95265870D01*
X39776256Y95175751D01*
X39560315Y95137833D01*
X39378489Y95156976D01*
X39309659Y95186636D01*
X39198094Y95281266D01*
X39129674Y95418854D01*
X39098390Y95614439D01*
X39094833Y95724356D01*
X39128359Y96096541D01*
X39189241Y96332690D01*
X39563331Y96332690D01*
X39569889Y96277097D01*
X39580018Y96273000D01*
X39624659Y96297064D01*
X39717112Y96360635D01*
X39838718Y96450783D01*
X39858868Y96466221D01*
X40064137Y96648097D01*
X40189103Y96818042D01*
X40236412Y96981099D01*
X40210637Y97137371D01*
X40151202Y97194001D01*
X40055621Y97196463D01*
X39950649Y97147267D01*
X39907492Y97108959D01*
X39839630Y97016617D01*
X39766595Y96885530D01*
X39695416Y96733646D01*
X39633126Y96578912D01*
X39586754Y96439278D01*
X39563331Y96332690D01*
X39189241Y96332690D01*
X39229143Y96487458D01*
X39311021Y96700949D01*
X39416259Y96879519D01*
X39570709Y97059138D01*
X39756059Y97225417D01*
X39954002Y97363969D01*
X40146228Y97460405D01*
X40314427Y97500335D01*
X40328656Y97500667D01*
X40438353Y97474610D01*
X40438353Y97474610D01*
G37*
X40438353Y97474610D02*
X40548124Y97412928D01*
X40627800Y97326195D01*
X40657741Y97213118D01*
X40659666Y97156826D01*
X40639793Y96997936D01*
X40575383Y96845524D01*
X40459248Y96691269D01*
X40284201Y96526850D01*
X40043055Y96343945D01*
X39836983Y96204326D01*
X39668735Y96087509D01*
X39566758Y95992951D01*
X39522649Y95903011D01*
X39528005Y95800046D01*
X39574422Y95666415D01*
X39577377Y95659314D01*
X39652617Y95539707D01*
X39756808Y95486731D01*
X39900151Y95498449D01*
X40075486Y95564754D01*
X40245070Y95656132D01*
X40419549Y95769139D01*
X40490333Y95822263D01*
X40597381Y95906293D01*
X40655997Y95941272D01*
X40683070Y95932016D01*
X40695491Y95883340D01*
X40695887Y95880863D01*
X40685193Y95809345D01*
X40624955Y95720996D01*
X40505254Y95601835D01*
X40484697Y95583253D01*
X40252855Y95403325D01*
X40011905Y95265870D01*
X39776256Y95175751D01*
X39560315Y95137833D01*
X39378489Y95156976D01*
X39309659Y95186636D01*
X39198094Y95281266D01*
X39129674Y95418854D01*
X39098390Y95614439D01*
X39094833Y95724356D01*
X39128359Y96096541D01*
X39189241Y96332690D01*
X39563331Y96332690D01*
X39569889Y96277097D01*
X39580018Y96273000D01*
X39624659Y96297064D01*
X39717112Y96360635D01*
X39838718Y96450783D01*
X39858868Y96466221D01*
X40064137Y96648097D01*
X40189103Y96818042D01*
X40236412Y96981099D01*
X40210637Y97137371D01*
X40151202Y97194001D01*
X40055621Y97196463D01*
X39950649Y97147267D01*
X39907492Y97108959D01*
X39839630Y97016617D01*
X39766595Y96885530D01*
X39695416Y96733646D01*
X39633126Y96578912D01*
X39586754Y96439278D01*
X39563331Y96332690D01*
X39189241Y96332690D01*
X39229143Y96487458D01*
X39311021Y96700949D01*
X39416259Y96879519D01*
X39570709Y97059138D01*
X39756059Y97225417D01*
X39954002Y97363969D01*
X40146228Y97460405D01*
X40314427Y97500335D01*
X40328656Y97500667D01*
X40438353Y97474610D01*
D17*
X15540000Y67650000D02*
G75*
G03X15540000Y67650000I-2540000J0D01*
G01*
X17064000Y80350000D02*
G75*
G03X17064000Y80350000I-4064000J0D01*
G01*
D18*
X31830000Y18650000D03*
X31830000Y18000000D03*
X31830000Y17350000D03*
X29670000Y17350000D03*
X29670000Y18000000D03*
X29670000Y18650000D03*
D19*
X37075000Y51300000D03*
X38025000Y48700000D03*
X36125000Y48700000D03*
D20*
X44250000Y17025000D03*
X44250000Y18975000D03*
D21*
X9750000Y35750000D03*
X9750000Y31750000D03*
X4250000Y31750000D03*
X4250000Y35750000D03*
X30000000Y52000000D03*
X30000000Y48000000D03*
D22*
X39000000Y72500000D03*
D23*
X48000000Y72500000D03*
D22*
X39000000Y76500000D03*
D23*
X48000000Y76500000D03*
D22*
X35380000Y72500000D03*
D23*
X26380000Y72500000D03*
D22*
X35380000Y76500000D03*
D23*
X26380000Y76500000D03*
D22*
X35380000Y80500000D03*
D23*
X26380000Y80500000D03*
D24*
X34700000Y84500000D03*
D25*
X27080000Y84500000D03*
D26*
X44250000Y65290000D03*
D27*
X44250000Y62750000D03*
D23*
X21500000Y48500000D03*
X21500000Y43500000D03*
D28*
X15050000Y32095000D03*
X15050000Y33365000D03*
X15050000Y34635000D03*
X15050000Y35905000D03*
X20450000Y35905000D03*
X20450000Y34635000D03*
X20450000Y33365000D03*
X20450000Y32095000D03*
D29*
X36500000Y35250000D03*
X35550000Y33250000D03*
X37450000Y33250000D03*
D30*
X20950000Y17025000D03*
X20950000Y17675000D03*
X20950000Y18325000D03*
X20950000Y18975000D03*
X15050000Y18975000D03*
X15050000Y18325000D03*
X15050000Y17675000D03*
X15050000Y17025000D03*
D31*
X16700000Y46200000D03*
D22*
X9080000Y53820000D03*
X16700000Y48740000D03*
X9080000Y51280000D03*
X16700000Y51280000D03*
X9080000Y48740000D03*
X16700000Y53820000D03*
X9080000Y46200000D03*
D32*
X37500000Y19100000D03*
X37500000Y16900000D03*
X35000000Y19100000D03*
X35000000Y16900000D03*
D33*
X11750000Y16650000D03*
X11750000Y19350000D03*
X8250000Y19350000D03*
X8250000Y16650000D03*
X30000000Y32650000D03*
X30000000Y35350000D03*
D34*
X6000000Y47420000D03*
D35*
X6000000Y52500000D03*
D34*
X3500000Y47420000D03*
D35*
X3500000Y52500000D03*
D34*
X28250000Y66550000D03*
D35*
X28250000Y61470000D03*
D33*
X44250000Y35350000D03*
X44250000Y32650000D03*
D36*
X44250000Y48500000D03*
X44250000Y51500000D03*
D27*
X44250000Y82000000D03*
D26*
X44250000Y84540000D03*
D37*
X19250000Y13750000D03*
X16750000Y13750000D03*
D38*
X19750000Y28750000D03*
X15750000Y28750000D03*
D39*
X35750000Y64000000D03*
X35750000Y61460000D03*
D40*
X35750000Y66540000D03*
D41*
X33500000Y16250000D03*
X13750000Y20750000D03*
X7250000Y27750000D03*
X7250000Y34000000D03*
X22500000Y16500000D03*
X15250000Y13750000D03*
X13750000Y28750000D03*
X22000000Y31250000D03*
X38000000Y46750000D03*
X37500000Y31700000D03*
X28200000Y19000000D03*
X44250000Y53750000D03*
X26000000Y51250000D03*
X24000000Y51250000D03*
M02*
