%TF.GenerationSoftware,KiCad,Pcbnew,4.0.6*%
%TF.CreationDate,2018-07-23T17:28:08+01:00*%
%TF.ProjectId,SolderChallenge,536F6C6465724368616C6C656E67652E,rev?*%
%TF.FileFunction,Copper,L2,Bot,Signal*%
%FSLAX46Y46*%
G04 Gerber Fmt 4.6, Leading zero omitted, Abs format (unit mm)*
G04 Created by KiCad (PCBNEW 4.0.6) date 07/23/18 17:28:08*
%MOMM*%
%LPD*%
G01*
G04 APERTURE LIST*
%ADD10C,0.100000*%
%ADD11R,1.600000X1.600000*%
%ADD12O,1.600000X1.600000*%
%ADD13C,1.400000*%
%ADD14O,1.400000X1.400000*%
%ADD15C,1.600000*%
%ADD16R,1.800000X1.800000*%
%ADD17C,1.800000*%
%ADD18R,2.200000X2.200000*%
%ADD19O,2.200000X2.200000*%
%ADD20C,1.520000*%
%ADD21R,1.520000X1.520000*%
%ADD22C,0.600000*%
%ADD23C,0.250000*%
%ADD24C,0.200000*%
G04 APERTURE END LIST*
D10*
D11*
X16700000Y46200000D03*
D12*
X9080000Y53820000D03*
X16700000Y48740000D03*
X9080000Y51280000D03*
X16700000Y51280000D03*
X9080000Y48740000D03*
X16700000Y53820000D03*
X9080000Y46200000D03*
D13*
X6000000Y47420000D03*
D14*
X6000000Y52500000D03*
D13*
X3500000Y47420000D03*
D14*
X3500000Y52500000D03*
D13*
X28250000Y66550000D03*
D14*
X28250000Y61470000D03*
D15*
X48000000Y72500000D03*
D12*
X40380000Y72500000D03*
D15*
X48000000Y76500000D03*
D12*
X40380000Y76500000D03*
D15*
X26380000Y72500000D03*
D12*
X34000000Y72500000D03*
D15*
X26380000Y76500000D03*
D12*
X34000000Y76500000D03*
D15*
X26380000Y80500000D03*
D12*
X34000000Y80500000D03*
D16*
X44250000Y62750000D03*
D17*
X44250000Y65290000D03*
D16*
X44250000Y82000000D03*
D17*
X44250000Y84540000D03*
D18*
X26380000Y84500000D03*
D19*
X34000000Y84500000D03*
D11*
X21500000Y48500000D03*
D15*
X21500000Y46500000D03*
D20*
X35750000Y64000000D03*
X35750000Y61460000D03*
D21*
X35750000Y66540000D03*
D22*
X27750000Y19250000D03*
X33500000Y16250000D03*
X13750000Y20750000D03*
X7250000Y27750000D03*
X7250000Y34000000D03*
X37250000Y31250000D03*
X22500000Y16500000D03*
X15250000Y13750000D03*
X13750000Y28750000D03*
X22000000Y31250000D03*
X38000000Y46750000D03*
X44250000Y53750000D03*
X26000000Y51250000D03*
X24000000Y51250000D03*
D23*
X15250000Y13750000D02*
X15250000Y19250000D01*
X15250000Y19250000D02*
X13750000Y20750000D01*
X7250000Y34000000D02*
X7250000Y27750000D01*
X13750000Y28750000D02*
X12500000Y28750000D01*
X12500000Y28750000D02*
X7250000Y34000000D01*
X9080000Y51280000D02*
X11620000Y48740000D01*
X11620000Y48740000D02*
X16700000Y48740000D01*
X26380000Y76500000D02*
X34380000Y68500000D01*
X34380000Y68500000D02*
X41040000Y68500000D01*
X41040000Y68500000D02*
X44250000Y65290000D01*
X44230000Y65270000D02*
X44250000Y65270000D01*
X38750000Y53750000D02*
X44250000Y53750000D01*
X26380000Y66120000D02*
X38750000Y53750000D01*
X26380000Y72500000D02*
X26380000Y66120000D01*
X24000000Y51250000D02*
X26000000Y51250000D01*
D24*
G36*
X41943783Y99402160D02*
X43747211Y98844673D01*
X45377417Y97962009D01*
X46796669Y96791976D01*
X47966704Y95372722D01*
X48849367Y93742521D01*
X49406855Y91939093D01*
X49603321Y89978637D01*
X49603321Y10018625D01*
X49406855Y8058168D01*
X48849367Y6254740D01*
X47966704Y4624536D01*
X46796669Y3205281D01*
X45377415Y2035245D01*
X43747209Y1152580D01*
X41943783Y595092D01*
X39983325Y398626D01*
X10023317Y398626D01*
X8062861Y595092D01*
X6259433Y1152580D01*
X4629225Y2035246D01*
X3209973Y3205281D01*
X2039939Y4624534D01*
X1157275Y6254740D01*
X599787Y8058168D01*
X403321Y10018625D01*
X403321Y46208028D01*
X7924464Y46208028D01*
X7944806Y45984511D01*
X8008175Y45769202D01*
X8112157Y45570302D01*
X8252792Y45395387D01*
X8424724Y45251119D01*
X8621403Y45142994D01*
X8835338Y45075130D01*
X9058379Y45050112D01*
X9074436Y45050000D01*
X9085564Y45050000D01*
X9308934Y45071902D01*
X9523795Y45136772D01*
X9721964Y45242141D01*
X9895893Y45383994D01*
X10038957Y45556928D01*
X10145707Y45754357D01*
X10212076Y45968760D01*
X10228496Y46124995D01*
X15600000Y46124995D01*
X15600000Y45370452D01*
X15611529Y45312493D01*
X15634144Y45257896D01*
X15666975Y45208761D01*
X15708761Y45166975D01*
X15757897Y45134143D01*
X15812494Y45111529D01*
X15870453Y45100000D01*
X16624995Y45100000D01*
X16699995Y45175000D01*
X16699995Y46199995D01*
X16700005Y46199995D01*
X16700005Y45175000D01*
X16775005Y45100000D01*
X17529547Y45100000D01*
X17587506Y45111529D01*
X17642103Y45134143D01*
X17691239Y45166975D01*
X17733025Y45208761D01*
X17765856Y45257896D01*
X17788471Y45312493D01*
X17800000Y45370452D01*
X17800000Y45771449D01*
X20771456Y45771449D01*
X20850312Y45605773D01*
X21037250Y45496207D01*
X21241972Y45425217D01*
X21456610Y45395530D01*
X21672915Y45408287D01*
X21882576Y45462998D01*
X22077534Y45557561D01*
X22149688Y45605773D01*
X22228544Y45771449D01*
X21500000Y46499993D01*
X20771456Y45771449D01*
X17800000Y45771449D01*
X17800000Y46124995D01*
X17725000Y46199995D01*
X16700005Y46199995D01*
X16699995Y46199995D01*
X15675000Y46199995D01*
X15600000Y46124995D01*
X10228496Y46124995D01*
X10235536Y46191972D01*
X10215194Y46415489D01*
X10151825Y46630798D01*
X10047843Y46829698D01*
X9907208Y47004613D01*
X9877492Y47029548D01*
X15600000Y47029548D01*
X15600000Y46275005D01*
X15675000Y46200005D01*
X16699995Y46200005D01*
X16699995Y47225000D01*
X16700005Y47225000D01*
X16700005Y46200005D01*
X17725000Y46200005D01*
X17800000Y46275005D01*
X17800000Y46543390D01*
X20395530Y46543390D01*
X20408287Y46327085D01*
X20462998Y46117424D01*
X20557561Y45922466D01*
X20605773Y45850312D01*
X20771449Y45771456D01*
X21499993Y46500000D01*
X21500007Y46500000D01*
X22228551Y45771456D01*
X22394227Y45850312D01*
X22503793Y46037250D01*
X22574783Y46241972D01*
X22604470Y46456610D01*
X22591713Y46672915D01*
X22537002Y46882576D01*
X22442439Y47077534D01*
X22394227Y47149688D01*
X22228551Y47228544D01*
X21500007Y46500000D01*
X21499993Y46500000D01*
X20771449Y47228544D01*
X20605773Y47149688D01*
X20496207Y46962750D01*
X20425217Y46758028D01*
X20395530Y46543390D01*
X17800000Y46543390D01*
X17800000Y47029548D01*
X17788471Y47087507D01*
X17765856Y47142104D01*
X17733025Y47191239D01*
X17691239Y47233025D01*
X17642103Y47265857D01*
X17587506Y47288471D01*
X17529547Y47300000D01*
X16775005Y47300000D01*
X16700005Y47225000D01*
X16699995Y47225000D01*
X16624995Y47300000D01*
X15870453Y47300000D01*
X15812494Y47288471D01*
X15757897Y47265857D01*
X15708761Y47233025D01*
X15666975Y47191239D01*
X15634144Y47142104D01*
X15611529Y47087507D01*
X15600000Y47029548D01*
X9877492Y47029548D01*
X9735276Y47148881D01*
X9538597Y47257006D01*
X9324662Y47324870D01*
X9101621Y47349888D01*
X9085564Y47350000D01*
X9074436Y47350000D01*
X8851066Y47328098D01*
X8636205Y47263228D01*
X8438036Y47157859D01*
X8264107Y47016006D01*
X8121043Y46843072D01*
X8014293Y46645643D01*
X7947924Y46431240D01*
X7924464Y46208028D01*
X403321Y46208028D01*
X403321Y47331713D01*
X2448619Y47331713D01*
X2485791Y47129180D01*
X2561594Y46937725D01*
X2673140Y46764639D01*
X2816181Y46616515D01*
X2985269Y46498997D01*
X3173962Y46416558D01*
X3375074Y46372341D01*
X3580945Y46368029D01*
X3783732Y46403785D01*
X3975712Y46478250D01*
X4149573Y46588585D01*
X4298691Y46730588D01*
X4417388Y46898851D01*
X4501141Y47086965D01*
X4546761Y47287763D01*
X4547374Y47331713D01*
X4948619Y47331713D01*
X4985791Y47129180D01*
X5061594Y46937725D01*
X5173140Y46764639D01*
X5316181Y46616515D01*
X5485269Y46498997D01*
X5673962Y46416558D01*
X5875074Y46372341D01*
X6080945Y46368029D01*
X6283732Y46403785D01*
X6475712Y46478250D01*
X6649573Y46588585D01*
X6798691Y46730588D01*
X6917388Y46898851D01*
X7001141Y47086965D01*
X7046761Y47287763D01*
X7050046Y47522958D01*
X7010050Y47724952D01*
X6931581Y47915331D01*
X6817629Y48086842D01*
X6672534Y48232954D01*
X6501822Y48348100D01*
X6311996Y48427896D01*
X6110286Y48469301D01*
X5904375Y48470739D01*
X5702107Y48432154D01*
X5511185Y48355017D01*
X5338882Y48242265D01*
X5191761Y48098193D01*
X5075425Y47928289D01*
X4994307Y47739025D01*
X4951494Y47537609D01*
X4948619Y47331713D01*
X4547374Y47331713D01*
X4550046Y47522958D01*
X4510050Y47724952D01*
X4431581Y47915331D01*
X4317629Y48086842D01*
X4172534Y48232954D01*
X4001822Y48348100D01*
X3811996Y48427896D01*
X3610286Y48469301D01*
X3404375Y48470739D01*
X3202107Y48432154D01*
X3011185Y48355017D01*
X2838882Y48242265D01*
X2691761Y48098193D01*
X2575425Y47928289D01*
X2494307Y47739025D01*
X2451494Y47537609D01*
X2448619Y47331713D01*
X403321Y47331713D01*
X403321Y48748028D01*
X7924464Y48748028D01*
X7944806Y48524511D01*
X8008175Y48309202D01*
X8112157Y48110302D01*
X8252792Y47935387D01*
X8424724Y47791119D01*
X8621403Y47682994D01*
X8835338Y47615130D01*
X9058379Y47590112D01*
X9074436Y47590000D01*
X9085564Y47590000D01*
X9308934Y47611902D01*
X9523795Y47676772D01*
X9721964Y47782141D01*
X9895893Y47923994D01*
X10038957Y48096928D01*
X10145707Y48294357D01*
X10212076Y48508760D01*
X10235536Y48731972D01*
X10215194Y48955489D01*
X10151825Y49170798D01*
X10047843Y49369698D01*
X9907208Y49544613D01*
X9735276Y49688881D01*
X9538597Y49797006D01*
X9324662Y49864870D01*
X9101621Y49889888D01*
X9085564Y49890000D01*
X9074436Y49890000D01*
X8851066Y49868098D01*
X8636205Y49803228D01*
X8438036Y49697859D01*
X8264107Y49556006D01*
X8121043Y49383072D01*
X8014293Y49185643D01*
X7947924Y48971240D01*
X7924464Y48748028D01*
X403321Y48748028D01*
X403321Y51288028D01*
X7924464Y51288028D01*
X7944806Y51064511D01*
X8008175Y50849202D01*
X8112157Y50650302D01*
X8252792Y50475387D01*
X8424724Y50331119D01*
X8621403Y50222994D01*
X8835338Y50155130D01*
X9058379Y50130112D01*
X9074436Y50130000D01*
X9085564Y50130000D01*
X9308934Y50151902D01*
X9483609Y50204639D01*
X11284124Y48404125D01*
X11318008Y48376292D01*
X11351641Y48348071D01*
X11353830Y48346868D01*
X11355759Y48345283D01*
X11394423Y48324552D01*
X11432878Y48303411D01*
X11435259Y48302656D01*
X11437459Y48301476D01*
X11479431Y48288643D01*
X11521242Y48275380D01*
X11523722Y48275102D01*
X11526112Y48274371D01*
X11569764Y48269937D01*
X11613368Y48265046D01*
X11618252Y48265012D01*
X11618342Y48265003D01*
X11618426Y48265011D01*
X11620000Y48265000D01*
X15651283Y48265000D01*
X15732157Y48110302D01*
X15872792Y47935387D01*
X16044724Y47791119D01*
X16241403Y47682994D01*
X16455338Y47615130D01*
X16678379Y47590112D01*
X16694436Y47590000D01*
X16705564Y47590000D01*
X16928934Y47611902D01*
X17143795Y47676772D01*
X17341964Y47782141D01*
X17515893Y47923994D01*
X17658957Y48096928D01*
X17765707Y48294357D01*
X17832076Y48508760D01*
X17855536Y48731972D01*
X17835194Y48955489D01*
X17771825Y49170798D01*
X17704281Y49300000D01*
X20348307Y49300000D01*
X20348307Y47700000D01*
X20352752Y47644264D01*
X20382027Y47549729D01*
X20436480Y47467094D01*
X20511800Y47402900D01*
X20602021Y47362231D01*
X20700000Y47348307D01*
X20828456Y47348307D01*
X20771456Y47228551D01*
X21500000Y46500007D01*
X22228544Y47228551D01*
X22171544Y47348307D01*
X22300000Y47348307D01*
X22355736Y47352752D01*
X22450271Y47382027D01*
X22532906Y47436480D01*
X22597100Y47511800D01*
X22637769Y47602021D01*
X22651693Y47700000D01*
X22651693Y49300000D01*
X22647248Y49355736D01*
X22617973Y49450271D01*
X22563520Y49532906D01*
X22488200Y49597100D01*
X22397979Y49637769D01*
X22300000Y49651693D01*
X20700000Y49651693D01*
X20644264Y49647248D01*
X20549729Y49617973D01*
X20467094Y49563520D01*
X20402900Y49488200D01*
X20362231Y49397979D01*
X20348307Y49300000D01*
X17704281Y49300000D01*
X17667843Y49369698D01*
X17527208Y49544613D01*
X17355276Y49688881D01*
X17158597Y49797006D01*
X16944662Y49864870D01*
X16721621Y49889888D01*
X16705564Y49890000D01*
X16694436Y49890000D01*
X16471066Y49868098D01*
X16256205Y49803228D01*
X16058036Y49697859D01*
X15884107Y49556006D01*
X15741043Y49383072D01*
X15650166Y49215000D01*
X11816751Y49215000D01*
X10157925Y50873827D01*
X10212076Y51048760D01*
X10235536Y51271972D01*
X10234075Y51288028D01*
X15544464Y51288028D01*
X15564806Y51064511D01*
X15628175Y50849202D01*
X15732157Y50650302D01*
X15872792Y50475387D01*
X16044724Y50331119D01*
X16241403Y50222994D01*
X16455338Y50155130D01*
X16678379Y50130112D01*
X16694436Y50130000D01*
X16705564Y50130000D01*
X16928934Y50151902D01*
X17143795Y50216772D01*
X17341964Y50322141D01*
X17515893Y50463994D01*
X17658957Y50636928D01*
X17765707Y50834357D01*
X17832076Y51048760D01*
X17847482Y51195346D01*
X23349146Y51195346D01*
X23372157Y51069969D01*
X23419082Y50951449D01*
X23488135Y50844300D01*
X23576684Y50752605D01*
X23681357Y50679855D01*
X23798167Y50628822D01*
X23922665Y50601450D01*
X24050109Y50598780D01*
X24175644Y50620915D01*
X24294488Y50667012D01*
X24402116Y50735315D01*
X24443790Y50775000D01*
X25555057Y50775000D01*
X25576684Y50752605D01*
X25681357Y50679855D01*
X25798167Y50628822D01*
X25922665Y50601450D01*
X26050109Y50598780D01*
X26175644Y50620915D01*
X26294488Y50667012D01*
X26402116Y50735315D01*
X26494428Y50823222D01*
X26567906Y50927384D01*
X26619754Y51043835D01*
X26647995Y51168139D01*
X26650028Y51313736D01*
X26625268Y51438780D01*
X26576693Y51556633D01*
X26506151Y51662807D01*
X26416330Y51753257D01*
X26310652Y51824538D01*
X26193140Y51873935D01*
X26068272Y51899567D01*
X25940804Y51900457D01*
X25815590Y51876571D01*
X25697401Y51828819D01*
X25590737Y51759021D01*
X25555996Y51725000D01*
X24444390Y51725000D01*
X24416330Y51753257D01*
X24310652Y51824538D01*
X24193140Y51873935D01*
X24068272Y51899567D01*
X23940804Y51900457D01*
X23815590Y51876571D01*
X23697401Y51828819D01*
X23590737Y51759021D01*
X23499662Y51669834D01*
X23427645Y51564655D01*
X23377428Y51447491D01*
X23350925Y51322805D01*
X23349146Y51195346D01*
X17847482Y51195346D01*
X17855536Y51271972D01*
X17835194Y51495489D01*
X17771825Y51710798D01*
X17667843Y51909698D01*
X17527208Y52084613D01*
X17355276Y52228881D01*
X17158597Y52337006D01*
X16944662Y52404870D01*
X16721621Y52429888D01*
X16705564Y52430000D01*
X16694436Y52430000D01*
X16471066Y52408098D01*
X16256205Y52343228D01*
X16058036Y52237859D01*
X15884107Y52096006D01*
X15741043Y51923072D01*
X15634293Y51725643D01*
X15567924Y51511240D01*
X15544464Y51288028D01*
X10234075Y51288028D01*
X10215194Y51495489D01*
X10151825Y51710798D01*
X10047843Y51909698D01*
X9907208Y52084613D01*
X9735276Y52228881D01*
X9538597Y52337006D01*
X9324662Y52404870D01*
X9101621Y52429888D01*
X9085564Y52430000D01*
X9074436Y52430000D01*
X8851066Y52408098D01*
X8636205Y52343228D01*
X8438036Y52237859D01*
X8264107Y52096006D01*
X8121043Y51923072D01*
X8014293Y51725643D01*
X7947924Y51511240D01*
X7924464Y51288028D01*
X403321Y51288028D01*
X403321Y52505081D01*
X2450000Y52505081D01*
X2450000Y52494919D01*
X2469997Y52290973D01*
X2529227Y52094795D01*
X2625433Y51913858D01*
X2754951Y51755053D01*
X2912847Y51624430D01*
X3093109Y51526963D01*
X3288868Y51466365D01*
X3492670Y51444945D01*
X3696750Y51463517D01*
X3893337Y51521376D01*
X4074941Y51616316D01*
X4234647Y51744723D01*
X4366369Y51901704D01*
X4465092Y52081280D01*
X4527055Y52276612D01*
X4549898Y52480259D01*
X4550000Y52494919D01*
X4550000Y52505081D01*
X4950000Y52505081D01*
X4950000Y52494919D01*
X4969997Y52290973D01*
X5029227Y52094795D01*
X5125433Y51913858D01*
X5254951Y51755053D01*
X5412847Y51624430D01*
X5593109Y51526963D01*
X5788868Y51466365D01*
X5992670Y51444945D01*
X6196750Y51463517D01*
X6393337Y51521376D01*
X6574941Y51616316D01*
X6734647Y51744723D01*
X6866369Y51901704D01*
X6965092Y52081280D01*
X7027055Y52276612D01*
X7049898Y52480259D01*
X7050000Y52494919D01*
X7050000Y52505081D01*
X7030003Y52709027D01*
X6970773Y52905205D01*
X6874567Y53086142D01*
X6745049Y53244947D01*
X6587153Y53375570D01*
X6406891Y53473037D01*
X6211132Y53533635D01*
X6007330Y53555055D01*
X5803250Y53536483D01*
X5606663Y53478624D01*
X5425059Y53383684D01*
X5265353Y53255277D01*
X5133631Y53098296D01*
X5034908Y52918720D01*
X4972945Y52723388D01*
X4950102Y52519741D01*
X4950000Y52505081D01*
X4550000Y52505081D01*
X4530003Y52709027D01*
X4470773Y52905205D01*
X4374567Y53086142D01*
X4245049Y53244947D01*
X4087153Y53375570D01*
X3906891Y53473037D01*
X3711132Y53533635D01*
X3507330Y53555055D01*
X3303250Y53536483D01*
X3106663Y53478624D01*
X2925059Y53383684D01*
X2765353Y53255277D01*
X2633631Y53098296D01*
X2534908Y52918720D01*
X2472945Y52723388D01*
X2450102Y52519741D01*
X2450000Y52505081D01*
X403321Y52505081D01*
X403321Y53828028D01*
X7924464Y53828028D01*
X7944806Y53604511D01*
X8008175Y53389202D01*
X8112157Y53190302D01*
X8252792Y53015387D01*
X8424724Y52871119D01*
X8621403Y52762994D01*
X8835338Y52695130D01*
X9058379Y52670112D01*
X9074436Y52670000D01*
X9085564Y52670000D01*
X9308934Y52691902D01*
X9523795Y52756772D01*
X9721964Y52862141D01*
X9895893Y53003994D01*
X10038957Y53176928D01*
X10145707Y53374357D01*
X10212076Y53588760D01*
X10235536Y53811972D01*
X10234075Y53828028D01*
X15544464Y53828028D01*
X15564806Y53604511D01*
X15628175Y53389202D01*
X15732157Y53190302D01*
X15872792Y53015387D01*
X16044724Y52871119D01*
X16241403Y52762994D01*
X16455338Y52695130D01*
X16678379Y52670112D01*
X16694436Y52670000D01*
X16705564Y52670000D01*
X16928934Y52691902D01*
X17143795Y52756772D01*
X17341964Y52862141D01*
X17515893Y53003994D01*
X17658957Y53176928D01*
X17765707Y53374357D01*
X17832076Y53588760D01*
X17855536Y53811972D01*
X17835194Y54035489D01*
X17771825Y54250798D01*
X17667843Y54449698D01*
X17527208Y54624613D01*
X17355276Y54768881D01*
X17158597Y54877006D01*
X16944662Y54944870D01*
X16721621Y54969888D01*
X16705564Y54970000D01*
X16694436Y54970000D01*
X16471066Y54948098D01*
X16256205Y54883228D01*
X16058036Y54777859D01*
X15884107Y54636006D01*
X15741043Y54463072D01*
X15634293Y54265643D01*
X15567924Y54051240D01*
X15544464Y53828028D01*
X10234075Y53828028D01*
X10215194Y54035489D01*
X10151825Y54250798D01*
X10047843Y54449698D01*
X9907208Y54624613D01*
X9735276Y54768881D01*
X9538597Y54877006D01*
X9324662Y54944870D01*
X9101621Y54969888D01*
X9085564Y54970000D01*
X9074436Y54970000D01*
X8851066Y54948098D01*
X8636205Y54883228D01*
X8438036Y54777859D01*
X8264107Y54636006D01*
X8121043Y54463072D01*
X8014293Y54265643D01*
X7947924Y54051240D01*
X7924464Y53828028D01*
X403321Y53828028D01*
X403321Y61475081D01*
X27200000Y61475081D01*
X27200000Y61464919D01*
X27219997Y61260973D01*
X27279227Y61064795D01*
X27375433Y60883858D01*
X27504951Y60725053D01*
X27662847Y60594430D01*
X27843109Y60496963D01*
X28038868Y60436365D01*
X28242670Y60414945D01*
X28446750Y60433517D01*
X28643337Y60491376D01*
X28824941Y60586316D01*
X28984647Y60714723D01*
X29116369Y60871704D01*
X29215092Y61051280D01*
X29277055Y61246612D01*
X29299898Y61450259D01*
X29300000Y61464919D01*
X29300000Y61475081D01*
X29280003Y61679027D01*
X29220773Y61875205D01*
X29124567Y62056142D01*
X28995049Y62214947D01*
X28837153Y62345570D01*
X28656891Y62443037D01*
X28461132Y62503635D01*
X28257330Y62525055D01*
X28053250Y62506483D01*
X27856663Y62448624D01*
X27675059Y62353684D01*
X27515353Y62225277D01*
X27383631Y62068296D01*
X27284908Y61888720D01*
X27222945Y61693388D01*
X27200102Y61489741D01*
X27200000Y61475081D01*
X403321Y61475081D01*
X403321Y72403305D01*
X25228489Y72403305D01*
X25269201Y72181483D01*
X25352222Y71971794D01*
X25474392Y71782224D01*
X25631056Y71619994D01*
X25816247Y71491283D01*
X25905000Y71452507D01*
X25905000Y66120000D01*
X25909284Y66076309D01*
X25913106Y66032623D01*
X25913802Y66030227D01*
X25914046Y66027739D01*
X25926738Y65985703D01*
X25938970Y65943600D01*
X25940119Y65941383D01*
X25940841Y65938992D01*
X25961453Y65900226D01*
X25981632Y65861296D01*
X25983188Y65859346D01*
X25984362Y65857139D01*
X26012078Y65823156D01*
X26039467Y65788846D01*
X26042901Y65785364D01*
X26042954Y65785299D01*
X26043015Y65785249D01*
X26044124Y65784124D01*
X38414124Y53414124D01*
X38448064Y53386245D01*
X38481641Y53358071D01*
X38483826Y53356870D01*
X38485759Y53355282D01*
X38524443Y53334541D01*
X38562878Y53313411D01*
X38565261Y53312655D01*
X38567460Y53311476D01*
X38609404Y53298652D01*
X38651242Y53285380D01*
X38653723Y53285102D01*
X38656113Y53284371D01*
X38699759Y53279938D01*
X38743368Y53275046D01*
X38748252Y53275012D01*
X38748342Y53275003D01*
X38748426Y53275011D01*
X38750000Y53275000D01*
X43805057Y53275000D01*
X43826684Y53252605D01*
X43931357Y53179855D01*
X44048167Y53128822D01*
X44172665Y53101450D01*
X44300109Y53098780D01*
X44425644Y53120915D01*
X44544488Y53167012D01*
X44652116Y53235315D01*
X44744428Y53323222D01*
X44817906Y53427384D01*
X44869754Y53543835D01*
X44897995Y53668139D01*
X44900028Y53813736D01*
X44875268Y53938780D01*
X44826693Y54056633D01*
X44756151Y54162807D01*
X44666330Y54253257D01*
X44560652Y54324538D01*
X44443140Y54373935D01*
X44318272Y54399567D01*
X44190804Y54400457D01*
X44065590Y54376571D01*
X43947401Y54328819D01*
X43840737Y54259021D01*
X43805996Y54225000D01*
X38946752Y54225000D01*
X31805084Y61366668D01*
X34638541Y61366668D01*
X34677837Y61152562D01*
X34757971Y60950166D01*
X34875891Y60767190D01*
X35027106Y60610602D01*
X35205855Y60486368D01*
X35405331Y60399219D01*
X35617936Y60352475D01*
X35835570Y60347916D01*
X36049945Y60385716D01*
X36252896Y60464436D01*
X36436691Y60581076D01*
X36594330Y60731194D01*
X36719809Y60909072D01*
X36808349Y61107934D01*
X36856576Y61320207D01*
X36860048Y61568841D01*
X36817766Y61782378D01*
X36734814Y61983635D01*
X36614351Y62164947D01*
X36460964Y62319408D01*
X36280497Y62441135D01*
X36079824Y62525490D01*
X35866588Y62569261D01*
X35648911Y62570781D01*
X35435085Y62529991D01*
X35233253Y62448446D01*
X35051104Y62329251D01*
X34895576Y62176947D01*
X34772593Y61997334D01*
X34686839Y61797255D01*
X34641580Y61584329D01*
X34638541Y61366668D01*
X31805084Y61366668D01*
X29265084Y63906668D01*
X34638541Y63906668D01*
X34677837Y63692562D01*
X34757971Y63490166D01*
X34875891Y63307190D01*
X35027106Y63150602D01*
X35205855Y63026368D01*
X35405331Y62939219D01*
X35617936Y62892475D01*
X35835570Y62887916D01*
X36049945Y62925716D01*
X36252896Y63004436D01*
X36436691Y63121076D01*
X36594330Y63271194D01*
X36719809Y63449072D01*
X36808349Y63647934D01*
X36808818Y63650000D01*
X42998307Y63650000D01*
X42998307Y61850000D01*
X43002752Y61794264D01*
X43032027Y61699729D01*
X43086480Y61617094D01*
X43161800Y61552900D01*
X43252021Y61512231D01*
X43350000Y61498307D01*
X45150000Y61498307D01*
X45205736Y61502752D01*
X45300271Y61532027D01*
X45382906Y61586480D01*
X45447100Y61661800D01*
X45487769Y61752021D01*
X45501693Y61850000D01*
X45501693Y63650000D01*
X45497248Y63705736D01*
X45467973Y63800271D01*
X45413520Y63882906D01*
X45338200Y63947100D01*
X45247979Y63987769D01*
X45150000Y64001693D01*
X43350000Y64001693D01*
X43294264Y63997248D01*
X43199729Y63967973D01*
X43117094Y63913520D01*
X43052900Y63838200D01*
X43012231Y63747979D01*
X42998307Y63650000D01*
X36808818Y63650000D01*
X36856576Y63860207D01*
X36860048Y64108841D01*
X36817766Y64322378D01*
X36734814Y64523635D01*
X36614351Y64704947D01*
X36460964Y64859408D01*
X36280497Y64981135D01*
X36079824Y65065490D01*
X35866588Y65109261D01*
X35648911Y65110781D01*
X35435085Y65069991D01*
X35233253Y64988446D01*
X35051104Y64869251D01*
X34895576Y64716947D01*
X34772593Y64537334D01*
X34686839Y64337255D01*
X34641580Y64124329D01*
X34638541Y63906668D01*
X29265084Y63906668D01*
X26855000Y66316752D01*
X26855000Y66461713D01*
X27198619Y66461713D01*
X27235791Y66259180D01*
X27311594Y66067725D01*
X27423140Y65894639D01*
X27566181Y65746515D01*
X27735269Y65628997D01*
X27923962Y65546558D01*
X28125074Y65502341D01*
X28330945Y65498029D01*
X28533732Y65533785D01*
X28725712Y65608250D01*
X28899573Y65718585D01*
X29048691Y65860588D01*
X29167388Y66028851D01*
X29251141Y66216965D01*
X29296761Y66417763D01*
X29297420Y66464995D01*
X34690000Y66464995D01*
X34690000Y65750452D01*
X34701529Y65692493D01*
X34724144Y65637896D01*
X34756975Y65588761D01*
X34798761Y65546975D01*
X34847897Y65514143D01*
X34902494Y65491529D01*
X34960453Y65480000D01*
X35674995Y65480000D01*
X35749995Y65555000D01*
X35749995Y66539995D01*
X35750005Y66539995D01*
X35750005Y65555000D01*
X35825005Y65480000D01*
X36539547Y65480000D01*
X36597506Y65491529D01*
X36652103Y65514143D01*
X36701239Y65546975D01*
X36743025Y65588761D01*
X36775856Y65637896D01*
X36798471Y65692493D01*
X36810000Y65750452D01*
X36810000Y66464995D01*
X36735000Y66539995D01*
X35750005Y66539995D01*
X35749995Y66539995D01*
X34765000Y66539995D01*
X34690000Y66464995D01*
X29297420Y66464995D01*
X29300046Y66652958D01*
X29260050Y66854952D01*
X29181581Y67045331D01*
X29067629Y67216842D01*
X28955708Y67329548D01*
X34690000Y67329548D01*
X34690000Y66615005D01*
X34765000Y66540005D01*
X35749995Y66540005D01*
X35749995Y67525000D01*
X35750005Y67525000D01*
X35750005Y66540005D01*
X36735000Y66540005D01*
X36810000Y66615005D01*
X36810000Y67329548D01*
X36798471Y67387507D01*
X36775856Y67442104D01*
X36743025Y67491239D01*
X36701239Y67533025D01*
X36652103Y67565857D01*
X36597506Y67588471D01*
X36539547Y67600000D01*
X35825005Y67600000D01*
X35750005Y67525000D01*
X35749995Y67525000D01*
X35674995Y67600000D01*
X34960453Y67600000D01*
X34902494Y67588471D01*
X34847897Y67565857D01*
X34798761Y67533025D01*
X34756975Y67491239D01*
X34724144Y67442104D01*
X34701529Y67387507D01*
X34690000Y67329548D01*
X28955708Y67329548D01*
X28922534Y67362954D01*
X28751822Y67478100D01*
X28561996Y67557896D01*
X28360286Y67599301D01*
X28154375Y67600739D01*
X27952107Y67562154D01*
X27761185Y67485017D01*
X27588882Y67372265D01*
X27441761Y67228193D01*
X27325425Y67058289D01*
X27244307Y66869025D01*
X27201494Y66667609D01*
X27198619Y66461713D01*
X26855000Y66461713D01*
X26855000Y71450711D01*
X26901018Y71468560D01*
X27091436Y71589403D01*
X27254756Y71744931D01*
X27384757Y71929219D01*
X27476487Y72135247D01*
X27526452Y72355169D01*
X27530049Y72612763D01*
X27486244Y72833995D01*
X27400302Y73042504D01*
X27275498Y73230350D01*
X27116584Y73390377D01*
X26929614Y73516490D01*
X26721710Y73603885D01*
X26500789Y73649234D01*
X26275268Y73650808D01*
X26053736Y73608549D01*
X25844632Y73524065D01*
X25655919Y73400575D01*
X25494787Y73242782D01*
X25367372Y73056697D01*
X25278527Y72849408D01*
X25231638Y72628809D01*
X25228489Y72403305D01*
X403321Y72403305D01*
X403321Y76403305D01*
X25228489Y76403305D01*
X25269201Y76181483D01*
X25352222Y75971794D01*
X25474392Y75782224D01*
X25631056Y75619994D01*
X25816247Y75491283D01*
X26022911Y75400993D01*
X26243177Y75352565D01*
X26468654Y75347842D01*
X26690754Y75387004D01*
X26784776Y75423473D01*
X34044124Y68164125D01*
X34078008Y68136292D01*
X34111641Y68108071D01*
X34113830Y68106868D01*
X34115759Y68105283D01*
X34154423Y68084552D01*
X34192878Y68063411D01*
X34195259Y68062656D01*
X34197459Y68061476D01*
X34239431Y68048643D01*
X34281242Y68035380D01*
X34283722Y68035102D01*
X34286112Y68034371D01*
X34329768Y68029937D01*
X34373368Y68025046D01*
X34378251Y68025012D01*
X34378341Y68025003D01*
X34378425Y68025011D01*
X34380000Y68025000D01*
X40843248Y68025000D01*
X43096462Y65771786D01*
X43052747Y65669791D01*
X43001780Y65430010D01*
X42998357Y65184897D01*
X43042609Y64943786D01*
X43132850Y64715863D01*
X43265643Y64509809D01*
X43435930Y64333471D01*
X43637225Y64193568D01*
X43861860Y64095427D01*
X44101279Y64042788D01*
X44346363Y64037654D01*
X44587776Y64080222D01*
X44816324Y64168869D01*
X45023300Y64300221D01*
X45200822Y64469272D01*
X45342127Y64669585D01*
X45441834Y64893530D01*
X45496144Y65132575D01*
X45500053Y65412569D01*
X45452439Y65653038D01*
X45359025Y65879679D01*
X45223367Y66083859D01*
X45050635Y66257802D01*
X44847407Y66394881D01*
X44621424Y66489875D01*
X44381293Y66539167D01*
X44136161Y66540879D01*
X43895366Y66494944D01*
X43768190Y66443562D01*
X41375876Y68835876D01*
X41341936Y68863755D01*
X41308359Y68891929D01*
X41306174Y68893130D01*
X41304241Y68894718D01*
X41265557Y68915459D01*
X41227122Y68936589D01*
X41224739Y68937345D01*
X41222540Y68938524D01*
X41180583Y68951352D01*
X41138758Y68964620D01*
X41136278Y68964898D01*
X41133888Y68965629D01*
X41090236Y68970063D01*
X41046632Y68974954D01*
X41041748Y68974988D01*
X41041658Y68974997D01*
X41041574Y68974989D01*
X41040000Y68975000D01*
X34576751Y68975000D01*
X31043724Y72508028D01*
X32844464Y72508028D01*
X32864806Y72284511D01*
X32928175Y72069202D01*
X33032157Y71870302D01*
X33172792Y71695387D01*
X33344724Y71551119D01*
X33541403Y71442994D01*
X33755338Y71375130D01*
X33978379Y71350112D01*
X33994436Y71350000D01*
X34005564Y71350000D01*
X34228934Y71371902D01*
X34443795Y71436772D01*
X34641964Y71542141D01*
X34815893Y71683994D01*
X34958957Y71856928D01*
X35065707Y72054357D01*
X35132076Y72268760D01*
X35155536Y72491972D01*
X35154075Y72508028D01*
X39224464Y72508028D01*
X39244806Y72284511D01*
X39308175Y72069202D01*
X39412157Y71870302D01*
X39552792Y71695387D01*
X39724724Y71551119D01*
X39921403Y71442994D01*
X40135338Y71375130D01*
X40358379Y71350112D01*
X40374436Y71350000D01*
X40385564Y71350000D01*
X40608934Y71371902D01*
X40823795Y71436772D01*
X41021964Y71542141D01*
X41195893Y71683994D01*
X41338957Y71856928D01*
X41445707Y72054357D01*
X41512076Y72268760D01*
X41526216Y72403305D01*
X46848489Y72403305D01*
X46889201Y72181483D01*
X46972222Y71971794D01*
X47094392Y71782224D01*
X47251056Y71619994D01*
X47436247Y71491283D01*
X47642911Y71400993D01*
X47863177Y71352565D01*
X48088654Y71347842D01*
X48310754Y71387004D01*
X48521018Y71468560D01*
X48711436Y71589403D01*
X48874756Y71744931D01*
X49004757Y71929219D01*
X49096487Y72135247D01*
X49146452Y72355169D01*
X49150049Y72612763D01*
X49106244Y72833995D01*
X49020302Y73042504D01*
X48895498Y73230350D01*
X48736584Y73390377D01*
X48549614Y73516490D01*
X48341710Y73603885D01*
X48120789Y73649234D01*
X47895268Y73650808D01*
X47673736Y73608549D01*
X47464632Y73524065D01*
X47275919Y73400575D01*
X47114787Y73242782D01*
X46987372Y73056697D01*
X46898527Y72849408D01*
X46851638Y72628809D01*
X46848489Y72403305D01*
X41526216Y72403305D01*
X41535536Y72491972D01*
X41515194Y72715489D01*
X41451825Y72930798D01*
X41347843Y73129698D01*
X41207208Y73304613D01*
X41035276Y73448881D01*
X40838597Y73557006D01*
X40624662Y73624870D01*
X40401621Y73649888D01*
X40385564Y73650000D01*
X40374436Y73650000D01*
X40151066Y73628098D01*
X39936205Y73563228D01*
X39738036Y73457859D01*
X39564107Y73316006D01*
X39421043Y73143072D01*
X39314293Y72945643D01*
X39247924Y72731240D01*
X39224464Y72508028D01*
X35154075Y72508028D01*
X35135194Y72715489D01*
X35071825Y72930798D01*
X34967843Y73129698D01*
X34827208Y73304613D01*
X34655276Y73448881D01*
X34458597Y73557006D01*
X34244662Y73624870D01*
X34021621Y73649888D01*
X34005564Y73650000D01*
X33994436Y73650000D01*
X33771066Y73628098D01*
X33556205Y73563228D01*
X33358036Y73457859D01*
X33184107Y73316006D01*
X33041043Y73143072D01*
X32934293Y72945643D01*
X32867924Y72731240D01*
X32844464Y72508028D01*
X31043724Y72508028D01*
X27458008Y76093744D01*
X27476487Y76135247D01*
X27526452Y76355169D01*
X27528586Y76508028D01*
X32844464Y76508028D01*
X32864806Y76284511D01*
X32928175Y76069202D01*
X33032157Y75870302D01*
X33172792Y75695387D01*
X33344724Y75551119D01*
X33541403Y75442994D01*
X33755338Y75375130D01*
X33978379Y75350112D01*
X33994436Y75350000D01*
X34005564Y75350000D01*
X34228934Y75371902D01*
X34443795Y75436772D01*
X34641964Y75542141D01*
X34815893Y75683994D01*
X34958957Y75856928D01*
X35065707Y76054357D01*
X35132076Y76268760D01*
X35155536Y76491972D01*
X35154075Y76508028D01*
X39224464Y76508028D01*
X39244806Y76284511D01*
X39308175Y76069202D01*
X39412157Y75870302D01*
X39552792Y75695387D01*
X39724724Y75551119D01*
X39921403Y75442994D01*
X40135338Y75375130D01*
X40358379Y75350112D01*
X40374436Y75350000D01*
X40385564Y75350000D01*
X40608934Y75371902D01*
X40823795Y75436772D01*
X41021964Y75542141D01*
X41195893Y75683994D01*
X41338957Y75856928D01*
X41445707Y76054357D01*
X41512076Y76268760D01*
X41526216Y76403305D01*
X46848489Y76403305D01*
X46889201Y76181483D01*
X46972222Y75971794D01*
X47094392Y75782224D01*
X47251056Y75619994D01*
X47436247Y75491283D01*
X47642911Y75400993D01*
X47863177Y75352565D01*
X48088654Y75347842D01*
X48310754Y75387004D01*
X48521018Y75468560D01*
X48711436Y75589403D01*
X48874756Y75744931D01*
X49004757Y75929219D01*
X49096487Y76135247D01*
X49146452Y76355169D01*
X49150049Y76612763D01*
X49106244Y76833995D01*
X49020302Y77042504D01*
X48895498Y77230350D01*
X48736584Y77390377D01*
X48549614Y77516490D01*
X48341710Y77603885D01*
X48120789Y77649234D01*
X47895268Y77650808D01*
X47673736Y77608549D01*
X47464632Y77524065D01*
X47275919Y77400575D01*
X47114787Y77242782D01*
X46987372Y77056697D01*
X46898527Y76849408D01*
X46851638Y76628809D01*
X46848489Y76403305D01*
X41526216Y76403305D01*
X41535536Y76491972D01*
X41515194Y76715489D01*
X41451825Y76930798D01*
X41347843Y77129698D01*
X41207208Y77304613D01*
X41035276Y77448881D01*
X40838597Y77557006D01*
X40624662Y77624870D01*
X40401621Y77649888D01*
X40385564Y77650000D01*
X40374436Y77650000D01*
X40151066Y77628098D01*
X39936205Y77563228D01*
X39738036Y77457859D01*
X39564107Y77316006D01*
X39421043Y77143072D01*
X39314293Y76945643D01*
X39247924Y76731240D01*
X39224464Y76508028D01*
X35154075Y76508028D01*
X35135194Y76715489D01*
X35071825Y76930798D01*
X34967843Y77129698D01*
X34827208Y77304613D01*
X34655276Y77448881D01*
X34458597Y77557006D01*
X34244662Y77624870D01*
X34021621Y77649888D01*
X34005564Y77650000D01*
X33994436Y77650000D01*
X33771066Y77628098D01*
X33556205Y77563228D01*
X33358036Y77457859D01*
X33184107Y77316006D01*
X33041043Y77143072D01*
X32934293Y76945643D01*
X32867924Y76731240D01*
X32844464Y76508028D01*
X27528586Y76508028D01*
X27530049Y76612763D01*
X27486244Y76833995D01*
X27400302Y77042504D01*
X27275498Y77230350D01*
X27116584Y77390377D01*
X26929614Y77516490D01*
X26721710Y77603885D01*
X26500789Y77649234D01*
X26275268Y77650808D01*
X26053736Y77608549D01*
X25844632Y77524065D01*
X25655919Y77400575D01*
X25494787Y77242782D01*
X25367372Y77056697D01*
X25278527Y76849408D01*
X25231638Y76628809D01*
X25228489Y76403305D01*
X403321Y76403305D01*
X403321Y80403305D01*
X25228489Y80403305D01*
X25269201Y80181483D01*
X25352222Y79971794D01*
X25474392Y79782224D01*
X25631056Y79619994D01*
X25816247Y79491283D01*
X26022911Y79400993D01*
X26243177Y79352565D01*
X26468654Y79347842D01*
X26690754Y79387004D01*
X26901018Y79468560D01*
X27091436Y79589403D01*
X27254756Y79744931D01*
X27384757Y79929219D01*
X27476487Y80135247D01*
X27526452Y80355169D01*
X27528586Y80508028D01*
X32844464Y80508028D01*
X32864806Y80284511D01*
X32928175Y80069202D01*
X33032157Y79870302D01*
X33172792Y79695387D01*
X33344724Y79551119D01*
X33541403Y79442994D01*
X33755338Y79375130D01*
X33978379Y79350112D01*
X33994436Y79350000D01*
X34005564Y79350000D01*
X34228934Y79371902D01*
X34443795Y79436772D01*
X34641964Y79542141D01*
X34815893Y79683994D01*
X34958957Y79856928D01*
X35065707Y80054357D01*
X35132076Y80268760D01*
X35155536Y80491972D01*
X35135194Y80715489D01*
X35071825Y80930798D01*
X34967843Y81129698D01*
X34827208Y81304613D01*
X34655276Y81448881D01*
X34458597Y81557006D01*
X34244662Y81624870D01*
X34021621Y81649888D01*
X34005564Y81650000D01*
X33994436Y81650000D01*
X33771066Y81628098D01*
X33556205Y81563228D01*
X33358036Y81457859D01*
X33184107Y81316006D01*
X33041043Y81143072D01*
X32934293Y80945643D01*
X32867924Y80731240D01*
X32844464Y80508028D01*
X27528586Y80508028D01*
X27530049Y80612763D01*
X27486244Y80833995D01*
X27400302Y81042504D01*
X27275498Y81230350D01*
X27116584Y81390377D01*
X26929614Y81516490D01*
X26721710Y81603885D01*
X26500789Y81649234D01*
X26275268Y81650808D01*
X26053736Y81608549D01*
X25844632Y81524065D01*
X25655919Y81400575D01*
X25494787Y81242782D01*
X25367372Y81056697D01*
X25278527Y80849408D01*
X25231638Y80628809D01*
X25228489Y80403305D01*
X403321Y80403305D01*
X403321Y81924995D01*
X43050000Y81924995D01*
X43050000Y81070453D01*
X43061529Y81012494D01*
X43084143Y80957897D01*
X43116975Y80908761D01*
X43158761Y80866975D01*
X43207896Y80834144D01*
X43262493Y80811529D01*
X43320452Y80800000D01*
X44174995Y80800000D01*
X44249995Y80875000D01*
X44249995Y81999995D01*
X44250005Y81999995D01*
X44250005Y80875000D01*
X44325005Y80800000D01*
X45179548Y80800000D01*
X45237507Y80811529D01*
X45292104Y80834144D01*
X45341239Y80866975D01*
X45383025Y80908761D01*
X45415857Y80957897D01*
X45438471Y81012494D01*
X45450000Y81070453D01*
X45450000Y81924995D01*
X45375000Y81999995D01*
X44250005Y81999995D01*
X44249995Y81999995D01*
X43125000Y81999995D01*
X43050000Y81924995D01*
X403321Y81924995D01*
X403321Y82929547D01*
X43050000Y82929547D01*
X43050000Y82075005D01*
X43125000Y82000005D01*
X44249995Y82000005D01*
X44249995Y83125000D01*
X44250005Y83125000D01*
X44250005Y82000005D01*
X45375000Y82000005D01*
X45450000Y82075005D01*
X45450000Y82929547D01*
X45438471Y82987506D01*
X45415857Y83042103D01*
X45383025Y83091239D01*
X45341239Y83133025D01*
X45292104Y83165856D01*
X45237507Y83188471D01*
X45179548Y83200000D01*
X44325005Y83200000D01*
X44250005Y83125000D01*
X44249995Y83125000D01*
X44174995Y83200000D01*
X43320452Y83200000D01*
X43262493Y83188471D01*
X43207896Y83165856D01*
X43158761Y83133025D01*
X43116975Y83091239D01*
X43084143Y83042103D01*
X43061529Y82987506D01*
X43050000Y82929547D01*
X403321Y82929547D01*
X403321Y85600000D01*
X24928307Y85600000D01*
X24928307Y83400000D01*
X24932752Y83344264D01*
X24962027Y83249729D01*
X25016480Y83167094D01*
X25091800Y83102900D01*
X25182021Y83062231D01*
X25280000Y83048307D01*
X27480000Y83048307D01*
X27535736Y83052752D01*
X27630271Y83082027D01*
X27712906Y83136480D01*
X27777100Y83211800D01*
X27817769Y83302021D01*
X27831693Y83400000D01*
X27831693Y84510123D01*
X32543019Y84510123D01*
X32568667Y84228297D01*
X32648567Y83956820D01*
X32779676Y83706033D01*
X32956999Y83485488D01*
X33173782Y83303585D01*
X33421768Y83167254D01*
X33691512Y83081686D01*
X33972739Y83050141D01*
X33992984Y83050000D01*
X34007016Y83050000D01*
X34288656Y83077615D01*
X34559568Y83159408D01*
X34809434Y83292264D01*
X35028736Y83471122D01*
X35209120Y83689170D01*
X35343718Y83938102D01*
X35427400Y84208437D01*
X35451202Y84434897D01*
X42998357Y84434897D01*
X43042609Y84193786D01*
X43132850Y83965863D01*
X43265643Y83759809D01*
X43435930Y83583471D01*
X43637225Y83443568D01*
X43861860Y83345427D01*
X44101279Y83292788D01*
X44346363Y83287654D01*
X44587776Y83330222D01*
X44816324Y83418869D01*
X45023300Y83550221D01*
X45200822Y83719272D01*
X45342127Y83919585D01*
X45441834Y84143530D01*
X45496144Y84382575D01*
X45500053Y84662569D01*
X45452439Y84903038D01*
X45359025Y85129679D01*
X45223367Y85333859D01*
X45050635Y85507802D01*
X44847407Y85644881D01*
X44621424Y85739875D01*
X44381293Y85789167D01*
X44136161Y85790879D01*
X43895366Y85744944D01*
X43668078Y85653114D01*
X43462956Y85518886D01*
X43287811Y85347372D01*
X43149317Y85145106D01*
X43052747Y84919791D01*
X43001780Y84680010D01*
X42998357Y84434897D01*
X35451202Y84434897D01*
X35456981Y84489877D01*
X35431333Y84771703D01*
X35351433Y85043180D01*
X35220324Y85293967D01*
X35043001Y85514512D01*
X34826218Y85696415D01*
X34578232Y85832746D01*
X34308488Y85918314D01*
X34027261Y85949859D01*
X34007016Y85950000D01*
X33992984Y85950000D01*
X33711344Y85922385D01*
X33440432Y85840592D01*
X33190566Y85707736D01*
X32971264Y85528878D01*
X32790880Y85310830D01*
X32656282Y85061898D01*
X32572600Y84791563D01*
X32543019Y84510123D01*
X27831693Y84510123D01*
X27831693Y85600000D01*
X27827248Y85655736D01*
X27797973Y85750271D01*
X27743520Y85832906D01*
X27668200Y85897100D01*
X27577979Y85937769D01*
X27480000Y85951693D01*
X25280000Y85951693D01*
X25224264Y85947248D01*
X25129729Y85917973D01*
X25047094Y85863520D01*
X24982900Y85788200D01*
X24942231Y85697979D01*
X24928307Y85600000D01*
X403321Y85600000D01*
X403321Y89978637D01*
X599788Y91939093D01*
X1157274Y93742519D01*
X2039936Y95372722D01*
X3209973Y96791976D01*
X4629227Y97962010D01*
X6259431Y98844673D01*
X8062859Y99402160D01*
X10023317Y99598626D01*
X39983325Y99598626D01*
X41943783Y99402160D01*
X41943783Y99402160D01*
G37*
X41943783Y99402160D02*
X43747211Y98844673D01*
X45377417Y97962009D01*
X46796669Y96791976D01*
X47966704Y95372722D01*
X48849367Y93742521D01*
X49406855Y91939093D01*
X49603321Y89978637D01*
X49603321Y10018625D01*
X49406855Y8058168D01*
X48849367Y6254740D01*
X47966704Y4624536D01*
X46796669Y3205281D01*
X45377415Y2035245D01*
X43747209Y1152580D01*
X41943783Y595092D01*
X39983325Y398626D01*
X10023317Y398626D01*
X8062861Y595092D01*
X6259433Y1152580D01*
X4629225Y2035246D01*
X3209973Y3205281D01*
X2039939Y4624534D01*
X1157275Y6254740D01*
X599787Y8058168D01*
X403321Y10018625D01*
X403321Y46208028D01*
X7924464Y46208028D01*
X7944806Y45984511D01*
X8008175Y45769202D01*
X8112157Y45570302D01*
X8252792Y45395387D01*
X8424724Y45251119D01*
X8621403Y45142994D01*
X8835338Y45075130D01*
X9058379Y45050112D01*
X9074436Y45050000D01*
X9085564Y45050000D01*
X9308934Y45071902D01*
X9523795Y45136772D01*
X9721964Y45242141D01*
X9895893Y45383994D01*
X10038957Y45556928D01*
X10145707Y45754357D01*
X10212076Y45968760D01*
X10228496Y46124995D01*
X15600000Y46124995D01*
X15600000Y45370452D01*
X15611529Y45312493D01*
X15634144Y45257896D01*
X15666975Y45208761D01*
X15708761Y45166975D01*
X15757897Y45134143D01*
X15812494Y45111529D01*
X15870453Y45100000D01*
X16624995Y45100000D01*
X16699995Y45175000D01*
X16699995Y46199995D01*
X16700005Y46199995D01*
X16700005Y45175000D01*
X16775005Y45100000D01*
X17529547Y45100000D01*
X17587506Y45111529D01*
X17642103Y45134143D01*
X17691239Y45166975D01*
X17733025Y45208761D01*
X17765856Y45257896D01*
X17788471Y45312493D01*
X17800000Y45370452D01*
X17800000Y45771449D01*
X20771456Y45771449D01*
X20850312Y45605773D01*
X21037250Y45496207D01*
X21241972Y45425217D01*
X21456610Y45395530D01*
X21672915Y45408287D01*
X21882576Y45462998D01*
X22077534Y45557561D01*
X22149688Y45605773D01*
X22228544Y45771449D01*
X21500000Y46499993D01*
X20771456Y45771449D01*
X17800000Y45771449D01*
X17800000Y46124995D01*
X17725000Y46199995D01*
X16700005Y46199995D01*
X16699995Y46199995D01*
X15675000Y46199995D01*
X15600000Y46124995D01*
X10228496Y46124995D01*
X10235536Y46191972D01*
X10215194Y46415489D01*
X10151825Y46630798D01*
X10047843Y46829698D01*
X9907208Y47004613D01*
X9877492Y47029548D01*
X15600000Y47029548D01*
X15600000Y46275005D01*
X15675000Y46200005D01*
X16699995Y46200005D01*
X16699995Y47225000D01*
X16700005Y47225000D01*
X16700005Y46200005D01*
X17725000Y46200005D01*
X17800000Y46275005D01*
X17800000Y46543390D01*
X20395530Y46543390D01*
X20408287Y46327085D01*
X20462998Y46117424D01*
X20557561Y45922466D01*
X20605773Y45850312D01*
X20771449Y45771456D01*
X21499993Y46500000D01*
X21500007Y46500000D01*
X22228551Y45771456D01*
X22394227Y45850312D01*
X22503793Y46037250D01*
X22574783Y46241972D01*
X22604470Y46456610D01*
X22591713Y46672915D01*
X22537002Y46882576D01*
X22442439Y47077534D01*
X22394227Y47149688D01*
X22228551Y47228544D01*
X21500007Y46500000D01*
X21499993Y46500000D01*
X20771449Y47228544D01*
X20605773Y47149688D01*
X20496207Y46962750D01*
X20425217Y46758028D01*
X20395530Y46543390D01*
X17800000Y46543390D01*
X17800000Y47029548D01*
X17788471Y47087507D01*
X17765856Y47142104D01*
X17733025Y47191239D01*
X17691239Y47233025D01*
X17642103Y47265857D01*
X17587506Y47288471D01*
X17529547Y47300000D01*
X16775005Y47300000D01*
X16700005Y47225000D01*
X16699995Y47225000D01*
X16624995Y47300000D01*
X15870453Y47300000D01*
X15812494Y47288471D01*
X15757897Y47265857D01*
X15708761Y47233025D01*
X15666975Y47191239D01*
X15634144Y47142104D01*
X15611529Y47087507D01*
X15600000Y47029548D01*
X9877492Y47029548D01*
X9735276Y47148881D01*
X9538597Y47257006D01*
X9324662Y47324870D01*
X9101621Y47349888D01*
X9085564Y47350000D01*
X9074436Y47350000D01*
X8851066Y47328098D01*
X8636205Y47263228D01*
X8438036Y47157859D01*
X8264107Y47016006D01*
X8121043Y46843072D01*
X8014293Y46645643D01*
X7947924Y46431240D01*
X7924464Y46208028D01*
X403321Y46208028D01*
X403321Y47331713D01*
X2448619Y47331713D01*
X2485791Y47129180D01*
X2561594Y46937725D01*
X2673140Y46764639D01*
X2816181Y46616515D01*
X2985269Y46498997D01*
X3173962Y46416558D01*
X3375074Y46372341D01*
X3580945Y46368029D01*
X3783732Y46403785D01*
X3975712Y46478250D01*
X4149573Y46588585D01*
X4298691Y46730588D01*
X4417388Y46898851D01*
X4501141Y47086965D01*
X4546761Y47287763D01*
X4547374Y47331713D01*
X4948619Y47331713D01*
X4985791Y47129180D01*
X5061594Y46937725D01*
X5173140Y46764639D01*
X5316181Y46616515D01*
X5485269Y46498997D01*
X5673962Y46416558D01*
X5875074Y46372341D01*
X6080945Y46368029D01*
X6283732Y46403785D01*
X6475712Y46478250D01*
X6649573Y46588585D01*
X6798691Y46730588D01*
X6917388Y46898851D01*
X7001141Y47086965D01*
X7046761Y47287763D01*
X7050046Y47522958D01*
X7010050Y47724952D01*
X6931581Y47915331D01*
X6817629Y48086842D01*
X6672534Y48232954D01*
X6501822Y48348100D01*
X6311996Y48427896D01*
X6110286Y48469301D01*
X5904375Y48470739D01*
X5702107Y48432154D01*
X5511185Y48355017D01*
X5338882Y48242265D01*
X5191761Y48098193D01*
X5075425Y47928289D01*
X4994307Y47739025D01*
X4951494Y47537609D01*
X4948619Y47331713D01*
X4547374Y47331713D01*
X4550046Y47522958D01*
X4510050Y47724952D01*
X4431581Y47915331D01*
X4317629Y48086842D01*
X4172534Y48232954D01*
X4001822Y48348100D01*
X3811996Y48427896D01*
X3610286Y48469301D01*
X3404375Y48470739D01*
X3202107Y48432154D01*
X3011185Y48355017D01*
X2838882Y48242265D01*
X2691761Y48098193D01*
X2575425Y47928289D01*
X2494307Y47739025D01*
X2451494Y47537609D01*
X2448619Y47331713D01*
X403321Y47331713D01*
X403321Y48748028D01*
X7924464Y48748028D01*
X7944806Y48524511D01*
X8008175Y48309202D01*
X8112157Y48110302D01*
X8252792Y47935387D01*
X8424724Y47791119D01*
X8621403Y47682994D01*
X8835338Y47615130D01*
X9058379Y47590112D01*
X9074436Y47590000D01*
X9085564Y47590000D01*
X9308934Y47611902D01*
X9523795Y47676772D01*
X9721964Y47782141D01*
X9895893Y47923994D01*
X10038957Y48096928D01*
X10145707Y48294357D01*
X10212076Y48508760D01*
X10235536Y48731972D01*
X10215194Y48955489D01*
X10151825Y49170798D01*
X10047843Y49369698D01*
X9907208Y49544613D01*
X9735276Y49688881D01*
X9538597Y49797006D01*
X9324662Y49864870D01*
X9101621Y49889888D01*
X9085564Y49890000D01*
X9074436Y49890000D01*
X8851066Y49868098D01*
X8636205Y49803228D01*
X8438036Y49697859D01*
X8264107Y49556006D01*
X8121043Y49383072D01*
X8014293Y49185643D01*
X7947924Y48971240D01*
X7924464Y48748028D01*
X403321Y48748028D01*
X403321Y51288028D01*
X7924464Y51288028D01*
X7944806Y51064511D01*
X8008175Y50849202D01*
X8112157Y50650302D01*
X8252792Y50475387D01*
X8424724Y50331119D01*
X8621403Y50222994D01*
X8835338Y50155130D01*
X9058379Y50130112D01*
X9074436Y50130000D01*
X9085564Y50130000D01*
X9308934Y50151902D01*
X9483609Y50204639D01*
X11284124Y48404125D01*
X11318008Y48376292D01*
X11351641Y48348071D01*
X11353830Y48346868D01*
X11355759Y48345283D01*
X11394423Y48324552D01*
X11432878Y48303411D01*
X11435259Y48302656D01*
X11437459Y48301476D01*
X11479431Y48288643D01*
X11521242Y48275380D01*
X11523722Y48275102D01*
X11526112Y48274371D01*
X11569764Y48269937D01*
X11613368Y48265046D01*
X11618252Y48265012D01*
X11618342Y48265003D01*
X11618426Y48265011D01*
X11620000Y48265000D01*
X15651283Y48265000D01*
X15732157Y48110302D01*
X15872792Y47935387D01*
X16044724Y47791119D01*
X16241403Y47682994D01*
X16455338Y47615130D01*
X16678379Y47590112D01*
X16694436Y47590000D01*
X16705564Y47590000D01*
X16928934Y47611902D01*
X17143795Y47676772D01*
X17341964Y47782141D01*
X17515893Y47923994D01*
X17658957Y48096928D01*
X17765707Y48294357D01*
X17832076Y48508760D01*
X17855536Y48731972D01*
X17835194Y48955489D01*
X17771825Y49170798D01*
X17704281Y49300000D01*
X20348307Y49300000D01*
X20348307Y47700000D01*
X20352752Y47644264D01*
X20382027Y47549729D01*
X20436480Y47467094D01*
X20511800Y47402900D01*
X20602021Y47362231D01*
X20700000Y47348307D01*
X20828456Y47348307D01*
X20771456Y47228551D01*
X21500000Y46500007D01*
X22228544Y47228551D01*
X22171544Y47348307D01*
X22300000Y47348307D01*
X22355736Y47352752D01*
X22450271Y47382027D01*
X22532906Y47436480D01*
X22597100Y47511800D01*
X22637769Y47602021D01*
X22651693Y47700000D01*
X22651693Y49300000D01*
X22647248Y49355736D01*
X22617973Y49450271D01*
X22563520Y49532906D01*
X22488200Y49597100D01*
X22397979Y49637769D01*
X22300000Y49651693D01*
X20700000Y49651693D01*
X20644264Y49647248D01*
X20549729Y49617973D01*
X20467094Y49563520D01*
X20402900Y49488200D01*
X20362231Y49397979D01*
X20348307Y49300000D01*
X17704281Y49300000D01*
X17667843Y49369698D01*
X17527208Y49544613D01*
X17355276Y49688881D01*
X17158597Y49797006D01*
X16944662Y49864870D01*
X16721621Y49889888D01*
X16705564Y49890000D01*
X16694436Y49890000D01*
X16471066Y49868098D01*
X16256205Y49803228D01*
X16058036Y49697859D01*
X15884107Y49556006D01*
X15741043Y49383072D01*
X15650166Y49215000D01*
X11816751Y49215000D01*
X10157925Y50873827D01*
X10212076Y51048760D01*
X10235536Y51271972D01*
X10234075Y51288028D01*
X15544464Y51288028D01*
X15564806Y51064511D01*
X15628175Y50849202D01*
X15732157Y50650302D01*
X15872792Y50475387D01*
X16044724Y50331119D01*
X16241403Y50222994D01*
X16455338Y50155130D01*
X16678379Y50130112D01*
X16694436Y50130000D01*
X16705564Y50130000D01*
X16928934Y50151902D01*
X17143795Y50216772D01*
X17341964Y50322141D01*
X17515893Y50463994D01*
X17658957Y50636928D01*
X17765707Y50834357D01*
X17832076Y51048760D01*
X17847482Y51195346D01*
X23349146Y51195346D01*
X23372157Y51069969D01*
X23419082Y50951449D01*
X23488135Y50844300D01*
X23576684Y50752605D01*
X23681357Y50679855D01*
X23798167Y50628822D01*
X23922665Y50601450D01*
X24050109Y50598780D01*
X24175644Y50620915D01*
X24294488Y50667012D01*
X24402116Y50735315D01*
X24443790Y50775000D01*
X25555057Y50775000D01*
X25576684Y50752605D01*
X25681357Y50679855D01*
X25798167Y50628822D01*
X25922665Y50601450D01*
X26050109Y50598780D01*
X26175644Y50620915D01*
X26294488Y50667012D01*
X26402116Y50735315D01*
X26494428Y50823222D01*
X26567906Y50927384D01*
X26619754Y51043835D01*
X26647995Y51168139D01*
X26650028Y51313736D01*
X26625268Y51438780D01*
X26576693Y51556633D01*
X26506151Y51662807D01*
X26416330Y51753257D01*
X26310652Y51824538D01*
X26193140Y51873935D01*
X26068272Y51899567D01*
X25940804Y51900457D01*
X25815590Y51876571D01*
X25697401Y51828819D01*
X25590737Y51759021D01*
X25555996Y51725000D01*
X24444390Y51725000D01*
X24416330Y51753257D01*
X24310652Y51824538D01*
X24193140Y51873935D01*
X24068272Y51899567D01*
X23940804Y51900457D01*
X23815590Y51876571D01*
X23697401Y51828819D01*
X23590737Y51759021D01*
X23499662Y51669834D01*
X23427645Y51564655D01*
X23377428Y51447491D01*
X23350925Y51322805D01*
X23349146Y51195346D01*
X17847482Y51195346D01*
X17855536Y51271972D01*
X17835194Y51495489D01*
X17771825Y51710798D01*
X17667843Y51909698D01*
X17527208Y52084613D01*
X17355276Y52228881D01*
X17158597Y52337006D01*
X16944662Y52404870D01*
X16721621Y52429888D01*
X16705564Y52430000D01*
X16694436Y52430000D01*
X16471066Y52408098D01*
X16256205Y52343228D01*
X16058036Y52237859D01*
X15884107Y52096006D01*
X15741043Y51923072D01*
X15634293Y51725643D01*
X15567924Y51511240D01*
X15544464Y51288028D01*
X10234075Y51288028D01*
X10215194Y51495489D01*
X10151825Y51710798D01*
X10047843Y51909698D01*
X9907208Y52084613D01*
X9735276Y52228881D01*
X9538597Y52337006D01*
X9324662Y52404870D01*
X9101621Y52429888D01*
X9085564Y52430000D01*
X9074436Y52430000D01*
X8851066Y52408098D01*
X8636205Y52343228D01*
X8438036Y52237859D01*
X8264107Y52096006D01*
X8121043Y51923072D01*
X8014293Y51725643D01*
X7947924Y51511240D01*
X7924464Y51288028D01*
X403321Y51288028D01*
X403321Y52505081D01*
X2450000Y52505081D01*
X2450000Y52494919D01*
X2469997Y52290973D01*
X2529227Y52094795D01*
X2625433Y51913858D01*
X2754951Y51755053D01*
X2912847Y51624430D01*
X3093109Y51526963D01*
X3288868Y51466365D01*
X3492670Y51444945D01*
X3696750Y51463517D01*
X3893337Y51521376D01*
X4074941Y51616316D01*
X4234647Y51744723D01*
X4366369Y51901704D01*
X4465092Y52081280D01*
X4527055Y52276612D01*
X4549898Y52480259D01*
X4550000Y52494919D01*
X4550000Y52505081D01*
X4950000Y52505081D01*
X4950000Y52494919D01*
X4969997Y52290973D01*
X5029227Y52094795D01*
X5125433Y51913858D01*
X5254951Y51755053D01*
X5412847Y51624430D01*
X5593109Y51526963D01*
X5788868Y51466365D01*
X5992670Y51444945D01*
X6196750Y51463517D01*
X6393337Y51521376D01*
X6574941Y51616316D01*
X6734647Y51744723D01*
X6866369Y51901704D01*
X6965092Y52081280D01*
X7027055Y52276612D01*
X7049898Y52480259D01*
X7050000Y52494919D01*
X7050000Y52505081D01*
X7030003Y52709027D01*
X6970773Y52905205D01*
X6874567Y53086142D01*
X6745049Y53244947D01*
X6587153Y53375570D01*
X6406891Y53473037D01*
X6211132Y53533635D01*
X6007330Y53555055D01*
X5803250Y53536483D01*
X5606663Y53478624D01*
X5425059Y53383684D01*
X5265353Y53255277D01*
X5133631Y53098296D01*
X5034908Y52918720D01*
X4972945Y52723388D01*
X4950102Y52519741D01*
X4950000Y52505081D01*
X4550000Y52505081D01*
X4530003Y52709027D01*
X4470773Y52905205D01*
X4374567Y53086142D01*
X4245049Y53244947D01*
X4087153Y53375570D01*
X3906891Y53473037D01*
X3711132Y53533635D01*
X3507330Y53555055D01*
X3303250Y53536483D01*
X3106663Y53478624D01*
X2925059Y53383684D01*
X2765353Y53255277D01*
X2633631Y53098296D01*
X2534908Y52918720D01*
X2472945Y52723388D01*
X2450102Y52519741D01*
X2450000Y52505081D01*
X403321Y52505081D01*
X403321Y53828028D01*
X7924464Y53828028D01*
X7944806Y53604511D01*
X8008175Y53389202D01*
X8112157Y53190302D01*
X8252792Y53015387D01*
X8424724Y52871119D01*
X8621403Y52762994D01*
X8835338Y52695130D01*
X9058379Y52670112D01*
X9074436Y52670000D01*
X9085564Y52670000D01*
X9308934Y52691902D01*
X9523795Y52756772D01*
X9721964Y52862141D01*
X9895893Y53003994D01*
X10038957Y53176928D01*
X10145707Y53374357D01*
X10212076Y53588760D01*
X10235536Y53811972D01*
X10234075Y53828028D01*
X15544464Y53828028D01*
X15564806Y53604511D01*
X15628175Y53389202D01*
X15732157Y53190302D01*
X15872792Y53015387D01*
X16044724Y52871119D01*
X16241403Y52762994D01*
X16455338Y52695130D01*
X16678379Y52670112D01*
X16694436Y52670000D01*
X16705564Y52670000D01*
X16928934Y52691902D01*
X17143795Y52756772D01*
X17341964Y52862141D01*
X17515893Y53003994D01*
X17658957Y53176928D01*
X17765707Y53374357D01*
X17832076Y53588760D01*
X17855536Y53811972D01*
X17835194Y54035489D01*
X17771825Y54250798D01*
X17667843Y54449698D01*
X17527208Y54624613D01*
X17355276Y54768881D01*
X17158597Y54877006D01*
X16944662Y54944870D01*
X16721621Y54969888D01*
X16705564Y54970000D01*
X16694436Y54970000D01*
X16471066Y54948098D01*
X16256205Y54883228D01*
X16058036Y54777859D01*
X15884107Y54636006D01*
X15741043Y54463072D01*
X15634293Y54265643D01*
X15567924Y54051240D01*
X15544464Y53828028D01*
X10234075Y53828028D01*
X10215194Y54035489D01*
X10151825Y54250798D01*
X10047843Y54449698D01*
X9907208Y54624613D01*
X9735276Y54768881D01*
X9538597Y54877006D01*
X9324662Y54944870D01*
X9101621Y54969888D01*
X9085564Y54970000D01*
X9074436Y54970000D01*
X8851066Y54948098D01*
X8636205Y54883228D01*
X8438036Y54777859D01*
X8264107Y54636006D01*
X8121043Y54463072D01*
X8014293Y54265643D01*
X7947924Y54051240D01*
X7924464Y53828028D01*
X403321Y53828028D01*
X403321Y61475081D01*
X27200000Y61475081D01*
X27200000Y61464919D01*
X27219997Y61260973D01*
X27279227Y61064795D01*
X27375433Y60883858D01*
X27504951Y60725053D01*
X27662847Y60594430D01*
X27843109Y60496963D01*
X28038868Y60436365D01*
X28242670Y60414945D01*
X28446750Y60433517D01*
X28643337Y60491376D01*
X28824941Y60586316D01*
X28984647Y60714723D01*
X29116369Y60871704D01*
X29215092Y61051280D01*
X29277055Y61246612D01*
X29299898Y61450259D01*
X29300000Y61464919D01*
X29300000Y61475081D01*
X29280003Y61679027D01*
X29220773Y61875205D01*
X29124567Y62056142D01*
X28995049Y62214947D01*
X28837153Y62345570D01*
X28656891Y62443037D01*
X28461132Y62503635D01*
X28257330Y62525055D01*
X28053250Y62506483D01*
X27856663Y62448624D01*
X27675059Y62353684D01*
X27515353Y62225277D01*
X27383631Y62068296D01*
X27284908Y61888720D01*
X27222945Y61693388D01*
X27200102Y61489741D01*
X27200000Y61475081D01*
X403321Y61475081D01*
X403321Y72403305D01*
X25228489Y72403305D01*
X25269201Y72181483D01*
X25352222Y71971794D01*
X25474392Y71782224D01*
X25631056Y71619994D01*
X25816247Y71491283D01*
X25905000Y71452507D01*
X25905000Y66120000D01*
X25909284Y66076309D01*
X25913106Y66032623D01*
X25913802Y66030227D01*
X25914046Y66027739D01*
X25926738Y65985703D01*
X25938970Y65943600D01*
X25940119Y65941383D01*
X25940841Y65938992D01*
X25961453Y65900226D01*
X25981632Y65861296D01*
X25983188Y65859346D01*
X25984362Y65857139D01*
X26012078Y65823156D01*
X26039467Y65788846D01*
X26042901Y65785364D01*
X26042954Y65785299D01*
X26043015Y65785249D01*
X26044124Y65784124D01*
X38414124Y53414124D01*
X38448064Y53386245D01*
X38481641Y53358071D01*
X38483826Y53356870D01*
X38485759Y53355282D01*
X38524443Y53334541D01*
X38562878Y53313411D01*
X38565261Y53312655D01*
X38567460Y53311476D01*
X38609404Y53298652D01*
X38651242Y53285380D01*
X38653723Y53285102D01*
X38656113Y53284371D01*
X38699759Y53279938D01*
X38743368Y53275046D01*
X38748252Y53275012D01*
X38748342Y53275003D01*
X38748426Y53275011D01*
X38750000Y53275000D01*
X43805057Y53275000D01*
X43826684Y53252605D01*
X43931357Y53179855D01*
X44048167Y53128822D01*
X44172665Y53101450D01*
X44300109Y53098780D01*
X44425644Y53120915D01*
X44544488Y53167012D01*
X44652116Y53235315D01*
X44744428Y53323222D01*
X44817906Y53427384D01*
X44869754Y53543835D01*
X44897995Y53668139D01*
X44900028Y53813736D01*
X44875268Y53938780D01*
X44826693Y54056633D01*
X44756151Y54162807D01*
X44666330Y54253257D01*
X44560652Y54324538D01*
X44443140Y54373935D01*
X44318272Y54399567D01*
X44190804Y54400457D01*
X44065590Y54376571D01*
X43947401Y54328819D01*
X43840737Y54259021D01*
X43805996Y54225000D01*
X38946752Y54225000D01*
X31805084Y61366668D01*
X34638541Y61366668D01*
X34677837Y61152562D01*
X34757971Y60950166D01*
X34875891Y60767190D01*
X35027106Y60610602D01*
X35205855Y60486368D01*
X35405331Y60399219D01*
X35617936Y60352475D01*
X35835570Y60347916D01*
X36049945Y60385716D01*
X36252896Y60464436D01*
X36436691Y60581076D01*
X36594330Y60731194D01*
X36719809Y60909072D01*
X36808349Y61107934D01*
X36856576Y61320207D01*
X36860048Y61568841D01*
X36817766Y61782378D01*
X36734814Y61983635D01*
X36614351Y62164947D01*
X36460964Y62319408D01*
X36280497Y62441135D01*
X36079824Y62525490D01*
X35866588Y62569261D01*
X35648911Y62570781D01*
X35435085Y62529991D01*
X35233253Y62448446D01*
X35051104Y62329251D01*
X34895576Y62176947D01*
X34772593Y61997334D01*
X34686839Y61797255D01*
X34641580Y61584329D01*
X34638541Y61366668D01*
X31805084Y61366668D01*
X29265084Y63906668D01*
X34638541Y63906668D01*
X34677837Y63692562D01*
X34757971Y63490166D01*
X34875891Y63307190D01*
X35027106Y63150602D01*
X35205855Y63026368D01*
X35405331Y62939219D01*
X35617936Y62892475D01*
X35835570Y62887916D01*
X36049945Y62925716D01*
X36252896Y63004436D01*
X36436691Y63121076D01*
X36594330Y63271194D01*
X36719809Y63449072D01*
X36808349Y63647934D01*
X36808818Y63650000D01*
X42998307Y63650000D01*
X42998307Y61850000D01*
X43002752Y61794264D01*
X43032027Y61699729D01*
X43086480Y61617094D01*
X43161800Y61552900D01*
X43252021Y61512231D01*
X43350000Y61498307D01*
X45150000Y61498307D01*
X45205736Y61502752D01*
X45300271Y61532027D01*
X45382906Y61586480D01*
X45447100Y61661800D01*
X45487769Y61752021D01*
X45501693Y61850000D01*
X45501693Y63650000D01*
X45497248Y63705736D01*
X45467973Y63800271D01*
X45413520Y63882906D01*
X45338200Y63947100D01*
X45247979Y63987769D01*
X45150000Y64001693D01*
X43350000Y64001693D01*
X43294264Y63997248D01*
X43199729Y63967973D01*
X43117094Y63913520D01*
X43052900Y63838200D01*
X43012231Y63747979D01*
X42998307Y63650000D01*
X36808818Y63650000D01*
X36856576Y63860207D01*
X36860048Y64108841D01*
X36817766Y64322378D01*
X36734814Y64523635D01*
X36614351Y64704947D01*
X36460964Y64859408D01*
X36280497Y64981135D01*
X36079824Y65065490D01*
X35866588Y65109261D01*
X35648911Y65110781D01*
X35435085Y65069991D01*
X35233253Y64988446D01*
X35051104Y64869251D01*
X34895576Y64716947D01*
X34772593Y64537334D01*
X34686839Y64337255D01*
X34641580Y64124329D01*
X34638541Y63906668D01*
X29265084Y63906668D01*
X26855000Y66316752D01*
X26855000Y66461713D01*
X27198619Y66461713D01*
X27235791Y66259180D01*
X27311594Y66067725D01*
X27423140Y65894639D01*
X27566181Y65746515D01*
X27735269Y65628997D01*
X27923962Y65546558D01*
X28125074Y65502341D01*
X28330945Y65498029D01*
X28533732Y65533785D01*
X28725712Y65608250D01*
X28899573Y65718585D01*
X29048691Y65860588D01*
X29167388Y66028851D01*
X29251141Y66216965D01*
X29296761Y66417763D01*
X29297420Y66464995D01*
X34690000Y66464995D01*
X34690000Y65750452D01*
X34701529Y65692493D01*
X34724144Y65637896D01*
X34756975Y65588761D01*
X34798761Y65546975D01*
X34847897Y65514143D01*
X34902494Y65491529D01*
X34960453Y65480000D01*
X35674995Y65480000D01*
X35749995Y65555000D01*
X35749995Y66539995D01*
X35750005Y66539995D01*
X35750005Y65555000D01*
X35825005Y65480000D01*
X36539547Y65480000D01*
X36597506Y65491529D01*
X36652103Y65514143D01*
X36701239Y65546975D01*
X36743025Y65588761D01*
X36775856Y65637896D01*
X36798471Y65692493D01*
X36810000Y65750452D01*
X36810000Y66464995D01*
X36735000Y66539995D01*
X35750005Y66539995D01*
X35749995Y66539995D01*
X34765000Y66539995D01*
X34690000Y66464995D01*
X29297420Y66464995D01*
X29300046Y66652958D01*
X29260050Y66854952D01*
X29181581Y67045331D01*
X29067629Y67216842D01*
X28955708Y67329548D01*
X34690000Y67329548D01*
X34690000Y66615005D01*
X34765000Y66540005D01*
X35749995Y66540005D01*
X35749995Y67525000D01*
X35750005Y67525000D01*
X35750005Y66540005D01*
X36735000Y66540005D01*
X36810000Y66615005D01*
X36810000Y67329548D01*
X36798471Y67387507D01*
X36775856Y67442104D01*
X36743025Y67491239D01*
X36701239Y67533025D01*
X36652103Y67565857D01*
X36597506Y67588471D01*
X36539547Y67600000D01*
X35825005Y67600000D01*
X35750005Y67525000D01*
X35749995Y67525000D01*
X35674995Y67600000D01*
X34960453Y67600000D01*
X34902494Y67588471D01*
X34847897Y67565857D01*
X34798761Y67533025D01*
X34756975Y67491239D01*
X34724144Y67442104D01*
X34701529Y67387507D01*
X34690000Y67329548D01*
X28955708Y67329548D01*
X28922534Y67362954D01*
X28751822Y67478100D01*
X28561996Y67557896D01*
X28360286Y67599301D01*
X28154375Y67600739D01*
X27952107Y67562154D01*
X27761185Y67485017D01*
X27588882Y67372265D01*
X27441761Y67228193D01*
X27325425Y67058289D01*
X27244307Y66869025D01*
X27201494Y66667609D01*
X27198619Y66461713D01*
X26855000Y66461713D01*
X26855000Y71450711D01*
X26901018Y71468560D01*
X27091436Y71589403D01*
X27254756Y71744931D01*
X27384757Y71929219D01*
X27476487Y72135247D01*
X27526452Y72355169D01*
X27530049Y72612763D01*
X27486244Y72833995D01*
X27400302Y73042504D01*
X27275498Y73230350D01*
X27116584Y73390377D01*
X26929614Y73516490D01*
X26721710Y73603885D01*
X26500789Y73649234D01*
X26275268Y73650808D01*
X26053736Y73608549D01*
X25844632Y73524065D01*
X25655919Y73400575D01*
X25494787Y73242782D01*
X25367372Y73056697D01*
X25278527Y72849408D01*
X25231638Y72628809D01*
X25228489Y72403305D01*
X403321Y72403305D01*
X403321Y76403305D01*
X25228489Y76403305D01*
X25269201Y76181483D01*
X25352222Y75971794D01*
X25474392Y75782224D01*
X25631056Y75619994D01*
X25816247Y75491283D01*
X26022911Y75400993D01*
X26243177Y75352565D01*
X26468654Y75347842D01*
X26690754Y75387004D01*
X26784776Y75423473D01*
X34044124Y68164125D01*
X34078008Y68136292D01*
X34111641Y68108071D01*
X34113830Y68106868D01*
X34115759Y68105283D01*
X34154423Y68084552D01*
X34192878Y68063411D01*
X34195259Y68062656D01*
X34197459Y68061476D01*
X34239431Y68048643D01*
X34281242Y68035380D01*
X34283722Y68035102D01*
X34286112Y68034371D01*
X34329768Y68029937D01*
X34373368Y68025046D01*
X34378251Y68025012D01*
X34378341Y68025003D01*
X34378425Y68025011D01*
X34380000Y68025000D01*
X40843248Y68025000D01*
X43096462Y65771786D01*
X43052747Y65669791D01*
X43001780Y65430010D01*
X42998357Y65184897D01*
X43042609Y64943786D01*
X43132850Y64715863D01*
X43265643Y64509809D01*
X43435930Y64333471D01*
X43637225Y64193568D01*
X43861860Y64095427D01*
X44101279Y64042788D01*
X44346363Y64037654D01*
X44587776Y64080222D01*
X44816324Y64168869D01*
X45023300Y64300221D01*
X45200822Y64469272D01*
X45342127Y64669585D01*
X45441834Y64893530D01*
X45496144Y65132575D01*
X45500053Y65412569D01*
X45452439Y65653038D01*
X45359025Y65879679D01*
X45223367Y66083859D01*
X45050635Y66257802D01*
X44847407Y66394881D01*
X44621424Y66489875D01*
X44381293Y66539167D01*
X44136161Y66540879D01*
X43895366Y66494944D01*
X43768190Y66443562D01*
X41375876Y68835876D01*
X41341936Y68863755D01*
X41308359Y68891929D01*
X41306174Y68893130D01*
X41304241Y68894718D01*
X41265557Y68915459D01*
X41227122Y68936589D01*
X41224739Y68937345D01*
X41222540Y68938524D01*
X41180583Y68951352D01*
X41138758Y68964620D01*
X41136278Y68964898D01*
X41133888Y68965629D01*
X41090236Y68970063D01*
X41046632Y68974954D01*
X41041748Y68974988D01*
X41041658Y68974997D01*
X41041574Y68974989D01*
X41040000Y68975000D01*
X34576751Y68975000D01*
X31043724Y72508028D01*
X32844464Y72508028D01*
X32864806Y72284511D01*
X32928175Y72069202D01*
X33032157Y71870302D01*
X33172792Y71695387D01*
X33344724Y71551119D01*
X33541403Y71442994D01*
X33755338Y71375130D01*
X33978379Y71350112D01*
X33994436Y71350000D01*
X34005564Y71350000D01*
X34228934Y71371902D01*
X34443795Y71436772D01*
X34641964Y71542141D01*
X34815893Y71683994D01*
X34958957Y71856928D01*
X35065707Y72054357D01*
X35132076Y72268760D01*
X35155536Y72491972D01*
X35154075Y72508028D01*
X39224464Y72508028D01*
X39244806Y72284511D01*
X39308175Y72069202D01*
X39412157Y71870302D01*
X39552792Y71695387D01*
X39724724Y71551119D01*
X39921403Y71442994D01*
X40135338Y71375130D01*
X40358379Y71350112D01*
X40374436Y71350000D01*
X40385564Y71350000D01*
X40608934Y71371902D01*
X40823795Y71436772D01*
X41021964Y71542141D01*
X41195893Y71683994D01*
X41338957Y71856928D01*
X41445707Y72054357D01*
X41512076Y72268760D01*
X41526216Y72403305D01*
X46848489Y72403305D01*
X46889201Y72181483D01*
X46972222Y71971794D01*
X47094392Y71782224D01*
X47251056Y71619994D01*
X47436247Y71491283D01*
X47642911Y71400993D01*
X47863177Y71352565D01*
X48088654Y71347842D01*
X48310754Y71387004D01*
X48521018Y71468560D01*
X48711436Y71589403D01*
X48874756Y71744931D01*
X49004757Y71929219D01*
X49096487Y72135247D01*
X49146452Y72355169D01*
X49150049Y72612763D01*
X49106244Y72833995D01*
X49020302Y73042504D01*
X48895498Y73230350D01*
X48736584Y73390377D01*
X48549614Y73516490D01*
X48341710Y73603885D01*
X48120789Y73649234D01*
X47895268Y73650808D01*
X47673736Y73608549D01*
X47464632Y73524065D01*
X47275919Y73400575D01*
X47114787Y73242782D01*
X46987372Y73056697D01*
X46898527Y72849408D01*
X46851638Y72628809D01*
X46848489Y72403305D01*
X41526216Y72403305D01*
X41535536Y72491972D01*
X41515194Y72715489D01*
X41451825Y72930798D01*
X41347843Y73129698D01*
X41207208Y73304613D01*
X41035276Y73448881D01*
X40838597Y73557006D01*
X40624662Y73624870D01*
X40401621Y73649888D01*
X40385564Y73650000D01*
X40374436Y73650000D01*
X40151066Y73628098D01*
X39936205Y73563228D01*
X39738036Y73457859D01*
X39564107Y73316006D01*
X39421043Y73143072D01*
X39314293Y72945643D01*
X39247924Y72731240D01*
X39224464Y72508028D01*
X35154075Y72508028D01*
X35135194Y72715489D01*
X35071825Y72930798D01*
X34967843Y73129698D01*
X34827208Y73304613D01*
X34655276Y73448881D01*
X34458597Y73557006D01*
X34244662Y73624870D01*
X34021621Y73649888D01*
X34005564Y73650000D01*
X33994436Y73650000D01*
X33771066Y73628098D01*
X33556205Y73563228D01*
X33358036Y73457859D01*
X33184107Y73316006D01*
X33041043Y73143072D01*
X32934293Y72945643D01*
X32867924Y72731240D01*
X32844464Y72508028D01*
X31043724Y72508028D01*
X27458008Y76093744D01*
X27476487Y76135247D01*
X27526452Y76355169D01*
X27528586Y76508028D01*
X32844464Y76508028D01*
X32864806Y76284511D01*
X32928175Y76069202D01*
X33032157Y75870302D01*
X33172792Y75695387D01*
X33344724Y75551119D01*
X33541403Y75442994D01*
X33755338Y75375130D01*
X33978379Y75350112D01*
X33994436Y75350000D01*
X34005564Y75350000D01*
X34228934Y75371902D01*
X34443795Y75436772D01*
X34641964Y75542141D01*
X34815893Y75683994D01*
X34958957Y75856928D01*
X35065707Y76054357D01*
X35132076Y76268760D01*
X35155536Y76491972D01*
X35154075Y76508028D01*
X39224464Y76508028D01*
X39244806Y76284511D01*
X39308175Y76069202D01*
X39412157Y75870302D01*
X39552792Y75695387D01*
X39724724Y75551119D01*
X39921403Y75442994D01*
X40135338Y75375130D01*
X40358379Y75350112D01*
X40374436Y75350000D01*
X40385564Y75350000D01*
X40608934Y75371902D01*
X40823795Y75436772D01*
X41021964Y75542141D01*
X41195893Y75683994D01*
X41338957Y75856928D01*
X41445707Y76054357D01*
X41512076Y76268760D01*
X41526216Y76403305D01*
X46848489Y76403305D01*
X46889201Y76181483D01*
X46972222Y75971794D01*
X47094392Y75782224D01*
X47251056Y75619994D01*
X47436247Y75491283D01*
X47642911Y75400993D01*
X47863177Y75352565D01*
X48088654Y75347842D01*
X48310754Y75387004D01*
X48521018Y75468560D01*
X48711436Y75589403D01*
X48874756Y75744931D01*
X49004757Y75929219D01*
X49096487Y76135247D01*
X49146452Y76355169D01*
X49150049Y76612763D01*
X49106244Y76833995D01*
X49020302Y77042504D01*
X48895498Y77230350D01*
X48736584Y77390377D01*
X48549614Y77516490D01*
X48341710Y77603885D01*
X48120789Y77649234D01*
X47895268Y77650808D01*
X47673736Y77608549D01*
X47464632Y77524065D01*
X47275919Y77400575D01*
X47114787Y77242782D01*
X46987372Y77056697D01*
X46898527Y76849408D01*
X46851638Y76628809D01*
X46848489Y76403305D01*
X41526216Y76403305D01*
X41535536Y76491972D01*
X41515194Y76715489D01*
X41451825Y76930798D01*
X41347843Y77129698D01*
X41207208Y77304613D01*
X41035276Y77448881D01*
X40838597Y77557006D01*
X40624662Y77624870D01*
X40401621Y77649888D01*
X40385564Y77650000D01*
X40374436Y77650000D01*
X40151066Y77628098D01*
X39936205Y77563228D01*
X39738036Y77457859D01*
X39564107Y77316006D01*
X39421043Y77143072D01*
X39314293Y76945643D01*
X39247924Y76731240D01*
X39224464Y76508028D01*
X35154075Y76508028D01*
X35135194Y76715489D01*
X35071825Y76930798D01*
X34967843Y77129698D01*
X34827208Y77304613D01*
X34655276Y77448881D01*
X34458597Y77557006D01*
X34244662Y77624870D01*
X34021621Y77649888D01*
X34005564Y77650000D01*
X33994436Y77650000D01*
X33771066Y77628098D01*
X33556205Y77563228D01*
X33358036Y77457859D01*
X33184107Y77316006D01*
X33041043Y77143072D01*
X32934293Y76945643D01*
X32867924Y76731240D01*
X32844464Y76508028D01*
X27528586Y76508028D01*
X27530049Y76612763D01*
X27486244Y76833995D01*
X27400302Y77042504D01*
X27275498Y77230350D01*
X27116584Y77390377D01*
X26929614Y77516490D01*
X26721710Y77603885D01*
X26500789Y77649234D01*
X26275268Y77650808D01*
X26053736Y77608549D01*
X25844632Y77524065D01*
X25655919Y77400575D01*
X25494787Y77242782D01*
X25367372Y77056697D01*
X25278527Y76849408D01*
X25231638Y76628809D01*
X25228489Y76403305D01*
X403321Y76403305D01*
X403321Y80403305D01*
X25228489Y80403305D01*
X25269201Y80181483D01*
X25352222Y79971794D01*
X25474392Y79782224D01*
X25631056Y79619994D01*
X25816247Y79491283D01*
X26022911Y79400993D01*
X26243177Y79352565D01*
X26468654Y79347842D01*
X26690754Y79387004D01*
X26901018Y79468560D01*
X27091436Y79589403D01*
X27254756Y79744931D01*
X27384757Y79929219D01*
X27476487Y80135247D01*
X27526452Y80355169D01*
X27528586Y80508028D01*
X32844464Y80508028D01*
X32864806Y80284511D01*
X32928175Y80069202D01*
X33032157Y79870302D01*
X33172792Y79695387D01*
X33344724Y79551119D01*
X33541403Y79442994D01*
X33755338Y79375130D01*
X33978379Y79350112D01*
X33994436Y79350000D01*
X34005564Y79350000D01*
X34228934Y79371902D01*
X34443795Y79436772D01*
X34641964Y79542141D01*
X34815893Y79683994D01*
X34958957Y79856928D01*
X35065707Y80054357D01*
X35132076Y80268760D01*
X35155536Y80491972D01*
X35135194Y80715489D01*
X35071825Y80930798D01*
X34967843Y81129698D01*
X34827208Y81304613D01*
X34655276Y81448881D01*
X34458597Y81557006D01*
X34244662Y81624870D01*
X34021621Y81649888D01*
X34005564Y81650000D01*
X33994436Y81650000D01*
X33771066Y81628098D01*
X33556205Y81563228D01*
X33358036Y81457859D01*
X33184107Y81316006D01*
X33041043Y81143072D01*
X32934293Y80945643D01*
X32867924Y80731240D01*
X32844464Y80508028D01*
X27528586Y80508028D01*
X27530049Y80612763D01*
X27486244Y80833995D01*
X27400302Y81042504D01*
X27275498Y81230350D01*
X27116584Y81390377D01*
X26929614Y81516490D01*
X26721710Y81603885D01*
X26500789Y81649234D01*
X26275268Y81650808D01*
X26053736Y81608549D01*
X25844632Y81524065D01*
X25655919Y81400575D01*
X25494787Y81242782D01*
X25367372Y81056697D01*
X25278527Y80849408D01*
X25231638Y80628809D01*
X25228489Y80403305D01*
X403321Y80403305D01*
X403321Y81924995D01*
X43050000Y81924995D01*
X43050000Y81070453D01*
X43061529Y81012494D01*
X43084143Y80957897D01*
X43116975Y80908761D01*
X43158761Y80866975D01*
X43207896Y80834144D01*
X43262493Y80811529D01*
X43320452Y80800000D01*
X44174995Y80800000D01*
X44249995Y80875000D01*
X44249995Y81999995D01*
X44250005Y81999995D01*
X44250005Y80875000D01*
X44325005Y80800000D01*
X45179548Y80800000D01*
X45237507Y80811529D01*
X45292104Y80834144D01*
X45341239Y80866975D01*
X45383025Y80908761D01*
X45415857Y80957897D01*
X45438471Y81012494D01*
X45450000Y81070453D01*
X45450000Y81924995D01*
X45375000Y81999995D01*
X44250005Y81999995D01*
X44249995Y81999995D01*
X43125000Y81999995D01*
X43050000Y81924995D01*
X403321Y81924995D01*
X403321Y82929547D01*
X43050000Y82929547D01*
X43050000Y82075005D01*
X43125000Y82000005D01*
X44249995Y82000005D01*
X44249995Y83125000D01*
X44250005Y83125000D01*
X44250005Y82000005D01*
X45375000Y82000005D01*
X45450000Y82075005D01*
X45450000Y82929547D01*
X45438471Y82987506D01*
X45415857Y83042103D01*
X45383025Y83091239D01*
X45341239Y83133025D01*
X45292104Y83165856D01*
X45237507Y83188471D01*
X45179548Y83200000D01*
X44325005Y83200000D01*
X44250005Y83125000D01*
X44249995Y83125000D01*
X44174995Y83200000D01*
X43320452Y83200000D01*
X43262493Y83188471D01*
X43207896Y83165856D01*
X43158761Y83133025D01*
X43116975Y83091239D01*
X43084143Y83042103D01*
X43061529Y82987506D01*
X43050000Y82929547D01*
X403321Y82929547D01*
X403321Y85600000D01*
X24928307Y85600000D01*
X24928307Y83400000D01*
X24932752Y83344264D01*
X24962027Y83249729D01*
X25016480Y83167094D01*
X25091800Y83102900D01*
X25182021Y83062231D01*
X25280000Y83048307D01*
X27480000Y83048307D01*
X27535736Y83052752D01*
X27630271Y83082027D01*
X27712906Y83136480D01*
X27777100Y83211800D01*
X27817769Y83302021D01*
X27831693Y83400000D01*
X27831693Y84510123D01*
X32543019Y84510123D01*
X32568667Y84228297D01*
X32648567Y83956820D01*
X32779676Y83706033D01*
X32956999Y83485488D01*
X33173782Y83303585D01*
X33421768Y83167254D01*
X33691512Y83081686D01*
X33972739Y83050141D01*
X33992984Y83050000D01*
X34007016Y83050000D01*
X34288656Y83077615D01*
X34559568Y83159408D01*
X34809434Y83292264D01*
X35028736Y83471122D01*
X35209120Y83689170D01*
X35343718Y83938102D01*
X35427400Y84208437D01*
X35451202Y84434897D01*
X42998357Y84434897D01*
X43042609Y84193786D01*
X43132850Y83965863D01*
X43265643Y83759809D01*
X43435930Y83583471D01*
X43637225Y83443568D01*
X43861860Y83345427D01*
X44101279Y83292788D01*
X44346363Y83287654D01*
X44587776Y83330222D01*
X44816324Y83418869D01*
X45023300Y83550221D01*
X45200822Y83719272D01*
X45342127Y83919585D01*
X45441834Y84143530D01*
X45496144Y84382575D01*
X45500053Y84662569D01*
X45452439Y84903038D01*
X45359025Y85129679D01*
X45223367Y85333859D01*
X45050635Y85507802D01*
X44847407Y85644881D01*
X44621424Y85739875D01*
X44381293Y85789167D01*
X44136161Y85790879D01*
X43895366Y85744944D01*
X43668078Y85653114D01*
X43462956Y85518886D01*
X43287811Y85347372D01*
X43149317Y85145106D01*
X43052747Y84919791D01*
X43001780Y84680010D01*
X42998357Y84434897D01*
X35451202Y84434897D01*
X35456981Y84489877D01*
X35431333Y84771703D01*
X35351433Y85043180D01*
X35220324Y85293967D01*
X35043001Y85514512D01*
X34826218Y85696415D01*
X34578232Y85832746D01*
X34308488Y85918314D01*
X34027261Y85949859D01*
X34007016Y85950000D01*
X33992984Y85950000D01*
X33711344Y85922385D01*
X33440432Y85840592D01*
X33190566Y85707736D01*
X32971264Y85528878D01*
X32790880Y85310830D01*
X32656282Y85061898D01*
X32572600Y84791563D01*
X32543019Y84510123D01*
X27831693Y84510123D01*
X27831693Y85600000D01*
X27827248Y85655736D01*
X27797973Y85750271D01*
X27743520Y85832906D01*
X27668200Y85897100D01*
X27577979Y85937769D01*
X27480000Y85951693D01*
X25280000Y85951693D01*
X25224264Y85947248D01*
X25129729Y85917973D01*
X25047094Y85863520D01*
X24982900Y85788200D01*
X24942231Y85697979D01*
X24928307Y85600000D01*
X403321Y85600000D01*
X403321Y89978637D01*
X599788Y91939093D01*
X1157274Y93742519D01*
X2039936Y95372722D01*
X3209973Y96791976D01*
X4629227Y97962010D01*
X6259431Y98844673D01*
X8062859Y99402160D01*
X10023317Y99598626D01*
X39983325Y99598626D01*
X41943783Y99402160D01*
M02*
